G04 #@! TF.GenerationSoftware,KiCad,Pcbnew,5.1.9-73d0e3b20d~88~ubuntu18.04.1*
G04 #@! TF.CreationDate,2021-02-11T00:16:01-06:00*
G04 #@! TF.ProjectId,plate,706c6174-652e-46b6-9963-61645f706362,rev?*
G04 #@! TF.SameCoordinates,Original*
G04 #@! TF.FileFunction,Legend,Top*
G04 #@! TF.FilePolarity,Positive*
%FSLAX46Y46*%
G04 Gerber Fmt 4.6, Leading zero omitted, Abs format (unit mm)*
G04 Created by KiCad (PCBNEW 5.1.9-73d0e3b20d~88~ubuntu18.04.1) date 2021-02-11 00:16:01*
%MOMM*%
%LPD*%
G01*
G04 APERTURE LIST*
%ADD10C,0.010000*%
G04 APERTURE END LIST*
D10*
G36*
X59843776Y-50562991D02*
G01*
X60231390Y-50764246D01*
X60427452Y-50892122D01*
X60536285Y-50929762D01*
X60610772Y-50882024D01*
X60668040Y-50804340D01*
X60858766Y-50661936D01*
X61021951Y-50630667D01*
X61286943Y-50688976D01*
X61429282Y-50849374D01*
X61441757Y-51090067D01*
X61317157Y-51389261D01*
X61288084Y-51435000D01*
X61232873Y-51529802D01*
X61191189Y-51641004D01*
X61161143Y-51792389D01*
X61140845Y-52007737D01*
X61128406Y-52310831D01*
X61121937Y-52725453D01*
X61119550Y-53275382D01*
X61119308Y-53559711D01*
X61118075Y-54174192D01*
X61113646Y-54641605D01*
X61104298Y-54984206D01*
X61088314Y-55224256D01*
X61063972Y-55384012D01*
X61029553Y-55485731D01*
X60983336Y-55551673D01*
X60963917Y-55570545D01*
X60755037Y-55676698D01*
X60497610Y-55706609D01*
X60271674Y-55656219D01*
X60204350Y-55609067D01*
X60150130Y-55464333D01*
X60115622Y-55168534D01*
X60102788Y-54739006D01*
X60102750Y-54711008D01*
X60100158Y-54341140D01*
X60088541Y-54112209D01*
X60062138Y-53995851D01*
X60015189Y-53963702D01*
X59954584Y-53981507D01*
X59787303Y-54026384D01*
X59524240Y-54066865D01*
X59358080Y-54083290D01*
X58877416Y-54047090D01*
X58408847Y-53881825D01*
X58004512Y-53611874D01*
X57762582Y-53337303D01*
X57576815Y-52924353D01*
X57491578Y-52436312D01*
X57497446Y-52300114D01*
X58494215Y-52300114D01*
X58559446Y-52655324D01*
X58732797Y-52965718D01*
X58981357Y-53179515D01*
X59080123Y-53221971D01*
X59402322Y-53268234D01*
X59748424Y-53232555D01*
X60008097Y-53134505D01*
X60057269Y-53019978D01*
X60089952Y-52764594D01*
X60102694Y-52396326D01*
X60102750Y-52367482D01*
X60099022Y-52016090D01*
X60080610Y-51791016D01*
X60036668Y-51649288D01*
X59956352Y-51547936D01*
X59879665Y-51483479D01*
X59585163Y-51345370D01*
X59236632Y-51312653D01*
X58918022Y-51392561D01*
X58904683Y-51399482D01*
X58736597Y-51564847D01*
X58594331Y-51834392D01*
X58507558Y-52143007D01*
X58494215Y-52300114D01*
X57497446Y-52300114D01*
X57513020Y-51938682D01*
X57600034Y-51605773D01*
X57848049Y-51180927D01*
X58220417Y-50833258D01*
X58678122Y-50595400D01*
X58876268Y-50538334D01*
X59392032Y-50480588D01*
X59843776Y-50562991D01*
G37*
X59843776Y-50562991D02*
X60231390Y-50764246D01*
X60427452Y-50892122D01*
X60536285Y-50929762D01*
X60610772Y-50882024D01*
X60668040Y-50804340D01*
X60858766Y-50661936D01*
X61021951Y-50630667D01*
X61286943Y-50688976D01*
X61429282Y-50849374D01*
X61441757Y-51090067D01*
X61317157Y-51389261D01*
X61288084Y-51435000D01*
X61232873Y-51529802D01*
X61191189Y-51641004D01*
X61161143Y-51792389D01*
X61140845Y-52007737D01*
X61128406Y-52310831D01*
X61121937Y-52725453D01*
X61119550Y-53275382D01*
X61119308Y-53559711D01*
X61118075Y-54174192D01*
X61113646Y-54641605D01*
X61104298Y-54984206D01*
X61088314Y-55224256D01*
X61063972Y-55384012D01*
X61029553Y-55485731D01*
X60983336Y-55551673D01*
X60963917Y-55570545D01*
X60755037Y-55676698D01*
X60497610Y-55706609D01*
X60271674Y-55656219D01*
X60204350Y-55609067D01*
X60150130Y-55464333D01*
X60115622Y-55168534D01*
X60102788Y-54739006D01*
X60102750Y-54711008D01*
X60100158Y-54341140D01*
X60088541Y-54112209D01*
X60062138Y-53995851D01*
X60015189Y-53963702D01*
X59954584Y-53981507D01*
X59787303Y-54026384D01*
X59524240Y-54066865D01*
X59358080Y-54083290D01*
X58877416Y-54047090D01*
X58408847Y-53881825D01*
X58004512Y-53611874D01*
X57762582Y-53337303D01*
X57576815Y-52924353D01*
X57491578Y-52436312D01*
X57497446Y-52300114D01*
X58494215Y-52300114D01*
X58559446Y-52655324D01*
X58732797Y-52965718D01*
X58981357Y-53179515D01*
X59080123Y-53221971D01*
X59402322Y-53268234D01*
X59748424Y-53232555D01*
X60008097Y-53134505D01*
X60057269Y-53019978D01*
X60089952Y-52764594D01*
X60102694Y-52396326D01*
X60102750Y-52367482D01*
X60099022Y-52016090D01*
X60080610Y-51791016D01*
X60036668Y-51649288D01*
X59956352Y-51547936D01*
X59879665Y-51483479D01*
X59585163Y-51345370D01*
X59236632Y-51312653D01*
X58918022Y-51392561D01*
X58904683Y-51399482D01*
X58736597Y-51564847D01*
X58594331Y-51834392D01*
X58507558Y-52143007D01*
X58494215Y-52300114D01*
X57497446Y-52300114D01*
X57513020Y-51938682D01*
X57600034Y-51605773D01*
X57848049Y-51180927D01*
X58220417Y-50833258D01*
X58678122Y-50595400D01*
X58876268Y-50538334D01*
X59392032Y-50480588D01*
X59843776Y-50562991D01*
G36*
X64888163Y-50556303D02*
G01*
X65001498Y-50619464D01*
X65050453Y-50698872D01*
X65088852Y-50878111D01*
X65118814Y-51176060D01*
X65142456Y-51611599D01*
X65156007Y-51996045D01*
X65175832Y-52468524D01*
X65204031Y-52898381D01*
X65237453Y-53248996D01*
X65272947Y-53483748D01*
X65289088Y-53542708D01*
X65338393Y-53731684D01*
X65282233Y-53860345D01*
X65188699Y-53944875D01*
X64967196Y-54078381D01*
X64773926Y-54068158D01*
X64560041Y-53910021D01*
X64538954Y-53889234D01*
X64388923Y-53754520D01*
X64291775Y-53733845D01*
X64190997Y-53811658D01*
X63872959Y-54016675D01*
X63484556Y-54092739D01*
X63072239Y-54033483D01*
X62939084Y-53983254D01*
X62652576Y-53818401D01*
X62438455Y-53596071D01*
X62288202Y-53293517D01*
X62193297Y-52887994D01*
X62145221Y-52356754D01*
X62134750Y-51835653D01*
X62139167Y-51341512D01*
X62158098Y-50991942D01*
X62200070Y-50762287D01*
X62273603Y-50627889D01*
X62387224Y-50564092D01*
X62549455Y-50546240D01*
X62580583Y-50546000D01*
X62804363Y-50555844D01*
X62960532Y-50602501D01*
X63061226Y-50711659D01*
X63118582Y-50909008D01*
X63144736Y-51220237D01*
X63151825Y-51671034D01*
X63151998Y-51755479D01*
X63161016Y-52296262D01*
X63191077Y-52689540D01*
X63248944Y-52956539D01*
X63341382Y-53118484D01*
X63475152Y-53196600D01*
X63616417Y-53213000D01*
X63788048Y-53186681D01*
X63912969Y-53093573D01*
X63997938Y-52912453D01*
X64049714Y-52622095D01*
X64075053Y-52201276D01*
X64080835Y-51754452D01*
X64082767Y-51319963D01*
X64091163Y-51022978D01*
X64111781Y-50831667D01*
X64150378Y-50714201D01*
X64212714Y-50638754D01*
X64293133Y-50580952D01*
X64577638Y-50489171D01*
X64888163Y-50556303D01*
G37*
X64888163Y-50556303D02*
X65001498Y-50619464D01*
X65050453Y-50698872D01*
X65088852Y-50878111D01*
X65118814Y-51176060D01*
X65142456Y-51611599D01*
X65156007Y-51996045D01*
X65175832Y-52468524D01*
X65204031Y-52898381D01*
X65237453Y-53248996D01*
X65272947Y-53483748D01*
X65289088Y-53542708D01*
X65338393Y-53731684D01*
X65282233Y-53860345D01*
X65188699Y-53944875D01*
X64967196Y-54078381D01*
X64773926Y-54068158D01*
X64560041Y-53910021D01*
X64538954Y-53889234D01*
X64388923Y-53754520D01*
X64291775Y-53733845D01*
X64190997Y-53811658D01*
X63872959Y-54016675D01*
X63484556Y-54092739D01*
X63072239Y-54033483D01*
X62939084Y-53983254D01*
X62652576Y-53818401D01*
X62438455Y-53596071D01*
X62288202Y-53293517D01*
X62193297Y-52887994D01*
X62145221Y-52356754D01*
X62134750Y-51835653D01*
X62139167Y-51341512D01*
X62158098Y-50991942D01*
X62200070Y-50762287D01*
X62273603Y-50627889D01*
X62387224Y-50564092D01*
X62549455Y-50546240D01*
X62580583Y-50546000D01*
X62804363Y-50555844D01*
X62960532Y-50602501D01*
X63061226Y-50711659D01*
X63118582Y-50909008D01*
X63144736Y-51220237D01*
X63151825Y-51671034D01*
X63151998Y-51755479D01*
X63161016Y-52296262D01*
X63191077Y-52689540D01*
X63248944Y-52956539D01*
X63341382Y-53118484D01*
X63475152Y-53196600D01*
X63616417Y-53213000D01*
X63788048Y-53186681D01*
X63912969Y-53093573D01*
X63997938Y-52912453D01*
X64049714Y-52622095D01*
X64075053Y-52201276D01*
X64080835Y-51754452D01*
X64082767Y-51319963D01*
X64091163Y-51022978D01*
X64111781Y-50831667D01*
X64150378Y-50714201D01*
X64212714Y-50638754D01*
X64293133Y-50580952D01*
X64577638Y-50489171D01*
X64888163Y-50556303D01*
G36*
X69217161Y-50423989D02*
G01*
X69371981Y-50577615D01*
X69419128Y-50838100D01*
X69422173Y-51096334D01*
X69609628Y-50874368D01*
X69908468Y-50605253D01*
X70252029Y-50479163D01*
X70492345Y-50461334D01*
X70896901Y-50536312D01*
X71214915Y-50749830D01*
X71426493Y-51084763D01*
X71491508Y-51321489D01*
X71486048Y-51713122D01*
X71339278Y-52035753D01*
X71072651Y-52267096D01*
X70707620Y-52384867D01*
X70460575Y-52392438D01*
X70212403Y-52367652D01*
X70086468Y-52316324D01*
X70035678Y-52210844D01*
X70024616Y-52136851D01*
X70033766Y-51969754D01*
X70138006Y-51858958D01*
X70289447Y-51785657D01*
X70495024Y-51683844D01*
X70624030Y-51590790D01*
X70633689Y-51578280D01*
X70653355Y-51414069D01*
X70559070Y-51270544D01*
X70429170Y-51223334D01*
X70230240Y-51303200D01*
X70044910Y-51523621D01*
X69884841Y-51855829D01*
X69761696Y-52271057D01*
X69687136Y-52740536D01*
X69670084Y-53095855D01*
X69656681Y-53531784D01*
X69608316Y-53825095D01*
X69512748Y-54000971D01*
X69357739Y-54084597D01*
X69181112Y-54102000D01*
X68943437Y-54076889D01*
X68773656Y-54015010D01*
X68755684Y-54000400D01*
X68701282Y-53858423D01*
X68665007Y-53575662D01*
X68650421Y-53180040D01*
X68650393Y-53174900D01*
X68640867Y-52754802D01*
X68618575Y-52251383D01*
X68587596Y-51749818D01*
X68573251Y-51563540D01*
X68541520Y-51090868D01*
X68542760Y-50761037D01*
X68584487Y-50549482D01*
X68674222Y-50431633D01*
X68819482Y-50382925D01*
X68936462Y-50376667D01*
X69217161Y-50423989D01*
G37*
X69217161Y-50423989D02*
X69371981Y-50577615D01*
X69419128Y-50838100D01*
X69422173Y-51096334D01*
X69609628Y-50874368D01*
X69908468Y-50605253D01*
X70252029Y-50479163D01*
X70492345Y-50461334D01*
X70896901Y-50536312D01*
X71214915Y-50749830D01*
X71426493Y-51084763D01*
X71491508Y-51321489D01*
X71486048Y-51713122D01*
X71339278Y-52035753D01*
X71072651Y-52267096D01*
X70707620Y-52384867D01*
X70460575Y-52392438D01*
X70212403Y-52367652D01*
X70086468Y-52316324D01*
X70035678Y-52210844D01*
X70024616Y-52136851D01*
X70033766Y-51969754D01*
X70138006Y-51858958D01*
X70289447Y-51785657D01*
X70495024Y-51683844D01*
X70624030Y-51590790D01*
X70633689Y-51578280D01*
X70653355Y-51414069D01*
X70559070Y-51270544D01*
X70429170Y-51223334D01*
X70230240Y-51303200D01*
X70044910Y-51523621D01*
X69884841Y-51855829D01*
X69761696Y-52271057D01*
X69687136Y-52740536D01*
X69670084Y-53095855D01*
X69656681Y-53531784D01*
X69608316Y-53825095D01*
X69512748Y-54000971D01*
X69357739Y-54084597D01*
X69181112Y-54102000D01*
X68943437Y-54076889D01*
X68773656Y-54015010D01*
X68755684Y-54000400D01*
X68701282Y-53858423D01*
X68665007Y-53575662D01*
X68650421Y-53180040D01*
X68650393Y-53174900D01*
X68640867Y-52754802D01*
X68618575Y-52251383D01*
X68587596Y-51749818D01*
X68573251Y-51563540D01*
X68541520Y-51090868D01*
X68542760Y-50761037D01*
X68584487Y-50549482D01*
X68674222Y-50431633D01*
X68819482Y-50382925D01*
X68936462Y-50376667D01*
X69217161Y-50423989D01*
G36*
X72898985Y-48921370D02*
G01*
X73049292Y-48990877D01*
X73146034Y-49135685D01*
X73198653Y-49379492D01*
X73216591Y-49745994D01*
X73210355Y-50220305D01*
X73201431Y-50643006D01*
X73203612Y-50921559D01*
X73219629Y-51080942D01*
X73252211Y-51146134D01*
X73304090Y-51142113D01*
X73310750Y-51138702D01*
X73438022Y-51064795D01*
X73667342Y-50926860D01*
X73956870Y-50750143D01*
X74068857Y-50681231D01*
X74431456Y-50466765D01*
X74687748Y-50344341D01*
X74868814Y-50307015D01*
X75005734Y-50347843D01*
X75117961Y-50446834D01*
X75222642Y-50589535D01*
X75252971Y-50724385D01*
X75195549Y-50866941D01*
X75036977Y-51032765D01*
X74763856Y-51237416D01*
X74362786Y-51496453D01*
X74048991Y-51688176D01*
X73390231Y-52085830D01*
X74281824Y-52757098D01*
X74703488Y-53087163D01*
X74989036Y-53346048D01*
X75147535Y-53549728D01*
X75188050Y-53714179D01*
X75119648Y-53855374D01*
X74973178Y-53975298D01*
X74815397Y-54047408D01*
X74647056Y-54044325D01*
X74441180Y-53954374D01*
X74170795Y-53765877D01*
X73818750Y-53475590D01*
X73562215Y-53261442D01*
X73353170Y-53097739D01*
X73225162Y-53010335D01*
X73204917Y-53002506D01*
X73169587Y-53078237D01*
X73146533Y-53274187D01*
X73141417Y-53450067D01*
X73117400Y-53787003D01*
X73031165Y-53988493D01*
X72861431Y-54083396D01*
X72660769Y-54102000D01*
X72405837Y-54049645D01*
X72250435Y-53899191D01*
X72210226Y-53817511D01*
X72179521Y-53697311D01*
X72157461Y-53518679D01*
X72143184Y-53261705D01*
X72135830Y-52906475D01*
X72134537Y-52433079D01*
X72138446Y-51821605D01*
X72142649Y-51405620D01*
X72153074Y-50661870D01*
X72166728Y-50074082D01*
X72184341Y-49628901D01*
X72206642Y-49312974D01*
X72234362Y-49112947D01*
X72268230Y-49015467D01*
X72273584Y-49009163D01*
X72425072Y-48938021D01*
X72655370Y-48903967D01*
X72685671Y-48903467D01*
X72898985Y-48921370D01*
G37*
X72898985Y-48921370D02*
X73049292Y-48990877D01*
X73146034Y-49135685D01*
X73198653Y-49379492D01*
X73216591Y-49745994D01*
X73210355Y-50220305D01*
X73201431Y-50643006D01*
X73203612Y-50921559D01*
X73219629Y-51080942D01*
X73252211Y-51146134D01*
X73304090Y-51142113D01*
X73310750Y-51138702D01*
X73438022Y-51064795D01*
X73667342Y-50926860D01*
X73956870Y-50750143D01*
X74068857Y-50681231D01*
X74431456Y-50466765D01*
X74687748Y-50344341D01*
X74868814Y-50307015D01*
X75005734Y-50347843D01*
X75117961Y-50446834D01*
X75222642Y-50589535D01*
X75252971Y-50724385D01*
X75195549Y-50866941D01*
X75036977Y-51032765D01*
X74763856Y-51237416D01*
X74362786Y-51496453D01*
X74048991Y-51688176D01*
X73390231Y-52085830D01*
X74281824Y-52757098D01*
X74703488Y-53087163D01*
X74989036Y-53346048D01*
X75147535Y-53549728D01*
X75188050Y-53714179D01*
X75119648Y-53855374D01*
X74973178Y-53975298D01*
X74815397Y-54047408D01*
X74647056Y-54044325D01*
X74441180Y-53954374D01*
X74170795Y-53765877D01*
X73818750Y-53475590D01*
X73562215Y-53261442D01*
X73353170Y-53097739D01*
X73225162Y-53010335D01*
X73204917Y-53002506D01*
X73169587Y-53078237D01*
X73146533Y-53274187D01*
X73141417Y-53450067D01*
X73117400Y-53787003D01*
X73031165Y-53988493D01*
X72861431Y-54083396D01*
X72660769Y-54102000D01*
X72405837Y-54049645D01*
X72250435Y-53899191D01*
X72210226Y-53817511D01*
X72179521Y-53697311D01*
X72157461Y-53518679D01*
X72143184Y-53261705D01*
X72135830Y-52906475D01*
X72134537Y-52433079D01*
X72138446Y-51821605D01*
X72142649Y-51405620D01*
X72153074Y-50661870D01*
X72166728Y-50074082D01*
X72184341Y-49628901D01*
X72206642Y-49312974D01*
X72234362Y-49112947D01*
X72268230Y-49015467D01*
X72273584Y-49009163D01*
X72425072Y-48938021D01*
X72655370Y-48903967D01*
X72685671Y-48903467D01*
X72898985Y-48921370D01*
G36*
X67059638Y-50657514D02*
G01*
X67220316Y-50718312D01*
X67280313Y-50761486D01*
X67323604Y-50833634D01*
X67352890Y-50959881D01*
X67370870Y-51165350D01*
X67380245Y-51475166D01*
X67383714Y-51914451D01*
X67384084Y-52242312D01*
X67382674Y-52771657D01*
X67376573Y-53158322D01*
X67362970Y-53428951D01*
X67339055Y-53610187D01*
X67302020Y-53728674D01*
X67249053Y-53811055D01*
X67214750Y-53848000D01*
X66972687Y-53987695D01*
X66696343Y-54001252D01*
X66452228Y-53888639D01*
X66410778Y-53848399D01*
X66354766Y-53773116D01*
X66316334Y-53673811D01*
X66293887Y-53523718D01*
X66285829Y-53296071D01*
X66290566Y-52964106D01*
X66306501Y-52501056D01*
X66316156Y-52260899D01*
X66340815Y-51721863D01*
X66365979Y-51328057D01*
X66394781Y-51055400D01*
X66430353Y-50879808D01*
X66475827Y-50777199D01*
X66514433Y-50736500D01*
X66763477Y-50641603D01*
X67059638Y-50657514D01*
G37*
X67059638Y-50657514D02*
X67220316Y-50718312D01*
X67280313Y-50761486D01*
X67323604Y-50833634D01*
X67352890Y-50959881D01*
X67370870Y-51165350D01*
X67380245Y-51475166D01*
X67383714Y-51914451D01*
X67384084Y-52242312D01*
X67382674Y-52771657D01*
X67376573Y-53158322D01*
X67362970Y-53428951D01*
X67339055Y-53610187D01*
X67302020Y-53728674D01*
X67249053Y-53811055D01*
X67214750Y-53848000D01*
X66972687Y-53987695D01*
X66696343Y-54001252D01*
X66452228Y-53888639D01*
X66410778Y-53848399D01*
X66354766Y-53773116D01*
X66316334Y-53673811D01*
X66293887Y-53523718D01*
X66285829Y-53296071D01*
X66290566Y-52964106D01*
X66306501Y-52501056D01*
X66316156Y-52260899D01*
X66340815Y-51721863D01*
X66365979Y-51328057D01*
X66394781Y-51055400D01*
X66430353Y-50879808D01*
X66475827Y-50777199D01*
X66514433Y-50736500D01*
X66763477Y-50641603D01*
X67059638Y-50657514D01*
G36*
X67246273Y-49276970D02*
G01*
X67450979Y-49457967D01*
X67550216Y-49714992D01*
X67553417Y-49774620D01*
X67479345Y-50074219D01*
X67285706Y-50297383D01*
X67015365Y-50415528D01*
X66711187Y-50400066D01*
X66648785Y-50377899D01*
X66425305Y-50204326D01*
X66304962Y-49945535D01*
X66298707Y-49658350D01*
X66417490Y-49399594D01*
X66452750Y-49360667D01*
X66701817Y-49211267D01*
X66981439Y-49189052D01*
X67246273Y-49276970D01*
G37*
X67246273Y-49276970D02*
X67450979Y-49457967D01*
X67550216Y-49714992D01*
X67553417Y-49774620D01*
X67479345Y-50074219D01*
X67285706Y-50297383D01*
X67015365Y-50415528D01*
X66711187Y-50400066D01*
X66648785Y-50377899D01*
X66425305Y-50204326D01*
X66304962Y-49945535D01*
X66298707Y-49658350D01*
X66417490Y-49399594D01*
X66452750Y-49360667D01*
X66701817Y-49211267D01*
X66981439Y-49189052D01*
X67246273Y-49276970D01*
G36*
X77222232Y-47555784D02*
G01*
X77327486Y-47613997D01*
X77334244Y-47618412D01*
X77503679Y-47811020D01*
X77533889Y-48041335D01*
X77419746Y-48254623D01*
X77395917Y-48276636D01*
X77244475Y-48382011D01*
X76992655Y-48532240D01*
X76678128Y-48707532D01*
X76338566Y-48888097D01*
X76011643Y-49054145D01*
X75735030Y-49185885D01*
X75546399Y-49263526D01*
X75493560Y-49276000D01*
X75343526Y-49217661D01*
X75228872Y-49121167D01*
X75110216Y-48960732D01*
X75072629Y-48812642D01*
X75128933Y-48663166D01*
X75291945Y-48498573D01*
X75574486Y-48305132D01*
X75989375Y-48069113D01*
X76424077Y-47840987D01*
X76754829Y-47673725D01*
X76973225Y-47576522D01*
X77116585Y-47540251D01*
X77222232Y-47555784D01*
G37*
X77222232Y-47555784D02*
X77327486Y-47613997D01*
X77334244Y-47618412D01*
X77503679Y-47811020D01*
X77533889Y-48041335D01*
X77419746Y-48254623D01*
X77395917Y-48276636D01*
X77244475Y-48382011D01*
X76992655Y-48532240D01*
X76678128Y-48707532D01*
X76338566Y-48888097D01*
X76011643Y-49054145D01*
X75735030Y-49185885D01*
X75546399Y-49263526D01*
X75493560Y-49276000D01*
X75343526Y-49217661D01*
X75228872Y-49121167D01*
X75110216Y-48960732D01*
X75072629Y-48812642D01*
X75128933Y-48663166D01*
X75291945Y-48498573D01*
X75574486Y-48305132D01*
X75989375Y-48069113D01*
X76424077Y-47840987D01*
X76754829Y-47673725D01*
X76973225Y-47576522D01*
X77116585Y-47540251D01*
X77222232Y-47555784D01*
G36*
X75079488Y-46025673D02*
G01*
X75138546Y-46100507D01*
X75193494Y-46197190D01*
X75217020Y-46298983D01*
X75203187Y-46437957D01*
X75146059Y-46646185D01*
X75039700Y-46955739D01*
X74918702Y-47288282D01*
X74718864Y-47796123D01*
X74543877Y-48149134D01*
X74382623Y-48357953D01*
X74223988Y-48433220D01*
X74056855Y-48385572D01*
X73903417Y-48260000D01*
X73779415Y-48112079D01*
X73734084Y-48016100D01*
X73763710Y-47888753D01*
X73842314Y-47645855D01*
X73954480Y-47328466D01*
X74084794Y-46977648D01*
X74217842Y-46634463D01*
X74338210Y-46339971D01*
X74430483Y-46135234D01*
X74460956Y-46079834D01*
X74647368Y-45919641D01*
X74870779Y-45902113D01*
X75079488Y-46025673D01*
G37*
X75079488Y-46025673D02*
X75138546Y-46100507D01*
X75193494Y-46197190D01*
X75217020Y-46298983D01*
X75203187Y-46437957D01*
X75146059Y-46646185D01*
X75039700Y-46955739D01*
X74918702Y-47288282D01*
X74718864Y-47796123D01*
X74543877Y-48149134D01*
X74382623Y-48357953D01*
X74223988Y-48433220D01*
X74056855Y-48385572D01*
X73903417Y-48260000D01*
X73779415Y-48112079D01*
X73734084Y-48016100D01*
X73763710Y-47888753D01*
X73842314Y-47645855D01*
X73954480Y-47328466D01*
X74084794Y-46977648D01*
X74217842Y-46634463D01*
X74338210Y-46339971D01*
X74430483Y-46135234D01*
X74460956Y-46079834D01*
X74647368Y-45919641D01*
X74870779Y-45902113D01*
X75079488Y-46025673D01*
M02*
