G04 #@! TF.GenerationSoftware,KiCad,Pcbnew,5.1.9-73d0e3b20d~88~ubuntu18.04.1*
G04 #@! TF.CreationDate,2021-02-11T00:16:01-06:00*
G04 #@! TF.ProjectId,plate,706c6174-652e-46b6-9963-61645f706362,rev?*
G04 #@! TF.SameCoordinates,Original*
G04 #@! TF.FileFunction,Profile,NP*
%FSLAX46Y46*%
G04 Gerber Fmt 4.6, Leading zero omitted, Abs format (unit mm)*
G04 Created by KiCad (PCBNEW 5.1.9-73d0e3b20d~88~ubuntu18.04.1) date 2021-02-11 00:16:01*
%MOMM*%
%LPD*%
G01*
G04 APERTURE LIST*
G04 #@! TA.AperFunction,Profile*
%ADD10C,0.200000*%
G04 #@! TD*
G04 #@! TA.AperFunction,Profile*
%ADD11C,0.100000*%
G04 #@! TD*
G04 APERTURE END LIST*
D10*
X237972500Y-78435000D02*
X250972500Y-78435000D01*
X94310000Y-64935000D02*
X94310000Y-77935000D01*
X93810000Y-64435000D02*
G75*
G02*
X94310000Y-64935000I0J-500000D01*
G01*
X80810000Y-64435000D02*
X93810000Y-64435000D01*
X85572500Y-45385000D02*
X98572500Y-45385000D01*
X99072500Y-58884999D02*
G75*
G02*
X98572500Y-59384999I-500000J0D01*
G01*
X85072500Y-45885000D02*
G75*
G02*
X85572500Y-45385000I500000J0D01*
G01*
X85572500Y-59384999D02*
G75*
G02*
X85072500Y-58884999I0J500000D01*
G01*
X98572500Y-45385000D02*
G75*
G02*
X99072500Y-45885000I0J-500000D01*
G01*
X99072500Y-45885000D02*
X99072500Y-58884999D01*
X85572500Y-59384999D02*
X98572500Y-59384999D01*
X85072500Y-45885000D02*
X85072500Y-58884999D01*
D11*
X47625000Y-35718750D02*
G75*
G02*
X51593750Y-31750000I3968750J0D01*
G01*
X51593750Y-149225000D02*
G75*
G02*
X47625000Y-145256250I0J3968750D01*
G01*
X341312500Y-145256250D02*
G75*
G02*
X337343750Y-149225000I-3968750J0D01*
G01*
X337343750Y-31750000D02*
G75*
G02*
X341312500Y-35718750I0J-3968750D01*
G01*
X337343750Y-149225000D02*
X51593750Y-149225000D01*
X341312500Y-145256250D02*
X341312500Y-35718750D01*
X47625000Y-35718750D02*
X47625000Y-145256250D01*
X51593750Y-31750000D02*
X337343750Y-31750000D01*
D10*
X199372500Y-103035000D02*
G75*
G02*
X199872500Y-102535000I500000J0D01*
G01*
X213372500Y-103035000D02*
X213372500Y-116035000D01*
X319585500Y-46885000D02*
X319585500Y-60885000D01*
X231922500Y-45385000D02*
G75*
G02*
X232422500Y-45885000I0J-500000D01*
G01*
X135078750Y-122085000D02*
X135078750Y-135085000D01*
X135578750Y-135585000D02*
X148578750Y-135585000D01*
X299885000Y-78435000D02*
X312885000Y-78435000D01*
X299385000Y-64935000D02*
X299385000Y-77935000D01*
X161772500Y-59384999D02*
X174772500Y-59384999D01*
X289072500Y-45385000D02*
G75*
G02*
X289572500Y-45885000I0J-500000D01*
G01*
X289572500Y-58884999D02*
G75*
G02*
X289072500Y-59384999I-500000J0D01*
G01*
X73666250Y-116535000D02*
G75*
G02*
X73166250Y-116035000I0J500000D01*
G01*
X86666250Y-102535000D02*
G75*
G02*
X87166250Y-103035000I0J-500000D01*
G01*
X209840750Y-134085000D02*
X209840750Y-120085000D01*
X209340750Y-119585000D02*
X203340750Y-119585000D01*
X142722500Y-59384999D02*
G75*
G02*
X142222500Y-58884999I0J500000D01*
G01*
X218922500Y-102535000D02*
X231922500Y-102535000D01*
X213372500Y-116035000D02*
G75*
G02*
X212872500Y-116535000I-500000J0D01*
G01*
X199872500Y-59384999D02*
X212872500Y-59384999D01*
X199872500Y-102535000D02*
X212872500Y-102535000D01*
X194322500Y-116035000D02*
G75*
G02*
X193822500Y-116535000I-500000J0D01*
G01*
X218922500Y-45385000D02*
X231922500Y-45385000D01*
X123172500Y-83985000D02*
X123172500Y-96985000D01*
X104122500Y-64935000D02*
G75*
G02*
X104622500Y-64435000I500000J0D01*
G01*
X326585500Y-60885000D02*
G75*
G02*
X326085500Y-61385000I-500000J0D01*
G01*
X209340750Y-134585000D02*
X203340750Y-134585000D01*
X225278750Y-135085000D02*
G75*
G02*
X224778750Y-135585000I-500000J0D01*
G01*
X317647500Y-45385000D02*
G75*
G02*
X318147500Y-45885000I0J-500000D01*
G01*
X294622500Y-83985000D02*
G75*
G02*
X295122500Y-83485000I500000J0D01*
G01*
X308622500Y-83985000D02*
X308622500Y-96985000D01*
X299885000Y-78435000D02*
G75*
G02*
X299385000Y-77935000I0J500000D01*
G01*
X313385000Y-77935000D02*
G75*
G02*
X312885000Y-78435000I-500000J0D01*
G01*
X123672500Y-116535000D02*
G75*
G02*
X123172500Y-116035000I0J500000D01*
G01*
X136672500Y-102535000D02*
G75*
G02*
X137172500Y-103035000I0J-500000D01*
G01*
X156222500Y-58884999D02*
G75*
G02*
X155722500Y-59384999I-500000J0D01*
G01*
X199372500Y-45885000D02*
G75*
G02*
X199872500Y-45385000I500000J0D01*
G01*
X256522500Y-103035000D02*
G75*
G02*
X257022500Y-102535000I500000J0D01*
G01*
X270522500Y-103035000D02*
X270522500Y-116035000D01*
X237972500Y-45385000D02*
X250972500Y-45385000D01*
X318147500Y-58884999D02*
G75*
G02*
X317647500Y-59384999I-500000J0D01*
G01*
X319585500Y-46885000D02*
G75*
G02*
X320085500Y-46385000I500000J0D01*
G01*
X104122500Y-64935000D02*
X104122500Y-77935000D01*
X250972500Y-64435000D02*
G75*
G02*
X251472500Y-64935000I0J-500000D01*
G01*
X237972500Y-78435000D02*
G75*
G02*
X237472500Y-77935000I0J500000D01*
G01*
X251472500Y-77935000D02*
G75*
G02*
X250972500Y-78435000I-500000J0D01*
G01*
X218422500Y-45885000D02*
X218422500Y-58884999D01*
X168916250Y-121585000D02*
X181916250Y-121585000D01*
X149078750Y-135085000D02*
G75*
G02*
X148578750Y-135585000I-500000J0D01*
G01*
X175272500Y-83985000D02*
X175272500Y-96985000D01*
X117622500Y-45385000D02*
G75*
G02*
X118122500Y-45885000I0J-500000D01*
G01*
X166978250Y-134085000D02*
X166978250Y-120085000D01*
X166478250Y-119585000D02*
X160478250Y-119585000D01*
X104122500Y-83985000D02*
X104122500Y-96985000D01*
X304147500Y-45885000D02*
X304147500Y-58884999D01*
X123172500Y-83985000D02*
G75*
G02*
X123672500Y-83485000I500000J0D01*
G01*
X137172500Y-77935000D02*
G75*
G02*
X136672500Y-78435000I-500000J0D01*
G01*
X242235000Y-122085000D02*
X242235000Y-135085000D01*
X242735000Y-135585000D02*
X255735000Y-135585000D01*
X232422500Y-96985000D02*
G75*
G02*
X231922500Y-97485000I-500000J0D01*
G01*
X111266250Y-122085000D02*
X111266250Y-135085000D01*
X111766250Y-135585000D02*
X124766250Y-135585000D01*
X161772500Y-116535000D02*
G75*
G02*
X161272500Y-116035000I0J500000D01*
G01*
X174772500Y-102535000D02*
G75*
G02*
X175272500Y-103035000I0J-500000D01*
G01*
X218922500Y-64435000D02*
X231922500Y-64435000D01*
X117622500Y-64435000D02*
G75*
G02*
X118122500Y-64935000I0J-500000D01*
G01*
X137172500Y-96985000D02*
G75*
G02*
X136672500Y-97485000I-500000J0D01*
G01*
X65228250Y-118535000D02*
G75*
G02*
X64728250Y-118035000I0J500000D01*
G01*
X71228250Y-103535000D02*
G75*
G02*
X71728250Y-104035000I0J-500000D01*
G01*
X123172500Y-64935000D02*
G75*
G02*
X123672500Y-64435000I500000J0D01*
G01*
X232422500Y-83985000D02*
X232422500Y-96985000D01*
X209840750Y-134085000D02*
G75*
G02*
X209340750Y-134585000I-500000J0D01*
G01*
X202840750Y-134085000D02*
X202840750Y-120085000D01*
X280335000Y-122085000D02*
G75*
G02*
X280835000Y-121585000I500000J0D01*
G01*
X294335000Y-122085000D02*
X294335000Y-135085000D01*
X251472500Y-58884999D02*
G75*
G02*
X250972500Y-59384999I-500000J0D01*
G01*
X142222500Y-103035000D02*
G75*
G02*
X142722500Y-102535000I500000J0D01*
G01*
X156222500Y-103035000D02*
X156222500Y-116035000D01*
X104122500Y-103035000D02*
X104122500Y-116035000D01*
X104622500Y-116535000D02*
X117622500Y-116535000D01*
X155722500Y-45385000D02*
G75*
G02*
X156222500Y-45885000I0J-500000D01*
G01*
X242735000Y-121585000D02*
X255735000Y-121585000D01*
X226716750Y-120085000D02*
G75*
G02*
X227216750Y-119585000I500000J0D01*
G01*
X137172500Y-64935000D02*
X137172500Y-77935000D01*
X135578750Y-135585000D02*
G75*
G02*
X135078750Y-135085000I0J500000D01*
G01*
X148578750Y-121585000D02*
G75*
G02*
X149078750Y-122085000I0J-500000D01*
G01*
X142722500Y-78435000D02*
X155722500Y-78435000D01*
X213372500Y-58884999D02*
G75*
G02*
X212872500Y-59384999I-500000J0D01*
G01*
X142722500Y-45385000D02*
X155722500Y-45385000D01*
X161772500Y-102535000D02*
X174772500Y-102535000D01*
X156222500Y-116035000D02*
G75*
G02*
X155722500Y-116535000I-500000J0D01*
G01*
X280335000Y-122085000D02*
X280335000Y-135085000D01*
X280835000Y-135585000D02*
X293835000Y-135585000D01*
X242735000Y-135585000D02*
G75*
G02*
X242235000Y-135085000I0J500000D01*
G01*
X255735000Y-121585000D02*
G75*
G02*
X256235000Y-122085000I0J-500000D01*
G01*
X123672500Y-97485000D02*
X136672500Y-97485000D01*
X313385000Y-64935000D02*
X313385000Y-77935000D01*
X199872500Y-97485000D02*
X212872500Y-97485000D01*
X275572500Y-45885000D02*
G75*
G02*
X276072500Y-45385000I500000J0D01*
G01*
X199872500Y-78435000D02*
G75*
G02*
X199372500Y-77935000I0J500000D01*
G01*
X194322500Y-77935000D02*
G75*
G02*
X193822500Y-78435000I-500000J0D01*
G01*
X213372500Y-77935000D02*
G75*
G02*
X212872500Y-78435000I-500000J0D01*
G01*
X180322500Y-83985000D02*
X180322500Y-96985000D01*
X218922500Y-78435000D02*
G75*
G02*
X218422500Y-77935000I0J500000D01*
G01*
X256522500Y-83985000D02*
G75*
G02*
X257022500Y-83485000I500000J0D01*
G01*
X270522500Y-83985000D02*
X270522500Y-96985000D01*
X276072500Y-102535000D02*
X289072500Y-102535000D01*
X270522500Y-116035000D02*
G75*
G02*
X270022500Y-116535000I-500000J0D01*
G01*
X294622500Y-83985000D02*
X294622500Y-96985000D01*
X295122500Y-97485000D02*
X308122500Y-97485000D01*
X136672500Y-45385000D02*
G75*
G02*
X137172500Y-45885000I0J-500000D01*
G01*
X276072500Y-45385000D02*
X289072500Y-45385000D01*
X142722500Y-59384999D02*
X155722500Y-59384999D01*
X135578750Y-121585000D02*
X148578750Y-121585000D01*
X125266250Y-135085000D02*
G75*
G02*
X124766250Y-135585000I-500000J0D01*
G01*
X161772500Y-97485000D02*
G75*
G02*
X161272500Y-96985000I0J500000D01*
G01*
X142222500Y-103035000D02*
X142222500Y-116035000D01*
X142722500Y-116535000D02*
X155722500Y-116535000D01*
X65228250Y-103535000D02*
X71228250Y-103535000D01*
X95604250Y-118035000D02*
G75*
G02*
X95104250Y-118535000I-500000J0D01*
G01*
X104622500Y-97485000D02*
X117622500Y-97485000D01*
X312885000Y-64435000D02*
G75*
G02*
X313385000Y-64935000I0J-500000D01*
G01*
X89104250Y-118535000D02*
G75*
G02*
X88604250Y-118035000I0J500000D01*
G01*
X95104250Y-103535000D02*
G75*
G02*
X95604250Y-104035000I0J-500000D01*
G01*
X212872500Y-45385000D02*
G75*
G02*
X213372500Y-45885000I0J-500000D01*
G01*
X280835000Y-121585000D02*
X293835000Y-121585000D01*
X275285000Y-135085000D02*
G75*
G02*
X274785000Y-135585000I-500000J0D01*
G01*
X161272500Y-103035000D02*
X161272500Y-116035000D01*
X161772500Y-116535000D02*
X174772500Y-116535000D01*
X180322500Y-103035000D02*
G75*
G02*
X180822500Y-102535000I500000J0D01*
G01*
X194322500Y-103035000D02*
X194322500Y-116035000D01*
X80310000Y-64935000D02*
X80310000Y-77935000D01*
X212872500Y-83485000D02*
G75*
G02*
X213372500Y-83985000I0J-500000D01*
G01*
X104122500Y-45885000D02*
G75*
G02*
X104622500Y-45385000I500000J0D01*
G01*
X270022500Y-64435000D02*
G75*
G02*
X270522500Y-64935000I0J-500000D01*
G01*
X295122500Y-83485000D02*
X308122500Y-83485000D01*
X289572500Y-96985000D02*
G75*
G02*
X289072500Y-97485000I-500000J0D01*
G01*
X156222500Y-45885000D02*
X156222500Y-58884999D01*
X111266250Y-122085000D02*
G75*
G02*
X111766250Y-121585000I500000J0D01*
G01*
X125266250Y-122085000D02*
X125266250Y-135085000D01*
X123172500Y-45885000D02*
G75*
G02*
X123672500Y-45385000I500000J0D01*
G01*
X64728250Y-104035000D02*
G75*
G02*
X65228250Y-103535000I500000J0D01*
G01*
X71728250Y-104035000D02*
X71728250Y-118035000D01*
X90335000Y-121585000D02*
X103335000Y-121585000D01*
X308622500Y-116035000D02*
G75*
G02*
X308122500Y-116535000I-500000J0D01*
G01*
X276072500Y-116535000D02*
G75*
G02*
X275572500Y-116035000I0J500000D01*
G01*
X289072500Y-102535000D02*
G75*
G02*
X289572500Y-103035000I0J-500000D01*
G01*
X257022500Y-116535000D02*
G75*
G02*
X256522500Y-116035000I0J500000D01*
G01*
X270022500Y-102535000D02*
G75*
G02*
X270522500Y-103035000I0J-500000D01*
G01*
X199372500Y-45885000D02*
X199372500Y-58884999D01*
X270022500Y-45385000D02*
G75*
G02*
X270522500Y-45885000I0J-500000D01*
G01*
X237972500Y-59384999D02*
G75*
G02*
X237472500Y-58884999I0J500000D01*
G01*
X326085500Y-46385000D02*
G75*
G02*
X326585500Y-46885000I0J-500000D01*
G01*
X88604250Y-104035000D02*
X88604250Y-118035000D01*
X89104250Y-118535000D02*
X95104250Y-118535000D01*
X211278750Y-122085000D02*
X211278750Y-135085000D01*
X211778750Y-135585000D02*
X224778750Y-135585000D01*
X275572500Y-83985000D02*
X275572500Y-96985000D01*
X276072500Y-97485000D02*
X289072500Y-97485000D01*
X275572500Y-103035000D02*
X275572500Y-116035000D01*
X276072500Y-116535000D02*
X289072500Y-116535000D01*
X232422500Y-58884999D02*
G75*
G02*
X231922500Y-59384999I-500000J0D01*
G01*
X276072500Y-59384999D02*
G75*
G02*
X275572500Y-58884999I0J500000D01*
G01*
X242235000Y-122085000D02*
G75*
G02*
X242735000Y-121585000I500000J0D01*
G01*
X256235000Y-122085000D02*
X256235000Y-135085000D01*
X161772500Y-45385000D02*
X174772500Y-45385000D01*
X320085500Y-61385000D02*
G75*
G02*
X319585500Y-60885000I0J500000D01*
G01*
X276072500Y-83485000D02*
X289072500Y-83485000D01*
X270522500Y-96985000D02*
G75*
G02*
X270022500Y-97485000I-500000J0D01*
G01*
X251472500Y-64935000D02*
X251472500Y-77935000D01*
X190854250Y-134085000D02*
X190854250Y-120085000D01*
X190354250Y-119585000D02*
X184354250Y-119585000D01*
X142722500Y-97485000D02*
G75*
G02*
X142222500Y-96985000I0J500000D01*
G01*
X180322500Y-45885000D02*
X180322500Y-58884999D01*
X161772500Y-59384999D02*
G75*
G02*
X161272500Y-58884999I0J500000D01*
G01*
X276072500Y-59384999D02*
X289072500Y-59384999D01*
X168416250Y-122085000D02*
X168416250Y-135085000D01*
X168916250Y-135585000D02*
X181916250Y-135585000D01*
X104622500Y-45385000D02*
X117622500Y-45385000D01*
X180822500Y-59384999D02*
X193822500Y-59384999D01*
X302209500Y-46385000D02*
G75*
G02*
X302709500Y-46885000I0J-500000D01*
G01*
X257022500Y-59384999D02*
X270022500Y-59384999D01*
X180822500Y-59384999D02*
G75*
G02*
X180322500Y-58884999I0J500000D01*
G01*
X218422500Y-45885000D02*
G75*
G02*
X218922500Y-45385000I500000J0D01*
G01*
X94310000Y-77935000D02*
G75*
G02*
X93810000Y-78435000I-500000J0D01*
G01*
X80310000Y-64935000D02*
G75*
G02*
X80810000Y-64435000I500000J0D01*
G01*
X237472500Y-45885000D02*
G75*
G02*
X237972500Y-45385000I500000J0D01*
G01*
X299885000Y-64435000D02*
X312885000Y-64435000D01*
X123672500Y-83485000D02*
X136672500Y-83485000D01*
X161272500Y-64935000D02*
G75*
G02*
X161772500Y-64435000I500000J0D01*
G01*
X91928750Y-96985000D02*
G75*
G02*
X91428750Y-97485000I-500000J0D01*
G01*
X193822500Y-83485000D02*
G75*
G02*
X194322500Y-83985000I0J-500000D01*
G01*
X118122500Y-96985000D02*
G75*
G02*
X117622500Y-97485000I-500000J0D01*
G01*
X161772500Y-97485000D02*
X174772500Y-97485000D01*
X123672500Y-59384999D02*
X136672500Y-59384999D01*
X136672500Y-64435000D02*
G75*
G02*
X137172500Y-64935000I0J-500000D01*
G01*
X199872500Y-59384999D02*
G75*
G02*
X199372500Y-58884999I0J500000D01*
G01*
X142222500Y-64935000D02*
X142222500Y-77935000D01*
X180322500Y-45885000D02*
G75*
G02*
X180822500Y-45385000I500000J0D01*
G01*
X276072500Y-78435000D02*
X289072500Y-78435000D01*
X232422500Y-64935000D02*
X232422500Y-77935000D01*
X175272500Y-77935000D02*
G75*
G02*
X174772500Y-78435000I-500000J0D01*
G01*
X180822500Y-78435000D02*
X193822500Y-78435000D01*
X218922500Y-78435000D02*
X231922500Y-78435000D01*
X104622500Y-116535000D02*
G75*
G02*
X104122500Y-116035000I0J500000D01*
G01*
X117622500Y-102535000D02*
G75*
G02*
X118122500Y-103035000I0J-500000D01*
G01*
X296209500Y-61385000D02*
X302209500Y-61385000D01*
X64728250Y-104035000D02*
X64728250Y-118035000D01*
X65228250Y-118535000D02*
X71228250Y-118535000D01*
X302709500Y-60885000D02*
G75*
G02*
X302209500Y-61385000I-500000J0D01*
G01*
X213372500Y-83985000D02*
X213372500Y-96985000D01*
X137172500Y-58884999D02*
G75*
G02*
X136672500Y-59384999I-500000J0D01*
G01*
X174772500Y-45385000D02*
G75*
G02*
X175272500Y-45885000I0J-500000D01*
G01*
X166478250Y-134585000D02*
X160478250Y-134585000D01*
X182416250Y-135085000D02*
G75*
G02*
X181916250Y-135585000I-500000J0D01*
G01*
X275572500Y-45885000D02*
X275572500Y-58884999D01*
X142222500Y-83985000D02*
G75*
G02*
X142722500Y-83485000I500000J0D01*
G01*
X180822500Y-97485000D02*
X193822500Y-97485000D01*
X78428750Y-97485000D02*
G75*
G02*
X77928750Y-96985000I0J500000D01*
G01*
X237972500Y-97485000D02*
X250972500Y-97485000D01*
X270522500Y-64935000D02*
X270522500Y-77935000D01*
X256522500Y-64935000D02*
G75*
G02*
X257022500Y-64435000I500000J0D01*
G01*
X233216750Y-134585000D02*
X227216750Y-134585000D01*
X202840750Y-120085000D02*
G75*
G02*
X203340750Y-119585000I500000J0D01*
G01*
X111766250Y-135585000D02*
G75*
G02*
X111266250Y-135085000I0J500000D01*
G01*
X124766250Y-121585000D02*
G75*
G02*
X125266250Y-122085000I0J-500000D01*
G01*
X232422500Y-77935000D02*
G75*
G02*
X231922500Y-78435000I-500000J0D01*
G01*
X295709500Y-46885000D02*
G75*
G02*
X296209500Y-46385000I500000J0D01*
G01*
X237472500Y-64935000D02*
G75*
G02*
X237972500Y-64435000I500000J0D01*
G01*
X175272500Y-45885000D02*
X175272500Y-58884999D01*
X261285000Y-122085000D02*
G75*
G02*
X261785000Y-121585000I500000J0D01*
G01*
X275285000Y-122085000D02*
X275285000Y-135085000D01*
X233216750Y-119585000D02*
G75*
G02*
X233716750Y-120085000I0J-500000D01*
G01*
X227216750Y-134585000D02*
G75*
G02*
X226716750Y-134085000I0J500000D01*
G01*
X175272500Y-96985000D02*
G75*
G02*
X174772500Y-97485000I-500000J0D01*
G01*
X218422500Y-64935000D02*
G75*
G02*
X218922500Y-64435000I500000J0D01*
G01*
X168416250Y-122085000D02*
G75*
G02*
X168916250Y-121585000I500000J0D01*
G01*
X182416250Y-122085000D02*
X182416250Y-135085000D01*
X175272500Y-58884999D02*
G75*
G02*
X174772500Y-59384999I-500000J0D01*
G01*
X161272500Y-83985000D02*
G75*
G02*
X161772500Y-83485000I500000J0D01*
G01*
X237972500Y-59384999D02*
X250972500Y-59384999D01*
X161272500Y-83985000D02*
X161272500Y-96985000D01*
X90335000Y-135585000D02*
G75*
G02*
X89835000Y-135085000I0J500000D01*
G01*
X103335000Y-121585000D02*
G75*
G02*
X103835000Y-122085000I0J-500000D01*
G01*
X156222500Y-64935000D02*
X156222500Y-77935000D01*
X174772500Y-83485000D02*
G75*
G02*
X175272500Y-83985000I0J-500000D01*
G01*
X155722500Y-64435000D02*
G75*
G02*
X156222500Y-64935000I0J-500000D01*
G01*
X231922500Y-83485000D02*
G75*
G02*
X232422500Y-83985000I0J-500000D01*
G01*
X104122500Y-45885000D02*
X104122500Y-58884999D01*
X296209500Y-61385000D02*
G75*
G02*
X295709500Y-60885000I0J500000D01*
G01*
X289572500Y-45885000D02*
X289572500Y-58884999D01*
X199872500Y-116535000D02*
G75*
G02*
X199372500Y-116035000I0J500000D01*
G01*
X212872500Y-102535000D02*
G75*
G02*
X213372500Y-103035000I0J-500000D01*
G01*
X118122500Y-45885000D02*
X118122500Y-58884999D01*
X257022500Y-97485000D02*
G75*
G02*
X256522500Y-96985000I0J500000D01*
G01*
X270022500Y-83485000D02*
G75*
G02*
X270522500Y-83985000I0J-500000D01*
G01*
X137172500Y-83985000D02*
X137172500Y-96985000D01*
X190354250Y-134585000D02*
X184354250Y-134585000D01*
X159978250Y-120085000D02*
G75*
G02*
X160478250Y-119585000I500000J0D01*
G01*
X233716750Y-134085000D02*
X233716750Y-120085000D01*
X233216750Y-119585000D02*
X227216750Y-119585000D01*
X142722500Y-64435000D02*
X155722500Y-64435000D01*
X123172500Y-103035000D02*
G75*
G02*
X123672500Y-102535000I500000J0D01*
G01*
X137172500Y-103035000D02*
X137172500Y-116035000D01*
X89835000Y-122085000D02*
G75*
G02*
X90335000Y-121585000I500000J0D01*
G01*
X103835000Y-122085000D02*
X103835000Y-135085000D01*
X237472500Y-103035000D02*
X237472500Y-116035000D01*
X237972500Y-116535000D02*
X250972500Y-116535000D01*
X194322500Y-64935000D02*
X194322500Y-77935000D01*
X117622500Y-83485000D02*
G75*
G02*
X118122500Y-83985000I0J-500000D01*
G01*
X142722500Y-102535000D02*
X155722500Y-102535000D01*
X137172500Y-116035000D02*
G75*
G02*
X136672500Y-116535000I-500000J0D01*
G01*
X161272500Y-103035000D02*
G75*
G02*
X161772500Y-102535000I500000J0D01*
G01*
X175272500Y-103035000D02*
X175272500Y-116035000D01*
X276072500Y-97485000D02*
G75*
G02*
X275572500Y-96985000I0J500000D01*
G01*
X289072500Y-83485000D02*
G75*
G02*
X289572500Y-83985000I0J-500000D01*
G01*
X80810000Y-78435000D02*
X93810000Y-78435000D01*
X261785000Y-121585000D02*
X274785000Y-121585000D01*
X256235000Y-135085000D02*
G75*
G02*
X255735000Y-135585000I-500000J0D01*
G01*
X123172500Y-103035000D02*
X123172500Y-116035000D01*
X123672500Y-116535000D02*
X136672500Y-116535000D01*
X166978250Y-134085000D02*
G75*
G02*
X166478250Y-134585000I-500000J0D01*
G01*
X159978250Y-134085000D02*
X159978250Y-120085000D01*
X155722500Y-83485000D02*
G75*
G02*
X156222500Y-83985000I0J-500000D01*
G01*
X73166250Y-103035000D02*
X73166250Y-116035000D01*
X73666250Y-116535000D02*
X86666250Y-116535000D01*
X175272500Y-64935000D02*
X175272500Y-77935000D01*
X213372500Y-45885000D02*
X213372500Y-58884999D01*
X261285000Y-122085000D02*
X261285000Y-135085000D01*
X261785000Y-135585000D02*
X274785000Y-135585000D01*
X218922500Y-97485000D02*
X231922500Y-97485000D01*
X123672500Y-102535000D02*
X136672500Y-102535000D01*
X118122500Y-116035000D02*
G75*
G02*
X117622500Y-116535000I-500000J0D01*
G01*
X275572500Y-103035000D02*
G75*
G02*
X276072500Y-102535000I500000J0D01*
G01*
X289572500Y-103035000D02*
X289572500Y-116035000D01*
X211778750Y-121585000D02*
X224778750Y-121585000D01*
X183854250Y-120085000D02*
G75*
G02*
X184354250Y-119585000I500000J0D01*
G01*
X194322500Y-58884999D02*
G75*
G02*
X193822500Y-59384999I-500000J0D01*
G01*
X218922500Y-59384999D02*
G75*
G02*
X218422500Y-58884999I0J500000D01*
G01*
X289072500Y-64435000D02*
G75*
G02*
X289572500Y-64935000I0J-500000D01*
G01*
X194322500Y-45885000D02*
X194322500Y-58884999D01*
X199372500Y-83985000D02*
X199372500Y-96985000D01*
X118122500Y-77935000D02*
G75*
G02*
X117622500Y-78435000I-500000J0D01*
G01*
X275572500Y-64935000D02*
X275572500Y-77935000D01*
X289572500Y-64935000D02*
X289572500Y-77935000D01*
X275572500Y-64935000D02*
G75*
G02*
X276072500Y-64435000I500000J0D01*
G01*
X104622500Y-83485000D02*
X117622500Y-83485000D01*
X156222500Y-83985000D02*
X156222500Y-96985000D01*
X231922500Y-64435000D02*
G75*
G02*
X232422500Y-64935000I0J-500000D01*
G01*
X199872500Y-64435000D02*
X212872500Y-64435000D01*
X218922500Y-97485000D02*
G75*
G02*
X218422500Y-96985000I0J500000D01*
G01*
X161772500Y-64435000D02*
X174772500Y-64435000D01*
X320085500Y-61385000D02*
X326085500Y-61385000D01*
X190354250Y-119585000D02*
G75*
G02*
X190854250Y-120085000I0J-500000D01*
G01*
X184354250Y-134585000D02*
G75*
G02*
X183854250Y-134085000I0J500000D01*
G01*
X276072500Y-64435000D02*
X289072500Y-64435000D01*
X256522500Y-103035000D02*
X256522500Y-116035000D01*
X257022500Y-116535000D02*
X270022500Y-116535000D01*
X91928750Y-83985000D02*
X91928750Y-96985000D01*
X142222500Y-64935000D02*
G75*
G02*
X142722500Y-64435000I500000J0D01*
G01*
X142722500Y-78435000D02*
G75*
G02*
X142222500Y-77935000I0J500000D01*
G01*
X276072500Y-78435000D02*
G75*
G02*
X275572500Y-77935000I0J500000D01*
G01*
X78428750Y-83485000D02*
X91428750Y-83485000D01*
X218922500Y-116535000D02*
G75*
G02*
X218422500Y-116035000I0J500000D01*
G01*
X231922500Y-102535000D02*
G75*
G02*
X232422500Y-103035000I0J-500000D01*
G01*
X118122500Y-64935000D02*
X118122500Y-77935000D01*
X257022500Y-102535000D02*
X270022500Y-102535000D01*
X251472500Y-116035000D02*
G75*
G02*
X250972500Y-116535000I-500000J0D01*
G01*
X180822500Y-83485000D02*
X193822500Y-83485000D01*
X104622500Y-59384999D02*
G75*
G02*
X104122500Y-58884999I0J500000D01*
G01*
X104122500Y-83985000D02*
G75*
G02*
X104622500Y-83485000I500000J0D01*
G01*
X218922500Y-59384999D02*
X231922500Y-59384999D01*
X180822500Y-45385000D02*
X193822500Y-45385000D01*
X104622500Y-102535000D02*
X117622500Y-102535000D01*
X71728250Y-118035000D02*
G75*
G02*
X71228250Y-118535000I-500000J0D01*
G01*
X123672500Y-78435000D02*
X136672500Y-78435000D01*
X142222500Y-45885000D02*
G75*
G02*
X142722500Y-45385000I500000J0D01*
G01*
X80810000Y-78435000D02*
G75*
G02*
X80310000Y-77935000I0J500000D01*
G01*
X257022500Y-83485000D02*
X270022500Y-83485000D01*
X251472500Y-96985000D02*
G75*
G02*
X250972500Y-97485000I-500000J0D01*
G01*
X104622500Y-97485000D02*
G75*
G02*
X104122500Y-96985000I0J500000D01*
G01*
X232422500Y-45885000D02*
X232422500Y-58884999D01*
X209340750Y-119585000D02*
G75*
G02*
X209840750Y-120085000I0J-500000D01*
G01*
X203340750Y-134585000D02*
G75*
G02*
X202840750Y-134085000I0J500000D01*
G01*
X304147500Y-45885000D02*
G75*
G02*
X304647500Y-45385000I500000J0D01*
G01*
X257022500Y-45385000D02*
X270022500Y-45385000D01*
X156222500Y-96985000D02*
G75*
G02*
X155722500Y-97485000I-500000J0D01*
G01*
X199872500Y-97485000D02*
G75*
G02*
X199372500Y-96985000I0J500000D01*
G01*
X218922500Y-83485000D02*
X231922500Y-83485000D01*
X237472500Y-64935000D02*
X237472500Y-77935000D01*
X123172500Y-45885000D02*
X123172500Y-58884999D01*
X199872500Y-78435000D02*
X212872500Y-78435000D01*
X199372500Y-64935000D02*
G75*
G02*
X199872500Y-64435000I500000J0D01*
G01*
X304647500Y-59384999D02*
G75*
G02*
X304147500Y-58884999I0J500000D01*
G01*
X218422500Y-83985000D02*
X218422500Y-96985000D01*
X257022500Y-78435000D02*
G75*
G02*
X256522500Y-77935000I0J500000D01*
G01*
X135078750Y-122085000D02*
G75*
G02*
X135578750Y-121585000I500000J0D01*
G01*
X149078750Y-122085000D02*
X149078750Y-135085000D01*
X142722500Y-83485000D02*
X155722500Y-83485000D01*
X123672500Y-64435000D02*
X136672500Y-64435000D01*
X142722500Y-97485000D02*
X155722500Y-97485000D01*
X89835000Y-122085000D02*
X89835000Y-135085000D01*
X90335000Y-135585000D02*
X103335000Y-135585000D01*
X180322500Y-64935000D02*
X180322500Y-77935000D01*
X270522500Y-58884999D02*
G75*
G02*
X270022500Y-59384999I-500000J0D01*
G01*
X237972500Y-116535000D02*
G75*
G02*
X237472500Y-116035000I0J500000D01*
G01*
X250972500Y-102535000D02*
G75*
G02*
X251472500Y-103035000I0J-500000D01*
G01*
X161772500Y-78435000D02*
X174772500Y-78435000D01*
X213372500Y-64935000D02*
X213372500Y-77935000D01*
X261785000Y-135585000D02*
G75*
G02*
X261285000Y-135085000I0J500000D01*
G01*
X274785000Y-121585000D02*
G75*
G02*
X275285000Y-122085000I0J-500000D01*
G01*
X77928750Y-83985000D02*
G75*
G02*
X78428750Y-83485000I500000J0D01*
G01*
X88604250Y-104035000D02*
G75*
G02*
X89104250Y-103535000I500000J0D01*
G01*
X95604250Y-104035000D02*
X95604250Y-118035000D01*
X257022500Y-64435000D02*
X270022500Y-64435000D01*
X218422500Y-83985000D02*
G75*
G02*
X218922500Y-83485000I500000J0D01*
G01*
X180822500Y-116535000D02*
G75*
G02*
X180322500Y-116035000I0J500000D01*
G01*
X193822500Y-102535000D02*
G75*
G02*
X194322500Y-103035000I0J-500000D01*
G01*
X295122500Y-97485000D02*
G75*
G02*
X294622500Y-96985000I0J500000D01*
G01*
X308122500Y-83485000D02*
G75*
G02*
X308622500Y-83985000I0J-500000D01*
G01*
X190854250Y-134085000D02*
G75*
G02*
X190354250Y-134585000I-500000J0D01*
G01*
X183854250Y-134085000D02*
X183854250Y-120085000D01*
X161272500Y-45885000D02*
G75*
G02*
X161772500Y-45385000I500000J0D01*
G01*
X180822500Y-102535000D02*
X193822500Y-102535000D01*
X175272500Y-116035000D02*
G75*
G02*
X174772500Y-116535000I-500000J0D01*
G01*
X104622500Y-59384999D02*
X117622500Y-59384999D01*
X237972500Y-102535000D02*
X250972500Y-102535000D01*
X232422500Y-116035000D02*
G75*
G02*
X231922500Y-116535000I-500000J0D01*
G01*
X166478250Y-119585000D02*
G75*
G02*
X166978250Y-120085000I0J-500000D01*
G01*
X160478250Y-134585000D02*
G75*
G02*
X159978250Y-134085000I0J500000D01*
G01*
X211778750Y-135585000D02*
G75*
G02*
X211278750Y-135085000I0J500000D01*
G01*
X224778750Y-121585000D02*
G75*
G02*
X225278750Y-122085000I0J-500000D01*
G01*
X256522500Y-45885000D02*
X256522500Y-58884999D01*
X111766250Y-121585000D02*
X124766250Y-121585000D01*
X103835000Y-135085000D02*
G75*
G02*
X103335000Y-135585000I-500000J0D01*
G01*
X137172500Y-45885000D02*
X137172500Y-58884999D01*
X218422500Y-103035000D02*
X218422500Y-116035000D01*
X218922500Y-116535000D02*
X231922500Y-116535000D01*
X218422500Y-103035000D02*
G75*
G02*
X218922500Y-102535000I500000J0D01*
G01*
X232422500Y-103035000D02*
X232422500Y-116035000D01*
X295122500Y-116535000D02*
G75*
G02*
X294622500Y-116035000I0J500000D01*
G01*
X308122500Y-102535000D02*
G75*
G02*
X308622500Y-103035000I0J-500000D01*
G01*
X294335000Y-135085000D02*
G75*
G02*
X293835000Y-135585000I-500000J0D01*
G01*
X180322500Y-103035000D02*
X180322500Y-116035000D01*
X180822500Y-116535000D02*
X193822500Y-116535000D01*
X296209500Y-46385000D02*
X302209500Y-46385000D01*
X180822500Y-97485000D02*
G75*
G02*
X180322500Y-96985000I0J500000D01*
G01*
X212872500Y-64435000D02*
G75*
G02*
X213372500Y-64935000I0J-500000D01*
G01*
X193822500Y-64435000D02*
G75*
G02*
X194322500Y-64935000I0J-500000D01*
G01*
X237972500Y-97485000D02*
G75*
G02*
X237472500Y-96985000I0J500000D01*
G01*
X250972500Y-83485000D02*
G75*
G02*
X251472500Y-83985000I0J-500000D01*
G01*
X280835000Y-135585000D02*
G75*
G02*
X280335000Y-135085000I0J500000D01*
G01*
X293835000Y-121585000D02*
G75*
G02*
X294335000Y-122085000I0J-500000D01*
G01*
X199872500Y-45385000D02*
X212872500Y-45385000D01*
X237472500Y-103035000D02*
G75*
G02*
X237972500Y-102535000I500000J0D01*
G01*
X251472500Y-103035000D02*
X251472500Y-116035000D01*
X295709500Y-46885000D02*
X295709500Y-60885000D01*
X275572500Y-83985000D02*
G75*
G02*
X276072500Y-83485000I500000J0D01*
G01*
X289572500Y-83985000D02*
X289572500Y-96985000D01*
X156222500Y-77935000D02*
G75*
G02*
X155722500Y-78435000I-500000J0D01*
G01*
X104622500Y-78435000D02*
X117622500Y-78435000D01*
X123672500Y-78435000D02*
G75*
G02*
X123172500Y-77935000I0J500000D01*
G01*
X193822500Y-45385000D02*
G75*
G02*
X194322500Y-45885000I0J-500000D01*
G01*
X142722500Y-116535000D02*
G75*
G02*
X142222500Y-116035000I0J500000D01*
G01*
X155722500Y-102535000D02*
G75*
G02*
X156222500Y-103035000I0J-500000D01*
G01*
X168916250Y-135585000D02*
G75*
G02*
X168416250Y-135085000I0J500000D01*
G01*
X181916250Y-121585000D02*
G75*
G02*
X182416250Y-122085000I0J-500000D01*
G01*
X251472500Y-45885000D02*
X251472500Y-58884999D01*
X270522500Y-45885000D02*
X270522500Y-58884999D01*
X77928750Y-83985000D02*
X77928750Y-96985000D01*
X78428750Y-97485000D02*
X91428750Y-97485000D01*
X174772500Y-64435000D02*
G75*
G02*
X175272500Y-64935000I0J-500000D01*
G01*
X180322500Y-83985000D02*
G75*
G02*
X180822500Y-83485000I500000J0D01*
G01*
X256522500Y-83985000D02*
X256522500Y-96985000D01*
X257022500Y-97485000D02*
X270022500Y-97485000D01*
X304647500Y-59384999D02*
X317647500Y-59384999D01*
X237472500Y-83985000D02*
X237472500Y-96985000D01*
X257022500Y-78435000D02*
X270022500Y-78435000D01*
X256522500Y-64935000D02*
X256522500Y-77935000D01*
X237472500Y-83985000D02*
G75*
G02*
X237972500Y-83485000I500000J0D01*
G01*
X251472500Y-83985000D02*
X251472500Y-96985000D01*
X123172500Y-64935000D02*
X123172500Y-77935000D01*
X302709500Y-46885000D02*
X302709500Y-60885000D01*
X161272500Y-45885000D02*
X161272500Y-58884999D01*
X91428750Y-83485000D02*
G75*
G02*
X91928750Y-83985000I0J-500000D01*
G01*
X199372500Y-83985000D02*
G75*
G02*
X199872500Y-83485000I500000J0D01*
G01*
X299385000Y-64935000D02*
G75*
G02*
X299885000Y-64435000I500000J0D01*
G01*
X233716750Y-134085000D02*
G75*
G02*
X233216750Y-134585000I-500000J0D01*
G01*
X226716750Y-134085000D02*
X226716750Y-120085000D01*
X289572500Y-77935000D02*
G75*
G02*
X289072500Y-78435000I-500000J0D01*
G01*
X73666250Y-102535000D02*
X86666250Y-102535000D01*
X308622500Y-96985000D02*
G75*
G02*
X308122500Y-97485000I-500000J0D01*
G01*
X295122500Y-102535000D02*
X308122500Y-102535000D01*
X289572500Y-116035000D02*
G75*
G02*
X289072500Y-116535000I-500000J0D01*
G01*
X294622500Y-103035000D02*
G75*
G02*
X295122500Y-102535000I500000J0D01*
G01*
X308622500Y-103035000D02*
X308622500Y-116035000D01*
X104622500Y-64435000D02*
X117622500Y-64435000D01*
X250972500Y-45385000D02*
G75*
G02*
X251472500Y-45885000I0J-500000D01*
G01*
X104622500Y-78435000D02*
G75*
G02*
X104122500Y-77935000I0J500000D01*
G01*
X237972500Y-64435000D02*
X250972500Y-64435000D01*
X104122500Y-103035000D02*
G75*
G02*
X104622500Y-102535000I500000J0D01*
G01*
X118122500Y-103035000D02*
X118122500Y-116035000D01*
X118122500Y-83985000D02*
X118122500Y-96985000D01*
X199372500Y-103035000D02*
X199372500Y-116035000D01*
X199872500Y-116535000D02*
X212872500Y-116535000D01*
X257022500Y-59384999D02*
G75*
G02*
X256522500Y-58884999I0J500000D01*
G01*
X136672500Y-83485000D02*
G75*
G02*
X137172500Y-83985000I0J-500000D01*
G01*
X256522500Y-45885000D02*
G75*
G02*
X257022500Y-45385000I500000J0D01*
G01*
X304647500Y-45385000D02*
X317647500Y-45385000D01*
X89104250Y-103535000D02*
X95104250Y-103535000D01*
X87166250Y-116035000D02*
G75*
G02*
X86666250Y-116535000I-500000J0D01*
G01*
X237472500Y-45885000D02*
X237472500Y-58884999D01*
X294622500Y-103035000D02*
X294622500Y-116035000D01*
X295122500Y-116535000D02*
X308122500Y-116535000D01*
X211278750Y-122085000D02*
G75*
G02*
X211778750Y-121585000I500000J0D01*
G01*
X225278750Y-122085000D02*
X225278750Y-135085000D01*
X73166250Y-103035000D02*
G75*
G02*
X73666250Y-102535000I500000J0D01*
G01*
X87166250Y-103035000D02*
X87166250Y-116035000D01*
X180822500Y-64435000D02*
X193822500Y-64435000D01*
X123672500Y-45385000D02*
X136672500Y-45385000D01*
X118122500Y-58884999D02*
G75*
G02*
X117622500Y-59384999I-500000J0D01*
G01*
X161772500Y-78435000D02*
G75*
G02*
X161272500Y-77935000I0J500000D01*
G01*
X161272500Y-64935000D02*
X161272500Y-77935000D01*
X199872500Y-83485000D02*
X212872500Y-83485000D01*
X180322500Y-64935000D02*
G75*
G02*
X180822500Y-64435000I500000J0D01*
G01*
X194322500Y-83985000D02*
X194322500Y-96985000D01*
X218422500Y-64935000D02*
X218422500Y-77935000D01*
X180822500Y-78435000D02*
G75*
G02*
X180322500Y-77935000I0J500000D01*
G01*
X194322500Y-96985000D02*
G75*
G02*
X193822500Y-97485000I-500000J0D01*
G01*
X270522500Y-77935000D02*
G75*
G02*
X270022500Y-78435000I-500000J0D01*
G01*
X161772500Y-83485000D02*
X174772500Y-83485000D01*
X142222500Y-83985000D02*
X142222500Y-96985000D01*
X237972500Y-83485000D02*
X250972500Y-83485000D01*
X213372500Y-96985000D02*
G75*
G02*
X212872500Y-97485000I-500000J0D01*
G01*
X326585500Y-46885000D02*
X326585500Y-60885000D01*
X320085500Y-46385000D02*
X326085500Y-46385000D01*
X123672500Y-97485000D02*
G75*
G02*
X123172500Y-96985000I0J500000D01*
G01*
X199372500Y-64935000D02*
X199372500Y-77935000D01*
X142222500Y-45885000D02*
X142222500Y-58884999D01*
X123672500Y-59384999D02*
G75*
G02*
X123172500Y-58884999I0J500000D01*
G01*
X318147500Y-45885000D02*
X318147500Y-58884999D01*
M02*
