<?xml version="1.0" encoding="UTF-8" standalone="no"?>
<!-- Generated by SVGo -->

<svg
   xmlns:dc="http://purl.org/dc/elements/1.1/"
   xmlns:cc="http://creativecommons.org/ns#"
   xmlns:rdf="http://www.w3.org/1999/02/22-rdf-syntax-ns#"
   xmlns:svg="http://www.w3.org/2000/svg"
   xmlns="http://www.w3.org/2000/svg"
   xmlns:sodipodi="http://sodipodi.sourceforge.net/DTD/sodipodi-0.dtd"
   xmlns:inkscape="http://www.inkscape.org/namespaces/inkscape"
   width="300mm"
   height="120mm"
   viewBox="0 0 300.00001 120"
   version="1.1"
   id="svg1621"
   sodipodi:docname="bottom.svg"
   inkscape:version="0.92.3 (2405546, 2018-03-11)">
  <metadata
     id="metadata1627">
    <rdf:RDF>
      <cc:Work
         rdf:about="">
        <dc:format>image/svg+xml</dc:format>
        <dc:type
           rdf:resource="http://purl.org/dc/dcmitype/StillImage" />
        <dc:title />
      </cc:Work>
    </rdf:RDF>
  </metadata>
  <defs
     id="defs1625" />
  <sodipodi:namedview
     pagecolor="#ffffff"
     bordercolor="#666666"
     borderopacity="1"
     objecttolerance="10"
     gridtolerance="10"
     guidetolerance="10"
     inkscape:pageopacity="0"
     inkscape:pageshadow="2"
     inkscape:window-width="2560"
     inkscape:window-height="1375"
     id="namedview1623"
     showgrid="false"
     inkscape:measure-start="390.133,38.1221"
     inkscape:measure-end="390.133,46.5387"
     inkscape:zoom="1.4282327"
     inkscape:cx="605.07856"
     inkscape:cy="415.59247"
     inkscape:window-x="0"
     inkscape:window-y="0"
     inkscape:window-maximized="1"
     inkscape:current-layer="svg1621"
     showguides="true"
     inkscape:guide-bbox="true"
     inkscape:document-units="mm"
     inkscape:snap-bbox="true"
     inkscape:snap-global="false">
    <sodipodi:guide
       position="-1.389392,-114.20802"
       orientation="0,1"
       id="guide3312"
       inkscape:locked="false" />
  </sodipodi:namedview>
  <circle
     style="fill:none;fill-opacity:1;stroke:#000000;stroke-width:0.09999999;stroke-linecap:round;stroke-linejoin:round;stroke-miterlimit:4;stroke-dasharray:none;stroke-opacity:1"
     id="circle3327-3"
     cx="196.30714"
     cy="109.90998"
     r="1.05" />
  <rect
     style="fill:none;fill-opacity:1;stroke:#000000;stroke-width:0.1889125;stroke-linecap:round;stroke-linejoin:round;stroke-miterlimit:4;stroke-dasharray:none;stroke-opacity:1"
     id="rect2263"
     width="289.99152"
     height="110.56896"
     x="5.0042419"
     y="4.7155185"
     ry="5.8697305" />
  <circle
     style="fill:none;fill-opacity:1;stroke:#000000;stroke-width:0.09999999;stroke-linecap:round;stroke-linejoin:round;stroke-miterlimit:4;stroke-dasharray:none;stroke-opacity:1"
     id="path3308"
     cx="9.9777975"
     cy="9.7061949"
     r="1.05" />
  <circle
     r="1.05"
     cy="9.7061949"
     cx="289.755"
     id="circle3314"
     style="fill:none;fill-opacity:1;stroke:#000000;stroke-width:0.09999999;stroke-linecap:round;stroke-linejoin:round;stroke-miterlimit:4;stroke-dasharray:none;stroke-opacity:1" />
  <circle
     r="1.05"
     cy="109.88319"
     cx="9.9893618"
     id="circle3325"
     style="fill:none;fill-opacity:1;stroke:#000000;stroke-width:0.09999999;stroke-linecap:round;stroke-linejoin:round;stroke-miterlimit:4;stroke-dasharray:none;stroke-opacity:1" />
  <circle
     style="fill:none;fill-opacity:1;stroke:#000000;stroke-width:0.09999999;stroke-linecap:round;stroke-linejoin:round;stroke-miterlimit:4;stroke-dasharray:none;stroke-opacity:1"
     id="circle3327"
     cx="103.17239"
     cy="109.88319"
     r="1.05" />
  <circle
     r="1.05"
     cy="9.716609"
     cx="196.30714"
     id="circle3348"
     style="fill:none;fill-opacity:1;stroke:#000000;stroke-width:0.09999999;stroke-linecap:round;stroke-linejoin:round;stroke-miterlimit:4;stroke-dasharray:none;stroke-opacity:1" />
  <circle
     r="1.05"
     cy="9.6898222"
     cx="103.17239"
     id="circle3350"
     style="fill:none;fill-opacity:1;stroke:#000000;stroke-width:0.09999999;stroke-linecap:round;stroke-linejoin:round;stroke-miterlimit:4;stroke-dasharray:none;stroke-opacity:1" />
  <circle
     style="fill:none;fill-opacity:1;stroke:#000000;stroke-width:0.09999999;stroke-linecap:round;stroke-linejoin:round;stroke-miterlimit:4;stroke-dasharray:none;stroke-opacity:1"
     id="circle3316"
     cx="289.75"
     cy="109.53"
     r="1.05" />
  <g
     style="fill:#ff0000"
     transform="matrix(-2.2322095,0,0,2.2322095,348.28729,-354.57106)"
     id="g5093">
    <path
       inkscape:connector-curvature="0"
       id="path5085"
       style="font-style:normal;font-variant:normal;font-weight:normal;font-stretch:normal;font-size:medium;line-height:1.25;font-family:Mali;-inkscape-font-specification:Mali;letter-spacing:0px;word-spacing:0px;fill:#ff0000;fill-opacity:1;stroke:none;stroke-width:0.26458332"
       d="m 57.39939,198.25556 q -0.719666,0 -1.227666,-0.34925 -0.508,-0.35983 -0.79375,-0.91016 -0.07408,-0.14817 -0.07408,-0.20109 0,-0.14816 0.127,-0.254 0.137584,-0.11641 0.296334,-0.11641 0.105833,0 0.15875,0.0635 0.0635,0.0529 0.169333,0.20108 0.264583,0.40217 0.560917,0.64558 0.296333,0.23284 0.783166,0.23284 0.455084,0 0.751417,-0.22225 0.306917,-0.22225 0.306917,-0.56092 0,-0.24342 -0.169334,-0.41275 -0.15875,-0.16933 -0.402166,-0.27517 -0.232834,-0.10583 -0.677334,-0.26458 -0.560916,-0.20108 -0.910166,-0.35983 -0.338667,-0.16934 -0.582084,-0.46567 -0.243416,-0.30692 -0.243416,-0.77258 0,-0.41275 0.22225,-0.762 0.232833,-0.35984 0.656166,-0.5715 0.423334,-0.21167 0.973667,-0.21167 0.550333,0 0.973667,0.21167 0.423333,0.21166 0.656166,0.56091 0.232834,0.34925 0.232834,0.77259 0,0.21166 -0.08467,0.30691 -0.07408,0.0952 -0.275167,0.0952 -0.211666,0 -0.28575,-0.0741 -0.0635,-0.0847 -0.07408,-0.21167 -0.04233,-0.49741 -0.34925,-0.73025 -0.306917,-0.24341 -0.79375,-0.24341 -0.5715,0 -0.814917,0.27516 -0.232833,0.26459 -0.232833,0.5715 0,0.35984 0.306917,0.56092 0.3175,0.1905 0.973666,0.42333 0.560917,0.20109 0.899584,0.37042 0.338666,0.16933 0.5715,0.46567 0.243416,0.29633 0.243416,0.74083 0,0.68792 -0.53975,1.0795 -0.53975,0.39158 -1.3335,0.39158 z" />
    <path
       inkscape:connector-curvature="0"
       id="path5087"
       style="font-style:normal;font-variant:normal;font-weight:normal;font-stretch:normal;font-size:medium;line-height:1.25;font-family:Mali;-inkscape-font-specification:Mali;letter-spacing:0px;word-spacing:0px;fill:#ff0000;fill-opacity:1;stroke:none;stroke-width:0.26458332"
       d="m 63.721111,196.47756 q 0.1905,0 0.264584,0.0952 0.08467,0.0847 0.08467,0.3175 0,0.55034 -0.370416,0.93134 -0.359834,0.381 -0.931333,0.381 -0.79375,0 -1.143,-0.6985 -0.338667,-0.6985 -0.338667,-2.16959 0,-0.55033 0.05292,-1.25941 -0.116417,-0.0106 -0.656167,-0.0529 -0.3175,-0.0318 -0.3175,-0.34925 0,-0.3175 0.306917,-0.3175 0.08467,0 0.359833,0.0212 0.232833,0.0212 0.359833,0.0212 0.07408,-0.78316 0.254,-1.9685 0.02117,-0.15875 0.105834,-0.23283 0.09525,-0.0847 0.296333,-0.0847 0.201083,0 0.3175,0.10584 0.116417,0.10583 0.09525,0.26458 l -0.05292,0.34925 q -0.15875,1.22767 -0.201083,1.60867 l 0.846666,0.0212 q 0.15875,0 0.232834,0.0635 0.08467,0.0635 0.08467,0.22225 0,0.20109 -0.08467,0.27517 -0.07408,0.0635 -0.296334,0.0741 -0.328083,0.0106 -0.846666,0.0106 -0.05292,0.66675 -0.05292,1.22766 0,1.02659 0.15875,1.60867 0.169334,0.58208 0.60325,0.58208 0.232833,0 0.370417,-0.17991 0.137583,-0.17992 0.15875,-0.53975 0.01058,-0.16934 0.0635,-0.24342 0.0635,-0.0847 0.275166,-0.0847 z" />
    <path
       inkscape:connector-curvature="0"
       id="path5089"
       style="font-style:normal;font-variant:normal;font-weight:normal;font-stretch:normal;font-size:medium;line-height:1.25;font-family:Mali;-inkscape-font-specification:Mali;letter-spacing:0px;word-spacing:0px;fill:#ff0000;fill-opacity:1;stroke:none;stroke-width:0.26458332"
       d="m 70.276992,197.51473 q 0.148166,0.0212 0.22225,0.0847 0.07408,0.0635 0.07408,0.23283 0,0.15875 -0.08467,0.254 -0.07408,0.0952 -0.211666,0.0952 -0.433917,0 -0.645584,-0.13758 -0.201083,-0.13759 -0.34925,-0.51859 -0.47625,0.77259 -1.693333,0.77259 -0.85725,0 -1.386417,-0.381 -0.529166,-0.381 -0.762,-0.96309 -0.22225,-0.59266 -0.22225,-1.24883 0,-0.70908 0.28575,-1.3335 0.28575,-0.62442 0.836084,-1.00542 0.560916,-0.381 1.3335,-0.381 0.529166,0 0.92075,0.21167 0.391583,0.21167 0.613833,0.59267 l 0.04233,-0.34925 q 0.02117,-0.39159 0.359834,-0.39159 0.211666,0 0.3175,0.10584 0.116416,0.0952 0.09525,0.23283 l -0.03175,0.26458 q -0.07408,0.4445 -0.105834,0.92075 -0.03175,0.40217 -0.03175,1.0795 v 0.73025 q 0,0.45509 0.02117,0.67734 0.03175,0.21166 0.116417,0.32808 0.08467,0.11642 0.28575,0.127 z m -1.227667,-1.143 q 0.01058,-0.49742 0.01058,-1.28058 0,-0.51859 -0.22225,-0.83609 -0.22225,-0.32808 -0.53975,-0.46566 -0.3175,-0.13759 -0.60325,-0.13759 -0.560916,0 -0.941916,0.3175 -0.370417,0.3175 -0.550334,0.79375 -0.169333,0.47625 -0.169333,0.94192 0,0.74083 0.359833,1.3335 0.370417,0.58208 1.2065,0.58208 0.624417,0 1.026584,-0.3175 0.41275,-0.32808 0.423333,-0.93133 z" />
    <path
       inkscape:connector-curvature="0"
       id="path5091"
       style="font-style:normal;font-variant:normal;font-weight:normal;font-stretch:normal;font-size:medium;line-height:1.25;font-family:Mali;-inkscape-font-specification:Mali;letter-spacing:0px;word-spacing:0px;fill:#ff0000;fill-opacity:1;stroke:none;stroke-width:0.26458332"
       d="m 74.436736,192.76281 q 0.677334,0 1.058334,0.43392 0.381,0.42333 0.381,1.03717 0,0.58208 -0.34925,0.92075 -0.34925,0.32808 -0.899584,0.32808 -0.211666,0 -0.306916,-0.0635 -0.08467,-0.0635 -0.08467,-0.23283 0,-0.27517 0.264583,-0.28575 0.687917,-0.0635 0.687917,-0.67734 0,-0.32808 -0.179917,-0.56091 -0.179916,-0.23284 -0.582083,-0.23284 -0.423333,0 -0.740833,0.35984 -0.306917,0.35983 -0.486834,0.89958 -0.179916,0.52917 -0.211666,1.04775 -0.0635,0.97367 -0.0635,1.8415 0,0.43392 -0.08467,0.5715 -0.07408,0.13758 -0.306917,0.13758 -0.232833,0 -0.328083,-0.10583 -0.08467,-0.11642 -0.08467,-0.39158 l -0.01058,-2.02142 q 0,-0.6985 -0.105833,-1.8415 -0.0635,-0.66675 -0.07408,-0.9525 -0.01058,-0.16933 0.09525,-0.254 0.105834,-0.0953 0.296334,-0.0953 0.328083,0 0.34925,0.3175 0.0635,0.66675 0.07408,1.30175 0.179917,-0.6985 0.624417,-1.09008 0.4445,-0.39159 1.068916,-0.39159 z" />
  </g>
  <g
     style="fill:#ff0000"
     transform="matrix(-2.2322095,0,0,2.2322095,326.56145,-354.57106)"
     id="g5107">
    <path
       inkscape:connector-curvature="0"
       id="path5095"
       style="font-style:normal;font-variant:normal;font-weight:normal;font-stretch:normal;font-size:medium;line-height:1.25;font-family:Mali;-inkscape-font-specification:Mali;letter-spacing:0px;word-spacing:0px;fill:#ff0000;fill-opacity:1;stroke:none;stroke-width:0.26458332"
       d="m 79.939575,192.84748 q 0.772583,0 1.375833,0.33867 0.60325,0.32808 0.941917,0.94191 0.338666,0.61384 0.338666,1.44992 0,0.91017 -0.391583,1.51342 -0.391583,0.59266 -0.994833,0.86783 -0.60325,0.27517 -1.27,0.27517 -0.465667,0 -0.878417,-0.13759 -0.41275,-0.14816 -0.6985,-0.34925 -0.28575,-0.21166 -0.402166,-0.40216 -0.0635,0.23283 -0.243417,0.43391 -0.169333,0.20109 -0.328083,0.27517 -0.08467,0.0423 -0.179917,0.0423 -0.15875,0 -0.264583,-0.11641 -0.105834,-0.11642 -0.105834,-0.24342 0,-0.127 0.105834,-0.22225 0.03175,-0.0317 0.105833,-0.0847 0.07408,-0.0635 0.127,-0.127 0.0635,-0.0741 0.09525,-0.16933 0.07408,-0.22225 0.07408,-0.635 l -0.02117,-0.81492 -0.03175,-1.55575 -0.02117,-1.43933 q -0.02117,-2.08492 -0.08467,-3.3655 -0.01058,-0.15875 0.105834,-0.24342 0.116416,-0.0953 0.296333,-0.0953 0.169333,0 0.275167,0.0847 0.116416,0.0847 0.127,0.23283 0.05292,0.89959 0.07408,1.70392 0.02117,0.80433 0.03175,1.67217 0,0.5715 0.01058,0.89958 0.254,-0.30692 0.719667,-0.51858 0.465667,-0.21167 1.11125,-0.21167 z m -0.01058,4.72017 q 0.465666,0 0.878416,-0.20109 0.423333,-0.20108 0.6985,-0.65616 0.275167,-0.45509 0.275167,-1.15359 0,-0.97366 -0.529167,-1.50283 -0.518583,-0.53975 -1.36525,-0.53975 -0.582083,0 -1.058333,0.29633 -0.465667,0.29634 -0.687917,0.67734 v 0.80433 q 0,0.61383 0.03175,1.016 0.02117,0.32808 0.264584,0.62442 0.254,0.28575 0.645583,0.46566 0.402167,0.16934 0.846667,0.16934 z" />
    <path
       inkscape:connector-curvature="0"
       id="path5097"
       style="font-style:normal;font-variant:normal;font-weight:normal;font-stretch:normal;font-size:medium;line-height:1.25;font-family:Mali;-inkscape-font-specification:Mali;letter-spacing:0px;word-spacing:0px;fill:#ff0000;fill-opacity:1;stroke:none;stroke-width:0.26458332"
       d="m 86.403015,198.21323 q -1.195917,0 -1.989667,-0.635 -0.783166,-0.635 -0.783166,-1.98967 0,-0.84666 0.3175,-1.48166 0.328083,-0.64559 0.941916,-1.00542 0.613834,-0.35983 1.449917,-0.35983 0.804333,0 1.439333,0.33866 0.645584,0.32809 1.005417,0.97367 0.370417,0.635 0.370417,1.524 0,1.29117 -0.762,1.9685 -0.751417,0.66675 -1.989667,0.66675 z m -0.02117,-0.66675 q 0.846667,0 1.397,-0.49742 0.560917,-0.508 0.560917,-1.48166 0,-0.635 -0.254,-1.12184 -0.243417,-0.49741 -0.6985,-0.762 -0.4445,-0.27516 -1.026583,-0.27516 -0.867834,0 -1.397,0.59266 -0.518584,0.59267 -0.518584,1.56634 0,1.02658 0.560917,1.50283 0.560917,0.47625 1.375833,0.47625 z" />
    <path
       inkscape:connector-curvature="0"
       id="path5099"
       style="font-style:normal;font-variant:normal;font-weight:normal;font-stretch:normal;font-size:medium;line-height:1.25;font-family:Mali;-inkscape-font-specification:Mali;letter-spacing:0px;word-spacing:0px;fill:#ff0000;fill-opacity:1;stroke:none;stroke-width:0.26458332"
       d="m 95.205702,197.51473 q 0.148167,0.0212 0.22225,0.0847 0.07408,0.0635 0.07408,0.23283 0,0.15875 -0.08467,0.254 -0.07408,0.0952 -0.211667,0.0952 -0.433916,0 -0.645583,-0.13758 -0.201083,-0.13759 -0.34925,-0.51859 -0.47625,0.77259 -1.693333,0.77259 -0.85725,0 -1.386417,-0.381 -0.529167,-0.381 -0.762,-0.96309 -0.22225,-0.59266 -0.22225,-1.24883 0,-0.70908 0.28575,-1.3335 0.28575,-0.62442 0.836083,-1.00542 0.560917,-0.381 1.3335,-0.381 0.529167,0 0.92075,0.21167 0.391584,0.21167 0.613834,0.59267 l 0.04233,-0.34925 q 0.02117,-0.39159 0.359833,-0.39159 0.211667,0 0.3175,0.10584 0.116417,0.0952 0.09525,0.23283 l -0.03175,0.26458 q -0.07408,0.4445 -0.105833,0.92075 -0.03175,0.40217 -0.03175,1.0795 v 0.73025 q 0,0.45509 0.02117,0.67734 0.03175,0.21166 0.116416,0.32808 0.08467,0.11642 0.28575,0.127 z m -1.227666,-1.143 q 0.01058,-0.49742 0.01058,-1.28058 0,-0.51859 -0.22225,-0.83609 -0.22225,-0.32808 -0.53975,-0.46566 -0.3175,-0.13759 -0.60325,-0.13759 -0.560917,0 -0.941917,0.3175 -0.370416,0.3175 -0.550333,0.79375 -0.169333,0.47625 -0.169333,0.94192 0,0.74083 0.359833,1.3335 0.370417,0.58208 1.2065,0.58208 0.624417,0 1.026583,-0.3175 0.41275,-0.32808 0.423334,-0.93133 z" />
    <path
       inkscape:connector-curvature="0"
       id="path5101"
       style="font-style:normal;font-variant:normal;font-weight:normal;font-stretch:normal;font-size:medium;line-height:1.25;font-family:Mali;-inkscape-font-specification:Mali;letter-spacing:0px;word-spacing:0px;fill:#ff0000;fill-opacity:1;stroke:none;stroke-width:0.26458332"
       d="m 99.365447,192.76281 q 0.677333,0 1.058333,0.43392 0.381,0.42333 0.381,1.03717 0,0.58208 -0.34925,0.92075 -0.34925,0.32808 -0.899583,0.32808 -0.211667,0 -0.306917,-0.0635 -0.08467,-0.0635 -0.08467,-0.23283 0,-0.27517 0.264583,-0.28575 0.687917,-0.0635 0.687917,-0.67734 0,-0.32808 -0.179917,-0.56091 -0.179917,-0.23284 -0.582083,-0.23284 -0.423334,0 -0.740834,0.35984 -0.306916,0.35983 -0.486833,0.89958 -0.179917,0.52917 -0.211667,1.04775 -0.0635,0.97367 -0.0635,1.8415 0,0.43392 -0.08467,0.5715 -0.07408,0.13758 -0.306917,0.13758 -0.232833,0 -0.328083,-0.10583 -0.08467,-0.11642 -0.08467,-0.39158 l -0.01058,-2.02142 q 0,-0.6985 -0.105834,-1.8415 -0.0635,-0.66675 -0.07408,-0.9525 -0.01058,-0.16933 0.09525,-0.254 0.105833,-0.0953 0.296333,-0.0953 0.328084,0 0.34925,0.3175 0.0635,0.66675 0.07408,1.30175 0.179916,-0.6985 0.624416,-1.09008 0.4445,-0.39159 1.068917,-0.39159 z" />
    <path
       inkscape:connector-curvature="0"
       id="path5103"
       style="font-style:normal;font-variant:normal;font-weight:normal;font-stretch:normal;font-size:medium;line-height:1.25;font-family:Mali;-inkscape-font-specification:Mali;letter-spacing:0px;word-spacing:0px;fill:#ff0000;fill-opacity:1;stroke:none;stroke-width:0.26458332"
       d="m 104.75187,198.24498 q -0.74083,0 -1.35467,-0.29633 -0.61383,-0.29634 -0.98425,-0.91017 -0.37041,-0.61383 -0.37041,-1.524 0,-0.8255 0.33866,-1.42875 0.33867,-0.60325 0.9525,-0.92075 0.62442,-0.32808 1.44992,-0.32808 0.59267,0 1.03717,0.17991 0.45508,0.16934 0.71966,0.4445 v -0.22225 q 0.0423,-1.66158 0.0635,-2.42358 0.0318,-0.762 0.10584,-1.524 0.0212,-0.14817 0.127,-0.24342 0.10583,-0.0952 0.27516,-0.0952 0.1905,0 0.30692,0.10584 0.11642,0.0952 0.10583,0.254 -0.0741,0.77258 -0.13758,2.65641 -0.0635,1.88384 -0.0635,3.39725 0,1.54517 0.0741,1.778 0.0635,0.23284 0.14817,0.39159 0.0953,0.14816 0.20108,0.14816 0.0318,0 0.0318,0.11642 0,0.15875 -0.13758,0.28575 -0.13758,0.127 -0.30692,0.127 -0.11641,0 -0.20108,-0.0529 -0.14817,-0.0847 -0.30692,-0.27516 -0.14816,-0.20109 -0.20108,-0.55034 -0.26458,0.42334 -0.762,0.66675 -0.49742,0.24342 -1.11125,0.24342 z m -0.0212,-0.71967 q 0.45509,0 0.85725,-0.1905 0.41275,-0.20108 0.66675,-0.52916 0.254,-0.33867 0.254,-0.73025 0,-0.46567 0.0106,-0.74084 l 0.0106,-0.87841 q -0.17992,-0.33867 -0.65617,-0.62442 -0.47625,-0.28575 -1.09008,-0.28575 -0.87842,0 -1.40758,0.52917 -0.52917,0.52916 -0.52917,1.47108 0,0.67733 0.27517,1.12183 0.28575,0.4445 0.71966,0.65617 0.43392,0.20108 0.889,0.20108 z" />
    <path
       inkscape:connector-curvature="0"
       id="path5105"
       style="font-style:normal;font-variant:normal;font-weight:normal;font-stretch:normal;font-size:medium;line-height:1.25;font-family:Mali;-inkscape-font-specification:Mali;letter-spacing:0px;word-spacing:0px;fill:#ff0000;fill-opacity:1;stroke:none;stroke-width:0.26458332"
       d="m 110.75014,198.25556 q -0.71967,0 -1.22767,-0.34925 -0.508,-0.35983 -0.79375,-0.91016 -0.0741,-0.14817 -0.0741,-0.20109 0,-0.14816 0.127,-0.254 0.13758,-0.11641 0.29633,-0.11641 0.10583,0 0.15875,0.0635 0.0635,0.0529 0.16933,0.20108 0.26459,0.40217 0.56092,0.64558 0.29633,0.23284 0.78317,0.23284 0.45508,0 0.75141,-0.22225 0.30692,-0.22225 0.30692,-0.56092 0,-0.24342 -0.16933,-0.41275 -0.15875,-0.16933 -0.40217,-0.27517 -0.23283,-0.10583 -0.67733,-0.26458 -0.56092,-0.20108 -0.91017,-0.35983 -0.33867,-0.16934 -0.58208,-0.46567 -0.24342,-0.30692 -0.24342,-0.77258 0,-0.41275 0.22225,-0.762 0.23283,-0.35984 0.65617,-0.5715 0.42333,-0.21167 0.97366,-0.21167 0.55034,0 0.97367,0.21167 0.42333,0.21166 0.65617,0.56091 0.23283,0.34925 0.23283,0.77259 0,0.21166 -0.0847,0.30691 -0.0741,0.0952 -0.27516,0.0952 -0.21167,0 -0.28575,-0.0741 -0.0635,-0.0847 -0.0741,-0.21167 -0.0423,-0.49741 -0.34925,-0.73025 -0.30691,-0.24341 -0.79375,-0.24341 -0.5715,0 -0.81491,0.27516 -0.23284,0.26459 -0.23284,0.5715 0,0.35984 0.30692,0.56092 0.3175,0.1905 0.97367,0.42333 0.56091,0.20109 0.89958,0.37042 0.33867,0.16933 0.5715,0.46567 0.24342,0.29633 0.24342,0.74083 0,0.68792 -0.53975,1.0795 -0.53975,0.39158 -1.3335,0.39158 z" />
  </g>
  <path
     inkscape:connector-curvature="0"
     id="path5109"
     d="m 177.02563,58.899452 a 0.97110823,0.97110823 0 0 1 0.66268,1.674157 c -2.54946,2.50782 -4.79152,5.086871 -5.91186,8.641084 a 0.9714108,0.9714108 0 1 1 -1.85291,-0.584192 c 1.26326,-4.007619 3.78698,-6.868508 6.40452,-9.443295 a 0.97110823,0.97110823 0 0 1 0.69757,-0.287754 z"
     style="color:#000000;font-style:normal;font-variant:normal;font-weight:normal;font-stretch:normal;font-size:medium;line-height:normal;font-family:sans-serif;font-variant-ligatures:normal;font-variant-position:normal;font-variant-caps:normal;font-variant-numeric:normal;font-variant-alternates:normal;font-feature-settings:normal;text-indent:0;text-align:start;text-decoration:none;text-decoration-line:none;text-decoration-style:solid;text-decoration-color:#000000;letter-spacing:normal;word-spacing:normal;text-transform:none;writing-mode:lr-tb;direction:ltr;text-orientation:mixed;dominant-baseline:auto;baseline-shift:baseline;text-anchor:start;white-space:normal;shape-padding:0;clip-rule:nonzero;display:inline;overflow:visible;visibility:visible;opacity:1;isolation:auto;mix-blend-mode:normal;color-interpolation:sRGB;color-interpolation-filters:linearRGB;solid-color:#000000;solid-opacity:1;vector-effect:none;fill:#ff0000;fill-opacity:1;fill-rule:nonzero;stroke:none;stroke-width:1.94202232;stroke-linecap:round;stroke-linejoin:miter;stroke-miterlimit:4;stroke-dasharray:none;stroke-dashoffset:0;stroke-opacity:1;color-rendering:auto;image-rendering:auto;shape-rendering:auto;text-rendering:auto;enable-background:accumulate" />
  <path
     inkscape:connector-curvature="0"
     id="path5111"
     d="m 180.69657,64.602055 a 0.97110823,0.97110823 0 0 1 0.36186,1.852913 c -3.57282,1.700765 -3.97948,3.198354 -5.64592,5.127095 a 0.97110823,0.97110823 0 1 1 -1.46925,-1.268699 c 1.42636,-1.650875 2.33557,-3.732187 6.28245,-5.611038 a 0.97110823,0.97110823 0 0 1 0.47086,-0.100226 z"
     style="color:#000000;font-style:normal;font-variant:normal;font-weight:normal;font-stretch:normal;font-size:medium;line-height:normal;font-family:sans-serif;font-variant-ligatures:normal;font-variant-position:normal;font-variant-caps:normal;font-variant-numeric:normal;font-variant-alternates:normal;font-feature-settings:normal;text-indent:0;text-align:start;text-decoration:none;text-decoration-line:none;text-decoration-style:solid;text-decoration-color:#000000;letter-spacing:normal;word-spacing:normal;text-transform:none;writing-mode:lr-tb;direction:ltr;text-orientation:mixed;dominant-baseline:auto;baseline-shift:baseline;text-anchor:start;white-space:normal;shape-padding:0;clip-rule:nonzero;display:inline;overflow:visible;visibility:visible;opacity:1;isolation:auto;mix-blend-mode:normal;color-interpolation:sRGB;color-interpolation-filters:linearRGB;solid-color:#000000;solid-opacity:1;vector-effect:none;fill:#ff0000;fill-opacity:1;fill-rule:nonzero;stroke:none;stroke-width:1.94202232;stroke-linecap:round;stroke-linejoin:miter;stroke-miterlimit:4;stroke-dasharray:none;stroke-dashoffset:0;stroke-opacity:1;color-rendering:auto;image-rendering:auto;shape-rendering:auto;text-rendering:auto;enable-background:accumulate" />
  <path
     inkscape:connector-curvature="0"
     id="path5113"
     d="m 158.20257,81.060715 c 0.003,0.401576 4.40621,3.034886 4.64417,3.358087 0.23794,0.323216 1.44812,5.314531 1.83036,5.435907 0.38223,0.121378 4.24443,-3.259203 4.62494,-3.386009 0.3805,-0.126805 5.49485,0.262289 5.7283,-0.06427 0.23344,-0.326557 -1.78302,-5.049179 -1.78581,-5.450755 -0.003,-0.40157 1.94789,-5.152427 1.70993,-5.475628 -0.23793,-0.323216 -5.34639,0.138637 -5.72863,0.01726 -0.38223,-0.121377 -4.291,-3.446661 -4.67151,-3.319856 -0.3805,0.126805 -1.52123,5.134861 -1.75467,5.461419 -0.23345,0.326556 -4.59988,3.022273 -4.59708,3.423843 z"
     inkscape:transform-center-y="0.09756404"
     inkscape:transform-center-x="-0.57199314"
     style="fill:#ff0000;fill-opacity:1;stroke:#ff0000;stroke-width:1.9420222;stroke-linecap:round;stroke-miterlimit:4;stroke-dasharray:none;stroke-opacity:1" />
  <circle
     r="2.050699"
     cy="20.412027"
     cx="41.149918"
     id="path953"
     style="fill:none;fill-opacity:1;stroke:#000000;stroke-width:0.09999999;stroke-linecap:round;stroke-linejoin:round;stroke-miterlimit:4;stroke-dasharray:none;stroke-opacity:1" />
  <circle
     style="fill:none;fill-opacity:1;stroke:#000000;stroke-width:0.09999999;stroke-linecap:round;stroke-linejoin:round;stroke-miterlimit:4;stroke-dasharray:none;stroke-opacity:1"
     id="circle961"
     cx="256.98932"
     cy="20.324865"
     r="2.050699" />
</svg>
