<?xml version="1.0" encoding="UTF-8" standalone="no"?>
<!-- Generated by SVGo -->

<svg
   xmlns:dc="http://purl.org/dc/elements/1.1/"
   xmlns:cc="http://creativecommons.org/ns#"
   xmlns:rdf="http://www.w3.org/1999/02/22-rdf-syntax-ns#"
   xmlns:svg="http://www.w3.org/2000/svg"
   xmlns="http://www.w3.org/2000/svg"
   xmlns:sodipodi="http://sodipodi.sourceforge.net/DTD/sodipodi-0.dtd"
   xmlns:inkscape="http://www.inkscape.org/namespaces/inkscape"
   width="300mm"
   height="120mm"
   viewBox="0 0 300.00001 120"
   version="1.1"
   id="svg1621"
   sodipodi:docname="hipro_upper_plate.svg"
   inkscape:version="0.92.3 (2405546, 2018-03-11)">
  <metadata
     id="metadata1627">
    <rdf:RDF>
      <cc:Work
         rdf:about="">
        <dc:format>image/svg+xml</dc:format>
        <dc:type
           rdf:resource="http://purl.org/dc/dcmitype/StillImage" />
        <dc:title />
      </cc:Work>
    </rdf:RDF>
  </metadata>
  <defs
     id="defs1625" />
  <sodipodi:namedview
     pagecolor="#ffffff"
     bordercolor="#666666"
     borderopacity="1"
     objecttolerance="10"
     gridtolerance="10"
     guidetolerance="10"
     inkscape:pageopacity="0"
     inkscape:pageshadow="2"
     inkscape:window-width="2560"
     inkscape:window-height="1375"
     id="namedview1623"
     showgrid="false"
     inkscape:measure-start="-40.1025,-431.652"
     inkscape:measure-end="1016.92,-431.652"
     inkscape:zoom="2.0438686"
     inkscape:cx="803.72442"
     inkscape:cy="179.10162"
     inkscape:window-x="0"
     inkscape:window-y="0"
     inkscape:window-maximized="1"
     inkscape:current-layer="svg1621"
     showguides="true"
     inkscape:guide-bbox="true"
     inkscape:document-units="mm"
     inkscape:snap-bbox="true" />
  <rect
     style="fill:none;fill-opacity:1;stroke:#000000;stroke-width:0.1889125;stroke-linecap:round;stroke-linejoin:round;stroke-miterlimit:4;stroke-dasharray:none;stroke-opacity:1"
     id="rect2263"
     width="289.99152"
     height="110.56896"
     x="5.0042419"
     y="4.7155185"
     ry="5.8697305" />
  <circle
     style="fill:none;fill-opacity:1;stroke:#000000;stroke-width:0.09999999;stroke-linecap:round;stroke-linejoin:round;stroke-miterlimit:4;stroke-dasharray:none;stroke-opacity:1"
     id="path3308"
     cx="9.9777975"
     cy="9.7061949"
     r="1.05" />
  <circle
     r="1.05"
     cy="9.7061949"
     cx="289.755"
     id="circle3314"
     style="fill:none;fill-opacity:1;stroke:#000000;stroke-width:0.09999999;stroke-linecap:round;stroke-linejoin:round;stroke-miterlimit:4;stroke-dasharray:none;stroke-opacity:1" />
  <circle
     style="fill:none;fill-opacity:1;stroke:#000000;stroke-width:0.09999999;stroke-linecap:round;stroke-linejoin:round;stroke-miterlimit:4;stroke-dasharray:none;stroke-opacity:1"
     id="circle3316"
     cx="289.755"
     cy="109.88319"
     r="1.05" />
  <circle
     r="1.05"
     cy="109.88319"
     cx="9.9893618"
     id="circle3325"
     style="fill:none;fill-opacity:1;stroke:#000000;stroke-width:0.09999999;stroke-linecap:round;stroke-linejoin:round;stroke-miterlimit:4;stroke-dasharray:none;stroke-opacity:1" />
  <path
     style="fill:none;stroke:#000000;stroke-width:0.2;stroke-linecap:butt;stroke-linejoin:miter;stroke-miterlimit:4;stroke-dasharray:none;stroke-opacity:1"
     d="M 39.612379,10.530439 H 282.32875 c 2.39172,0 4.5465,2.59286 4.5465,5.163672 v 12.746464 c 0,2.446881 -2.31275,4.873194 -4.27906,4.873194 -2.49665,0 -4.85607,2.328249 -4.85607,4.875447 l 0,9.988473 c 0,2.565634 -2.24282,4.815927 -5.16718,4.815927 -2.53116,0 -4.84984,2.216252 -4.84984,4.90983 l 0,27.890972 c 0,2.442313 -2.21335,4.823117 -4.80351,4.823117 h -5.20698 c -2.4791,0 -4.79697,2.457466 -4.79697,4.854001 v 9.106214 c 0,2.71757 -2.33268,4.7934 -4.79339,4.7934 H 44.580108 c -2.584278,0 -4.77403,-2.30141 -4.77403,-4.80833 v -9.013108 c 0,-2.519677 -2.385121,-4.865882 -4.837798,-4.865882 H 16.167642 c -2.548714,0 -4.774629,-2.429146 -4.774629,-4.82696 V 71.90899 c 0,-2.398652 2.34682,-4.832023 4.481065,-4.832023 2.319188,0 4.804703,-2.161686 4.804703,-4.796475 v -8.206654 c 0,-2.349147 2.388628,-4.75844 4.756935,-4.75844 h 0.453285 v -4.795687 -8.756213 c 0,-2.838139 1.776776,-4.869835 4.581841,-4.869835 2.504328,0 4.169637,-2.137495 4.169637,-4.809648 l 0.13728,-10.761649 c 0,-2.338075 2.643194,-4.791927 4.834616,-4.791927 z"
     id="path1297"
     inkscape:connector-curvature="0"
     sodipodi:nodetypes="cccccccccccccccccccccccccccccccccc" />
</svg>
