<?xml version="1.0" encoding="UTF-8" standalone="no"?>
<!-- Generated by SVGo -->

<svg
   xmlns:dc="http://purl.org/dc/elements/1.1/"
   xmlns:cc="http://creativecommons.org/ns#"
   xmlns:rdf="http://www.w3.org/1999/02/22-rdf-syntax-ns#"
   xmlns:svg="http://www.w3.org/2000/svg"
   xmlns="http://www.w3.org/2000/svg"
   xmlns:sodipodi="http://sodipodi.sourceforge.net/DTD/sodipodi-0.dtd"
   xmlns:inkscape="http://www.inkscape.org/namespaces/inkscape"
   width="300mm"
   height="120mm"
   viewBox="0 0 300.00001 120"
   version="1.1"
   id="svg1621"
   sodipodi:docname="plate.svg"
   inkscape:version="0.92.3 (2405546, 2018-03-11)">
  <metadata
     id="metadata1627">
    <rdf:RDF>
      <cc:Work
         rdf:about="">
        <dc:format>image/svg+xml</dc:format>
        <dc:type
           rdf:resource="http://purl.org/dc/dcmitype/StillImage" />
        <dc:title />
      </cc:Work>
    </rdf:RDF>
  </metadata>
  <defs
     id="defs1625" />
  <sodipodi:namedview
     pagecolor="#ffffff"
     bordercolor="#666666"
     borderopacity="1"
     objecttolerance="10"
     gridtolerance="10"
     guidetolerance="10"
     inkscape:pageopacity="0"
     inkscape:pageshadow="2"
     inkscape:window-width="2560"
     inkscape:window-height="1375"
     id="namedview1623"
     showgrid="false"
     inkscape:measure-start="-40.1025,-431.652"
     inkscape:measure-end="1016.92,-431.652"
     inkscape:zoom="0.25247826"
     inkscape:cx="1579.2732"
     inkscape:cy="-1101.7063"
     inkscape:window-x="0"
     inkscape:window-y="0"
     inkscape:window-maximized="1"
     inkscape:current-layer="svg1621"
     showguides="true"
     inkscape:guide-bbox="true"
     inkscape:document-units="mm"
     inkscape:snap-bbox="true" />
  <flowRoot
     xml:space="preserve"
     id="flowRoot2178"
     style="font-style:normal;font-weight:normal;font-size:40px;line-height:1.25;font-family:sans-serif;letter-spacing:0px;word-spacing:0px;fill:#000000;fill-opacity:1;stroke:none"
     transform="translate(15.68459,-104.93892)"><flowRegion
       id="flowRegion2180"><rect
         id="rect2182"
         width="112.02657"
         height="75.617928"
         x="450.20676"
         y="-78.835182" /></flowRegion><flowPara
       id="flowPara2184" /></flowRoot>  <circle
     style="fill:none;fill-opacity:1;stroke:#000000;stroke-width:0.09999999;stroke-linecap:round;stroke-linejoin:round;stroke-miterlimit:4;stroke-dasharray:none;stroke-opacity:1"
     id="circle3327-3"
     cx="196.30714"
     cy="109.90998"
     r="1.05" />
  <g
     id="g1550"
     transform="translate(7.4941026,-109.42781)">
    <polygon
       transform="translate(-4.0406023,116.80282)"
       id="polygon1505"
       style="fill:none;stroke:#000000;stroke-width:0.05mm"
       points="231.275,97.675 245.175,97.675 245.175,83.776 231.275,83.776 " />
    <polygon
       transform="translate(-4.0406023,116.80282)"
       id="polygon1507"
       style="fill:none;stroke:#000000;stroke-width:0.05mm"
       points="212.225,97.675 226.125,97.675 226.125,83.776 212.225,83.776 " />
    <polygon
       transform="translate(-4.0406023,116.80282)"
       id="polygon1511"
       style="fill:none;stroke:#000000;stroke-width:0.05mm"
       points="162.218,97.675 176.118,97.675 176.118,83.776 162.218,83.776 " />
    <polygon
       transform="translate(-4.0406023,116.80282)"
       id="polygon1513"
       style="fill:none;stroke:#000000;stroke-width:0.05mm"
       points="119.356,97.675 133.256,97.675 133.256,83.776 119.356,83.776 " />
    <polygon
       transform="translate(-4.0406023,116.80282)"
       id="polygon1515"
       style="fill:none;stroke:#000000;stroke-width:0.05mm"
       points="86.018,97.675 99.918,97.675 99.918,83.776 86.018,83.776 " />
    <polygon
       transform="translate(-4.0406023,116.80282)"
       id="polygon1517"
       style="fill:none;stroke:#000000;stroke-width:0.05mm"
       points="62.206,97.675 76.106,97.675 76.106,83.776 62.206,83.776 " />
    <polygon
       transform="translate(-4.0406023,116.80282)"
       id="polygon1519"
       style="fill:none;stroke:#000000;stroke-width:0.05mm"
       points="40.774,97.675 54.675,97.675 54.675,83.776 40.774,83.776 " />
    <polygon
       transform="translate(-4.0406023,116.80282)"
       id="polygon1521"
       style="fill:none;stroke:#000000;stroke-width:0.05mm"
       points="245.562,78.626 259.462,78.626 259.462,64.725 245.562,64.725 " />
    <polygon
       transform="translate(-4.0406023,116.80282)"
       id="polygon1523"
       style="fill:none;stroke:#000000;stroke-width:0.05mm"
       points="226.512,78.626 240.412,78.626 240.412,64.725 226.512,64.725 " />
    <polygon
       transform="translate(-4.0406023,116.80282)"
       id="polygon1525"
       style="fill:none;stroke:#000000;stroke-width:0.05mm"
       points="207.462,78.626 221.362,78.626 221.362,64.725 207.462,64.725 " />
    <polygon
       transform="translate(-4.0406023,116.80282)"
       id="polygon1527"
       style="fill:none;stroke:#000000;stroke-width:0.05mm"
       points="188.412,78.626 202.312,78.626 202.312,64.725 188.412,64.725 " />
    <polygon
       transform="translate(-4.0406023,116.80282)"
       id="polygon1529"
       style="fill:none;stroke:#000000;stroke-width:0.05mm"
       points="169.362,78.626 183.262,78.626 183.262,64.725 169.362,64.725 " />
    <polygon
       transform="translate(-4.0406023,116.80282)"
       id="polygon1531"
       style="fill:none;stroke:#000000;stroke-width:0.05mm"
       points="150.312,78.626 164.212,78.626 164.212,64.725 150.312,64.725 " />
    <polygon
       transform="translate(-4.0406023,116.80282)"
       id="polygon1533"
       style="fill:none;stroke:#000000;stroke-width:0.05mm"
       points="131.262,78.626 145.162,78.626 145.162,64.725 131.262,64.725 " />
    <polygon
       transform="translate(-4.0406023,116.80282)"
       id="polygon1535"
       style="fill:none;stroke:#000000;stroke-width:0.05mm"
       points="112.212,78.626 126.112,78.626 126.112,64.725 112.212,64.725 " />
    <polygon
       transform="translate(-4.0406023,116.80282)"
       id="polygon1537"
       style="fill:none;stroke:#000000;stroke-width:0.05mm"
       points="93.162,78.626 107.062,78.626 107.062,64.725 93.162,64.725 " />
    <polygon
       transform="translate(-4.0406023,116.80282)"
       id="polygon1539"
       style="fill:none;stroke:#000000;stroke-width:0.05mm"
       points="74.112,78.626 88.012,78.626 88.012,64.725 74.112,64.725 " />
    <polygon
       transform="translate(-4.0406023,116.80282)"
       id="polygon1541"
       style="fill:none;stroke:#000000;stroke-width:0.05mm"
       points="55.062,78.626 68.962,78.626 68.962,64.725 55.062,64.725 " />
    <polygon
       transform="translate(-4.0406023,116.80282)"
       id="polygon1543"
       style="fill:none;stroke:#000000;stroke-width:0.05mm"
       points="24.106,78.626 38.006,78.626 38.006,64.725 24.106,64.725 " />
    <polygon
       transform="translate(-4.0406023,116.80282)"
       id="polygon1545"
       style="fill:none;stroke:#000000;stroke-width:0.05mm"
       points="245.562,59.576 259.462,59.576 259.462,45.675 245.562,45.675 " />
    <polygon
       transform="translate(-4.0406023,116.80282)"
       id="polygon1547"
       style="fill:none;stroke:#000000;stroke-width:0.05mm"
       points="226.512,59.576 240.412,59.576 240.412,45.675 226.512,45.675 " />
    <polygon
       transform="translate(-4.0406023,116.80282)"
       id="polygon1549"
       style="fill:none;stroke:#000000;stroke-width:0.05mm"
       points="207.462,59.576 221.362,59.576 221.362,45.675 207.462,45.675 " />
    <polygon
       transform="translate(-4.0406023,116.80282)"
       id="polygon1551"
       style="fill:none;stroke:#000000;stroke-width:0.05mm"
       points="188.412,59.576 202.312,59.576 202.312,45.675 188.412,45.675 " />
    <polygon
       transform="translate(-4.0406023,116.80282)"
       id="polygon1553"
       style="fill:none;stroke:#000000;stroke-width:0.05mm"
       points="169.362,59.576 183.262,59.576 183.262,45.675 169.362,45.675 " />
    <polygon
       transform="translate(-4.0406023,116.80282)"
       id="polygon1555"
       style="fill:none;stroke:#000000;stroke-width:0.05mm"
       points="150.312,59.576 164.212,59.576 164.212,45.675 150.312,45.675 " />
    <polygon
       transform="translate(-4.0406023,116.80282)"
       id="polygon1557"
       style="fill:none;stroke:#000000;stroke-width:0.05mm"
       points="131.262,59.576 145.162,59.576 145.162,45.675 131.262,45.675 " />
    <polygon
       transform="translate(-4.0406023,116.80282)"
       id="polygon1559"
       style="fill:none;stroke:#000000;stroke-width:0.05mm"
       points="112.212,59.576 126.112,59.576 126.112,45.675 112.212,45.675 " />
    <polygon
       transform="translate(-4.0406023,116.80282)"
       id="polygon1561"
       style="fill:none;stroke:#000000;stroke-width:0.05mm"
       points="93.162,59.576 107.062,59.576 107.062,45.675 93.162,45.675 " />
    <polygon
       transform="translate(-4.0406023,116.80282)"
       id="polygon1563"
       style="fill:none;stroke:#000000;stroke-width:0.05mm"
       points="74.112,59.576 88.012,59.576 88.012,45.675 74.112,45.675 " />
    <polygon
       transform="translate(-4.0406023,116.80282)"
       id="polygon1565"
       style="fill:none;stroke:#000000;stroke-width:0.05mm"
       points="55.062,59.576 68.962,59.576 68.962,45.675 55.062,45.675 " />
    <polygon
       transform="translate(-4.0406023,116.80282)"
       id="polygon1567"
       style="fill:none;stroke:#000000;stroke-width:0.05mm"
       points="28.868,59.576 42.768,59.576 42.768,45.675 28.868,45.675 " />
    <polygon
       transform="translate(-4.0406023,116.80282)"
       id="polygon1571"
       style="fill:none;stroke:#000000;stroke-width:0.05mm"
       points="250.325,40.525 264.225,40.525 264.225,26.625 250.325,26.625 " />
    <polygon
       transform="translate(-4.0406023,116.80282)"
       id="polygon1573"
       style="fill:none;stroke:#000000;stroke-width:0.05mm"
       points="226.512,40.525 240.412,40.525 240.412,26.625 226.512,26.625 " />
    <polygon
       transform="translate(-4.0406023,116.80282)"
       id="polygon1575"
       style="fill:none;stroke:#000000;stroke-width:0.05mm"
       points="207.462,40.525 221.362,40.525 221.362,26.625 207.462,26.625 " />
    <polygon
       transform="translate(-4.0406023,116.80282)"
       id="polygon1577"
       style="fill:none;stroke:#000000;stroke-width:0.05mm"
       points="188.412,40.525 202.312,40.525 202.312,26.625 188.412,26.625 " />
    <polygon
       transform="translate(-4.0406023,116.80282)"
       id="polygon1579"
       style="fill:none;stroke:#000000;stroke-width:0.05mm"
       points="169.362,40.525 183.262,40.525 183.262,26.625 169.362,26.625 " />
    <polygon
       transform="translate(-4.0406023,116.80282)"
       id="polygon1581"
       style="fill:none;stroke:#000000;stroke-width:0.05mm"
       points="150.312,40.525 164.212,40.525 164.212,26.625 150.312,26.625 " />
    <polygon
       transform="translate(-4.0406023,116.80282)"
       id="polygon1583"
       style="fill:none;stroke:#000000;stroke-width:0.05mm"
       points="131.262,40.525 145.162,40.525 145.162,26.625 131.262,26.625 " />
    <polygon
       transform="translate(-4.0406023,116.80282)"
       id="polygon1585"
       style="fill:none;stroke:#000000;stroke-width:0.05mm"
       points="112.212,40.525 126.112,40.525 126.112,26.625 112.212,26.625 " />
    <polygon
       transform="translate(-4.0406023,116.80282)"
       id="polygon1587"
       style="fill:none;stroke:#000000;stroke-width:0.05mm"
       points="93.162,40.525 107.062,40.525 107.062,26.625 93.162,26.625 " />
    <polygon
       transform="translate(-4.0406023,116.80282)"
       id="polygon1589"
       style="fill:none;stroke:#000000;stroke-width:0.05mm"
       points="74.112,40.525 88.012,40.525 88.012,26.625 74.112,26.625 " />
    <polygon
       transform="translate(-4.0406023,116.80282)"
       id="polygon1591"
       style="fill:none;stroke:#000000;stroke-width:0.05mm"
       points="55.062,40.525 68.962,40.525 68.962,26.625 55.062,26.625 " />
    <polygon
       transform="translate(-4.0406023,116.80282)"
       id="polygon1593"
       style="fill:none;stroke:#000000;stroke-width:0.05mm"
       points="31.25,40.525 45.15,40.525 45.15,26.625 31.25,26.625 " />
    <polygon
       transform="translate(-4.0406023,116.80282)"
       id="polygon1597"
       style="fill:none;stroke:#000000;stroke-width:0.05mm"
       points="255.087,21.475 268.987,21.475 268.987,7.575 255.087,7.575 " />
    <polygon
       transform="translate(-4.0406023,116.80282)"
       id="polygon1599"
       style="fill:none;stroke:#000000;stroke-width:0.05mm"
       points="226.512,21.475 240.412,21.475 240.412,7.575 226.512,7.575 " />
    <polygon
       transform="translate(-4.0406023,116.80282)"
       id="polygon1601"
       style="fill:none;stroke:#000000;stroke-width:0.05mm"
       points="207.462,21.475 221.362,21.475 221.362,7.575 207.462,7.575 " />
    <polygon
       transform="translate(-4.0406023,116.80282)"
       id="polygon1603"
       style="fill:none;stroke:#000000;stroke-width:0.1889125;stroke-miterlimit:4;stroke-dasharray:none"
       points="188.412,21.475 202.312,21.475 202.312,7.575 188.412,7.575 " />
    <polygon
       transform="translate(-4.0406023,116.80282)"
       id="polygon1605"
       style="fill:none;stroke:#000000;stroke-width:0.05mm"
       points="169.362,21.475 183.262,21.475 183.262,7.575 169.362,7.575 " />
    <polygon
       transform="translate(-4.0406023,116.80282)"
       id="polygon1607"
       style="fill:none;stroke:#000000;stroke-width:0.05mm"
       points="150.312,21.475 164.212,21.475 164.212,7.575 150.312,7.575 " />
    <polygon
       transform="translate(-4.0406023,116.80282)"
       id="polygon1609"
       style="fill:none;stroke:#000000;stroke-width:0.05mm"
       points="131.262,21.475 145.162,21.475 145.162,7.575 131.262,7.575 " />
    <polygon
       transform="translate(-4.0406023,116.80282)"
       id="polygon1611"
       style="fill:none;stroke:#000000;stroke-width:0.05mm"
       points="112.212,21.475 126.112,21.475 126.112,7.575 112.212,7.575 " />
    <polygon
       transform="translate(-4.0406023,116.80282)"
       id="polygon1613"
       style="fill:none;stroke:#000000;stroke-width:0.05mm"
       points="93.162,21.475 107.062,21.475 107.062,7.575 93.162,7.575 " />
    <polygon
       transform="translate(-4.0406023,116.80282)"
       id="polygon1615"
       style="fill:none;stroke:#000000;stroke-width:0.05mm"
       points="74.112,21.475 88.012,21.475 88.012,7.575 74.112,7.575 " />
    <polygon
       transform="translate(-4.0406023,116.80282)"
       id="polygon1617"
       style="fill:none;stroke:#000000;stroke-width:0.05mm"
       points="55.062,21.475 68.962,21.475 68.962,7.575 55.062,7.575 " />
    <polygon
       transform="translate(-4.0406023,116.80282)"
       id="polygon1619"
       style="fill:none;stroke:#000000;stroke-width:0.05mm"
       points="36.012,21.475 49.912,21.475 49.912,7.575 36.012,7.575 " />
    <polygon
       transform="translate(0.7223977,135.85182)"
       points="202.312,78.626 202.312,64.725 188.412,64.725 188.412,78.626 "
       style="fill:none;stroke:#000000;stroke-width:0.05mm"
       id="polygon2256" />
  </g>
  <rect
     style="fill:none;fill-opacity:1;stroke:#000000;stroke-width:0.1889125;stroke-linecap:round;stroke-linejoin:round;stroke-miterlimit:4;stroke-dasharray:none;stroke-opacity:1"
     id="rect2263"
     width="289.99152"
     height="110.56896"
     x="5.0042419"
     y="4.7155185"
     ry="5.8697305" />
  <g
     aria-label="quirk"
     transform="matrix(0.20560555,0,0,0.20332609,243.41615,-13.586191)"
     style="font-style:normal;font-weight:normal;font-size:40px;line-height:1.25;font-family:sans-serif;letter-spacing:0px;word-spacing:0px;fill:#ff0000;fill-opacity:1;stroke:none;stroke-width:1.29404247"
     id="flowRoot1332">
    <path
       d="m 124.36586,569.67136 q 0,0.56 -0.52,1.4 -0.12,0.16 -0.52,0.8 -0.4,0.6 -0.8,1.32 l -0.04,2.92 q -0.12,4.2 -0.12,9.32 l -0.04,4.4 q -0.08,2.96 -0.08,4.56 0,0.92 -0.8,1.52 -0.76,0.64 -2.12,0.64 -1.28,0 -2.04,-0.6 -0.76,-0.56 -0.76,-1.44 0,-5.28 0.04,-8.44 -0.88,0.6 -1.92,0.92 -1,0.32 -2.48,0.32 -3.08,0 -5.48,-1.28 -2.4,-1.32 -3.76,-3.64 -1.32,-2.36 -1.32,-5.36 0,-3.04 1.36,-5.4 1.36,-2.4 3.72,-3.72 2.36,-1.32 5.32,-1.32 2.56,0 4.32,0.96 1.8,0.92 2.6,2.28 0.12,-0.24 0.6,-1.04 0.48,-0.76 0.92,-1.12 0.44,-0.4 1.12,-0.4 1.04,0 1.92,0.72 0.88,0.68 0.88,1.68 z m -7.48,5.44 q 0,-1.64 -1.44,-2.84 -1.4,-1.2 -3.28,-1.2 -2.12,0 -3.44,1.6 -1.32,1.6 -1.32,4.36 0,2.72 1.32,4.28 1.36,1.52 3.76,1.52 1.48,0 2.6,-0.52 1.16,-0.56 1.64,-1.16 z"
       style="font-style:normal;font-variant:normal;font-weight:bold;font-stretch:normal;font-family:Mali;-inkscape-font-specification:'Mali Bold';fill:#ff0000;stroke-width:1.29404247"
       id="path895" />
    <path
       d="m 145.34711,580.75136 q 0,1.4 0.24,2.2 0.24,0.8 0.52,1.28 0.28,0.48 0.28,0.56 0,1 -0.76,1.68 -0.72,0.64 -1.96,0.64 -0.76,0 -1.68,-0.8 -0.88,-0.84 -1.16,-1.84 -1.4,2.68 -5.24,2.68 -3.52,0 -5.48,-2.48 -1.92,-2.48 -1.92,-6.32 v -9.44 q 0,-0.92 0.8,-1.48 0.84,-0.6 2.04,-0.6 1.2,0 2.04,0.6 0.88,0.56 0.88,1.48 v 9.36 q 0,1.72 0.6,3.08 0.6,1.36 1.84,1.36 1.56,0 2.28,-1.4 0.76,-1.4 0.76,-4.92 v -7.4 q 0,-1.08 0.76,-1.72 0.8,-0.64 2.08,-0.64 1.32,0 2.12,0.64 0.84,0.64 0.84,1.72 z"
       style="font-style:normal;font-variant:normal;font-weight:bold;font-stretch:normal;font-family:Mali;-inkscape-font-specification:'Mali Bold';fill:#ff0000;stroke-width:1.29404247"
       id="path897" />
    <path
       d="m 155.43773,566.19136 q -1.6,0 -2.64,-1 -1,-1.04 -1,-2.6 0,-1.56 1,-2.52 1.04,-1 2.68,-1 1.6,0 2.6,1 1,0.96 1,2.48 0,1.56 -1.04,2.6 -1,1.04 -2.6,1.04 z m -0.56,20.64 q -1.28,0 -2.12,-0.64 -0.84,-0.64 -0.8,-1.72 l 0.32,-14.76 q 0.04,-1.08 0.84,-1.68 0.8,-0.64 2.08,-0.64 1.32,0 2.16,0.64 0.84,0.64 0.8,1.76 l -0.32,14.72 q -0.04,1.08 -0.88,1.72 -0.8,0.6 -2.08,0.6 z"
       style="font-style:normal;font-variant:normal;font-weight:bold;font-stretch:normal;font-family:Mali;-inkscape-font-specification:'Mali Bold';fill:#ff0000;stroke-width:1.29404247"
       id="path899" />
    <path
       d="m 175.67336,566.31136 q 1.6,0 2.96,0.76 1.36,0.72 2.16,2.08 0.8,1.36 0.8,3.16 0,2.6 -1.72,4.04 -1.68,1.4 -4.36,1.4 -1.4,0 -1.96,-0.4 -0.56,-0.44 -0.56,-1.44 0,-0.96 0.4,-1.32 0.4,-0.4 1.12,-0.48 2.36,-0.24 2.36,-1.96 0,-0.72 -0.36,-1.08 -0.32,-0.4 -0.92,-0.4 -1.08,0 -2,1.24 -0.92,1.2 -1.52,2.84 -0.6,1.6 -0.76,2.72 -0.28,1.76 -0.28,6.24 0,2.16 -0.64,2.96 -0.6,0.76 -2.16,0.76 -1.44,0 -2.2,-0.56 -0.72,-0.56 -0.76,-1.72 v -1.84 -4.64 q 0,-2.56 -0.12,-4.32 -0.12,-1.8 -0.4,-4.6 l -0.16,-1.64 q -0.08,-1 0.64,-1.64 0.76,-0.64 2.08,-0.64 2.24,0 2.4,2 0.08,0.96 0.16,2.72 0.8,-1.88 2.24,-3.04 1.48,-1.2 3.56,-1.2 z"
       style="font-style:normal;font-variant:normal;font-weight:bold;font-stretch:normal;font-family:Mali;-inkscape-font-specification:'Mali Bold';fill:#ff0000;stroke-width:1.29404247"
       id="path901" />
    <path
       d="m 188.33273,587.39136 q -1.2,0 -2.04,-0.6 -0.84,-0.6 -0.84,-1.48 v -25.52 q 0,-1.08 0.8,-1.72 0.8,-0.64 2.04,-0.64 1.28,0 2.08,0.64 0.84,0.64 0.84,1.72 l -0.08,11.2 2.36,-1.52 q 3.92,-2.48 5.72,-3.56 0.88,-0.52 1.8,-0.4 0.8,0.12 1.4,0.96 0.6,0.8 0.6,1.72 0,0.64 -0.32,1 -0.32,0.36 -1.08,0.84 l -9.28,5.72 9.64,7.36 q 0.68,0.52 0.68,1.56 0,1.04 -0.8,1.72 -0.76,0.68 -1.8,0.68 -1,0 -2,-0.72 -1.4,-1.04 -3.96,-3.32 -2.72,-2.36 -2.96,-2.56 v 4.8 q 0,0.92 -0.8,1.52 -0.8,0.6 -2,0.6 z"
       style="font-style:normal;font-variant:normal;font-weight:bold;font-stretch:normal;font-family:Mali;-inkscape-font-specification:'Mali Bold';fill:#ff0000;stroke-width:1.29404247"
       id="path903" />
  </g>
  <path
     style="color:#000000;font-style:normal;font-variant:normal;font-weight:normal;font-stretch:normal;font-size:medium;line-height:normal;font-family:sans-serif;font-variant-ligatures:normal;font-variant-position:normal;font-variant-caps:normal;font-variant-numeric:normal;font-variant-alternates:normal;font-feature-settings:normal;text-indent:0;text-align:start;text-decoration:none;text-decoration-line:none;text-decoration-style:solid;text-decoration-color:#000000;letter-spacing:normal;word-spacing:normal;text-transform:none;writing-mode:lr-tb;direction:ltr;text-orientation:mixed;dominant-baseline:auto;baseline-shift:baseline;text-anchor:start;white-space:normal;shape-padding:0;clip-rule:nonzero;display:inline;overflow:visible;visibility:visible;opacity:1;isolation:auto;mix-blend-mode:normal;color-interpolation:sRGB;color-interpolation-filters:linearRGB;solid-color:#000000;solid-opacity:1;vector-effect:none;fill:#ff0000;fill-opacity:1;fill-rule:nonzero;stroke:none;stroke-width:1.46500003;stroke-linecap:round;stroke-linejoin:miter;stroke-miterlimit:4;stroke-dasharray:none;stroke-dashoffset:0;stroke-opacity:1;color-rendering:auto;image-rendering:auto;shape-rendering:auto;text-rendering:auto;enable-background:accumulate"
     d="m 287.31641,97.947266 a 0.73257327,0.73257327 0 0 0 -0.33008,0.0918 l -1.86133,0.996094 a 0.73257327,0.73257327 0 1 0 0.69141,1.291014 l 1.86328,-0.996092 a 0.73257327,0.73257327 0 0 0 -0.36328,-1.382812 z"
     id="path1334"
     inkscape:connector-curvature="0" />
  <path
     style="color:#000000;font-style:normal;font-variant:normal;font-weight:normal;font-stretch:normal;font-size:medium;line-height:normal;font-family:sans-serif;font-variant-ligatures:normal;font-variant-position:normal;font-variant-caps:normal;font-variant-numeric:normal;font-variant-alternates:normal;font-feature-settings:normal;text-indent:0;text-align:start;text-decoration:none;text-decoration-line:none;text-decoration-style:solid;text-decoration-color:#000000;letter-spacing:normal;word-spacing:normal;text-transform:none;writing-mode:lr-tb;direction:ltr;text-orientation:mixed;dominant-baseline:auto;baseline-shift:baseline;text-anchor:start;white-space:normal;shape-padding:0;clip-rule:nonzero;display:inline;overflow:visible;visibility:visible;opacity:1;isolation:auto;mix-blend-mode:normal;color-interpolation:sRGB;color-interpolation-filters:linearRGB;solid-color:#000000;solid-opacity:1;vector-effect:none;fill:#ff0000;fill-opacity:1;fill-rule:nonzero;stroke:none;stroke-width:1.46500003;stroke-linecap:round;stroke-linejoin:miter;stroke-miterlimit:4;stroke-dasharray:none;stroke-dashoffset:0;stroke-opacity:1;color-rendering:auto;image-rendering:auto;shape-rendering:auto;text-rendering:auto;enable-background:accumulate"
     d="m 284.64648,96.023438 a 0.73257327,0.73257327 0 0 0 -0.71679,0.492187 l -0.69727,1.917969 a 0.73257327,0.73257327 0 1 0 1.375,0.501953 l 0.69922,-1.917969 a 0.73257327,0.73257327 0 0 0 -0.66016,-0.99414 z"
     id="path1336"
     inkscape:connector-curvature="0" />
  <path
     transform="matrix(-0.16923443,0.2401646,-0.2436888,-0.16684081,314.46121,118.93541)"
     style="fill:#ff0000;fill-opacity:1;stroke:#ff0000;stroke-width:2.95364213;stroke-linecap:round;stroke-miterlimit:4;stroke-dasharray:none;stroke-opacity:1"
     inkscape:transform-center-x="-0.57199314"
     inkscape:transform-center-y="0.09756404"
     d="m 56.70966,173.30482 c 0.351214,-0.24031 5.309333,2.00578 5.734718,2.01781 0.425384,0.012 5.502501,-1.95031 5.839574,-1.69054 0.337074,0.25977 -0.266942,5.6693 -0.14693,6.07758 0.120012,0.40828 3.555218,4.63051 3.412328,5.03136 -0.142891,0.40085 -5.474312,1.49803 -5.825526,1.73834 -0.351213,0.2403 -3.305255,4.81212 -3.73064,4.80009 -0.425384,-0.012 -3.116368,-4.74346 -3.453442,-5.00323 -0.337073,-0.25977 -5.597978,-1.65646 -5.71799,-2.06474 -0.120012,-0.40828 3.54829,-4.42965 3.691181,-4.8305 0.14289,-0.40085 -0.154486,-5.83587 0.196727,-6.07617 z"
     id="path1338" />
  <circle
     style="fill:none;fill-opacity:1;stroke:#000000;stroke-width:0.09999999;stroke-linecap:round;stroke-linejoin:round;stroke-miterlimit:4;stroke-dasharray:none;stroke-opacity:1"
     id="path3308"
     cx="9.9777975"
     cy="9.7061949"
     r="1.05" />
  <circle
     r="1.05"
     cy="9.7061949"
     cx="289.755"
     id="circle3314"
     style="fill:none;fill-opacity:1;stroke:#000000;stroke-width:0.09999999;stroke-linecap:round;stroke-linejoin:round;stroke-miterlimit:4;stroke-dasharray:none;stroke-opacity:1" />
  <circle
     style="fill:none;fill-opacity:1;stroke:#000000;stroke-width:0.09999999;stroke-linecap:round;stroke-linejoin:round;stroke-miterlimit:4;stroke-dasharray:none;stroke-opacity:1"
     id="circle3316"
     cx="289.755"
     cy="109.88319"
     r="1.05" />
  <circle
     r="1.05"
     cy="109.88319"
     cx="9.9893618"
     id="circle3325"
     style="fill:none;fill-opacity:1;stroke:#000000;stroke-width:0.09999999;stroke-linecap:round;stroke-linejoin:round;stroke-miterlimit:4;stroke-dasharray:none;stroke-opacity:1" />
  <circle
     style="fill:none;fill-opacity:1;stroke:#000000;stroke-width:0.09999999;stroke-linecap:round;stroke-linejoin:round;stroke-miterlimit:4;stroke-dasharray:none;stroke-opacity:1"
     id="circle3327"
     cx="103.17239"
     cy="109.88319"
     r="1.05" />
  <circle
     r="1.05"
     cy="9.716609"
     cx="196.30714"
     id="circle3348"
     style="fill:none;fill-opacity:1;stroke:#000000;stroke-width:0.09999999;stroke-linecap:round;stroke-linejoin:round;stroke-miterlimit:4;stroke-dasharray:none;stroke-opacity:1" />
  <circle
     r="1.05"
     cy="9.6898222"
     cx="103.17239"
     id="circle3350"
     style="fill:none;fill-opacity:1;stroke:#000000;stroke-width:0.09999999;stroke-linecap:round;stroke-linejoin:round;stroke-miterlimit:4;stroke-dasharray:none;stroke-opacity:1" />
</svg>
