  0
SECTION
  2
HEADER
  9
$ACADVER
  1
AC1014
  9
$HANDSEED
  5
FFFF
  9
$MEASUREMENT
 70
     1
  0
ENDSEC
  0
SECTION
  2
TABLES
  0
TABLE
  2
VPORT
  5
8
330
0
100
AcDbSymbolTable
 70
     4
  0
VPORT
  5
2E
330
8
100
AcDbSymbolTableRecord
100
AcDbViewportTableRecord
  2
*ACTIVE
 70
     0
 10
0.0
 20
0.0
 11
1.0
 21
1.0
 12
210.0
 22
148.5
 13
0.0
 23
0.0
 14
10.0
 24
10.0
 15
10.0
 25
10.0
 16
0.0
 26
0.0
 36
1.0
 17
0.0
 27
0.0
 37
0.0
 40
341.0
 41
1.24
 42
50.0
 43
0.0
 44
0.0
 50
0.0
 51
0.0
 71
     0
 72
   100
 73
     1
 74
     3
 75
     0
 76
     0
 77
     0
 78
     0
  0
ENDTAB
  0
TABLE
  2
LTYPE
  5
5
330
0
100
AcDbSymbolTable
 70
     1
  0
LTYPE
  5
14
330
5
100
AcDbSymbolTableRecord
100
AcDbLinetypeTableRecord
  2
BYBLOCK
 70
     0
  3

 72
    65
 73
     0
 40
0.0
  0
LTYPE
  5
15
330
5
100
AcDbSymbolTableRecord
100
AcDbLinetypeTableRecord
  2
BYLAYER
 70
     0
  3

 72
    65
 73
     0
 40
0.0
  0
LTYPE
  5
16
330
5
100
AcDbSymbolTableRecord
100
AcDbLinetypeTableRecord
  2
CONTINUOUS
 70
     0
  3
Solid line
 72
    65
 73
     0
 40
0.0
  0
ENDTAB
  0
TABLE
  2
LAYER
  5
2
100
AcDbSymbolTable
 70
1
  0
LAYER
  5
50
100
AcDbSymbolTableRecord
100
AcDbLayerTableRecord
  2
0
 70
0
  6
CONTINUOUS
  0
ENDTAB
  0
TABLE
  2
STYLE
  5
3
330
0
100
AcDbSymbolTable
 70
     1
  0
STYLE
  5
11
330
3
100
AcDbSymbolTableRecord
100
AcDbTextStyleTableRecord
  2
STANDARD
 70
     0
 40
0.0
 41
1.0
 50
0.0
 71
     0
 42
2.5
  3
txt
  4

  0
ENDTAB
  0
TABLE
  2
VIEW
  5
6
330
0
100
AcDbSymbolTable
 70
     0
  0
ENDTAB
  0
TABLE
  2
UCS
  5
7
330
0
100
AcDbSymbolTable
 70
     0
  0
ENDTAB
  0
TABLE
  2
APPID
  5
9
330
0
100
AcDbSymbolTable
 70
     2
  0
APPID
  5
12
330
9
100
AcDbSymbolTableRecord
100
AcDbRegAppTableRecord
  2
ACAD
 70
     0
  0
ENDTAB
  0
TABLE
  2
DIMSTYLE
  5
A
330
0
100
AcDbSymbolTable
 70
     1
  0
DIMSTYLE
105
27
330
A
100
AcDbSymbolTableRecord
100
AcDbDimStyleTableRecord
  2
ISO-25
 70
     0
  3

  4

  5

  6

  7

 40
1.0
 41
2.5
 42
0.625
 43
3.75
 44
1.25
 45
0.0
 46
0.0
 47
0.0
 48
0.0
140
2.5
141
2.5
142
0.0
143
0.03937007874016
144
1.0
145
0.0
146
1.0
147
0.625
 71
     0
 72
     0
 73
     0
 74
     0
 75
     0
 76
     0
 77
     1
 78
     8
170
     0
171
     3
172
     1
173
     0
174
     0
175
     0
176
     0
177
     0
178
     0
270
     2
271
     2
272
     2
273
     2
274
     3
340
11
275
     0
280
     0
281
     0
282
     0
283
     0
284
     8
285
     0
286
     0
287
     3
288
     0
  0
ENDTAB
  0
TABLE
  2
BLOCK_RECORD
  5
1
330
0
100
AcDbSymbolTable
 70
     1
  0
BLOCK_RECORD
  5
1F
330
1
100
AcDbSymbolTableRecord
100
AcDbBlockTableRecord
  2
*MODEL_SPACE
  0
BLOCK_RECORD
  5
1B
330
1
100
AcDbSymbolTableRecord
100
AcDbBlockTableRecord
  2
*PAPER_SPACE
  0
ENDTAB
  0
ENDSEC
  0
SECTION
  2
BLOCKS
  0
BLOCK
  5
20
330
1F
100
AcDbEntity
  8
0
100
AcDbBlockBegin
  2
*MODEL_SPACE
 70
     0
 10
0.0
 20
0.0
 30
0.0
  3
*MODEL_SPACE
  1

  0
ENDBLK
  5
21
330
1F
100
AcDbEntity
  8
0
100
AcDbBlockEnd
  0
BLOCK
  5
1C
330
1B
100
AcDbEntity
 67
     1
  8
0
100
AcDbBlockBegin
  2
*PAPER_SPACE
  1

  0
ENDBLK
  5
1D
330
1B
100
AcDbEntity
 67
     1
  8
0
100
AcDbBlockEnd
  0
ENDSEC
  0
SECTION
  2
ENTITIES
  0
SPLINE
  5
100
100
AcDbEntity
  8
0
 62
1
100
AcDbSpline
 70
8
 71
3
 72
8
 73
4
 74
0
 40
0
 40
0
 40
0
 40
0
 40
1
 40
1
 40
1
 40
1
 10
818.584818
 20
-159.549370
 30
0.0
 10
816.284585
 20
-159.516654
 30
0.0
 10
814.144942
 20
-160.725076
 30
0.0
 10
812.985277
 20
-162.711863
 30
0.0
  0
SPLINE
  5
101
100
AcDbEntity
  8
0
 62
1
100
AcDbSpline
 70
8
 71
3
 72
8
 73
4
 74
0
 40
0
 40
0
 40
0
 40
0
 40
1
 40
1
 40
1
 40
1
 10
812.985277
 20
-162.711863
 30
0.0
 10
811.825613
 20
-164.698650
 30
0.0
 10
811.825613
 20
-167.155956
 30
0.0
 10
812.985277
 20
-169.142743
 30
0.0
  0
SPLINE
  5
102
100
AcDbEntity
  8
0
 62
1
100
AcDbSpline
 70
8
 71
3
 72
8
 73
4
 74
0
 40
0
 40
0
 40
0
 40
0
 40
1
 40
1
 40
1
 40
1
 10
812.985277
 20
-169.142743
 30
0.0
 10
814.144942
 20
-171.129530
 30
0.0
 10
816.284585
 20
-172.337951
 30
0.0
 10
818.584818
 20
-172.305236
 30
0.0
  0
SPLINE
  5
103
100
AcDbEntity
  8
0
 62
1
100
AcDbSpline
 70
8
 71
3
 72
8
 73
4
 74
0
 40
0
 40
0
 40
0
 40
0
 40
1
 40
1
 40
1
 40
1
 10
818.584818
 20
-172.305236
 30
0.0
 10
818.584818
 20
-172.305236
 30
0.0
 10
834.172819
 20
-172.305236
 30
0.0
 10
834.172819
 20
-172.305236
 30
0.0
  0
SPLINE
  5
104
100
AcDbEntity
  8
0
 62
1
100
AcDbSpline
 70
8
 71
3
 72
8
 73
4
 74
0
 40
0
 40
0
 40
0
 40
0
 40
1
 40
1
 40
1
 40
1
 10
834.172819
 20
-172.305236
 30
0.0
 10
836.473052
 20
-172.337951
 30
0.0
 10
838.612695
 20
-171.129530
 30
0.0
 10
839.772360
 20
-169.142743
 30
0.0
  0
SPLINE
  5
105
100
AcDbEntity
  8
0
 62
1
100
AcDbSpline
 70
8
 71
3
 72
8
 73
4
 74
0
 40
0
 40
0
 40
0
 40
0
 40
1
 40
1
 40
1
 40
1
 10
839.772360
 20
-169.142743
 30
0.0
 10
840.932024
 20
-167.155956
 30
0.0
 10
840.932024
 20
-164.698650
 30
0.0
 10
839.772360
 20
-162.711863
 30
0.0
  0
SPLINE
  5
106
100
AcDbEntity
  8
0
 62
1
100
AcDbSpline
 70
8
 71
3
 72
8
 73
4
 74
0
 40
0
 40
0
 40
0
 40
0
 40
1
 40
1
 40
1
 40
1
 10
839.772360
 20
-162.711863
 30
0.0
 10
838.612695
 20
-160.725076
 30
0.0
 10
836.473052
 20
-159.516654
 30
0.0
 10
834.172819
 20
-159.549370
 30
0.0
  0
SPLINE
  5
107
100
AcDbEntity
  8
0
 62
1
100
AcDbSpline
 70
8
 71
3
 72
8
 73
4
 74
0
 40
0
 40
0
 40
0
 40
0
 40
1
 40
1
 40
1
 40
1
 10
557.736012
 20
-240.638825
 30
0.0
 10
555.691463
 20
-240.609906
 30
0.0
 10
553.789725
 20
-241.684095
 30
0.0
 10
552.759012
 20
-243.450064
 30
0.0
  0
SPLINE
  5
108
100
AcDbEntity
  8
0
 62
1
100
AcDbSpline
 70
8
 71
3
 72
8
 73
4
 74
0
 40
0
 40
0
 40
0
 40
0
 40
1
 40
1
 40
1
 40
1
 10
552.759012
 20
-243.450064
 30
0.0
 10
551.728298
 20
-245.216032
 30
0.0
 10
551.728298
 20
-247.400178
 30
0.0
 10
552.759012
 20
-249.166146
 30
0.0
  0
SPLINE
  5
109
100
AcDbEntity
  8
0
 62
1
100
AcDbSpline
 70
8
 71
3
 72
8
 73
4
 74
0
 40
0
 40
0
 40
0
 40
0
 40
1
 40
1
 40
1
 40
1
 10
552.759012
 20
-249.166146
 30
0.0
 10
553.789725
 20
-250.932114
 30
0.0
 10
555.691463
 20
-252.006304
 30
0.0
 10
557.736012
 20
-251.977385
 30
0.0
  0
LWPOLYLINE
  5
10a
100
AcDbEntity
  8
0
 62
1
100
AcDbPolyline
 90
2
 70
0
 10
834.172819
 20
-159.549370
 30
0.0
 10
818.584818
 20
-159.549370
 30
0.0
  0
SPLINE
  5
10b
100
AcDbEntity
  8
0
 62
1
100
AcDbSpline
 70
8
 71
3
 72
8
 73
4
 74
0
 40
0
 40
0
 40
0
 40
0
 40
1
 40
1
 40
1
 40
1
 10
564.828012
 20
-251.977385
 30
0.0
 10
566.872560
 20
-252.006304
 30
0.0
 10
568.774298
 20
-250.932114
 30
0.0
 10
569.805012
 20
-249.166146
 30
0.0
  0
SPLINE
  5
10c
100
AcDbEntity
  8
0
 62
1
100
AcDbSpline
 70
8
 71
3
 72
8
 73
4
 74
0
 40
0
 40
0
 40
0
 40
0
 40
1
 40
1
 40
1
 40
1
 10
569.805012
 20
-249.166146
 30
0.0
 10
570.835725
 20
-247.400178
 30
0.0
 10
570.835725
 20
-245.216032
 30
0.0
 10
569.805012
 20
-243.450064
 30
0.0
  0
SPLINE
  5
10d
100
AcDbEntity
  8
0
 62
1
100
AcDbSpline
 70
8
 71
3
 72
8
 73
4
 74
0
 40
0
 40
0
 40
0
 40
0
 40
1
 40
1
 40
1
 40
1
 10
569.805012
 20
-243.450064
 30
0.0
 10
568.774298
 20
-241.684095
 30
0.0
 10
566.872560
 20
-240.609906
 30
0.0
 10
564.828012
 20
-240.638825
 30
0.0
  0
LWPOLYLINE
  5
10e
100
AcDbEntity
  8
0
 62
1
100
AcDbPolyline
 90
2
 70
0
 10
557.736012
 20
-251.977385
 30
0.0
 10
564.828012
 20
-251.977385
 30
0.0
  0
SPLINE
  5
10f
100
AcDbEntity
  8
0
 62
1
100
AcDbSpline
 70
8
 71
3
 72
8
 73
4
 74
0
 40
0
 40
0
 40
0
 40
0
 40
1
 40
1
 40
1
 40
1
 10
16.411198
 20
-159.534970
 30
0.0
 10
14.110964
 20
-159.502254
 30
0.0
 10
11.971322
 20
-160.710676
 30
0.0
 10
10.811657
 20
-162.697463
 30
0.0
  0
SPLINE
  5
110
100
AcDbEntity
  8
0
 62
1
100
AcDbSpline
 70
8
 71
3
 72
8
 73
4
 74
0
 40
0
 40
0
 40
0
 40
0
 40
1
 40
1
 40
1
 40
1
 10
10.811657
 20
-162.697463
 30
0.0
 10
9.651992
 20
-164.684250
 30
0.0
 10
9.651992
 20
-167.141556
 30
0.0
 10
10.811657
 20
-169.128343
 30
0.0
  0
SPLINE
  5
111
100
AcDbEntity
  8
0
 62
1
100
AcDbSpline
 70
8
 71
3
 72
8
 73
4
 74
0
 40
0
 40
0
 40
0
 40
0
 40
1
 40
1
 40
1
 40
1
 10
10.811657
 20
-169.128343
 30
0.0
 10
11.971322
 20
-171.115130
 30
0.0
 10
14.110964
 20
-172.323551
 30
0.0
 10
16.411198
 20
-172.290836
 30
0.0
  0
LWPOLYLINE
  5
112
100
AcDbEntity
  8
0
 62
1
100
AcDbPolyline
 90
2
 70
0
 10
564.828012
 20
-240.638825
 30
0.0
 10
557.736012
 20
-240.638825
 30
0.0
  0
SPLINE
  5
113
100
AcDbEntity
  8
0
 62
1
100
AcDbSpline
 70
8
 71
3
 72
8
 73
4
 74
0
 40
0
 40
0
 40
0
 40
0
 40
1
 40
1
 40
1
 40
1
 10
31.999198
 20
-172.290836
 30
0.0
 10
34.299432
 20
-172.323551
 30
0.0
 10
36.439075
 20
-171.115130
 30
0.0
 10
37.598739
 20
-169.128343
 30
0.0
  0
SPLINE
  5
114
100
AcDbEntity
  8
0
 62
1
100
AcDbSpline
 70
8
 71
3
 72
8
 73
4
 74
0
 40
0
 40
0
 40
0
 40
0
 40
1
 40
1
 40
1
 40
1
 10
37.598739
 20
-169.128343
 30
0.0
 10
38.758404
 20
-167.141556
 30
0.0
 10
38.758404
 20
-164.684250
 30
0.0
 10
37.598739
 20
-162.697463
 30
0.0
  0
SPLINE
  5
115
100
AcDbEntity
  8
0
 62
1
100
AcDbSpline
 70
8
 71
3
 72
8
 73
4
 74
0
 40
0
 40
0
 40
0
 40
0
 40
1
 40
1
 40
1
 40
1
 10
37.598739
 20
-162.697463
 30
0.0
 10
36.439075
 20
-160.710676
 30
0.0
 10
34.299432
 20
-159.502254
 30
0.0
 10
31.999198
 20
-159.534970
 30
0.0
  0
LWPOLYLINE
  5
116
100
AcDbEntity
  8
0
 62
1
100
AcDbPolyline
 90
2
 70
0
 10
16.411198
 20
-172.290836
 30
0.0
 10
31.999198
 20
-172.290836
 30
0.0
  0
SPLINE
  5
117
100
AcDbEntity
  8
0
 62
1
100
AcDbSpline
 70
8
 71
3
 72
8
 73
4
 74
0
 40
0
 40
0
 40
0
 40
0
 40
1
 40
1
 40
1
 40
1
 10
827.462419
 20
-27.899915
 30
0.0
 10
827.462422
 20
-21.932542
 30
0.0
 10
825.091895
 20
-16.209575
 30
0.0
 10
820.872326
 20
-11.990003
 30
0.0
  0
SPLINE
  5
118
100
AcDbEntity
  8
0
 62
1
100
AcDbSpline
 70
8
 71
3
 72
8
 73
4
 74
0
 40
0
 40
0
 40
0
 40
0
 40
1
 40
1
 40
1
 40
1
 10
820.872326
 20
-11.990003
 30
0.0
 10
816.652757
 20
-7.770431
 30
0.0
 10
810.929792
 20
-5.399900
 30
0.0
 10
804.962418
 20
-5.399900
 30
0.0
  0
SPLINE
  5
119
100
AcDbEntity
  8
0
 62
1
100
AcDbSpline
 70
8
 71
3
 72
8
 73
4
 74
0
 40
0
 40
0
 40
0
 40
0
 40
1
 40
1
 40
1
 40
1
 10
804.962418
 20
-273.149706
 30
0.0
 10
810.929789
 20
-273.149706
 30
0.0
 10
816.652752
 20
-270.779177
 30
0.0
 10
820.872321
 20
-266.559608
 30
0.0
  0
SPLINE
  5
11a
100
AcDbEntity
  8
0
 62
1
100
AcDbSpline
 70
8
 71
3
 72
8
 73
4
 74
0
 40
0
 40
0
 40
0
 40
0
 40
1
 40
1
 40
1
 40
1
 10
820.872321
 20
-266.559608
 30
0.0
 10
825.091890
 20
-262.340039
 30
0.0
 10
827.462419
 20
-256.617076
 30
0.0
 10
827.462419
 20
-250.649705
 30
0.0
  0
SPLINE
  5
11b
100
AcDbEntity
  8
0
 62
1
100
AcDbSpline
 70
8
 71
3
 72
8
 73
4
 74
0
 40
0
 40
0
 40
0
 40
0
 40
1
 40
1
 40
1
 40
1
 10
19.712600
 20
-250.649705
 30
0.0
 10
19.712600
 20
-256.617079
 30
0.0
 10
22.083131
 20
-262.340044
 30
0.0
 10
26.302702
 20
-266.559613
 30
0.0
  0
SPLINE
  5
11c
100
AcDbEntity
  8
0
 62
1
100
AcDbSpline
 70
8
 71
3
 72
8
 73
4
 74
0
 40
0
 40
0
 40
0
 40
0
 40
1
 40
1
 40
1
 40
1
 10
26.302702
 20
-266.559613
 30
0.0
 10
30.522274
 20
-270.779182
 30
0.0
 10
36.245241
 20
-273.149709
 30
0.0
 10
42.212615
 20
-273.149706
 30
0.0
  0
SPLINE
  5
11d
100
AcDbEntity
  8
0
 62
1
100
AcDbSpline
 70
8
 71
3
 72
8
 73
4
 74
0
 40
0
 40
0
 40
0
 40
0
 40
1
 40
1
 40
1
 40
1
 10
42.212615
 20
-5.399900
 30
0.0
 10
36.245239
 20
-5.399897
 30
0.0
 10
30.522269
 20
-7.770426
 30
0.0
 10
26.302697
 20
-11.989998
 30
0.0
  0
SPLINE
  5
11e
100
AcDbEntity
  8
0
 62
1
100
AcDbSpline
 70
8
 71
3
 72
8
 73
4
 74
0
 40
0
 40
0
 40
0
 40
0
 40
1
 40
1
 40
1
 40
1
 10
26.302697
 20
-11.989998
 30
0.0
 10
22.083125
 20
-16.209570
 30
0.0
 10
19.712596
 20
-21.932539
 30
0.0
 10
19.712600
 20
-27.899915
 30
0.0
  0
LWPOLYLINE
  5
11f
100
AcDbEntity
  8
0
 62
1
100
AcDbPolyline
 90
2
 70
0
 10
31.999198
 20
-159.534970
 30
0.0
 10
16.411198
 20
-159.534970
 30
0.0
  0
LWPOLYLINE
  5
120
100
AcDbEntity
  8
0
 62
1
100
AcDbPolyline
 90
2
 70
0
 10
804.962418
 20
-5.396099
 30
0.0
 10
42.208799
 20
-5.396099
 30
0.0
  0
LWPOLYLINE
  5
121
100
AcDbEntity
  8
0
 62
1
100
AcDbPolyline
 90
2
 70
0
 10
827.462419
 20
-250.649705
 30
0.0
 10
827.462419
 20
-27.896099
 30
0.0
  0
LWPOLYLINE
  5
122
100
AcDbEntity
  8
0
 62
1
100
AcDbPolyline
 90
2
 70
0
 10
42.208799
 20
-273.149706
 30
0.0
 10
804.962418
 20
-273.149706
 30
0.0
  0
SPLINE
  5
123
100
AcDbEntity
  8
0
 62
7
100
AcDbSpline
 70
8
 71
3
 72
8
 73
4
 74
0
 40
0
 40
0
 40
0
 40
0
 40
1
 40
1
 40
1
 40
1
 10
769.568355
 20
-244.923912
 30
0.0
 10
769.568355
 20
-245.139085
 30
0.0
 10
769.467334
 20
-245.408052
 30
0.0
 10
769.265290
 20
-245.730812
 30
0.0
  0
SPLINE
  5
124
100
AcDbEntity
  8
0
 62
7
100
AcDbSpline
 70
8
 71
3
 72
8
 73
4
 74
0
 40
0
 40
0
 40
0
 40
0
 40
1
 40
1
 40
1
 40
1
 10
769.265290
 20
-245.730812
 30
0.0
 10
769.218664
 20
-245.792290
 30
0.0
 10
769.117642
 20
-245.945985
 30
0.0
 10
768.962224
 20
-246.191898
 30
0.0
  0
SPLINE
  5
125
100
AcDbEntity
  8
0
 62
7
100
AcDbSpline
 70
8
 71
3
 72
8
 73
4
 74
0
 40
0
 40
0
 40
0
 40
0
 40
1
 40
1
 40
1
 40
1
 10
768.962224
 20
-246.191898
 30
0.0
 10
768.806806
 20
-246.422441
 30
0.0
 10
768.651387
 20
-246.676038
 30
0.0
 10
768.495969
 20
-246.952690
 30
0.0
  0
LWPOLYLINE
  5
126
100
AcDbEntity
  8
0
 62
1
100
AcDbPolyline
 90
2
 70
0
 10
19.708798
 20
-27.896099
 30
0.0
 10
19.708798
 20
-250.649705
 30
0.0
  0
SPLINE
  5
127
100
AcDbEntity
  8
0
 62
7
100
AcDbSpline
 70
8
 71
3
 72
8
 73
4
 74
0
 40
0
 40
0
 40
0
 40
0
 40
1
 40
1
 40
1
 40
1
 10
768.472656
 20
-248.635653
 30
0.0
 10
768.426031
 20
-250.249454
 30
0.0
 10
768.402718
 20
-252.040004
 30
0.0
 10
768.402718
 20
-254.007304
 30
0.0
  0
LWPOLYLINE
  5
128
100
AcDbEntity
  8
0
 62
7
100
AcDbPolyline
 90
2
 70
0
 10
768.495969
 20
-246.952690
 30
0.0
 10
768.472656
 20
-248.635653
 30
0.0
  0
SPLINE
  5
129
100
AcDbEntity
  8
0
 62
7
100
AcDbSpline
 70
8
 71
3
 72
8
 73
4
 74
0
 40
0
 40
0
 40
0
 40
0
 40
1
 40
1
 40
1
 40
1
 10
768.379405
 20
-256.543277
 30
0.0
 10
768.348321
 20
-257.680622
 30
0.0
 10
768.332779
 20
-258.556686
 30
0.0
 10
768.332779
 20
-259.171467
 30
0.0
  0
SPLINE
  5
12a
100
AcDbEntity
  8
0
 62
7
100
AcDbSpline
 70
8
 71
3
 72
8
 73
4
 74
0
 40
0
 40
0
 40
0
 40
0
 40
1
 40
1
 40
1
 40
1
 10
768.332779
 20
-259.171467
 30
0.0
 10
768.332779
 20
-259.524966
 30
0.0
 10
768.177361
 20
-259.816987
 30
0.0
 10
767.866524
 20
-260.047530
 30
0.0
  0
SPLINE
  5
12b
100
AcDbEntity
  8
0
 62
7
100
AcDbSpline
 70
8
 71
3
 72
8
 73
4
 74
0
 40
0
 40
0
 40
0
 40
0
 40
1
 40
1
 40
1
 40
1
 10
767.866524
 20
-260.047530
 30
0.0
 10
767.571230
 20
-260.293443
 30
0.0
 10
767.159371
 20
-260.416399
 30
0.0
 10
766.630948
 20
-260.416399
 30
0.0
  0
SPLINE
  5
12c
100
AcDbEntity
  8
0
 62
7
100
AcDbSpline
 70
8
 71
3
 72
8
 73
4
 74
0
 40
0
 40
0
 40
0
 40
0
 40
1
 40
1
 40
1
 40
1
 10
766.630948
 20
-260.416399
 30
0.0
 10
766.133610
 20
-260.416399
 30
0.0
 10
765.737293
 20
-260.301127
 30
0.0
 10
765.441998
 20
-260.070584
 30
0.0
  0
SPLINE
  5
12d
100
AcDbEntity
  8
0
 62
7
100
AcDbSpline
 70
8
 71
3
 72
8
 73
4
 74
0
 40
0
 40
0
 40
0
 40
0
 40
1
 40
1
 40
1
 40
1
 10
765.441998
 20
-260.070584
 30
0.0
 10
765.146703
 20
-259.855411
 30
0.0
 10
764.999056
 20
-259.578759
 30
0.0
 10
764.999056
 20
-259.240630
 30
0.0
  0
SPLINE
  5
12e
100
AcDbEntity
  8
0
 62
7
100
AcDbSpline
 70
8
 71
3
 72
8
 73
4
 74
0
 40
0
 40
0
 40
0
 40
0
 40
1
 40
1
 40
1
 40
1
 10
764.999056
 20
-259.240630
 30
0.0
 10
764.999056
 20
-257.211852
 30
0.0
 10
765.006826
 20
-255.590366
 30
0.0
 10
765.022368
 20
-254.376173
 30
0.0
  0
SPLINE
  5
12f
100
AcDbEntity
  8
0
 62
7
100
AcDbSpline
 70
8
 71
3
 72
8
 73
4
 74
0
 40
0
 40
0
 40
0
 40
0
 40
1
 40
1
 40
1
 40
1
 10
765.022368
 20
-254.376173
 30
0.0
 10
764.680448
 20
-254.606716
 30
0.0
 10
764.307444
 20
-254.783466
 30
0.0
 10
763.903356
 20
-254.906422
 30
0.0
  0
SPLINE
  5
130
100
AcDbEntity
  8
0
 62
7
100
AcDbSpline
 70
8
 71
3
 72
8
 73
4
 74
0
 40
0
 40
0
 40
0
 40
0
 40
1
 40
1
 40
1
 40
1
 10
763.903356
 20
-254.906422
 30
0.0
 10
763.514810
 20
-255.029378
 30
0.0
 10
763.033013
 20
-255.090856
 30
0.0
 10
762.457965
 20
-255.090856
 30
0.0
  0
SPLINE
  5
131
100
AcDbEntity
  8
0
 62
7
100
AcDbSpline
 70
8
 71
3
 72
8
 73
4
 74
0
 40
0
 40
0
 40
0
 40
0
 40
1
 40
1
 40
1
 40
1
 10
762.457965
 20
-255.090856
 30
0.0
 10
761.261244
 20
-255.090856
 30
0.0
 10
760.196628
 20
-254.844944
 30
0.0
 10
759.264118
 20
-254.353119
 30
0.0
  0
SPLINE
  5
132
100
AcDbEntity
  8
0
 62
7
100
AcDbSpline
 70
8
 71
3
 72
8
 73
4
 74
0
 40
0
 40
0
 40
0
 40
0
 40
1
 40
1
 40
1
 40
1
 10
759.264118
 20
-254.353119
 30
0.0
 10
758.331608
 20
-253.845924
 30
0.0
 10
757.601141
 20
-253.146611
 30
0.0
 10
757.072719
 20
-252.255178
 30
0.0
  0
SPLINE
  5
133
100
AcDbEntity
  8
0
 62
7
100
AcDbSpline
 70
8
 71
3
 72
8
 73
4
 74
0
 40
0
 40
0
 40
0
 40
0
 40
1
 40
1
 40
1
 40
1
 10
757.072719
 20
-252.255178
 30
0.0
 10
756.559838
 20
-251.348376
 30
0.0
 10
756.303398
 20
-250.318617
 30
0.0
 10
756.303398
 20
-249.165902
 30
0.0
  0
SPLINE
  5
134
100
AcDbEntity
  8
0
 62
7
100
AcDbSpline
 70
8
 71
3
 72
8
 73
4
 74
0
 40
0
 40
0
 40
0
 40
0
 40
1
 40
1
 40
1
 40
1
 10
756.303398
 20
-249.165902
 30
0.0
 10
756.303398
 20
-247.997818
 30
0.0
 10
756.567609
 20
-246.960375
 30
0.0
 10
757.096032
 20
-246.053572
 30
0.0
  0
SPLINE
  5
135
100
AcDbEntity
  8
0
 62
7
100
AcDbSpline
 70
8
 71
3
 72
8
 73
4
 74
0
 40
0
 40
0
 40
0
 40
0
 40
1
 40
1
 40
1
 40
1
 10
757.096032
 20
-246.053572
 30
0.0
 10
757.624454
 20
-245.131400
 30
0.0
 10
758.347150
 20
-244.416717
 30
0.0
 10
759.264118
 20
-243.909523
 30
0.0
  0
SPLINE
  5
136
100
AcDbEntity
  8
0
 62
7
100
AcDbSpline
 70
8
 71
3
 72
8
 73
4
 74
0
 40
0
 40
0
 40
0
 40
0
 40
1
 40
1
 40
1
 40
1
 10
759.264118
 20
-243.909523
 30
0.0
 10
760.181086
 20
-243.402328
 30
0.0
 10
761.214618
 20
-243.148731
 30
0.0
 10
762.364714
 20
-243.148731
 30
0.0
  0
SPLINE
  5
137
100
AcDbEntity
  8
0
 62
7
100
AcDbSpline
 70
8
 71
3
 72
8
 73
4
 74
0
 40
0
 40
0
 40
0
 40
0
 40
1
 40
1
 40
1
 40
1
 10
762.364714
 20
-243.148731
 30
0.0
 10
763.359392
 20
-243.148731
 30
0.0
 10
764.198651
 20
-243.333165
 30
0.0
 10
764.882492
 20
-243.702034
 30
0.0
  0
SPLINE
  5
138
100
AcDbEntity
  8
0
 62
7
100
AcDbSpline
 70
8
 71
3
 72
8
 73
4
 74
0
 40
0
 40
0
 40
0
 40
0
 40
1
 40
1
 40
1
 40
1
 10
764.882492
 20
-243.702034
 30
0.0
 10
765.581874
 20
-244.055533
 30
0.0
 10
766.086984
 20
-244.493565
 30
0.0
 10
766.397821
 20
-245.016129
 30
0.0
  0
SPLINE
  5
139
100
AcDbEntity
  8
0
 62
7
100
AcDbSpline
 70
8
 71
3
 72
8
 73
4
 74
0
 40
0
 40
0
 40
0
 40
0
 40
1
 40
1
 40
1
 40
1
 10
766.397821
 20
-245.016129
 30
0.0
 10
766.444446
 20
-244.923912
 30
0.0
 10
766.561010
 20
-244.724108
 30
0.0
 10
766.747512
 20
-244.416717
 30
0.0
  0
SPLINE
  5
13a
100
AcDbEntity
  8
0
 62
7
100
AcDbSpline
 70
8
 71
3
 72
8
 73
4
 74
0
 40
0
 40
0
 40
0
 40
0
 40
1
 40
1
 40
1
 40
1
 10
766.747512
 20
-244.416717
 30
0.0
 10
766.934014
 20
-244.124696
 30
0.0
 10
767.112745
 20
-243.909523
 30
0.0
 10
767.283706
 20
-243.771197
 30
0.0
  0
SPLINE
  5
13b
100
AcDbEntity
  8
0
 62
7
100
AcDbSpline
 70
8
 71
3
 72
8
 73
4
 74
0
 40
0
 40
0
 40
0
 40
0
 40
1
 40
1
 40
1
 40
1
 10
767.283706
 20
-243.771197
 30
0.0
 10
767.454666
 20
-243.617502
 30
0.0
 10
767.672251
 20
-243.540654
 30
0.0
 10
767.936463
 20
-243.540654
 30
0.0
  0
SPLINE
  5
13c
100
AcDbEntity
  8
0
 62
7
100
AcDbSpline
 70
8
 71
3
 72
8
 73
4
 74
0
 40
0
 40
0
 40
0
 40
0
 40
1
 40
1
 40
1
 40
1
 10
767.936463
 20
-243.540654
 30
0.0
 10
768.340550
 20
-243.540654
 30
0.0
 10
768.713554
 20
-243.678980
 30
0.0
 10
769.055475
 20
-243.955631
 30
0.0
  0
SPLINE
  5
13d
100
AcDbEntity
  8
0
 62
7
100
AcDbSpline
 70
8
 71
3
 72
8
 73
4
 74
0
 40
0
 40
0
 40
0
 40
0
 40
1
 40
1
 40
1
 40
1
 10
769.055475
 20
-243.955631
 30
0.0
 10
769.397395
 20
-244.216913
 30
0.0
 10
769.568355
 20
-244.539673
 30
0.0
 10
769.568355
 20
-244.923912
 30
0.0
  0
LWPOLYLINE
  5
13e
100
AcDbEntity
  8
0
 62
7
100
AcDbPolyline
 90
2
 70
0
 10
768.402718
 20
-254.007304
 30
0.0
 10
768.379405
 20
-256.543277
 30
0.0
  0
SPLINE
  5
13f
100
AcDbEntity
  8
0
 62
7
100
AcDbSpline
 70
8
 71
3
 72
8
 73
4
 74
0
 40
0
 40
0
 40
0
 40
0
 40
1
 40
1
 40
1
 40
1
 10
765.208870
 20
-248.059296
 30
0.0
 10
765.208870
 20
-247.429145
 30
0.0
 10
764.929117
 20
-246.883527
 30
0.0
 10
764.369611
 20
-246.422441
 30
0.0
  0
SPLINE
  5
140
100
AcDbEntity
  8
0
 62
7
100
AcDbSpline
 70
8
 71
3
 72
8
 73
4
 74
0
 40
0
 40
0
 40
0
 40
0
 40
1
 40
1
 40
1
 40
1
 10
764.369611
 20
-246.422441
 30
0.0
 10
763.825647
 20
-245.961355
 30
0.0
 10
763.188432
 20
-245.730812
 30
0.0
 10
762.457965
 20
-245.730812
 30
0.0
  0
SPLINE
  5
141
100
AcDbEntity
  8
0
 62
7
100
AcDbSpline
 70
8
 71
3
 72
8
 73
4
 74
0
 40
0
 40
0
 40
0
 40
0
 40
1
 40
1
 40
1
 40
1
 10
762.457965
 20
-245.730812
 30
0.0
 10
761.634248
 20
-245.730812
 30
0.0
 10
760.965949
 20
-246.038203
 30
0.0
 10
760.453068
 20
-246.652984
 30
0.0
  0
SPLINE
  5
142
100
AcDbEntity
  8
0
 62
7
100
AcDbSpline
 70
8
 71
3
 72
8
 73
4
 74
0
 40
0
 40
0
 40
0
 40
0
 40
1
 40
1
 40
1
 40
1
 10
760.453068
 20
-246.652984
 30
0.0
 10
759.940188
 20
-247.267765
 30
0.0
 10
759.683747
 20
-248.105405
 30
0.0
 10
759.683747
 20
-249.165902
 30
0.0
  0
SPLINE
  5
143
100
AcDbEntity
  8
0
 62
7
100
AcDbSpline
 70
8
 71
3
 72
8
 73
4
 74
0
 40
0
 40
0
 40
0
 40
0
 40
1
 40
1
 40
1
 40
1
 10
759.683747
 20
-249.165902
 30
0.0
 10
759.683747
 20
-250.211030
 30
0.0
 10
759.940188
 20
-251.033300
 30
0.0
 10
760.453068
 20
-251.632712
 30
0.0
  0
SPLINE
  5
144
100
AcDbEntity
  8
0
 62
7
100
AcDbSpline
 70
8
 71
3
 72
8
 73
4
 74
0
 40
0
 40
0
 40
0
 40
0
 40
1
 40
1
 40
1
 40
1
 10
760.453068
 20
-251.632712
 30
0.0
 10
760.981491
 20
-252.216754
 30
0.0
 10
761.711957
 20
-252.508775
 30
0.0
 10
762.644467
 20
-252.508775
 30
0.0
  0
SPLINE
  5
145
100
AcDbEntity
  8
0
 62
7
100
AcDbSpline
 70
8
 71
3
 72
8
 73
4
 74
0
 40
0
 40
0
 40
0
 40
0
 40
1
 40
1
 40
1
 40
1
 10
762.644467
 20
-252.508775
 30
0.0
 10
763.219515
 20
-252.508775
 30
0.0
 10
763.724625
 20
-252.408873
 30
0.0
 10
764.159796
 20
-252.209069
 30
0.0
  0
SPLINE
  5
146
100
AcDbEntity
  8
0
 62
7
100
AcDbSpline
 70
8
 71
3
 72
8
 73
4
 74
0
 40
0
 40
0
 40
0
 40
0
 40
1
 40
1
 40
1
 40
1
 10
764.159796
 20
-252.209069
 30
0.0
 10
764.610510
 20
-251.993896
 30
0.0
 10
764.929117
 20
-251.771038
 30
0.0
 10
765.115619
 20
-251.540495
 30
0.0
  0
LWPOLYLINE
  5
147
100
AcDbEntity
  8
0
 62
7
100
AcDbPolyline
 90
1
 70
1
 10
769.568355
 20
-244.923912
 30
0.0
  0
SPLINE
  5
148
100
AcDbEntity
  8
0
 62
7
100
AcDbSpline
 70
8
 71
3
 72
8
 73
4
 74
0
 40
0
 40
0
 40
0
 40
0
 40
1
 40
1
 40
1
 40
1
 10
781.796624
 20
-251.309952
 30
0.0
 10
781.796624
 20
-251.847885
 30
0.0
 10
781.843249
 20
-252.270547
 30
0.0
 10
781.936500
 20
-252.577938
 30
0.0
  0
SPLINE
  5
149
100
AcDbEntity
  8
0
 62
7
100
AcDbSpline
 70
8
 71
3
 72
8
 73
4
 74
0
 40
0
 40
0
 40
0
 40
0
 40
1
 40
1
 40
1
 40
1
 10
781.936500
 20
-252.577938
 30
0.0
 10
782.029751
 20
-252.885329
 30
0.0
 10
782.130773
 20
-253.131241
 30
0.0
 10
782.239566
 20
-253.315676
 30
0.0
  0
SPLINE
  5
14a
100
AcDbEntity
  8
0
 62
7
100
AcDbSpline
 70
8
 71
3
 72
8
 73
4
 74
0
 40
0
 40
0
 40
0
 40
0
 40
1
 40
1
 40
1
 40
1
 10
782.239566
 20
-253.315676
 30
0.0
 10
782.348359
 20
-253.500110
 30
0.0
 10
782.402756
 20
-253.607697
 30
0.0
 10
782.402756
 20
-253.638436
 30
0.0
  0
SPLINE
  5
14b
100
AcDbEntity
  8
0
 62
7
100
AcDbSpline
 70
8
 71
3
 72
8
 73
4
 74
0
 40
0
 40
0
 40
0
 40
0
 40
1
 40
1
 40
1
 40
1
 10
782.402756
 20
-253.638436
 30
0.0
 10
782.402756
 20
-254.022674
 30
0.0
 10
782.255108
 20
-254.345434
 30
0.0
 10
781.959813
 20
-254.606716
 30
0.0
  0
SPLINE
  5
14c
100
AcDbEntity
  8
0
 62
7
100
AcDbSpline
 70
8
 71
3
 72
8
 73
4
 74
0
 40
0
 40
0
 40
0
 40
0
 40
1
 40
1
 40
1
 40
1
 10
781.959813
 20
-254.606716
 30
0.0
 10
781.680060
 20
-254.852629
 30
0.0
 10
781.299285
 20
-254.975585
 30
0.0
 10
780.817488
 20
-254.975585
 30
0.0
  0
SPLINE
  5
14d
100
AcDbEntity
  8
0
 62
7
100
AcDbSpline
 70
8
 71
3
 72
8
 73
4
 74
0
 40
0
 40
0
 40
0
 40
0
 40
1
 40
1
 40
1
 40
1
 10
780.817488
 20
-254.975585
 30
0.0
 10
780.522193
 20
-254.975585
 30
0.0
 10
780.195815
 20
-254.821890
 30
0.0
 10
779.838352
 20
-254.514499
 30
0.0
  0
SPLINE
  5
14e
100
AcDbEntity
  8
0
 62
7
100
AcDbSpline
 70
8
 71
3
 72
8
 73
4
 74
0
 40
0
 40
0
 40
0
 40
0
 40
1
 40
1
 40
1
 40
1
 10
779.838352
 20
-254.514499
 30
0.0
 10
779.496432
 20
-254.191739
 30
0.0
 10
779.271075
 20
-253.838240
 30
0.0
 10
779.162283
 20
-253.454001
 30
0.0
  0
SPLINE
  5
14f
100
AcDbEntity
  8
0
 62
7
100
AcDbSpline
 70
8
 71
3
 72
8
 73
4
 74
0
 40
0
 40
0
 40
0
 40
0
 40
1
 40
1
 40
1
 40
1
 10
779.162283
 20
-253.454001
 30
0.0
 10
778.618318
 20
-254.483760
 30
0.0
 10
777.600328
 20
-254.998639
 30
0.0
 10
776.108312
 20
-254.998639
 30
0.0
  0
SPLINE
  5
150
100
AcDbEntity
  8
0
 62
7
100
AcDbSpline
 70
8
 71
3
 72
8
 73
4
 74
0
 40
0
 40
0
 40
0
 40
0
 40
1
 40
1
 40
1
 40
1
 10
776.108312
 20
-254.998639
 30
0.0
 10
774.740630
 20
-254.998639
 30
0.0
 10
773.676014
 20
-254.522184
 30
0.0
 10
772.914464
 20
-253.569273
 30
0.0
  0
SPLINE
  5
151
100
AcDbEntity
  8
0
 62
7
100
AcDbSpline
 70
8
 71
3
 72
8
 73
4
 74
0
 40
0
 40
0
 40
0
 40
0
 40
1
 40
1
 40
1
 40
1
 10
772.914464
 20
-253.569273
 30
0.0
 10
772.168456
 20
-252.616362
 30
0.0
 10
771.795452
 20
-251.402169
 30
0.0
 10
771.795452
 20
-249.926694
 30
0.0
  0
LWPOLYLINE
  5
152
100
AcDbEntity
  8
0
 62
7
100
AcDbPolyline
 90
2
 70
0
 10
765.115619
 20
-251.540495
 30
0.0
 10
765.208870
 20
-248.059296
 30
0.0
  0
SPLINE
  5
153
100
AcDbEntity
  8
0
 62
7
100
AcDbSpline
 70
8
 71
3
 72
8
 73
4
 74
0
 40
0
 40
0
 40
0
 40
0
 40
1
 40
1
 40
1
 40
1
 10
771.795452
 20
-244.485880
 30
0.0
 10
771.795452
 20
-244.132381
 30
0.0
 10
771.950870
 20
-243.848044
 30
0.0
 10
772.261707
 20
-243.632871
 30
0.0
  0
SPLINE
  5
154
100
AcDbEntity
  8
0
 62
7
100
AcDbSpline
 70
8
 71
3
 72
8
 73
4
 74
0
 40
0
 40
0
 40
0
 40
0
 40
1
 40
1
 40
1
 40
1
 10
772.261707
 20
-243.632871
 30
0.0
 10
772.588086
 20
-243.402328
 30
0.0
 10
772.984403
 20
-243.287057
 30
0.0
 10
773.450658
 20
-243.287057
 30
0.0
  0
SPLINE
  5
155
100
AcDbEntity
  8
0
 62
7
100
AcDbSpline
 70
8
 71
3
 72
8
 73
4
 74
0
 40
0
 40
0
 40
0
 40
0
 40
1
 40
1
 40
1
 40
1
 10
773.450658
 20
-243.287057
 30
0.0
 10
773.916913
 20
-243.287057
 30
0.0
 10
774.313230
 20
-243.402328
 30
0.0
 10
774.639608
 20
-243.632871
 30
0.0
  0
SPLINE
  5
156
100
AcDbEntity
  8
0
 62
7
100
AcDbSpline
 70
8
 71
3
 72
8
 73
4
 74
0
 40
0
 40
0
 40
0
 40
0
 40
1
 40
1
 40
1
 40
1
 10
774.639608
 20
-243.632871
 30
0.0
 10
774.981529
 20
-243.848044
 30
0.0
 10
775.152489
 20
-244.132381
 30
0.0
 10
775.152489
 20
-244.485880
 30
0.0
  0
LWPOLYLINE
  5
157
100
AcDbEntity
  8
0
 62
7
100
AcDbPolyline
 90
2
 70
0
 10
771.795452
 20
-249.926694
 30
0.0
 10
771.795452
 20
-244.485880
 30
0.0
  0
SPLINE
  5
158
100
AcDbEntity
  8
0
 62
7
100
AcDbSpline
 70
8
 71
3
 72
8
 73
4
 74
0
 40
0
 40
0
 40
0
 40
0
 40
1
 40
1
 40
1
 40
1
 10
775.152489
 20
-249.880585
 30
0.0
 10
775.152489
 20
-250.541475
 30
0.0
 10
775.269053
 20
-251.133202
 30
0.0
 10
775.502180
 20
-251.655766
 30
0.0
  0
SPLINE
  5
159
100
AcDbEntity
  8
0
 62
7
100
AcDbSpline
 70
8
 71
3
 72
8
 73
4
 74
0
 40
0
 40
0
 40
0
 40
0
 40
1
 40
1
 40
1
 40
1
 10
775.502180
 20
-251.655766
 30
0.0
 10
775.735308
 20
-252.178330
 30
0.0
 10
776.092770
 20
-252.439612
 30
0.0
 10
776.574567
 20
-252.439612
 30
0.0
  0
SPLINE
  5
15a
100
AcDbEntity
  8
0
 62
7
100
AcDbSpline
 70
8
 71
3
 72
8
 73
4
 74
0
 40
0
 40
0
 40
0
 40
0
 40
1
 40
1
 40
1
 40
1
 10
776.574567
 20
-252.439612
 30
0.0
 10
777.180698
 20
-252.439612
 30
0.0
 10
777.623641
 20
-252.170645
 30
0.0
 10
777.903394
 20
-251.632712
 30
0.0
  0
SPLINE
  5
15b
100
AcDbEntity
  8
0
 62
7
100
AcDbSpline
 70
8
 71
3
 72
8
 73
4
 74
0
 40
0
 40
0
 40
0
 40
0
 40
1
 40
1
 40
1
 40
1
 10
777.903394
 20
-251.632712
 30
0.0
 10
778.198689
 20
-251.094778
 30
0.0
 10
778.346336
 20
-250.149552
 30
0.0
 10
778.346336
 20
-248.797033
 30
0.0
  0
LWPOLYLINE
  5
15c
100
AcDbEntity
  8
0
 62
7
100
AcDbPolyline
 90
2
 70
0
 10
775.152489
 20
-244.485880
 30
0.0
 10
775.152489
 20
-249.880585
 30
0.0
  0
SPLINE
  5
15d
100
AcDbEntity
  8
0
 62
7
100
AcDbSpline
 70
8
 71
3
 72
8
 73
4
 74
0
 40
0
 40
0
 40
0
 40
0
 40
1
 40
1
 40
1
 40
1
 10
778.346336
 20
-244.531989
 30
0.0
 10
778.346336
 20
-244.117011
 30
0.0
 10
778.493984
 20
-243.786566
 30
0.0
 10
778.789279
 20
-243.540654
 30
0.0
  0
SPLINE
  5
15e
100
AcDbEntity
  8
0
 62
7
100
AcDbSpline
 70
8
 71
3
 72
8
 73
4
 74
0
 40
0
 40
0
 40
0
 40
0
 40
1
 40
1
 40
1
 40
1
 10
778.789279
 20
-243.540654
 30
0.0
 10
779.100115
 20
-243.294741
 30
0.0
 10
779.504203
 20
-243.171785
 30
0.0
 10
780.001542
 20
-243.171785
 30
0.0
  0
SPLINE
  5
15f
100
AcDbEntity
  8
0
 62
7
100
AcDbSpline
 70
8
 71
3
 72
8
 73
4
 74
0
 40
0
 40
0
 40
0
 40
0
 40
1
 40
1
 40
1
 40
1
 10
780.001542
 20
-243.171785
 30
0.0
 10
780.514422
 20
-243.171785
 30
0.0
 10
780.926281
 20
-243.294741
 30
0.0
 10
781.237118
 20
-243.540654
 30
0.0
  0
SPLINE
  5
160
100
AcDbEntity
  8
0
 62
7
100
AcDbSpline
 70
8
 71
3
 72
8
 73
4
 74
0
 40
0
 40
0
 40
0
 40
0
 40
1
 40
1
 40
1
 40
1
 10
781.237118
 20
-243.540654
 30
0.0
 10
781.563496
 20
-243.786566
 30
0.0
 10
781.726686
 20
-244.117011
 30
0.0
 10
781.726686
 20
-244.531989
 30
0.0
  0
LWPOLYLINE
  5
161
100
AcDbEntity
  8
0
 62
7
100
AcDbPolyline
 90
2
 70
0
 10
778.346336
 20
-248.797033
 30
0.0
 10
778.346336
 20
-244.531989
 30
0.0
  0
SPLINE
  5
162
100
AcDbEntity
  8
0
 62
7
100
AcDbSpline
 70
8
 71
3
 72
8
 73
4
 74
0
 40
0
 40
0
 40
0
 40
0
 40
1
 40
1
 40
1
 40
1
 10
787.677628
 20
-242.918188
 30
0.0
 10
787.055954
 20
-242.918188
 30
0.0
 10
786.543074
 20
-242.726069
 30
0.0
 10
786.138986
 20
-242.341830
 30
0.0
  0
SPLINE
  5
163
100
AcDbEntity
  8
0
 62
7
100
AcDbSpline
 70
8
 71
3
 72
8
 73
4
 74
0
 40
0
 40
0
 40
0
 40
0
 40
1
 40
1
 40
1
 40
1
 10
786.138986
 20
-242.341830
 30
0.0
 10
785.750440
 20
-241.942223
 30
0.0
 10
785.556167
 20
-241.442713
 30
0.0
 10
785.556167
 20
-240.843301
 30
0.0
  0
SPLINE
  5
164
100
AcDbEntity
  8
0
 62
7
100
AcDbSpline
 70
8
 71
3
 72
8
 73
4
 74
0
 40
0
 40
0
 40
0
 40
0
 40
1
 40
1
 40
1
 40
1
 10
785.556167
 20
-240.843301
 30
0.0
 10
785.556167
 20
-240.243890
 30
0.0
 10
785.750440
 20
-239.759749
 30
0.0
 10
786.138986
 20
-239.390881
 30
0.0
  0
SPLINE
  5
165
100
AcDbEntity
  8
0
 62
7
100
AcDbSpline
 70
8
 71
3
 72
8
 73
4
 74
0
 40
0
 40
0
 40
0
 40
0
 40
1
 40
1
 40
1
 40
1
 10
786.138986
 20
-239.390881
 30
0.0
 10
786.543074
 20
-239.006642
 30
0.0
 10
787.063725
 20
-238.814523
 30
0.0
 10
787.700940
 20
-238.814523
 30
0.0
  0
SPLINE
  5
166
100
AcDbEntity
  8
0
 62
7
100
AcDbSpline
 70
8
 71
3
 72
8
 73
4
 74
0
 40
0
 40
0
 40
0
 40
0
 40
1
 40
1
 40
1
 40
1
 10
787.700940
 20
-238.814523
 30
0.0
 10
788.322614
 20
-238.814523
 30
0.0
 10
788.827724
 20
-239.006642
 30
0.0
 10
789.216269
 20
-239.390881
 30
0.0
  0
SPLINE
  5
167
100
AcDbEntity
  8
0
 62
7
100
AcDbSpline
 70
8
 71
3
 72
8
 73
4
 74
0
 40
0
 40
0
 40
0
 40
0
 40
1
 40
1
 40
1
 40
1
 10
789.216269
 20
-239.390881
 30
0.0
 10
789.604815
 20
-239.759749
 30
0.0
 10
789.799088
 20
-240.236205
 30
0.0
 10
789.799088
 20
-240.820247
 30
0.0
  0
SPLINE
  5
168
100
AcDbEntity
  8
0
 62
7
100
AcDbSpline
 70
8
 71
3
 72
8
 73
4
 74
0
 40
0
 40
0
 40
0
 40
0
 40
1
 40
1
 40
1
 40
1
 10
789.799088
 20
-240.820247
 30
0.0
 10
789.799088
 20
-241.419659
 30
0.0
 10
789.597044
 20
-241.919168
 30
0.0
 10
789.192957
 20
-242.318776
 30
0.0
  0
SPLINE
  5
169
100
AcDbEntity
  8
0
 62
7
100
AcDbSpline
 70
8
 71
3
 72
8
 73
4
 74
0
 40
0
 40
0
 40
0
 40
0
 40
1
 40
1
 40
1
 40
1
 10
789.192957
 20
-242.318776
 30
0.0
 10
788.804411
 20
-242.718384
 30
0.0
 10
788.299301
 20
-242.918188
 30
0.0
 10
787.677628
 20
-242.918188
 30
0.0
  0
LWPOLYLINE
  5
16a
100
AcDbEntity
  8
0
 62
7
100
AcDbPolyline
 90
2
 70
0
 10
781.726686
 20
-244.531989
 30
0.0
 10
781.796624
 20
-251.309952
 30
0.0
  0
SPLINE
  5
16b
100
AcDbEntity
  8
0
 62
7
100
AcDbSpline
 70
8
 71
3
 72
8
 73
4
 74
0
 40
0
 40
0
 40
0
 40
0
 40
1
 40
1
 40
1
 40
1
 10
787.351249
 20
-254.814205
 30
0.0
 10
786.853910
 20
-254.814205
 30
0.0
 10
786.442052
 20
-254.691249
 30
0.0
 10
786.115673
 20
-254.445336
 30
0.0
  0
SPLINE
  5
16c
100
AcDbEntity
  8
0
 62
7
100
AcDbSpline
 70
8
 71
3
 72
8
 73
4
 74
0
 40
0
 40
0
 40
0
 40
0
 40
1
 40
1
 40
1
 40
1
 10
786.115673
 20
-254.445336
 30
0.0
 10
785.789294
 20
-254.199424
 30
0.0
 10
785.633876
 20
-253.868979
 30
0.0
 10
785.649418
 20
-253.454001
 30
0.0
  0
LWPOLYLINE
  5
16d
100
AcDbEntity
  8
0
 62
7
100
AcDbPolyline
 90
1
 70
1
 10
787.677628
 20
-242.918188
 30
0.0
  0
SPLINE
  5
16e
100
AcDbEntity
  8
0
 62
7
100
AcDbSpline
 70
8
 71
3
 72
8
 73
4
 74
0
 40
0
 40
0
 40
0
 40
0
 40
1
 40
1
 40
1
 40
1
 10
785.835920
 20
-244.946966
 30
0.0
 10
785.851462
 20
-244.531989
 30
0.0
 10
786.014651
 20
-244.209228
 30
0.0
 10
786.325488
 20
-243.978686
 30
0.0
  0
SPLINE
  5
16f
100
AcDbEntity
  8
0
 62
7
100
AcDbSpline
 70
8
 71
3
 72
8
 73
4
 74
0
 40
0
 40
0
 40
0
 40
0
 40
1
 40
1
 40
1
 40
1
 10
786.325488
 20
-243.978686
 30
0.0
 10
786.636325
 20
-243.732773
 30
0.0
 10
787.040412
 20
-243.609817
 30
0.0
 10
787.537751
 20
-243.609817
 30
0.0
  0
SPLINE
  5
170
100
AcDbEntity
  8
0
 62
7
100
AcDbSpline
 70
8
 71
3
 72
8
 73
4
 74
0
 40
0
 40
0
 40
0
 40
0
 40
1
 40
1
 40
1
 40
1
 10
787.537751
 20
-243.609817
 30
0.0
 10
788.050632
 20
-243.609817
 30
0.0
 10
788.470261
 20
-243.732773
 30
0.0
 10
788.796640
 20
-243.978686
 30
0.0
  0
SPLINE
  5
171
100
AcDbEntity
  8
0
 62
7
100
AcDbSpline
 70
8
 71
3
 72
8
 73
4
 74
0
 40
0
 40
0
 40
0
 40
0
 40
1
 40
1
 40
1
 40
1
 10
788.796640
 20
-243.978686
 30
0.0
 10
789.123018
 20
-244.224598
 30
0.0
 10
789.278437
 20
-244.562728
 30
0.0
 10
789.262895
 20
-244.993075
 30
0.0
  0
LWPOLYLINE
  5
172
100
AcDbEntity
  8
0
 62
7
100
AcDbPolyline
 90
2
 70
0
 10
785.649418
 20
-253.454001
 30
0.0
 10
785.835920
 20
-244.946966
 30
0.0
  0
SPLINE
  5
173
100
AcDbEntity
  8
0
 62
7
100
AcDbSpline
 70
8
 71
3
 72
8
 73
4
 74
0
 40
0
 40
0
 40
0
 40
0
 40
1
 40
1
 40
1
 40
1
 10
789.076393
 20
-253.477056
 30
0.0
 10
789.060851
 20
-253.892033
 30
0.0
 10
788.889891
 20
-254.222478
 30
0.0
 10
788.563512
 20
-254.468390
 30
0.0
  0
SPLINE
  5
174
100
AcDbEntity
  8
0
 62
7
100
AcDbSpline
 70
8
 71
3
 72
8
 73
4
 74
0
 40
0
 40
0
 40
0
 40
0
 40
1
 40
1
 40
1
 40
1
 10
788.563512
 20
-254.468390
 30
0.0
 10
788.252676
 20
-254.698933
 30
0.0
 10
787.848588
 20
-254.814205
 30
0.0
 10
787.351249
 20
-254.814205
 30
0.0
  0
LWPOLYLINE
  5
175
100
AcDbEntity
  8
0
 62
7
100
AcDbPolyline
 90
2
 70
0
 10
789.262895
 20
-244.993075
 30
0.0
 10
789.076393
 20
-253.477056
 30
0.0
  0
SPLINE
  5
176
100
AcDbEntity
  8
0
 62
7
100
AcDbSpline
 70
8
 71
3
 72
8
 73
4
 74
0
 40
0
 40
0
 40
0
 40
0
 40
1
 40
1
 40
1
 40
1
 10
799.471335
 20
-242.987351
 30
0.0
 10
800.093008
 20
-242.987351
 30
0.0
 10
800.668056
 20
-243.133361
 30
0.0
 10
801.196478
 20
-243.425382
 30
0.0
  0
SPLINE
  5
177
100
AcDbEntity
  8
0
 62
7
100
AcDbSpline
 70
8
 71
3
 72
8
 73
4
 74
0
 40
0
 40
0
 40
0
 40
0
 40
1
 40
1
 40
1
 40
1
 10
801.196478
 20
-243.425382
 30
0.0
 10
801.724901
 20
-243.702034
 30
0.0
 10
802.144530
 20
-244.101642
 30
0.0
 10
802.455367
 20
-244.624206
 30
0.0
  0
SPLINE
  5
178
100
AcDbEntity
  8
0
 62
7
100
AcDbSpline
 70
8
 71
3
 72
8
 73
4
 74
0
 40
0
 40
0
 40
0
 40
0
 40
1
 40
1
 40
1
 40
1
 10
802.455367
 20
-244.624206
 30
0.0
 10
802.766204
 20
-245.146770
 30
0.0
 10
802.921622
 20
-245.753866
 30
0.0
 10
802.921622
 20
-246.445495
 30
0.0
  0
SPLINE
  5
179
100
AcDbEntity
  8
0
 62
7
100
AcDbSpline
 70
8
 71
3
 72
8
 73
4
 74
0
 40
0
 40
0
 40
0
 40
0
 40
1
 40
1
 40
1
 40
1
 10
802.921622
 20
-246.445495
 30
0.0
 10
802.921622
 20
-247.444515
 30
0.0
 10
802.587473
 20
-248.220676
 30
0.0
 10
801.919174
 20
-248.773979
 30
0.0
  0
SPLINE
  5
17a
100
AcDbEntity
  8
0
 62
7
100
AcDbSpline
 70
8
 71
3
 72
8
 73
4
 74
0
 40
0
 40
0
 40
0
 40
0
 40
1
 40
1
 40
1
 40
1
 10
801.919174
 20
-248.773979
 30
0.0
 10
801.266417
 20
-249.311913
 30
0.0
 10
800.419387
 20
-249.580880
 30
0.0
 10
799.378084
 20
-249.580880
 30
0.0
  0
SPLINE
  5
17b
100
AcDbEntity
  8
0
 62
7
100
AcDbSpline
 70
8
 71
3
 72
8
 73
4
 74
0
 40
0
 40
0
 40
0
 40
0
 40
1
 40
1
 40
1
 40
1
 10
799.378084
 20
-249.580880
 30
0.0
 10
798.834119
 20
-249.580880
 30
0.0
 10
798.453344
 20
-249.504032
 30
0.0
 10
798.235759
 20
-249.350337
 30
0.0
  0
SPLINE
  5
17c
100
AcDbEntity
  8
0
 62
7
100
AcDbSpline
 70
8
 71
3
 72
8
 73
4
 74
0
 40
0
 40
0
 40
0
 40
0
 40
1
 40
1
 40
1
 40
1
 10
798.235759
 20
-249.350337
 30
0.0
 10
798.018173
 20
-249.181272
 30
0.0
 10
797.909380
 20
-248.904620
 30
0.0
 10
797.909380
 20
-248.520382
 30
0.0
  0
SPLINE
  5
17d
100
AcDbEntity
  8
0
 62
7
100
AcDbSpline
 70
8
 71
3
 72
8
 73
4
 74
0
 40
0
 40
0
 40
0
 40
0
 40
1
 40
1
 40
1
 40
1
 10
797.909380
 20
-248.520382
 30
0.0
 10
797.909380
 20
-248.151513
 30
0.0
 10
797.987089
 20
-247.897916
 30
0.0
 10
798.142508
 20
-247.759590
 30
0.0
  0
SPLINE
  5
17e
100
AcDbEntity
  8
0
 62
7
100
AcDbSpline
 70
8
 71
3
 72
8
 73
4
 74
0
 40
0
 40
0
 40
0
 40
0
 40
1
 40
1
 40
1
 40
1
 10
798.142508
 20
-247.759590
 30
0.0
 10
798.297926
 20
-247.605895
 30
0.0
 10
798.515512
 20
-247.513678
 30
0.0
 10
798.795265
 20
-247.482939
 30
0.0
  0
SPLINE
  5
17f
100
AcDbEntity
  8
0
 62
7
100
AcDbSpline
 70
8
 71
3
 72
8
 73
4
 74
0
 40
0
 40
0
 40
0
 40
0
 40
1
 40
1
 40
1
 40
1
 10
798.795265
 20
-247.482939
 30
0.0
 10
799.712233
 20
-247.390721
 30
0.0
 10
800.170717
 20
-247.014168
 30
0.0
 10
800.170717
 20
-246.353278
 30
0.0
  0
SPLINE
  5
180
100
AcDbEntity
  8
0
 62
7
100
AcDbSpline
 70
8
 71
3
 72
8
 73
4
 74
0
 40
0
 40
0
 40
0
 40
0
 40
1
 40
1
 40
1
 40
1
 10
800.170717
 20
-246.353278
 30
0.0
 10
800.170717
 20
-246.076626
 30
0.0
 10
800.100779
 20
-245.869138
 30
0.0
 10
799.960902
 20
-245.730812
 30
0.0
  0
SPLINE
  5
181
100
AcDbEntity
  8
0
 62
7
100
AcDbSpline
 70
8
 71
3
 72
8
 73
4
 74
0
 40
0
 40
0
 40
0
 40
0
 40
1
 40
1
 40
1
 40
1
 10
799.960902
 20
-245.730812
 30
0.0
 10
799.836568
 20
-245.577117
 30
0.0
 10
799.657837
 20
-245.500269
 30
0.0
 10
799.424709
 20
-245.500269
 30
0.0
  0
SPLINE
  5
182
100
AcDbEntity
  8
0
 62
7
100
AcDbSpline
 70
8
 71
3
 72
8
 73
4
 74
0
 40
0
 40
0
 40
0
 40
0
 40
1
 40
1
 40
1
 40
1
 10
799.424709
 20
-245.500269
 30
0.0
 10
799.005079
 20
-245.500269
 30
0.0
 10
798.616534
 20
-245.738497
 30
0.0
 10
798.259071
 20
-246.214952
 30
0.0
  0
SPLINE
  5
183
100
AcDbEntity
  8
0
 62
7
100
AcDbSpline
 70
8
 71
3
 72
8
 73
4
 74
0
 40
0
 40
0
 40
0
 40
0
 40
1
 40
1
 40
1
 40
1
 10
798.259071
 20
-246.214952
 30
0.0
 10
797.901609
 20
-246.676038
 30
0.0
 10
797.606314
 20
-247.221657
 30
0.0
 10
797.373187
 20
-247.851807
 30
0.0
  0
SPLINE
  5
184
100
AcDbEntity
  8
0
 62
7
100
AcDbSpline
 70
8
 71
3
 72
8
 73
4
 74
0
 40
0
 40
0
 40
0
 40
0
 40
1
 40
1
 40
1
 40
1
 10
797.373187
 20
-247.851807
 30
0.0
 10
797.140059
 20
-248.466589
 30
0.0
 10
796.992412
 20
-248.989153
 30
0.0
 10
796.930244
 20
-249.419499
 30
0.0
  0
SPLINE
  5
185
100
AcDbEntity
  8
0
 62
7
100
AcDbSpline
 70
8
 71
3
 72
8
 73
4
 74
0
 40
0
 40
0
 40
0
 40
0
 40
1
 40
1
 40
1
 40
1
 10
796.930244
 20
-249.419499
 30
0.0
 10
796.821451
 20
-250.095759
 30
0.0
 10
796.767055
 20
-251.294582
 30
0.0
 10
796.767055
 20
-253.015970
 30
0.0
  0
SPLINE
  5
186
100
AcDbEntity
  8
0
 62
7
100
AcDbSpline
 70
8
 71
3
 72
8
 73
4
 74
0
 40
0
 40
0
 40
0
 40
0
 40
1
 40
1
 40
1
 40
1
 10
796.767055
 20
-253.015970
 30
0.0
 10
796.767055
 20
-253.845924
 30
0.0
 10
796.642720
 20
-254.414597
 30
0.0
 10
796.394051
 20
-254.721988
 30
0.0
  0
SPLINE
  5
187
100
AcDbEntity
  8
0
 62
7
100
AcDbSpline
 70
8
 71
3
 72
8
 73
4
 74
0
 40
0
 40
0
 40
0
 40
0
 40
1
 40
1
 40
1
 40
1
 10
796.394051
 20
-254.721988
 30
0.0
 10
796.160923
 20
-255.014009
 30
0.0
 10
795.741294
 20
-255.160019
 30
0.0
 10
795.135162
 20
-255.160019
 30
0.0
  0
SPLINE
  5
188
100
AcDbEntity
  8
0
 62
7
100
AcDbSpline
 70
8
 71
3
 72
8
 73
4
 74
0
 40
0
 40
0
 40
0
 40
0
 40
1
 40
1
 40
1
 40
1
 10
795.135162
 20
-255.160019
 30
0.0
 10
794.575656
 20
-255.160019
 30
0.0
 10
794.148256
 20
-255.052433
 30
0.0
 10
793.852961
 20
-254.837259
 30
0.0
  0
SPLINE
  5
189
100
AcDbEntity
  8
0
 62
7
100
AcDbSpline
 70
8
 71
3
 72
8
 73
4
 74
0
 40
0
 40
0
 40
0
 40
0
 40
1
 40
1
 40
1
 40
1
 10
793.852961
 20
-254.837259
 30
0.0
 10
793.573208
 20
-254.622086
 30
0.0
 10
793.425560
 20
-254.291641
 30
0.0
 10
793.410018
 20
-253.845924
 30
0.0
  0
LWPOLYLINE
  5
18a
100
AcDbEntity
  8
0
 62
7
100
AcDbPolyline
 90
1
 70
1
 10
787.351249
 20
-254.814205
 30
0.0
  0
SPLINE
  5
18b
100
AcDbEntity
  8
0
 62
7
100
AcDbSpline
 70
8
 71
3
 72
8
 73
4
 74
0
 40
0
 40
0
 40
0
 40
0
 40
1
 40
1
 40
1
 40
1
 10
793.410018
 20
-250.111128
 30
0.0
 10
793.410018
 20
-249.127478
 30
0.0
 10
793.386706
 20
-248.297524
 30
0.0
 10
793.340080
 20
-247.621264
 30
0.0
  0
SPLINE
  5
18c
100
AcDbEntity
  8
0
 62
7
100
AcDbSpline
 70
8
 71
3
 72
8
 73
4
 74
0
 40
0
 40
0
 40
0
 40
0
 40
1
 40
1
 40
1
 40
1
 10
793.340080
 20
-247.621264
 30
0.0
 10
793.293455
 20
-246.929635
 30
0.0
 10
793.215745
 20
-246.045887
 30
0.0
 10
793.106953
 20
-244.970020
 30
0.0
  0
LWPOLYLINE
  5
18d
100
AcDbEntity
  8
0
 62
7
100
AcDbPolyline
 90
3
 70
0
 10
793.410018
 20
-253.845924
 30
0.0
 10
793.410018
 20
-252.785427
 30
0.0
 10
793.410018
 20
-250.111128
 30
0.0
  0
SPLINE
  5
18e
100
AcDbEntity
  8
0
 62
7
100
AcDbSpline
 70
8
 71
3
 72
8
 73
4
 74
0
 40
0
 40
0
 40
0
 40
0
 40
1
 40
1
 40
1
 40
1
 10
793.013702
 20
-244.024794
 30
0.0
 10
792.982618
 20
-243.640556
 30
0.0
 10
793.106953
 20
-243.325480
 30
0.0
 10
793.386706
 20
-243.079568
 30
0.0
  0
SPLINE
  5
18f
100
AcDbEntity
  8
0
 62
7
100
AcDbSpline
 70
8
 71
3
 72
8
 73
4
 74
0
 40
0
 40
0
 40
0
 40
0
 40
1
 40
1
 40
1
 40
1
 10
793.386706
 20
-243.079568
 30
0.0
 10
793.682000
 20
-242.833655
 30
0.0
 10
794.086088
 20
-242.710699
 30
0.0
 10
794.598969
 20
-242.710699
 30
0.0
  0
SPLINE
  5
190
100
AcDbEntity
  8
0
 62
7
100
AcDbSpline
 70
8
 71
3
 72
8
 73
4
 74
0
 40
0
 40
0
 40
0
 40
0
 40
1
 40
1
 40
1
 40
1
 10
794.598969
 20
-242.710699
 30
0.0
 10
795.469312
 20
-242.710699
 30
0.0
 10
795.935567
 20
-243.094937
 30
0.0
 10
795.997734
 20
-243.863414
 30
0.0
  0
SPLINE
  5
191
100
AcDbEntity
  8
0
 62
7
100
AcDbSpline
 70
8
 71
3
 72
8
 73
4
 74
0
 40
0
 40
0
 40
0
 40
0
 40
1
 40
1
 40
1
 40
1
 10
795.997734
 20
-243.863414
 30
0.0
 10
796.028818
 20
-244.232283
 30
0.0
 10
796.059901
 20
-244.754847
 30
0.0
 10
796.090985
 20
-245.431106
 30
0.0
  0
SPLINE
  5
192
100
AcDbEntity
  8
0
 62
7
100
AcDbSpline
 70
8
 71
3
 72
8
 73
4
 74
0
 40
0
 40
0
 40
0
 40
0
 40
1
 40
1
 40
1
 40
1
 10
796.090985
 20
-245.431106
 30
0.0
 10
796.401822
 20
-244.708738
 30
0.0
 10
796.836993
 20
-244.124696
 30
0.0
 10
797.396499
 20
-243.678980
 30
0.0
  0
SPLINE
  5
193
100
AcDbEntity
  8
0
 62
7
100
AcDbSpline
 70
8
 71
3
 72
8
 73
4
 74
0
 40
0
 40
0
 40
0
 40
0
 40
1
 40
1
 40
1
 40
1
 10
797.396499
 20
-243.678980
 30
0.0
 10
797.971547
 20
-243.217894
 30
0.0
 10
798.663159
 20
-242.987351
 30
0.0
 10
799.471335
 20
-242.987351
 30
0.0
  0
LWPOLYLINE
  5
194
100
AcDbEntity
  8
0
 62
7
100
AcDbPolyline
 90
2
 70
0
 10
793.106953
 20
-244.970020
 30
0.0
 10
793.013702
 20
-244.024794
 30
0.0
  0
SPLINE
  5
195
100
AcDbEntity
  8
0
 62
7
100
AcDbSpline
 70
8
 71
3
 72
8
 73
4
 74
0
 40
0
 40
0
 40
0
 40
0
 40
1
 40
1
 40
1
 40
1
 10
806.849454
 20
-255.136965
 30
0.0
 10
806.383199
 20
-255.136965
 30
0.0
 10
805.986882
 20
-255.021693
 30
0.0
 10
805.660504
 20
-254.791150
 30
0.0
  0
SPLINE
  5
196
100
AcDbEntity
  8
0
 62
7
100
AcDbSpline
 70
8
 71
3
 72
8
 73
4
 74
0
 40
0
 40
0
 40
0
 40
0
 40
1
 40
1
 40
1
 40
1
 10
805.660504
 20
-254.791150
 30
0.0
 10
805.334125
 20
-254.560608
 30
0.0
 10
805.170936
 20
-254.276271
 30
0.0
 10
805.170936
 20
-253.938142
 30
0.0
  0
LWPOLYLINE
  5
197
100
AcDbEntity
  8
0
 62
7
100
AcDbPolyline
 90
1
 70
1
 10
799.471335
 20
-242.987351
 30
0.0
  0
SPLINE
  5
198
100
AcDbEntity
  8
0
 62
7
100
AcDbSpline
 70
8
 71
3
 72
8
 73
4
 74
0
 40
0
 40
0
 40
0
 40
0
 40
1
 40
1
 40
1
 40
1
 10
805.170936
 20
-239.229500
 30
0.0
 10
805.170936
 20
-238.814523
 30
0.0
 10
805.326354
 20
-238.484078
 30
0.0
 10
805.637191
 20
-238.238166
 30
0.0
  0
SPLINE
  5
199
100
AcDbEntity
  8
0
 62
7
100
AcDbSpline
 70
8
 71
3
 72
8
 73
4
 74
0
 40
0
 40
0
 40
0
 40
0
 40
1
 40
1
 40
1
 40
1
 10
805.637191
 20
-238.238166
 30
0.0
 10
805.948028
 20
-237.992253
 30
0.0
 10
806.344345
 20
-237.869297
 30
0.0
 10
806.826142
 20
-237.869297
 30
0.0
  0
SPLINE
  5
19a
100
AcDbEntity
  8
0
 62
7
100
AcDbSpline
 70
8
 71
3
 72
8
 73
4
 74
0
 40
0
 40
0
 40
0
 40
0
 40
1
 40
1
 40
1
 40
1
 10
806.826142
 20
-237.869297
 30
0.0
 10
807.323480
 20
-237.869297
 30
0.0
 10
807.727568
 20
-237.992253
 30
0.0
 10
808.038405
 20
-238.238166
 30
0.0
  0
SPLINE
  5
19b
100
AcDbEntity
  8
0
 62
7
100
AcDbSpline
 70
8
 71
3
 72
8
 73
4
 74
0
 40
0
 40
0
 40
0
 40
0
 40
1
 40
1
 40
1
 40
1
 10
808.038405
 20
-238.238166
 30
0.0
 10
808.364783
 20
-238.484078
 30
0.0
 10
808.527973
 20
-238.814523
 30
0.0
 10
808.527973
 20
-239.229500
 30
0.0
  0
LWPOLYLINE
  5
19c
100
AcDbEntity
  8
0
 62
7
100
AcDbPolyline
 90
2
 70
0
 10
805.170936
 20
-253.938142
 30
0.0
 10
805.170936
 20
-239.229500
 30
0.0
  0
SPLINE
  5
19d
100
AcDbEntity
  8
0
 62
7
100
AcDbSpline
 70
8
 71
3
 72
8
 73
4
 74
0
 40
0
 40
0
 40
0
 40
0
 40
1
 40
1
 40
1
 40
1
 10
809.856800
 20
-244.808640
 30
0.0
 10
811.379900
 20
-243.855729
 30
0.0
 10
812.491141
 20
-243.171785
 30
0.0
 10
813.190524
 20
-242.756808
 30
0.0
  0
SPLINE
  5
19e
100
AcDbEntity
  8
0
 62
7
100
AcDbSpline
 70
8
 71
3
 72
8
 73
4
 74
0
 40
0
 40
0
 40
0
 40
0
 40
1
 40
1
 40
1
 40
1
 10
813.190524
 20
-242.756808
 30
0.0
 10
813.532444
 20
-242.557004
 30
0.0
 10
813.882135
 20
-242.480156
 30
0.0
 10
814.239598
 20
-242.526265
 30
0.0
  0
SPLINE
  5
19f
100
AcDbEntity
  8
0
 62
7
100
AcDbSpline
 70
8
 71
3
 72
8
 73
4
 74
0
 40
0
 40
0
 40
0
 40
0
 40
1
 40
1
 40
1
 40
1
 10
814.239598
 20
-242.526265
 30
0.0
 10
814.550434
 20
-242.572373
 30
0.0
 10
814.822416
 20
-242.756808
 30
0.0
 10
815.055544
 20
-243.079568
 30
0.0
  0
SPLINE
  5
1a0
100
AcDbEntity
  8
0
 62
7
100
AcDbSpline
 70
8
 71
3
 72
8
 73
4
 74
0
 40
0
 40
0
 40
0
 40
0
 40
1
 40
1
 40
1
 40
1
 10
815.055544
 20
-243.079568
 30
0.0
 10
815.288672
 20
-243.386959
 30
0.0
 10
815.405235
 20
-243.717403
 30
0.0
 10
815.405235
 20
-244.070903
 30
0.0
  0
SPLINE
  5
1a1
100
AcDbEntity
  8
0
 62
7
100
AcDbSpline
 70
8
 71
3
 72
8
 73
4
 74
0
 40
0
 40
0
 40
0
 40
0
 40
1
 40
1
 40
1
 40
1
 10
815.405235
 20
-244.070903
 30
0.0
 10
815.405235
 20
-244.316815
 30
0.0
 10
815.343068
 20
-244.508934
 30
0.0
 10
815.218733
 20
-244.647260
 30
0.0
  0
SPLINE
  5
1a2
100
AcDbEntity
  8
0
 62
7
100
AcDbSpline
 70
8
 71
3
 72
8
 73
4
 74
0
 40
0
 40
0
 40
0
 40
0
 40
1
 40
1
 40
1
 40
1
 10
815.218733
 20
-244.647260
 30
0.0
 10
815.094399
 20
-244.785586
 30
0.0
 10
814.884584
 20
-244.946966
 30
0.0
 10
814.589289
 20
-245.131400
 30
0.0
  0
LWPOLYLINE
  5
1a3
100
AcDbEntity
  8
0
 62
7
100
AcDbPolyline
 90
3
 70
0
 10
808.527973
 20
-239.229500
 30
0.0
 10
808.481347
 20
-245.684703
 30
0.0
 10
809.856800
 20
-244.808640
 30
0.0
  0
SPLINE
  5
1a4
100
AcDbEntity
  8
0
 62
7
100
AcDbSpline
 70
8
 71
3
 72
8
 73
4
 74
0
 40
0
 40
0
 40
0
 40
0
 40
1
 40
1
 40
1
 40
1
 10
814.799104
 20
-252.670155
 30
0.0
 10
815.063315
 20
-252.869959
 30
0.0
 10
815.195420
 20
-253.169665
 30
0.0
 10
815.195420
 20
-253.569273
 30
0.0
  0
SPLINE
  5
1a5
100
AcDbEntity
  8
0
 62
7
100
AcDbSpline
 70
8
 71
3
 72
8
 73
4
 74
0
 40
0
 40
0
 40
0
 40
0
 40
1
 40
1
 40
1
 40
1
 10
815.195420
 20
-253.569273
 30
0.0
 10
815.195420
 20
-253.968881
 30
0.0
 10
815.040002
 20
-254.299325
 30
0.0
 10
814.729165
 20
-254.560608
 30
0.0
  0
SPLINE
  5
1a6
100
AcDbEntity
  8
0
 62
7
100
AcDbSpline
 70
8
 71
3
 72
8
 73
4
 74
0
 40
0
 40
0
 40
0
 40
0
 40
1
 40
1
 40
1
 40
1
 10
814.729165
 20
-254.560608
 30
0.0
 10
814.433870
 20
-254.821890
 30
0.0
 10
814.084179
 20
-254.952531
 30
0.0
 10
813.680091
 20
-254.952531
 30
0.0
  0
SPLINE
  5
1a7
100
AcDbEntity
  8
0
 62
7
100
AcDbSpline
 70
8
 71
3
 72
8
 73
4
 74
0
 40
0
 40
0
 40
0
 40
0
 40
1
 40
1
 40
1
 40
1
 10
813.680091
 20
-254.952531
 30
0.0
 10
813.291546
 20
-254.952531
 30
0.0
 10
812.903000
 20
-254.814205
 30
0.0
 10
812.514454
 20
-254.537553
 30
0.0
  0
SPLINE
  5
1a8
100
AcDbEntity
  8
0
 62
7
100
AcDbSpline
 70
8
 71
3
 72
8
 73
4
 74
0
 40
0
 40
0
 40
0
 40
0
 40
1
 40
1
 40
1
 40
1
 10
812.514454
 20
-254.537553
 30
0.0
 10
811.970489
 20
-254.137945
 30
0.0
 10
811.201169
 20
-253.500110
 30
0.0
 10
810.206491
 20
-252.624047
 30
0.0
  0
SPLINE
  5
1a9
100
AcDbEntity
  8
0
 62
7
100
AcDbSpline
 70
8
 71
3
 72
8
 73
4
 74
0
 40
0
 40
0
 40
0
 40
0
 40
1
 40
1
 40
1
 40
1
 10
810.206491
 20
-252.624047
 30
0.0
 10
809.149646
 20
-251.717244
 30
0.0
 10
808.574598
 20
-251.225419
 30
0.0
 10
808.481347
 20
-251.148572
 30
0.0
  0
LWPOLYLINE
  5
1aa
100
AcDbEntity
  8
0
 62
7
100
AcDbPolyline
 90
3
 70
0
 10
814.589289
 20
-245.131400
 30
0.0
 10
809.180730
 20
-248.428165
 30
0.0
 10
814.799104
 20
-252.670155
 30
0.0
  0
SPLINE
  5
1ab
100
AcDbEntity
  8
0
 62
7
100
AcDbSpline
 70
8
 71
3
 72
8
 73
4
 74
0
 40
0
 40
0
 40
0
 40
0
 40
1
 40
1
 40
1
 40
1
 10
808.481347
 20
-253.915087
 30
0.0
 10
808.481347
 20
-254.268586
 30
0.0
 10
808.325929
 20
-254.560608
 30
0.0
 10
808.015092
 20
-254.791150
 30
0.0
  0
SPLINE
  5
1ac
100
AcDbEntity
  8
0
 62
7
100
AcDbSpline
 70
8
 71
3
 72
8
 73
4
 74
0
 40
0
 40
0
 40
0
 40
0
 40
1
 40
1
 40
1
 40
1
 10
808.015092
 20
-254.791150
 30
0.0
 10
807.704255
 20
-255.021693
 30
0.0
 10
807.315709
 20
-255.136965
 30
0.0
 10
806.849454
 20
-255.136965
 30
0.0
  0
LWPOLYLINE
  5
1ad
100
AcDbEntity
  8
0
 62
7
100
AcDbPolyline
 90
2
 70
0
 10
808.481347
 20
-251.148572
 30
0.0
 10
808.481347
 20
-253.915087
 30
0.0
  0
SPLINE
  5
1ae
100
AcDbEntity
  8
0
 62
7
100
AcDbSpline
 70
8
 71
3
 72
8
 73
4
 74
0
 40
0
 40
0
 40
0
 40
0
 40
1
 40
1
 40
1
 40
1
 10
821.527293
 20
-232.747414
 30
0.0
 10
821.199228
 20
-232.758985
 30
0.0
 10
820.878580
 20
-232.848167
 30
0.0
 10
820.591653
 20
-233.007644
 30
0.0
  0
SPLINE
  5
1af
100
AcDbEntity
  8
0
 62
7
100
AcDbSpline
 70
8
 71
3
 72
8
 73
4
 74
0
 40
0
 40
0
 40
0
 40
0
 40
1
 40
1
 40
1
 40
1
 10
820.591653
 20
-233.007644
 30
0.0
 10
820.591653
 20
-233.007644
 30
0.0
 10
815.315421
 20
-235.831218
 30
0.0
 10
815.315421
 20
-235.831218
 30
0.0
  0
SPLINE
  5
1b0
100
AcDbEntity
  8
0
 62
7
100
AcDbSpline
 70
8
 71
3
 72
8
 73
4
 74
0
 40
0
 40
0
 40
0
 40
0
 40
1
 40
1
 40
1
 40
1
 10
815.315421
 20
-235.831218
 30
0.0
 10
814.638139
 20
-236.168459
 30
0.0
 10
814.197876
 20
-236.847374
 30
0.0
 10
814.166253
 20
-237.603313
 30
0.0
  0
SPLINE
  5
1b1
100
AcDbEntity
  8
0
 62
7
100
AcDbSpline
 70
8
 71
3
 72
8
 73
4
 74
0
 40
0
 40
0
 40
0
 40
0
 40
1
 40
1
 40
1
 40
1
 10
814.166253
 20
-237.603313
 30
0.0
 10
814.134630
 20
-238.359251
 30
0.0
 10
814.516652
 20
-239.072565
 30
0.0
 10
815.163402
 20
-239.465194
 30
0.0
  0
SPLINE
  5
1b2
100
AcDbEntity
  8
0
 62
7
100
AcDbSpline
 70
8
 71
3
 72
8
 73
4
 74
0
 40
0
 40
0
 40
0
 40
0
 40
1
 40
1
 40
1
 40
1
 10
815.163402
 20
-239.465194
 30
0.0
 10
815.810151
 20
-239.857823
 30
0.0
 10
816.619262
 20
-239.867624
 30
0.0
 10
817.275333
 20
-239.490776
 30
0.0
  0
LWPOLYLINE
  5
1b3
100
AcDbEntity
  8
0
 62
7
100
AcDbPolyline
 90
1
 70
1
 10
806.849454
 20
-255.136965
 30
0.0
  0
SPLINE
  5
1b4
100
AcDbEntity
  8
0
 62
7
100
AcDbSpline
 70
8
 71
3
 72
8
 73
4
 74
0
 40
0
 40
0
 40
0
 40
0
 40
1
 40
1
 40
1
 40
1
 10
822.557037
 20
-236.667217
 30
0.0
 10
823.420455
 20
-236.220765
 30
0.0
 10
823.858657
 20
-235.235120
 30
0.0
 10
823.611685
 20
-234.295006
 30
0.0
  0
SPLINE
  5
1b5
100
AcDbEntity
  8
0
 62
7
100
AcDbSpline
 70
8
 71
3
 72
8
 73
4
 74
0
 40
0
 40
0
 40
0
 40
0
 40
1
 40
1
 40
1
 40
1
 10
823.611685
 20
-234.295006
 30
0.0
 10
823.364712
 20
-233.354893
 30
0.0
 10
822.498656
 20
-232.711883
 30
0.0
 10
821.527293
 20
-232.747436
 30
0.0
  0
LWPOLYLINE
  5
1b6
100
AcDbEntity
  8
0
 62
7
100
AcDbPolyline
 90
2
 70
0
 10
817.275333
 20
-239.490776
 30
0.0
 10
822.557037
 20
-236.667217
 30
0.0
  0
SPLINE
  5
1b7
100
AcDbEntity
  8
0
 62
7
100
AcDbSpline
 70
8
 71
3
 72
8
 73
4
 74
0
 40
0
 40
0
 40
0
 40
0
 40
1
 40
1
 40
1
 40
1
 10
813.959013
 20
-227.294048
 30
0.0
 10
813.049125
 20
-227.263434
 30
0.0
 10
812.225395
 20
-227.829055
 30
0.0
 10
811.927173
 20
-228.689228
 30
0.0
  0
LWPOLYLINE
  5
1b8
100
AcDbEntity
  8
0
 62
7
100
AcDbPolyline
 90
1
 70
1
 10
821.527293
 20
-232.747436
 30
0.0
  0
SPLINE
  5
1b9
100
AcDbEntity
  8
0
 62
7
100
AcDbSpline
 70
8
 71
3
 72
8
 73
4
 74
0
 40
0
 40
0
 40
0
 40
0
 40
1
 40
1
 40
1
 40
1
 10
809.950629
 20
-234.125991
 30
0.0
 10
809.657870
 20
-234.831089
 30
0.0
 10
809.775625
 20
-235.639967
 30
0.0
 10
810.257265
 20
-236.232330
 30
0.0
  0
SPLINE
  5
1ba
100
AcDbEntity
  8
0
 62
7
100
AcDbSpline
 70
8
 71
3
 72
8
 73
4
 74
0
 40
0
 40
0
 40
0
 40
0
 40
1
 40
1
 40
1
 40
1
 10
810.257265
 20
-236.232330
 30
0.0
 10
810.738904
 20
-236.824692
 30
0.0
 10
811.506746
 20
-237.104997
 30
0.0
 10
812.256741
 20
-236.962249
 30
0.0
  0
SPLINE
  5
1bb
100
AcDbEntity
  8
0
 62
7
100
AcDbSpline
 70
8
 71
3
 72
8
 73
4
 74
0
 40
0
 40
0
 40
0
 40
0
 40
1
 40
1
 40
1
 40
1
 10
812.256741
 20
-236.962249
 30
0.0
 10
813.006737
 20
-236.819502
 30
0.0
 10
813.617920
 20
-236.276726
 30
0.0
 10
813.848277
 20
-235.548848
 30
0.0
  0
SPLINE
  5
1bc
100
AcDbEntity
  8
0
 62
7
100
AcDbSpline
 70
8
 71
3
 72
8
 73
4
 74
0
 40
0
 40
0
 40
0
 40
0
 40
1
 40
1
 40
1
 40
1
 10
813.848277
 20
-235.548848
 30
0.0
 10
813.848277
 20
-235.548848
 30
0.0
 10
815.830293
 20
-230.112085
 30
0.0
 10
815.830293
 20
-230.112085
 30
0.0
  0
SPLINE
  5
1bd
100
AcDbEntity
  8
0
 62
7
100
AcDbSpline
 70
8
 71
3
 72
8
 73
4
 74
0
 40
0
 40
0
 40
0
 40
0
 40
1
 40
1
 40
1
 40
1
 10
815.830293
 20
-230.112085
 30
0.0
 10
816.070450
 20
-229.484890
 30
0.0
 10
815.992452
 20
-228.780273
 30
0.0
 10
815.620934
 20
-228.220789
 30
0.0
  0
SPLINE
  5
1be
100
AcDbEntity
  8
0
 62
7
100
AcDbSpline
 70
8
 71
3
 72
8
 73
4
 74
0
 40
0
 40
0
 40
0
 40
0
 40
1
 40
1
 40
1
 40
1
 10
815.620934
 20
-228.220789
 30
0.0
 10
815.249416
 20
-227.661304
 30
0.0
 10
814.630254
 20
-227.316040
 30
0.0
 10
813.959013
 20
-227.294048
 30
0.0
  0
LWPOLYLINE
  5
1bf
100
AcDbEntity
  8
0
 62
7
100
AcDbPolyline
 90
2
 70
0
 10
811.927173
 20
-228.689228
 30
0.0
 10
809.950629
 20
-234.125991
 30
0.0
  0
SPLINE
  5
1c0
100
AcDbEntity
  8
0
 62
5
100
AcDbSpline
 70
8
 71
3
 72
8
 73
4
 74
0
 40
0
 40
0
 40
0
 40
0
 40
1
 40
1
 40
1
 40
1
 10
751.554379
 20
-248.886424
 30
0.0
 10
751.552147
 20
-249.239166
 30
0.0
 10
747.621883
 20
-251.552310
 30
0.0
 10
747.409483
 20
-251.836213
 30
0.0
  0
SPLINE
  5
1c1
100
AcDbEntity
  8
0
 62
5
100
AcDbSpline
 70
8
 71
3
 72
8
 73
4
 74
0
 40
0
 40
0
 40
0
 40
0
 40
1
 40
1
 40
1
 40
1
 10
747.409483
 20
-251.836213
 30
0.0
 10
747.197155
 20
-252.120138
 30
0.0
 10
746.117011
 20
-256.504585
 30
0.0
 10
745.775875
 20
-256.611203
 30
0.0
  0
SPLINE
  5
1c2
100
AcDbEntity
  8
0
 62
5
100
AcDbSpline
 70
8
 71
3
 72
8
 73
4
 74
0
 40
0
 40
0
 40
0
 40
0
 40
1
 40
1
 40
1
 40
1
 10
745.775875
 20
-256.611203
 30
0.0
 10
745.434739
 20
-256.717821
 30
0.0
 10
741.987739
 20
-253.748267
 30
0.0
 10
741.648187
 20
-253.636883
 30
0.0
  0
SPLINE
  5
1c3
100
AcDbEntity
  8
0
 62
5
100
AcDbSpline
 70
8
 71
3
 72
8
 73
4
 74
0
 40
0
 40
0
 40
0
 40
0
 40
1
 40
1
 40
1
 40
1
 10
741.648187
 20
-253.636883
 30
0.0
 10
741.308563
 20
-253.525492
 30
0.0
 10
736.744051
 20
-253.867276
 30
0.0
 10
736.535683
 20
-253.580406
 30
0.0
  0
SPLINE
  5
1c4
100
AcDbEntity
  8
0
 62
5
100
AcDbSpline
 70
8
 71
3
 72
8
 73
4
 74
0
 40
0
 40
0
 40
0
 40
0
 40
1
 40
1
 40
1
 40
1
 10
736.535683
 20
-253.580406
 30
0.0
 10
736.327315
 20
-253.293558
 30
0.0
 10
738.127027
 20
-249.145134
 30
0.0
 10
738.129547
 20
-248.792377
 30
0.0
  0
SPLINE
  5
1c5
100
AcDbEntity
  8
0
 62
5
100
AcDbSpline
 70
8
 71
3
 72
8
 73
4
 74
0
 40
0
 40
0
 40
0
 40
0
 40
1
 40
1
 40
1
 40
1
 10
738.129547
 20
-248.792377
 30
0.0
 10
738.131779
 20
-248.439627
 30
0.0
 10
736.391035
 20
-244.266407
 30
0.0
 10
736.603435
 20
-243.982503
 30
0.0
  0
SPLINE
  5
1c6
100
AcDbEntity
  8
0
 62
5
100
AcDbSpline
 70
8
 71
3
 72
8
 73
4
 74
0
 40
0
 40
0
 40
0
 40
0
 40
1
 40
1
 40
1
 40
1
 10
736.603435
 20
-243.982503
 30
0.0
 10
736.815763
 20
-243.698579
 30
0.0
 10
741.375019
 20
-244.104277
 30
0.0
 10
741.716155
 20
-243.997652
 30
0.0
  0
SPLINE
  5
1c7
100
AcDbEntity
  8
0
 62
5
100
AcDbSpline
 70
8
 71
3
 72
8
 73
4
 74
0
 40
0
 40
0
 40
0
 40
0
 40
1
 40
1
 40
1
 40
1
 10
741.716155
 20
-243.997652
 30
0.0
 10
742.057291
 20
-243.891027
 30
0.0
 10
745.545907
 20
-240.970052
 30
0.0
 10
745.885459
 20
-241.081443
 30
0.0
  0
SPLINE
  5
1c8
100
AcDbEntity
  8
0
 62
5
100
AcDbSpline
 70
8
 71
3
 72
8
 73
4
 74
0
 40
0
 40
0
 40
0
 40
0
 40
1
 40
1
 40
1
 40
1
 10
745.885459
 20
-241.081443
 30
0.0
 10
746.225083
 20
-241.192820
 30
0.0
 10
747.243163
 20
-245.591984
 30
0.0
 10
747.451531
 20
-245.878839
 30
0.0
  0
SPLINE
  5
1c9
100
AcDbEntity
  8
0
 62
5
100
AcDbSpline
 70
8
 71
3
 72
8
 73
4
 74
0
 40
0
 40
0
 40
0
 40
0
 40
1
 40
1
 40
1
 40
1
 10
747.451531
 20
-245.878839
 30
0.0
 10
747.659899
 20
-246.165687
 30
0.0
 10
751.556899
 20
-248.533652
 30
0.0
 10
751.554379
 20
-248.886395
 30
0.0
  0
LWPOLYLINE
  5
1ca
100
AcDbEntity
  8
0
 62
7
100
AcDbPolyline
 90
1
 70
1
 10
813.959013
 20
-227.294048
 30
0.0
  0
LWPOLYLINE
  5
1cb
100
AcDbEntity
  8
0
 62
5
100
AcDbPolyline
 90
1
 70
1
 10
751.554379
 20
-248.886395
 30
0.0
  0
ENDSEC
  0
SECTION
  2
OBJECTS
  0
DICTIONARY
  5
C
330
0
100
AcDbDictionary
  3
ACAD_GROUP
350
D
  3
ACAD_MLINESTYLE
350
17
  0
DICTIONARY
  5
D
330
C
100
AcDbDictionary
  0
DICTIONARY
  5
1A
330
C
100
AcDbDictionary
  0
DICTIONARY
  5
17
330
C
100
AcDbDictionary
  3
STANDARD
350
18
  0
DICTIONARY
  5
19
330
C
100
AcDbDictionary
  0
ENDSEC
  0
EOF
