G04 #@! TF.GenerationSoftware,KiCad,Pcbnew,5.1.9-73d0e3b20d~88~ubuntu18.04.1*
G04 #@! TF.CreationDate,2021-02-07T21:55:21-06:00*
G04 #@! TF.ProjectId,keyboard,6b657962-6f61-4726-942e-6b696361645f,rev?*
G04 #@! TF.SameCoordinates,Original*
G04 #@! TF.FileFunction,Legend,Bot*
G04 #@! TF.FilePolarity,Positive*
%FSLAX46Y46*%
G04 Gerber Fmt 4.6, Leading zero omitted, Abs format (unit mm)*
G04 Created by KiCad (PCBNEW 5.1.9-73d0e3b20d~88~ubuntu18.04.1) date 2021-02-07 21:55:21*
%MOMM*%
%LPD*%
G01*
G04 APERTURE LIST*
%ADD10C,0.381000*%
%ADD11C,0.150000*%
%ADD12C,0.200000*%
G04 APERTURE END LIST*
D10*
X65087500Y-45878750D02*
X62547500Y-45878750D01*
X80327500Y-43338750D02*
X62547500Y-43338750D01*
X62547500Y-43338750D02*
X62547500Y-76358750D01*
X62547500Y-76358750D02*
X80327500Y-76358750D01*
X80327500Y-76358750D02*
X80327500Y-43338750D01*
D11*
G36*
X77282135Y-51767780D02*
G01*
X77282135Y-51867780D01*
X77782135Y-51867780D01*
X77782135Y-51767780D01*
X77282135Y-51767780D01*
G37*
X77282135Y-51767780D02*
X77282135Y-51867780D01*
X77782135Y-51867780D01*
X77782135Y-51767780D01*
X77282135Y-51767780D01*
G36*
X77282135Y-51767780D02*
G01*
X77282135Y-52067780D01*
X77382135Y-52067780D01*
X77382135Y-51767780D01*
X77282135Y-51767780D01*
G37*
X77282135Y-51767780D02*
X77282135Y-52067780D01*
X77382135Y-52067780D01*
X77382135Y-51767780D01*
X77282135Y-51767780D01*
G36*
X77282135Y-52367780D02*
G01*
X77282135Y-52567780D01*
X77382135Y-52567780D01*
X77382135Y-52367780D01*
X77282135Y-52367780D01*
G37*
X77282135Y-52367780D02*
X77282135Y-52567780D01*
X77382135Y-52567780D01*
X77382135Y-52367780D01*
X77282135Y-52367780D01*
G36*
X77682135Y-51767780D02*
G01*
X77682135Y-52567780D01*
X77782135Y-52567780D01*
X77782135Y-51767780D01*
X77682135Y-51767780D01*
G37*
X77682135Y-51767780D02*
X77682135Y-52567780D01*
X77782135Y-52567780D01*
X77782135Y-51767780D01*
X77682135Y-51767780D01*
G36*
X77482135Y-52167780D02*
G01*
X77482135Y-52267780D01*
X77582135Y-52267780D01*
X77582135Y-52167780D01*
X77482135Y-52167780D01*
G37*
X77482135Y-52167780D02*
X77482135Y-52267780D01*
X77582135Y-52267780D01*
X77582135Y-52167780D01*
X77482135Y-52167780D01*
D10*
X65087500Y-45878750D02*
X65087500Y-48418750D01*
X65087500Y-48418750D02*
X62547500Y-48418750D01*
D12*
X117862500Y-106737500D02*
X117862500Y-112537500D01*
X120262500Y-106737500D02*
X117862500Y-106737500D01*
X120262500Y-112537500D02*
X120262500Y-106737500D01*
X120262500Y-112462500D02*
X117862500Y-112462500D01*
X120262500Y-112337500D02*
X117862500Y-112337500D01*
X117862500Y-112562500D02*
X120262500Y-112562500D01*
X120262500Y-112162500D02*
X117862500Y-112162500D01*
X120262500Y-111987500D02*
X117862500Y-111987500D01*
X120262500Y-111812500D02*
X117862500Y-111812500D01*
X270262500Y-68637500D02*
X270262500Y-74437500D01*
X272662500Y-68637500D02*
X270262500Y-68637500D01*
X272662500Y-74437500D02*
X272662500Y-68637500D01*
X272662500Y-74362500D02*
X270262500Y-74362500D01*
X272662500Y-74237500D02*
X270262500Y-74237500D01*
X270262500Y-74462500D02*
X272662500Y-74462500D01*
X272662500Y-74062500D02*
X270262500Y-74062500D01*
X272662500Y-73887500D02*
X270262500Y-73887500D01*
X272662500Y-73712500D02*
X270262500Y-73712500D01*
X136912500Y-106737500D02*
X136912500Y-112537500D01*
X139312500Y-106737500D02*
X136912500Y-106737500D01*
X139312500Y-112537500D02*
X139312500Y-106737500D01*
X139312500Y-112462500D02*
X136912500Y-112462500D01*
X139312500Y-112337500D02*
X136912500Y-112337500D01*
X136912500Y-112562500D02*
X139312500Y-112562500D01*
X139312500Y-112162500D02*
X136912500Y-112162500D01*
X139312500Y-111987500D02*
X136912500Y-111987500D01*
X139312500Y-111812500D02*
X136912500Y-111812500D01*
X136912500Y-68650000D02*
X136912500Y-74450000D01*
X139312500Y-68650000D02*
X136912500Y-68650000D01*
X139312500Y-74450000D02*
X139312500Y-68650000D01*
X139312500Y-74375000D02*
X136912500Y-74375000D01*
X139312500Y-74250000D02*
X136912500Y-74250000D01*
X136912500Y-74475000D02*
X139312500Y-74475000D01*
X139312500Y-74075000D02*
X136912500Y-74075000D01*
X139312500Y-73900000D02*
X136912500Y-73900000D01*
X139312500Y-73725000D02*
X136912500Y-73725000D01*
X175012500Y-106737500D02*
X175012500Y-112537500D01*
X177412500Y-106737500D02*
X175012500Y-106737500D01*
X177412500Y-112537500D02*
X177412500Y-106737500D01*
X177412500Y-112462500D02*
X175012500Y-112462500D01*
X177412500Y-112337500D02*
X175012500Y-112337500D01*
X175012500Y-112562500D02*
X177412500Y-112562500D01*
X177412500Y-112162500D02*
X175012500Y-112162500D01*
X177412500Y-111987500D02*
X175012500Y-111987500D01*
X177412500Y-111812500D02*
X175012500Y-111812500D01*
X251212500Y-68637500D02*
X251212500Y-74437500D01*
X253612500Y-68637500D02*
X251212500Y-68637500D01*
X253612500Y-74437500D02*
X253612500Y-68637500D01*
X253612500Y-74362500D02*
X251212500Y-74362500D01*
X253612500Y-74237500D02*
X251212500Y-74237500D01*
X251212500Y-74462500D02*
X253612500Y-74462500D01*
X253612500Y-74062500D02*
X251212500Y-74062500D01*
X253612500Y-73887500D02*
X251212500Y-73887500D01*
X253612500Y-73712500D02*
X251212500Y-73712500D01*
X94050000Y-68637500D02*
X94050000Y-74437500D01*
X96450000Y-68637500D02*
X94050000Y-68637500D01*
X96450000Y-74437500D02*
X96450000Y-68637500D01*
X96450000Y-74362500D02*
X94050000Y-74362500D01*
X96450000Y-74237500D02*
X94050000Y-74237500D01*
X94050000Y-74462500D02*
X96450000Y-74462500D01*
X96450000Y-74062500D02*
X94050000Y-74062500D01*
X96450000Y-73887500D02*
X94050000Y-73887500D01*
X96450000Y-73712500D02*
X94050000Y-73712500D01*
X175012500Y-87687500D02*
X175012500Y-93487500D01*
X177412500Y-87687500D02*
X175012500Y-87687500D01*
X177412500Y-93487500D02*
X177412500Y-87687500D01*
X177412500Y-93412500D02*
X175012500Y-93412500D01*
X177412500Y-93287500D02*
X175012500Y-93287500D01*
X175012500Y-93512500D02*
X177412500Y-93512500D01*
X177412500Y-93112500D02*
X175012500Y-93112500D01*
X177412500Y-92937500D02*
X175012500Y-92937500D01*
X177412500Y-92762500D02*
X175012500Y-92762500D01*
X125006250Y-125787500D02*
X125006250Y-131587500D01*
X127406250Y-125787500D02*
X125006250Y-125787500D01*
X127406250Y-131587500D02*
X127406250Y-125787500D01*
X127406250Y-131512500D02*
X125006250Y-131512500D01*
X127406250Y-131387500D02*
X125006250Y-131387500D01*
X125006250Y-131612500D02*
X127406250Y-131612500D01*
X127406250Y-131212500D02*
X125006250Y-131212500D01*
X127406250Y-131037500D02*
X125006250Y-131037500D01*
X127406250Y-130862500D02*
X125006250Y-130862500D01*
X182156250Y-125787500D02*
X182156250Y-131587500D01*
X184556250Y-125787500D02*
X182156250Y-125787500D01*
X184556250Y-131587500D02*
X184556250Y-125787500D01*
X184556250Y-131512500D02*
X182156250Y-131512500D01*
X184556250Y-131387500D02*
X182156250Y-131387500D01*
X182156250Y-131612500D02*
X184556250Y-131612500D01*
X184556250Y-131212500D02*
X182156250Y-131212500D01*
X184556250Y-131037500D02*
X182156250Y-131037500D01*
X184556250Y-130862500D02*
X182156250Y-130862500D01*
X225018750Y-125800000D02*
X225018750Y-131600000D01*
X227418750Y-125800000D02*
X225018750Y-125800000D01*
X227418750Y-131600000D02*
X227418750Y-125800000D01*
X227418750Y-131525000D02*
X225018750Y-131525000D01*
X227418750Y-131400000D02*
X225018750Y-131400000D01*
X225018750Y-131625000D02*
X227418750Y-131625000D01*
X227418750Y-131225000D02*
X225018750Y-131225000D01*
X227418750Y-131050000D02*
X225018750Y-131050000D01*
X227418750Y-130875000D02*
X225018750Y-130875000D01*
X289312500Y-106750000D02*
X289312500Y-112550000D01*
X291712500Y-106750000D02*
X289312500Y-106750000D01*
X291712500Y-112550000D02*
X291712500Y-106750000D01*
X291712500Y-112475000D02*
X289312500Y-112475000D01*
X291712500Y-112350000D02*
X289312500Y-112350000D01*
X289312500Y-112575000D02*
X291712500Y-112575000D01*
X291712500Y-112175000D02*
X289312500Y-112175000D01*
X291712500Y-112000000D02*
X289312500Y-112000000D01*
X291712500Y-111825000D02*
X289312500Y-111825000D01*
X86906250Y-106737500D02*
X86906250Y-112537500D01*
X89306250Y-106737500D02*
X86906250Y-106737500D01*
X89306250Y-112537500D02*
X89306250Y-106737500D01*
X89306250Y-112462500D02*
X86906250Y-112462500D01*
X89306250Y-112337500D02*
X86906250Y-112337500D01*
X86906250Y-112562500D02*
X89306250Y-112562500D01*
X89306250Y-112162500D02*
X86906250Y-112162500D01*
X89306250Y-111987500D02*
X86906250Y-111987500D01*
X89306250Y-111812500D02*
X86906250Y-111812500D01*
X289312500Y-68637500D02*
X289312500Y-74437500D01*
X291712500Y-68637500D02*
X289312500Y-68637500D01*
X291712500Y-74437500D02*
X291712500Y-68637500D01*
X291712500Y-74362500D02*
X289312500Y-74362500D01*
X291712500Y-74237500D02*
X289312500Y-74237500D01*
X289312500Y-74462500D02*
X291712500Y-74462500D01*
X291712500Y-74062500D02*
X289312500Y-74062500D01*
X291712500Y-73887500D02*
X289312500Y-73887500D01*
X291712500Y-73712500D02*
X289312500Y-73712500D01*
X155962500Y-87700000D02*
X155962500Y-93500000D01*
X158362500Y-87700000D02*
X155962500Y-87700000D01*
X158362500Y-93500000D02*
X158362500Y-87700000D01*
X158362500Y-93425000D02*
X155962500Y-93425000D01*
X158362500Y-93300000D02*
X155962500Y-93300000D01*
X155962500Y-93525000D02*
X158362500Y-93525000D01*
X158362500Y-93125000D02*
X155962500Y-93125000D01*
X158362500Y-92950000D02*
X155962500Y-92950000D01*
X158362500Y-92775000D02*
X155962500Y-92775000D01*
X136912500Y-87687500D02*
X136912500Y-93487500D01*
X139312500Y-87687500D02*
X136912500Y-87687500D01*
X139312500Y-93487500D02*
X139312500Y-87687500D01*
X139312500Y-93412500D02*
X136912500Y-93412500D01*
X139312500Y-93287500D02*
X136912500Y-93287500D01*
X136912500Y-93512500D02*
X139312500Y-93512500D01*
X139312500Y-93112500D02*
X136912500Y-93112500D01*
X139312500Y-92937500D02*
X136912500Y-92937500D01*
X139312500Y-92762500D02*
X136912500Y-92762500D01*
X308362500Y-87687500D02*
X308362500Y-93487500D01*
X310762500Y-87687500D02*
X308362500Y-87687500D01*
X310762500Y-93487500D02*
X310762500Y-87687500D01*
X310762500Y-93412500D02*
X308362500Y-93412500D01*
X310762500Y-93287500D02*
X308362500Y-93287500D01*
X308362500Y-93512500D02*
X310762500Y-93512500D01*
X310762500Y-93112500D02*
X308362500Y-93112500D01*
X310762500Y-92937500D02*
X308362500Y-92937500D01*
X310762500Y-92762500D02*
X308362500Y-92762500D01*
X117862500Y-68637500D02*
X117862500Y-74437500D01*
X120262500Y-68637500D02*
X117862500Y-68637500D01*
X120262500Y-74437500D02*
X120262500Y-68637500D01*
X120262500Y-74362500D02*
X117862500Y-74362500D01*
X120262500Y-74237500D02*
X117862500Y-74237500D01*
X117862500Y-74462500D02*
X120262500Y-74462500D01*
X120262500Y-74062500D02*
X117862500Y-74062500D01*
X120262500Y-73887500D02*
X117862500Y-73887500D01*
X120262500Y-73712500D02*
X117862500Y-73712500D01*
X175012500Y-68650000D02*
X175012500Y-74450000D01*
X177412500Y-68650000D02*
X175012500Y-68650000D01*
X177412500Y-74450000D02*
X177412500Y-68650000D01*
X177412500Y-74375000D02*
X175012500Y-74375000D01*
X177412500Y-74250000D02*
X175012500Y-74250000D01*
X175012500Y-74475000D02*
X177412500Y-74475000D01*
X177412500Y-74075000D02*
X175012500Y-74075000D01*
X177412500Y-73900000D02*
X175012500Y-73900000D01*
X177412500Y-73725000D02*
X175012500Y-73725000D01*
X294075000Y-125787500D02*
X294075000Y-131587500D01*
X296475000Y-125787500D02*
X294075000Y-125787500D01*
X296475000Y-131587500D02*
X296475000Y-125787500D01*
X296475000Y-131512500D02*
X294075000Y-131512500D01*
X296475000Y-131387500D02*
X294075000Y-131387500D01*
X294075000Y-131612500D02*
X296475000Y-131612500D01*
X296475000Y-131212500D02*
X294075000Y-131212500D01*
X296475000Y-131037500D02*
X294075000Y-131037500D01*
X296475000Y-130862500D02*
X294075000Y-130862500D01*
X289312500Y-87687500D02*
X289312500Y-93487500D01*
X291712500Y-87687500D02*
X289312500Y-87687500D01*
X291712500Y-93487500D02*
X291712500Y-87687500D01*
X291712500Y-93412500D02*
X289312500Y-93412500D01*
X291712500Y-93287500D02*
X289312500Y-93287500D01*
X289312500Y-93512500D02*
X291712500Y-93512500D01*
X291712500Y-93112500D02*
X289312500Y-93112500D01*
X291712500Y-92937500D02*
X289312500Y-92937500D01*
X291712500Y-92762500D02*
X289312500Y-92762500D01*
X232162500Y-87687500D02*
X232162500Y-93487500D01*
X234562500Y-87687500D02*
X232162500Y-87687500D01*
X234562500Y-93487500D02*
X234562500Y-87687500D01*
X234562500Y-93412500D02*
X232162500Y-93412500D01*
X234562500Y-93287500D02*
X232162500Y-93287500D01*
X232162500Y-93512500D02*
X234562500Y-93512500D01*
X234562500Y-93112500D02*
X232162500Y-93112500D01*
X234562500Y-92937500D02*
X232162500Y-92937500D01*
X234562500Y-92762500D02*
X232162500Y-92762500D01*
X255975000Y-125787500D02*
X255975000Y-131587500D01*
X258375000Y-125787500D02*
X255975000Y-125787500D01*
X258375000Y-131587500D02*
X258375000Y-125787500D01*
X258375000Y-131512500D02*
X255975000Y-131512500D01*
X258375000Y-131387500D02*
X255975000Y-131387500D01*
X255975000Y-131612500D02*
X258375000Y-131612500D01*
X258375000Y-131212500D02*
X255975000Y-131212500D01*
X258375000Y-131037500D02*
X255975000Y-131037500D01*
X258375000Y-130862500D02*
X255975000Y-130862500D01*
X232162500Y-106737500D02*
X232162500Y-112537500D01*
X234562500Y-106737500D02*
X232162500Y-106737500D01*
X234562500Y-112537500D02*
X234562500Y-106737500D01*
X234562500Y-112462500D02*
X232162500Y-112462500D01*
X234562500Y-112337500D02*
X232162500Y-112337500D01*
X232162500Y-112562500D02*
X234562500Y-112562500D01*
X234562500Y-112162500D02*
X232162500Y-112162500D01*
X234562500Y-111987500D02*
X232162500Y-111987500D01*
X234562500Y-111812500D02*
X232162500Y-111812500D01*
X232162500Y-68637500D02*
X232162500Y-74437500D01*
X234562500Y-68637500D02*
X232162500Y-68637500D01*
X234562500Y-74437500D02*
X234562500Y-68637500D01*
X234562500Y-74362500D02*
X232162500Y-74362500D01*
X234562500Y-74237500D02*
X232162500Y-74237500D01*
X232162500Y-74462500D02*
X234562500Y-74462500D01*
X234562500Y-74062500D02*
X232162500Y-74062500D01*
X234562500Y-73887500D02*
X232162500Y-73887500D01*
X234562500Y-73712500D02*
X232162500Y-73712500D01*
X213112500Y-106737500D02*
X213112500Y-112537500D01*
X215512500Y-106737500D02*
X213112500Y-106737500D01*
X215512500Y-112537500D02*
X215512500Y-106737500D01*
X215512500Y-112462500D02*
X213112500Y-112462500D01*
X215512500Y-112337500D02*
X213112500Y-112337500D01*
X213112500Y-112562500D02*
X215512500Y-112562500D01*
X215512500Y-112162500D02*
X213112500Y-112162500D01*
X215512500Y-111987500D02*
X213112500Y-111987500D01*
X215512500Y-111812500D02*
X213112500Y-111812500D01*
X213112500Y-68650000D02*
X213112500Y-74450000D01*
X215512500Y-68650000D02*
X213112500Y-68650000D01*
X215512500Y-74450000D02*
X215512500Y-68650000D01*
X215512500Y-74375000D02*
X213112500Y-74375000D01*
X215512500Y-74250000D02*
X213112500Y-74250000D01*
X213112500Y-74475000D02*
X215512500Y-74475000D01*
X215512500Y-74075000D02*
X213112500Y-74075000D01*
X215512500Y-73900000D02*
X213112500Y-73900000D01*
X215512500Y-73725000D02*
X213112500Y-73725000D01*
X270262500Y-87687500D02*
X270262500Y-93487500D01*
X272662500Y-87687500D02*
X270262500Y-87687500D01*
X272662500Y-93487500D02*
X272662500Y-87687500D01*
X272662500Y-93412500D02*
X270262500Y-93412500D01*
X272662500Y-93287500D02*
X270262500Y-93287500D01*
X270262500Y-93512500D02*
X272662500Y-93512500D01*
X272662500Y-93112500D02*
X270262500Y-93112500D01*
X272662500Y-92937500D02*
X270262500Y-92937500D01*
X272662500Y-92762500D02*
X270262500Y-92762500D01*
X213112500Y-87687500D02*
X213112500Y-93487500D01*
X215512500Y-87687500D02*
X213112500Y-87687500D01*
X215512500Y-93487500D02*
X215512500Y-87687500D01*
X215512500Y-93412500D02*
X213112500Y-93412500D01*
X215512500Y-93287500D02*
X213112500Y-93287500D01*
X213112500Y-93512500D02*
X215512500Y-93512500D01*
X215512500Y-93112500D02*
X213112500Y-93112500D01*
X215512500Y-92937500D02*
X213112500Y-92937500D01*
X215512500Y-92762500D02*
X213112500Y-92762500D01*
X194062500Y-68637500D02*
X194062500Y-74437500D01*
X196462500Y-68637500D02*
X194062500Y-68637500D01*
X196462500Y-74437500D02*
X196462500Y-68637500D01*
X196462500Y-74362500D02*
X194062500Y-74362500D01*
X196462500Y-74237500D02*
X194062500Y-74237500D01*
X194062500Y-74462500D02*
X196462500Y-74462500D01*
X196462500Y-74062500D02*
X194062500Y-74062500D01*
X196462500Y-73887500D02*
X194062500Y-73887500D01*
X196462500Y-73712500D02*
X194062500Y-73712500D01*
X155962500Y-68637500D02*
X155962500Y-74437500D01*
X158362500Y-68637500D02*
X155962500Y-68637500D01*
X158362500Y-74437500D02*
X158362500Y-68637500D01*
X158362500Y-74362500D02*
X155962500Y-74362500D01*
X158362500Y-74237500D02*
X155962500Y-74237500D01*
X155962500Y-74462500D02*
X158362500Y-74462500D01*
X158362500Y-74062500D02*
X155962500Y-74062500D01*
X158362500Y-73887500D02*
X155962500Y-73887500D01*
X158362500Y-73712500D02*
X155962500Y-73712500D01*
X98812500Y-49575000D02*
X98812500Y-55375000D01*
X101212500Y-49575000D02*
X98812500Y-49575000D01*
X101212500Y-55375000D02*
X101212500Y-49575000D01*
X101212500Y-55300000D02*
X98812500Y-55300000D01*
X101212500Y-55175000D02*
X98812500Y-55175000D01*
X98812500Y-55400000D02*
X101212500Y-55400000D01*
X101212500Y-55000000D02*
X98812500Y-55000000D01*
X101212500Y-54825000D02*
X98812500Y-54825000D01*
X101212500Y-54650000D02*
X98812500Y-54650000D01*
X275025000Y-125787500D02*
X275025000Y-131587500D01*
X277425000Y-125787500D02*
X275025000Y-125787500D01*
X277425000Y-131587500D02*
X277425000Y-125787500D01*
X277425000Y-131512500D02*
X275025000Y-131512500D01*
X277425000Y-131387500D02*
X275025000Y-131387500D01*
X275025000Y-131612500D02*
X277425000Y-131612500D01*
X277425000Y-131212500D02*
X275025000Y-131212500D01*
X277425000Y-131037500D02*
X275025000Y-131037500D01*
X277425000Y-130862500D02*
X275025000Y-130862500D01*
X251212500Y-87687500D02*
X251212500Y-93487500D01*
X253612500Y-87687500D02*
X251212500Y-87687500D01*
X253612500Y-93487500D02*
X253612500Y-87687500D01*
X253612500Y-93412500D02*
X251212500Y-93412500D01*
X253612500Y-93287500D02*
X251212500Y-93287500D01*
X251212500Y-93512500D02*
X253612500Y-93512500D01*
X253612500Y-93112500D02*
X251212500Y-93112500D01*
X253612500Y-92937500D02*
X251212500Y-92937500D01*
X253612500Y-92762500D02*
X251212500Y-92762500D01*
X270262500Y-106737500D02*
X270262500Y-112537500D01*
X272662500Y-106737500D02*
X270262500Y-106737500D01*
X272662500Y-112537500D02*
X272662500Y-106737500D01*
X272662500Y-112462500D02*
X270262500Y-112462500D01*
X272662500Y-112337500D02*
X270262500Y-112337500D01*
X270262500Y-112562500D02*
X272662500Y-112562500D01*
X272662500Y-112162500D02*
X270262500Y-112162500D01*
X272662500Y-111987500D02*
X270262500Y-111987500D01*
X272662500Y-111812500D02*
X270262500Y-111812500D01*
X194062500Y-87700000D02*
X194062500Y-93500000D01*
X196462500Y-87700000D02*
X194062500Y-87700000D01*
X196462500Y-93500000D02*
X196462500Y-87700000D01*
X196462500Y-93425000D02*
X194062500Y-93425000D01*
X196462500Y-93300000D02*
X194062500Y-93300000D01*
X194062500Y-93525000D02*
X196462500Y-93525000D01*
X196462500Y-93125000D02*
X194062500Y-93125000D01*
X196462500Y-92950000D02*
X194062500Y-92950000D01*
X196462500Y-92775000D02*
X194062500Y-92775000D01*
X91668750Y-87687500D02*
X91668750Y-93487500D01*
X94068750Y-87687500D02*
X91668750Y-87687500D01*
X94068750Y-93487500D02*
X94068750Y-87687500D01*
X94068750Y-93412500D02*
X91668750Y-93412500D01*
X94068750Y-93287500D02*
X91668750Y-93287500D01*
X91668750Y-93512500D02*
X94068750Y-93512500D01*
X94068750Y-93112500D02*
X91668750Y-93112500D01*
X94068750Y-92937500D02*
X91668750Y-92937500D01*
X94068750Y-92762500D02*
X91668750Y-92762500D01*
X251212500Y-106737500D02*
X251212500Y-112537500D01*
X253612500Y-106737500D02*
X251212500Y-106737500D01*
X253612500Y-112537500D02*
X253612500Y-106737500D01*
X253612500Y-112462500D02*
X251212500Y-112462500D01*
X253612500Y-112337500D02*
X251212500Y-112337500D01*
X251212500Y-112562500D02*
X253612500Y-112562500D01*
X253612500Y-112162500D02*
X251212500Y-112162500D01*
X253612500Y-111987500D02*
X251212500Y-111987500D01*
X253612500Y-111812500D02*
X251212500Y-111812500D01*
X103575000Y-125787500D02*
X103575000Y-131587500D01*
X105975000Y-125787500D02*
X103575000Y-125787500D01*
X105975000Y-131587500D02*
X105975000Y-125787500D01*
X105975000Y-131512500D02*
X103575000Y-131512500D01*
X105975000Y-131387500D02*
X103575000Y-131387500D01*
X103575000Y-131612500D02*
X105975000Y-131612500D01*
X105975000Y-131212500D02*
X103575000Y-131212500D01*
X105975000Y-131037500D02*
X103575000Y-131037500D01*
X105975000Y-130862500D02*
X103575000Y-130862500D01*
X155962500Y-106737500D02*
X155962500Y-112537500D01*
X158362500Y-106737500D02*
X155962500Y-106737500D01*
X158362500Y-112537500D02*
X158362500Y-106737500D01*
X158362500Y-112462500D02*
X155962500Y-112462500D01*
X158362500Y-112337500D02*
X155962500Y-112337500D01*
X155962500Y-112562500D02*
X158362500Y-112562500D01*
X158362500Y-112162500D02*
X155962500Y-112162500D01*
X158362500Y-111987500D02*
X155962500Y-111987500D01*
X158362500Y-111812500D02*
X155962500Y-111812500D01*
X313125000Y-68637500D02*
X313125000Y-74437500D01*
X315525000Y-68637500D02*
X313125000Y-68637500D01*
X315525000Y-74437500D02*
X315525000Y-68637500D01*
X315525000Y-74362500D02*
X313125000Y-74362500D01*
X315525000Y-74237500D02*
X313125000Y-74237500D01*
X313125000Y-74462500D02*
X315525000Y-74462500D01*
X315525000Y-74062500D02*
X313125000Y-74062500D01*
X315525000Y-73887500D02*
X313125000Y-73887500D01*
X315525000Y-73712500D02*
X313125000Y-73712500D01*
X317887500Y-49587500D02*
X317887500Y-55387500D01*
X320287500Y-49587500D02*
X317887500Y-49587500D01*
X320287500Y-55387500D02*
X320287500Y-49587500D01*
X320287500Y-55312500D02*
X317887500Y-55312500D01*
X320287500Y-55187500D02*
X317887500Y-55187500D01*
X317887500Y-55412500D02*
X320287500Y-55412500D01*
X320287500Y-55012500D02*
X317887500Y-55012500D01*
X320287500Y-54837500D02*
X317887500Y-54837500D01*
X320287500Y-54662500D02*
X317887500Y-54662500D01*
X194062500Y-106737500D02*
X194062500Y-112537500D01*
X196462500Y-106737500D02*
X194062500Y-106737500D01*
X196462500Y-112537500D02*
X196462500Y-106737500D01*
X196462500Y-112462500D02*
X194062500Y-112462500D01*
X196462500Y-112337500D02*
X194062500Y-112337500D01*
X194062500Y-112562500D02*
X196462500Y-112562500D01*
X196462500Y-112162500D02*
X194062500Y-112162500D01*
X196462500Y-111987500D02*
X194062500Y-111987500D01*
X196462500Y-111812500D02*
X194062500Y-111812500D01*
X148818750Y-125787500D02*
X148818750Y-131587500D01*
X151218750Y-125787500D02*
X148818750Y-125787500D01*
X151218750Y-131587500D02*
X151218750Y-125787500D01*
X151218750Y-131512500D02*
X148818750Y-131512500D01*
X151218750Y-131387500D02*
X148818750Y-131387500D01*
X148818750Y-131612500D02*
X151218750Y-131612500D01*
X151218750Y-131212500D02*
X148818750Y-131212500D01*
X151218750Y-131037500D02*
X148818750Y-131037500D01*
X151218750Y-130862500D02*
X148818750Y-130862500D01*
X117862500Y-87687500D02*
X117862500Y-93487500D01*
X120262500Y-87687500D02*
X117862500Y-87687500D01*
X120262500Y-93487500D02*
X120262500Y-87687500D01*
X120262500Y-93412500D02*
X117862500Y-93412500D01*
X120262500Y-93287500D02*
X117862500Y-93287500D01*
X117862500Y-93512500D02*
X120262500Y-93512500D01*
X120262500Y-93112500D02*
X117862500Y-93112500D01*
X120262500Y-92937500D02*
X117862500Y-92937500D01*
X120262500Y-92762500D02*
X117862500Y-92762500D01*
X308362500Y-106737500D02*
X308362500Y-112537500D01*
X310762500Y-106737500D02*
X308362500Y-106737500D01*
X310762500Y-112537500D02*
X310762500Y-106737500D01*
X310762500Y-112462500D02*
X308362500Y-112462500D01*
X310762500Y-112337500D02*
X308362500Y-112337500D01*
X308362500Y-112562500D02*
X310762500Y-112562500D01*
X310762500Y-112162500D02*
X308362500Y-112162500D01*
X310762500Y-111987500D02*
X308362500Y-111987500D01*
X310762500Y-111812500D02*
X308362500Y-111812500D01*
X270262500Y-49587500D02*
X270262500Y-55387500D01*
X272662500Y-49587500D02*
X270262500Y-49587500D01*
X272662500Y-55387500D02*
X272662500Y-49587500D01*
X272662500Y-55312500D02*
X270262500Y-55312500D01*
X272662500Y-55187500D02*
X270262500Y-55187500D01*
X270262500Y-55412500D02*
X272662500Y-55412500D01*
X272662500Y-55012500D02*
X270262500Y-55012500D01*
X272662500Y-54837500D02*
X270262500Y-54837500D01*
X272662500Y-54662500D02*
X270262500Y-54662500D01*
X251212500Y-49587500D02*
X251212500Y-55387500D01*
X253612500Y-49587500D02*
X251212500Y-49587500D01*
X253612500Y-55387500D02*
X253612500Y-49587500D01*
X253612500Y-55312500D02*
X251212500Y-55312500D01*
X253612500Y-55187500D02*
X251212500Y-55187500D01*
X251212500Y-55412500D02*
X253612500Y-55412500D01*
X253612500Y-55012500D02*
X251212500Y-55012500D01*
X253612500Y-54837500D02*
X251212500Y-54837500D01*
X253612500Y-54662500D02*
X251212500Y-54662500D01*
X232162500Y-49587500D02*
X232162500Y-55387500D01*
X234562500Y-49587500D02*
X232162500Y-49587500D01*
X234562500Y-55387500D02*
X234562500Y-49587500D01*
X234562500Y-55312500D02*
X232162500Y-55312500D01*
X234562500Y-55187500D02*
X232162500Y-55187500D01*
X232162500Y-55412500D02*
X234562500Y-55412500D01*
X234562500Y-55012500D02*
X232162500Y-55012500D01*
X234562500Y-54837500D02*
X232162500Y-54837500D01*
X234562500Y-54662500D02*
X232162500Y-54662500D01*
X213112500Y-49587500D02*
X213112500Y-55387500D01*
X215512500Y-49587500D02*
X213112500Y-49587500D01*
X215512500Y-55387500D02*
X215512500Y-49587500D01*
X215512500Y-55312500D02*
X213112500Y-55312500D01*
X215512500Y-55187500D02*
X213112500Y-55187500D01*
X213112500Y-55412500D02*
X215512500Y-55412500D01*
X215512500Y-55012500D02*
X213112500Y-55012500D01*
X215512500Y-54837500D02*
X213112500Y-54837500D01*
X215512500Y-54662500D02*
X213112500Y-54662500D01*
X194062500Y-49587500D02*
X194062500Y-55387500D01*
X196462500Y-49587500D02*
X194062500Y-49587500D01*
X196462500Y-55387500D02*
X196462500Y-49587500D01*
X196462500Y-55312500D02*
X194062500Y-55312500D01*
X196462500Y-55187500D02*
X194062500Y-55187500D01*
X194062500Y-55412500D02*
X196462500Y-55412500D01*
X196462500Y-55012500D02*
X194062500Y-55012500D01*
X196462500Y-54837500D02*
X194062500Y-54837500D01*
X196462500Y-54662500D02*
X194062500Y-54662500D01*
X175012500Y-49587500D02*
X175012500Y-55387500D01*
X177412500Y-49587500D02*
X175012500Y-49587500D01*
X177412500Y-55387500D02*
X177412500Y-49587500D01*
X177412500Y-55312500D02*
X175012500Y-55312500D01*
X177412500Y-55187500D02*
X175012500Y-55187500D01*
X175012500Y-55412500D02*
X177412500Y-55412500D01*
X177412500Y-55012500D02*
X175012500Y-55012500D01*
X177412500Y-54837500D02*
X175012500Y-54837500D01*
X177412500Y-54662500D02*
X175012500Y-54662500D01*
X155962500Y-49587500D02*
X155962500Y-55387500D01*
X158362500Y-49587500D02*
X155962500Y-49587500D01*
X158362500Y-55387500D02*
X158362500Y-49587500D01*
X158362500Y-55312500D02*
X155962500Y-55312500D01*
X158362500Y-55187500D02*
X155962500Y-55187500D01*
X155962500Y-55412500D02*
X158362500Y-55412500D01*
X158362500Y-55012500D02*
X155962500Y-55012500D01*
X158362500Y-54837500D02*
X155962500Y-54837500D01*
X158362500Y-54662500D02*
X155962500Y-54662500D01*
X136912500Y-49587500D02*
X136912500Y-55387500D01*
X139312500Y-49587500D02*
X136912500Y-49587500D01*
X139312500Y-55387500D02*
X139312500Y-49587500D01*
X139312500Y-55312500D02*
X136912500Y-55312500D01*
X139312500Y-55187500D02*
X136912500Y-55187500D01*
X136912500Y-55412500D02*
X139312500Y-55412500D01*
X139312500Y-55012500D02*
X136912500Y-55012500D01*
X139312500Y-54837500D02*
X136912500Y-54837500D01*
X139312500Y-54662500D02*
X136912500Y-54662500D01*
X117862500Y-49587500D02*
X117862500Y-55387500D01*
X120262500Y-49587500D02*
X117862500Y-49587500D01*
X120262500Y-55387500D02*
X120262500Y-49587500D01*
X120262500Y-55312500D02*
X117862500Y-55312500D01*
X120262500Y-55187500D02*
X117862500Y-55187500D01*
X117862500Y-55412500D02*
X120262500Y-55412500D01*
X120262500Y-55012500D02*
X117862500Y-55012500D01*
X120262500Y-54837500D02*
X117862500Y-54837500D01*
X120262500Y-54662500D02*
X117862500Y-54662500D01*
X289312500Y-49587500D02*
X289312500Y-55387500D01*
X291712500Y-49587500D02*
X289312500Y-49587500D01*
X291712500Y-55387500D02*
X291712500Y-49587500D01*
X291712500Y-55312500D02*
X289312500Y-55312500D01*
X291712500Y-55187500D02*
X289312500Y-55187500D01*
X289312500Y-55412500D02*
X291712500Y-55412500D01*
X291712500Y-55012500D02*
X289312500Y-55012500D01*
X291712500Y-54837500D02*
X289312500Y-54837500D01*
X291712500Y-54662500D02*
X289312500Y-54662500D01*
D11*
X77010833Y-52532559D02*
X76896547Y-52570654D01*
X76706071Y-52570654D01*
X76629880Y-52532559D01*
X76591785Y-52494464D01*
X76553690Y-52418273D01*
X76553690Y-52342083D01*
X76591785Y-52265892D01*
X76629880Y-52227797D01*
X76706071Y-52189702D01*
X76858452Y-52151607D01*
X76934642Y-52113511D01*
X76972738Y-52075416D01*
X77010833Y-51999226D01*
X77010833Y-51923035D01*
X76972738Y-51846845D01*
X76934642Y-51808750D01*
X76858452Y-51770654D01*
X76667976Y-51770654D01*
X76553690Y-51808750D01*
X76325119Y-51770654D02*
X75867976Y-51770654D01*
X76096547Y-52570654D02*
X76096547Y-51770654D01*
X70056104Y-46710654D02*
X69598961Y-46710654D01*
X69827532Y-47510654D02*
X69827532Y-46710654D01*
X69408485Y-46710654D02*
X68875151Y-47510654D01*
X68875151Y-46710654D02*
X69408485Y-47510654D01*
X68418008Y-46710654D02*
X68341818Y-46710654D01*
X68265628Y-46748750D01*
X68227532Y-46786845D01*
X68189437Y-46863035D01*
X68151342Y-47015416D01*
X68151342Y-47205892D01*
X68189437Y-47358273D01*
X68227532Y-47434464D01*
X68265628Y-47472559D01*
X68341818Y-47510654D01*
X68418008Y-47510654D01*
X68494199Y-47472559D01*
X68532294Y-47434464D01*
X68570389Y-47358273D01*
X68608485Y-47205892D01*
X68608485Y-47015416D01*
X68570389Y-46863035D01*
X68532294Y-46786845D01*
X68494199Y-46748750D01*
X68418008Y-46710654D01*
X67237056Y-46672559D02*
X67922770Y-47701130D01*
X66970389Y-47510654D02*
X66970389Y-46710654D01*
X66779913Y-46710654D01*
X66665628Y-46748750D01*
X66589437Y-46824940D01*
X66551342Y-46901130D01*
X66513247Y-47053511D01*
X66513247Y-47167797D01*
X66551342Y-47320178D01*
X66589437Y-47396369D01*
X66665628Y-47472559D01*
X66779913Y-47510654D01*
X66970389Y-47510654D01*
X66246580Y-46710654D02*
X65751342Y-46710654D01*
X66018008Y-47015416D01*
X65903723Y-47015416D01*
X65827532Y-47053511D01*
X65789437Y-47091607D01*
X65751342Y-47167797D01*
X65751342Y-47358273D01*
X65789437Y-47434464D01*
X65827532Y-47472559D01*
X65903723Y-47510654D01*
X66132294Y-47510654D01*
X66208485Y-47472559D01*
X66246580Y-47434464D01*
X77222309Y-72491607D02*
X77108023Y-72529702D01*
X77069928Y-72567797D01*
X77031833Y-72643988D01*
X77031833Y-72758273D01*
X77069928Y-72834464D01*
X77108023Y-72872559D01*
X77184214Y-72910654D01*
X77488976Y-72910654D01*
X77488976Y-72110654D01*
X77222309Y-72110654D01*
X77146119Y-72148750D01*
X77108023Y-72186845D01*
X77069928Y-72263035D01*
X77069928Y-72339226D01*
X77108023Y-72415416D01*
X77146119Y-72453511D01*
X77222309Y-72491607D01*
X77488976Y-72491607D01*
X76727071Y-72186845D02*
X76688976Y-72148750D01*
X76612785Y-72110654D01*
X76422309Y-72110654D01*
X76346119Y-72148750D01*
X76308023Y-72186845D01*
X76269928Y-72263035D01*
X76269928Y-72339226D01*
X76308023Y-72453511D01*
X76765166Y-72910654D01*
X76269928Y-72910654D01*
X77165166Y-64871607D02*
X77431833Y-64871607D01*
X77431833Y-65290654D02*
X77431833Y-64490654D01*
X77050880Y-64490654D01*
X76822309Y-64490654D02*
X76288976Y-64490654D01*
X76631833Y-65290654D01*
X77165166Y-62331607D02*
X77431833Y-62331607D01*
X77431833Y-62750654D02*
X77431833Y-61950654D01*
X77050880Y-61950654D01*
X76403261Y-61950654D02*
X76555642Y-61950654D01*
X76631833Y-61988750D01*
X76669928Y-62026845D01*
X76746119Y-62141130D01*
X76784214Y-62293511D01*
X76784214Y-62598273D01*
X76746119Y-62674464D01*
X76708023Y-62712559D01*
X76631833Y-62750654D01*
X76479452Y-62750654D01*
X76403261Y-62712559D01*
X76365166Y-62674464D01*
X76327071Y-62598273D01*
X76327071Y-62407797D01*
X76365166Y-62331607D01*
X76403261Y-62293511D01*
X76479452Y-62255416D01*
X76631833Y-62255416D01*
X76708023Y-62293511D01*
X76746119Y-62331607D01*
X76784214Y-62407797D01*
X77165166Y-59791607D02*
X77431833Y-59791607D01*
X77431833Y-60210654D02*
X77431833Y-59410654D01*
X77050880Y-59410654D01*
X76365166Y-59410654D02*
X76746119Y-59410654D01*
X76784214Y-59791607D01*
X76746119Y-59753511D01*
X76669928Y-59715416D01*
X76479452Y-59715416D01*
X76403261Y-59753511D01*
X76365166Y-59791607D01*
X76327071Y-59867797D01*
X76327071Y-60058273D01*
X76365166Y-60134464D01*
X76403261Y-60172559D01*
X76479452Y-60210654D01*
X76669928Y-60210654D01*
X76746119Y-60172559D01*
X76784214Y-60134464D01*
X77450880Y-47510654D02*
X77717547Y-47129702D01*
X77908023Y-47510654D02*
X77908023Y-46710654D01*
X77603261Y-46710654D01*
X77527071Y-46748750D01*
X77488976Y-46786845D01*
X77450880Y-46863035D01*
X77450880Y-46977321D01*
X77488976Y-47053511D01*
X77527071Y-47091607D01*
X77603261Y-47129702D01*
X77908023Y-47129702D01*
X77146119Y-47282083D02*
X76765166Y-47282083D01*
X77222309Y-47510654D02*
X76955642Y-46710654D01*
X76688976Y-47510654D01*
X76498500Y-46710654D02*
X76308023Y-47510654D01*
X76155642Y-46939226D01*
X76003261Y-47510654D01*
X75812785Y-46710654D01*
X77508023Y-49288750D02*
X77584214Y-49250654D01*
X77698500Y-49250654D01*
X77812785Y-49288750D01*
X77888976Y-49364940D01*
X77927071Y-49441130D01*
X77965166Y-49593511D01*
X77965166Y-49707797D01*
X77927071Y-49860178D01*
X77888976Y-49936369D01*
X77812785Y-50012559D01*
X77698500Y-50050654D01*
X77622309Y-50050654D01*
X77508023Y-50012559D01*
X77469928Y-49974464D01*
X77469928Y-49707797D01*
X77622309Y-49707797D01*
X77127071Y-50050654D02*
X77127071Y-49250654D01*
X76669928Y-50050654D01*
X76669928Y-49250654D01*
X76288976Y-50050654D02*
X76288976Y-49250654D01*
X76098500Y-49250654D01*
X75984214Y-49288750D01*
X75908023Y-49364940D01*
X75869928Y-49441130D01*
X75831833Y-49593511D01*
X75831833Y-49707797D01*
X75869928Y-49860178D01*
X75908023Y-49936369D01*
X75984214Y-50012559D01*
X76098500Y-50050654D01*
X76288976Y-50050654D01*
X77965166Y-54330654D02*
X77698500Y-55130654D01*
X77431833Y-54330654D01*
X76708023Y-55054464D02*
X76746119Y-55092559D01*
X76860404Y-55130654D01*
X76936595Y-55130654D01*
X77050880Y-55092559D01*
X77127071Y-55016369D01*
X77165166Y-54940178D01*
X77203261Y-54787797D01*
X77203261Y-54673511D01*
X77165166Y-54521130D01*
X77127071Y-54444940D01*
X77050880Y-54368750D01*
X76936595Y-54330654D01*
X76860404Y-54330654D01*
X76746119Y-54368750D01*
X76708023Y-54406845D01*
X75908023Y-55054464D02*
X75946119Y-55092559D01*
X76060404Y-55130654D01*
X76136595Y-55130654D01*
X76250880Y-55092559D01*
X76327071Y-55016369D01*
X76365166Y-54940178D01*
X76403261Y-54787797D01*
X76403261Y-54673511D01*
X76365166Y-54521130D01*
X76327071Y-54444940D01*
X76250880Y-54368750D01*
X76136595Y-54330654D01*
X76060404Y-54330654D01*
X75946119Y-54368750D01*
X75908023Y-54406845D01*
X77165166Y-57251607D02*
X77431833Y-57251607D01*
X77431833Y-57670654D02*
X77431833Y-56870654D01*
X77050880Y-56870654D01*
X76403261Y-57137321D02*
X76403261Y-57670654D01*
X76593738Y-56832559D02*
X76784214Y-57403988D01*
X76288976Y-57403988D01*
X77222309Y-67411607D02*
X77108023Y-67449702D01*
X77069928Y-67487797D01*
X77031833Y-67563988D01*
X77031833Y-67678273D01*
X77069928Y-67754464D01*
X77108023Y-67792559D01*
X77184214Y-67830654D01*
X77488976Y-67830654D01*
X77488976Y-67030654D01*
X77222309Y-67030654D01*
X77146119Y-67068750D01*
X77108023Y-67106845D01*
X77069928Y-67183035D01*
X77069928Y-67259226D01*
X77108023Y-67335416D01*
X77146119Y-67373511D01*
X77222309Y-67411607D01*
X77488976Y-67411607D01*
X76269928Y-67830654D02*
X76727071Y-67830654D01*
X76498500Y-67830654D02*
X76498500Y-67030654D01*
X76574690Y-67144940D01*
X76650880Y-67221130D01*
X76727071Y-67259226D01*
X77222309Y-69951607D02*
X77108023Y-69989702D01*
X77069928Y-70027797D01*
X77031833Y-70103988D01*
X77031833Y-70218273D01*
X77069928Y-70294464D01*
X77108023Y-70332559D01*
X77184214Y-70370654D01*
X77488976Y-70370654D01*
X77488976Y-69570654D01*
X77222309Y-69570654D01*
X77146119Y-69608750D01*
X77108023Y-69646845D01*
X77069928Y-69723035D01*
X77069928Y-69799226D01*
X77108023Y-69875416D01*
X77146119Y-69913511D01*
X77222309Y-69951607D01*
X77488976Y-69951607D01*
X76765166Y-69570654D02*
X76269928Y-69570654D01*
X76536595Y-69875416D01*
X76422309Y-69875416D01*
X76346119Y-69913511D01*
X76308023Y-69951607D01*
X76269928Y-70027797D01*
X76269928Y-70218273D01*
X76308023Y-70294464D01*
X76346119Y-70332559D01*
X76422309Y-70370654D01*
X76650880Y-70370654D01*
X76727071Y-70332559D01*
X76765166Y-70294464D01*
X77222309Y-75031607D02*
X77108023Y-75069702D01*
X77069928Y-75107797D01*
X77031833Y-75183988D01*
X77031833Y-75298273D01*
X77069928Y-75374464D01*
X77108023Y-75412559D01*
X77184214Y-75450654D01*
X77488976Y-75450654D01*
X77488976Y-74650654D01*
X77222309Y-74650654D01*
X77146119Y-74688750D01*
X77108023Y-74726845D01*
X77069928Y-74803035D01*
X77069928Y-74879226D01*
X77108023Y-74955416D01*
X77146119Y-74993511D01*
X77222309Y-75031607D01*
X77488976Y-75031607D01*
X76346119Y-74650654D02*
X76498500Y-74650654D01*
X76574690Y-74688750D01*
X76612785Y-74726845D01*
X76688976Y-74841130D01*
X76727071Y-74993511D01*
X76727071Y-75298273D01*
X76688976Y-75374464D01*
X76650880Y-75412559D01*
X76574690Y-75450654D01*
X76422309Y-75450654D01*
X76346119Y-75412559D01*
X76308023Y-75374464D01*
X76269928Y-75298273D01*
X76269928Y-75107797D01*
X76308023Y-75031607D01*
X76346119Y-74993511D01*
X76422309Y-74955416D01*
X76574690Y-74955416D01*
X76650880Y-74993511D01*
X76688976Y-75031607D01*
X76727071Y-75107797D01*
X66300309Y-75031607D02*
X66186023Y-75069702D01*
X66147928Y-75107797D01*
X66109833Y-75183988D01*
X66109833Y-75298273D01*
X66147928Y-75374464D01*
X66186023Y-75412559D01*
X66262214Y-75450654D01*
X66566976Y-75450654D01*
X66566976Y-74650654D01*
X66300309Y-74650654D01*
X66224119Y-74688750D01*
X66186023Y-74726845D01*
X66147928Y-74803035D01*
X66147928Y-74879226D01*
X66186023Y-74955416D01*
X66224119Y-74993511D01*
X66300309Y-75031607D01*
X66566976Y-75031607D01*
X65386023Y-74650654D02*
X65766976Y-74650654D01*
X65805071Y-75031607D01*
X65766976Y-74993511D01*
X65690785Y-74955416D01*
X65500309Y-74955416D01*
X65424119Y-74993511D01*
X65386023Y-75031607D01*
X65347928Y-75107797D01*
X65347928Y-75298273D01*
X65386023Y-75374464D01*
X65424119Y-75412559D01*
X65500309Y-75450654D01*
X65690785Y-75450654D01*
X65766976Y-75412559D01*
X65805071Y-75374464D01*
X66300309Y-72491607D02*
X66186023Y-72529702D01*
X66147928Y-72567797D01*
X66109833Y-72643988D01*
X66109833Y-72758273D01*
X66147928Y-72834464D01*
X66186023Y-72872559D01*
X66262214Y-72910654D01*
X66566976Y-72910654D01*
X66566976Y-72110654D01*
X66300309Y-72110654D01*
X66224119Y-72148750D01*
X66186023Y-72186845D01*
X66147928Y-72263035D01*
X66147928Y-72339226D01*
X66186023Y-72415416D01*
X66224119Y-72453511D01*
X66300309Y-72491607D01*
X66566976Y-72491607D01*
X65424119Y-72377321D02*
X65424119Y-72910654D01*
X65614595Y-72072559D02*
X65805071Y-72643988D01*
X65309833Y-72643988D01*
X66528880Y-69951607D02*
X66262214Y-69951607D01*
X66147928Y-70370654D02*
X66528880Y-70370654D01*
X66528880Y-69570654D01*
X66147928Y-69570654D01*
X65462214Y-69570654D02*
X65614595Y-69570654D01*
X65690785Y-69608750D01*
X65728880Y-69646845D01*
X65805071Y-69761130D01*
X65843166Y-69913511D01*
X65843166Y-70218273D01*
X65805071Y-70294464D01*
X65766976Y-70332559D01*
X65690785Y-70370654D01*
X65538404Y-70370654D01*
X65462214Y-70332559D01*
X65424119Y-70294464D01*
X65386023Y-70218273D01*
X65386023Y-70027797D01*
X65424119Y-69951607D01*
X65462214Y-69913511D01*
X65538404Y-69875416D01*
X65690785Y-69875416D01*
X65766976Y-69913511D01*
X65805071Y-69951607D01*
X65843166Y-70027797D01*
X66566976Y-67830654D02*
X66566976Y-67030654D01*
X66376500Y-67030654D01*
X66262214Y-67068750D01*
X66186023Y-67144940D01*
X66147928Y-67221130D01*
X66109833Y-67373511D01*
X66109833Y-67487797D01*
X66147928Y-67640178D01*
X66186023Y-67716369D01*
X66262214Y-67792559D01*
X66376500Y-67830654D01*
X66566976Y-67830654D01*
X65843166Y-67030654D02*
X65309833Y-67030654D01*
X65652690Y-67830654D01*
X66109833Y-65214464D02*
X66147928Y-65252559D01*
X66262214Y-65290654D01*
X66338404Y-65290654D01*
X66452690Y-65252559D01*
X66528880Y-65176369D01*
X66566976Y-65100178D01*
X66605071Y-64947797D01*
X66605071Y-64833511D01*
X66566976Y-64681130D01*
X66528880Y-64604940D01*
X66452690Y-64528750D01*
X66338404Y-64490654D01*
X66262214Y-64490654D01*
X66147928Y-64528750D01*
X66109833Y-64566845D01*
X65424119Y-64490654D02*
X65576500Y-64490654D01*
X65652690Y-64528750D01*
X65690785Y-64566845D01*
X65766976Y-64681130D01*
X65805071Y-64833511D01*
X65805071Y-65138273D01*
X65766976Y-65214464D01*
X65728880Y-65252559D01*
X65652690Y-65290654D01*
X65500309Y-65290654D01*
X65424119Y-65252559D01*
X65386023Y-65214464D01*
X65347928Y-65138273D01*
X65347928Y-64947797D01*
X65386023Y-64871607D01*
X65424119Y-64833511D01*
X65500309Y-64795416D01*
X65652690Y-64795416D01*
X65728880Y-64833511D01*
X65766976Y-64871607D01*
X65805071Y-64947797D01*
X66566976Y-62750654D02*
X66566976Y-61950654D01*
X66376500Y-61950654D01*
X66262214Y-61988750D01*
X66186023Y-62064940D01*
X66147928Y-62141130D01*
X66109833Y-62293511D01*
X66109833Y-62407797D01*
X66147928Y-62560178D01*
X66186023Y-62636369D01*
X66262214Y-62712559D01*
X66376500Y-62750654D01*
X66566976Y-62750654D01*
X65424119Y-62217321D02*
X65424119Y-62750654D01*
X65614595Y-61912559D02*
X65805071Y-62483988D01*
X65309833Y-62483988D01*
X66586023Y-51828750D02*
X66662214Y-51790654D01*
X66776500Y-51790654D01*
X66890785Y-51828750D01*
X66966976Y-51904940D01*
X67005071Y-51981130D01*
X67043166Y-52133511D01*
X67043166Y-52247797D01*
X67005071Y-52400178D01*
X66966976Y-52476369D01*
X66890785Y-52552559D01*
X66776500Y-52590654D01*
X66700309Y-52590654D01*
X66586023Y-52552559D01*
X66547928Y-52514464D01*
X66547928Y-52247797D01*
X66700309Y-52247797D01*
X66205071Y-52590654D02*
X66205071Y-51790654D01*
X65747928Y-52590654D01*
X65747928Y-51790654D01*
X65366976Y-52590654D02*
X65366976Y-51790654D01*
X65176500Y-51790654D01*
X65062214Y-51828750D01*
X64986023Y-51904940D01*
X64947928Y-51981130D01*
X64909833Y-52133511D01*
X64909833Y-52247797D01*
X64947928Y-52400178D01*
X64986023Y-52476369D01*
X65062214Y-52552559D01*
X65176500Y-52590654D01*
X65366976Y-52590654D01*
X66586023Y-54368750D02*
X66662214Y-54330654D01*
X66776500Y-54330654D01*
X66890785Y-54368750D01*
X66966976Y-54444940D01*
X67005071Y-54521130D01*
X67043166Y-54673511D01*
X67043166Y-54787797D01*
X67005071Y-54940178D01*
X66966976Y-55016369D01*
X66890785Y-55092559D01*
X66776500Y-55130654D01*
X66700309Y-55130654D01*
X66586023Y-55092559D01*
X66547928Y-55054464D01*
X66547928Y-54787797D01*
X66700309Y-54787797D01*
X66205071Y-55130654D02*
X66205071Y-54330654D01*
X65747928Y-55130654D01*
X65747928Y-54330654D01*
X65366976Y-55130654D02*
X65366976Y-54330654D01*
X65176500Y-54330654D01*
X65062214Y-54368750D01*
X64986023Y-54444940D01*
X64947928Y-54521130D01*
X64909833Y-54673511D01*
X64909833Y-54787797D01*
X64947928Y-54940178D01*
X64986023Y-55016369D01*
X65062214Y-55092559D01*
X65176500Y-55130654D01*
X65366976Y-55130654D01*
X66566976Y-57670654D02*
X66566976Y-56870654D01*
X66376500Y-56870654D01*
X66262214Y-56908750D01*
X66186023Y-56984940D01*
X66147928Y-57061130D01*
X66109833Y-57213511D01*
X66109833Y-57327797D01*
X66147928Y-57480178D01*
X66186023Y-57556369D01*
X66262214Y-57632559D01*
X66376500Y-57670654D01*
X66566976Y-57670654D01*
X65347928Y-57670654D02*
X65805071Y-57670654D01*
X65576500Y-57670654D02*
X65576500Y-56870654D01*
X65652690Y-56984940D01*
X65728880Y-57061130D01*
X65805071Y-57099226D01*
X66566976Y-60210654D02*
X66566976Y-59410654D01*
X66376500Y-59410654D01*
X66262214Y-59448750D01*
X66186023Y-59524940D01*
X66147928Y-59601130D01*
X66109833Y-59753511D01*
X66109833Y-59867797D01*
X66147928Y-60020178D01*
X66186023Y-60096369D01*
X66262214Y-60172559D01*
X66376500Y-60210654D01*
X66566976Y-60210654D01*
X65614595Y-59410654D02*
X65538404Y-59410654D01*
X65462214Y-59448750D01*
X65424119Y-59486845D01*
X65386023Y-59563035D01*
X65347928Y-59715416D01*
X65347928Y-59905892D01*
X65386023Y-60058273D01*
X65424119Y-60134464D01*
X65462214Y-60172559D01*
X65538404Y-60210654D01*
X65614595Y-60210654D01*
X65690785Y-60172559D01*
X65728880Y-60134464D01*
X65766976Y-60058273D01*
X65805071Y-59905892D01*
X65805071Y-59715416D01*
X65766976Y-59563035D01*
X65728880Y-59486845D01*
X65690785Y-59448750D01*
X65614595Y-59410654D01*
X66566976Y-50050654D02*
X66566976Y-49250654D01*
X66376500Y-49250654D01*
X66262214Y-49288750D01*
X66186023Y-49364940D01*
X66147928Y-49441130D01*
X66109833Y-49593511D01*
X66109833Y-49707797D01*
X66147928Y-49860178D01*
X66186023Y-49936369D01*
X66262214Y-50012559D01*
X66376500Y-50050654D01*
X66566976Y-50050654D01*
X65805071Y-49326845D02*
X65766976Y-49288750D01*
X65690785Y-49250654D01*
X65500309Y-49250654D01*
X65424119Y-49288750D01*
X65386023Y-49326845D01*
X65347928Y-49403035D01*
X65347928Y-49479226D01*
X65386023Y-49593511D01*
X65843166Y-50050654D01*
X65347928Y-50050654D01*
X117499404Y-108261309D02*
X116699404Y-108261309D01*
X116699404Y-108451785D01*
X116737500Y-108566071D01*
X116813690Y-108642261D01*
X116889880Y-108680357D01*
X117042261Y-108718452D01*
X117156547Y-108718452D01*
X117308928Y-108680357D01*
X117385119Y-108642261D01*
X117461309Y-108566071D01*
X117499404Y-108451785D01*
X117499404Y-108261309D01*
X117575595Y-108870833D02*
X117575595Y-109480357D01*
X116699404Y-109594642D02*
X116699404Y-110127976D01*
X117499404Y-109594642D01*
X117499404Y-110127976D01*
X117499404Y-110851785D02*
X117499404Y-110394642D01*
X117499404Y-110623214D02*
X116699404Y-110623214D01*
X116813690Y-110547023D01*
X116889880Y-110470833D01*
X116927976Y-110394642D01*
X269899404Y-70199404D02*
X269099404Y-70199404D01*
X269099404Y-70389880D01*
X269137500Y-70504166D01*
X269213690Y-70580357D01*
X269289880Y-70618452D01*
X269442261Y-70656547D01*
X269556547Y-70656547D01*
X269708928Y-70618452D01*
X269785119Y-70580357D01*
X269861309Y-70504166D01*
X269899404Y-70389880D01*
X269899404Y-70199404D01*
X269975595Y-70808928D02*
X269975595Y-71418452D01*
X269518452Y-71761309D02*
X269899404Y-71761309D01*
X269099404Y-71494642D02*
X269518452Y-71761309D01*
X269099404Y-72027976D01*
X269899404Y-72713690D02*
X269899404Y-72256547D01*
X269899404Y-72485119D02*
X269099404Y-72485119D01*
X269213690Y-72408928D01*
X269289880Y-72332738D01*
X269327976Y-72256547D01*
X136549404Y-108261309D02*
X135749404Y-108261309D01*
X135749404Y-108451785D01*
X135787500Y-108566071D01*
X135863690Y-108642261D01*
X135939880Y-108680357D01*
X136092261Y-108718452D01*
X136206547Y-108718452D01*
X136358928Y-108680357D01*
X136435119Y-108642261D01*
X136511309Y-108566071D01*
X136549404Y-108451785D01*
X136549404Y-108261309D01*
X136625595Y-108870833D02*
X136625595Y-109480357D01*
X135749404Y-109594642D02*
X136549404Y-110127976D01*
X135749404Y-110127976D02*
X136549404Y-109594642D01*
X136549404Y-110851785D02*
X136549404Y-110394642D01*
X136549404Y-110623214D02*
X135749404Y-110623214D01*
X135863690Y-110547023D01*
X135939880Y-110470833D01*
X135977976Y-110394642D01*
X136549404Y-70097619D02*
X135749404Y-70097619D01*
X135749404Y-70288095D01*
X135787500Y-70402380D01*
X135863690Y-70478571D01*
X135939880Y-70516666D01*
X136092261Y-70554761D01*
X136206547Y-70554761D01*
X136358928Y-70516666D01*
X136435119Y-70478571D01*
X136511309Y-70402380D01*
X136549404Y-70288095D01*
X136549404Y-70097619D01*
X136625595Y-70707142D02*
X136625595Y-71316666D01*
X135749404Y-71430952D02*
X136549404Y-71621428D01*
X135977976Y-71773809D01*
X136549404Y-71926190D01*
X135749404Y-72116666D01*
X136549404Y-72840476D02*
X136549404Y-72383333D01*
X136549404Y-72611904D02*
X135749404Y-72611904D01*
X135863690Y-72535714D01*
X135939880Y-72459523D01*
X135977976Y-72383333D01*
X174649404Y-108299404D02*
X173849404Y-108299404D01*
X173849404Y-108489880D01*
X173887500Y-108604166D01*
X173963690Y-108680357D01*
X174039880Y-108718452D01*
X174192261Y-108756547D01*
X174306547Y-108756547D01*
X174458928Y-108718452D01*
X174535119Y-108680357D01*
X174611309Y-108604166D01*
X174649404Y-108489880D01*
X174649404Y-108299404D01*
X174725595Y-108908928D02*
X174725595Y-109518452D01*
X173849404Y-109594642D02*
X174649404Y-109861309D01*
X173849404Y-110127976D01*
X174649404Y-110813690D02*
X174649404Y-110356547D01*
X174649404Y-110585119D02*
X173849404Y-110585119D01*
X173963690Y-110508928D01*
X174039880Y-110432738D01*
X174077976Y-110356547D01*
X250849404Y-70123214D02*
X250049404Y-70123214D01*
X250049404Y-70313690D01*
X250087500Y-70427976D01*
X250163690Y-70504166D01*
X250239880Y-70542261D01*
X250392261Y-70580357D01*
X250506547Y-70580357D01*
X250658928Y-70542261D01*
X250735119Y-70504166D01*
X250811309Y-70427976D01*
X250849404Y-70313690D01*
X250849404Y-70123214D01*
X250925595Y-70732738D02*
X250925595Y-71342261D01*
X250049404Y-71532738D02*
X250697023Y-71532738D01*
X250773214Y-71570833D01*
X250811309Y-71608928D01*
X250849404Y-71685119D01*
X250849404Y-71837500D01*
X250811309Y-71913690D01*
X250773214Y-71951785D01*
X250697023Y-71989880D01*
X250049404Y-71989880D01*
X250849404Y-72789880D02*
X250849404Y-72332738D01*
X250849404Y-72561309D02*
X250049404Y-72561309D01*
X250163690Y-72485119D01*
X250239880Y-72408928D01*
X250277976Y-72332738D01*
X93686904Y-69494642D02*
X92886904Y-69494642D01*
X92886904Y-69685119D01*
X92925000Y-69799404D01*
X93001190Y-69875595D01*
X93077380Y-69913690D01*
X93229761Y-69951785D01*
X93344047Y-69951785D01*
X93496428Y-69913690D01*
X93572619Y-69875595D01*
X93648809Y-69799404D01*
X93686904Y-69685119D01*
X93686904Y-69494642D01*
X93763095Y-70104166D02*
X93763095Y-70713690D01*
X92886904Y-70789880D02*
X92886904Y-71247023D01*
X93686904Y-71018452D02*
X92886904Y-71018452D01*
X93458333Y-71475595D02*
X93458333Y-71856547D01*
X93686904Y-71399404D02*
X92886904Y-71666071D01*
X93686904Y-71932738D01*
X93267857Y-72466071D02*
X93305952Y-72580357D01*
X93344047Y-72618452D01*
X93420238Y-72656547D01*
X93534523Y-72656547D01*
X93610714Y-72618452D01*
X93648809Y-72580357D01*
X93686904Y-72504166D01*
X93686904Y-72199404D01*
X92886904Y-72199404D01*
X92886904Y-72466071D01*
X92925000Y-72542261D01*
X92963095Y-72580357D01*
X93039285Y-72618452D01*
X93115476Y-72618452D01*
X93191666Y-72580357D01*
X93229761Y-72542261D01*
X93267857Y-72466071D01*
X93267857Y-72199404D01*
X93686904Y-73418452D02*
X93686904Y-72961309D01*
X93686904Y-73189880D02*
X92886904Y-73189880D01*
X93001190Y-73113690D01*
X93077380Y-73037500D01*
X93115476Y-72961309D01*
X174649404Y-89287500D02*
X173849404Y-89287500D01*
X173849404Y-89477976D01*
X173887500Y-89592261D01*
X173963690Y-89668452D01*
X174039880Y-89706547D01*
X174192261Y-89744642D01*
X174306547Y-89744642D01*
X174458928Y-89706547D01*
X174535119Y-89668452D01*
X174611309Y-89592261D01*
X174649404Y-89477976D01*
X174649404Y-89287500D01*
X174725595Y-89897023D02*
X174725595Y-90506547D01*
X173849404Y-90582738D02*
X173849404Y-91039880D01*
X174649404Y-90811309D02*
X173849404Y-90811309D01*
X174649404Y-91725595D02*
X174649404Y-91268452D01*
X174649404Y-91497023D02*
X173849404Y-91497023D01*
X173963690Y-91420833D01*
X174039880Y-91344642D01*
X174077976Y-91268452D01*
X124643154Y-125730357D02*
X123843154Y-125730357D01*
X123843154Y-125920833D01*
X123881250Y-126035119D01*
X123957440Y-126111309D01*
X124033630Y-126149404D01*
X124186011Y-126187500D01*
X124300297Y-126187500D01*
X124452678Y-126149404D01*
X124528869Y-126111309D01*
X124605059Y-126035119D01*
X124643154Y-125920833D01*
X124643154Y-125730357D01*
X124719345Y-126339880D02*
X124719345Y-126949404D01*
X124605059Y-127101785D02*
X124643154Y-127216071D01*
X124643154Y-127406547D01*
X124605059Y-127482738D01*
X124566964Y-127520833D01*
X124490773Y-127558928D01*
X124414583Y-127558928D01*
X124338392Y-127520833D01*
X124300297Y-127482738D01*
X124262202Y-127406547D01*
X124224107Y-127254166D01*
X124186011Y-127177976D01*
X124147916Y-127139880D01*
X124071726Y-127101785D01*
X123995535Y-127101785D01*
X123919345Y-127139880D01*
X123881250Y-127177976D01*
X123843154Y-127254166D01*
X123843154Y-127444642D01*
X123881250Y-127558928D01*
X123843154Y-127901785D02*
X124490773Y-127901785D01*
X124566964Y-127939880D01*
X124605059Y-127977976D01*
X124643154Y-128054166D01*
X124643154Y-128206547D01*
X124605059Y-128282738D01*
X124566964Y-128320833D01*
X124490773Y-128358928D01*
X123843154Y-128358928D01*
X124643154Y-128739880D02*
X123843154Y-128739880D01*
X123843154Y-129044642D01*
X123881250Y-129120833D01*
X123919345Y-129158928D01*
X123995535Y-129197023D01*
X124109821Y-129197023D01*
X124186011Y-129158928D01*
X124224107Y-129120833D01*
X124262202Y-129044642D01*
X124262202Y-128739880D01*
X124224107Y-129539880D02*
X124224107Y-129806547D01*
X124643154Y-129920833D02*
X124643154Y-129539880D01*
X123843154Y-129539880D01*
X123843154Y-129920833D01*
X124643154Y-130720833D02*
X124262202Y-130454166D01*
X124643154Y-130263690D02*
X123843154Y-130263690D01*
X123843154Y-130568452D01*
X123881250Y-130644642D01*
X123919345Y-130682738D01*
X123995535Y-130720833D01*
X124109821Y-130720833D01*
X124186011Y-130682738D01*
X124224107Y-130644642D01*
X124262202Y-130568452D01*
X124262202Y-130263690D01*
X124643154Y-131482738D02*
X124643154Y-131025595D01*
X124643154Y-131254166D02*
X123843154Y-131254166D01*
X123957440Y-131177976D01*
X124033630Y-131101785D01*
X124071726Y-131025595D01*
X181069345Y-131368452D02*
X181869345Y-131368452D01*
X181869345Y-131177976D01*
X181831250Y-131063690D01*
X181755059Y-130987500D01*
X181678869Y-130949404D01*
X181526488Y-130911309D01*
X181412202Y-130911309D01*
X181259821Y-130949404D01*
X181183630Y-130987500D01*
X181107440Y-131063690D01*
X181069345Y-131177976D01*
X181069345Y-131368452D01*
X180993154Y-130758928D02*
X180993154Y-130149404D01*
X181107440Y-129997023D02*
X181069345Y-129882738D01*
X181069345Y-129692261D01*
X181107440Y-129616071D01*
X181145535Y-129577976D01*
X181221726Y-129539880D01*
X181297916Y-129539880D01*
X181374107Y-129577976D01*
X181412202Y-129616071D01*
X181450297Y-129692261D01*
X181488392Y-129844642D01*
X181526488Y-129920833D01*
X181564583Y-129958928D01*
X181640773Y-129997023D01*
X181716964Y-129997023D01*
X181793154Y-129958928D01*
X181831250Y-129920833D01*
X181869345Y-129844642D01*
X181869345Y-129654166D01*
X181831250Y-129539880D01*
X181069345Y-129197023D02*
X181869345Y-129197023D01*
X181869345Y-128892261D01*
X181831250Y-128816071D01*
X181793154Y-128777976D01*
X181716964Y-128739880D01*
X181602678Y-128739880D01*
X181526488Y-128777976D01*
X181488392Y-128816071D01*
X181450297Y-128892261D01*
X181450297Y-129197023D01*
X181297916Y-128435119D02*
X181297916Y-128054166D01*
X181069345Y-128511309D02*
X181869345Y-128244642D01*
X181069345Y-127977976D01*
X181145535Y-127254166D02*
X181107440Y-127292261D01*
X181069345Y-127406547D01*
X181069345Y-127482738D01*
X181107440Y-127597023D01*
X181183630Y-127673214D01*
X181259821Y-127711309D01*
X181412202Y-127749404D01*
X181526488Y-127749404D01*
X181678869Y-127711309D01*
X181755059Y-127673214D01*
X181831250Y-127597023D01*
X181869345Y-127482738D01*
X181869345Y-127406547D01*
X181831250Y-127292261D01*
X181793154Y-127254166D01*
X181488392Y-126911309D02*
X181488392Y-126644642D01*
X181069345Y-126530357D02*
X181069345Y-126911309D01*
X181869345Y-126911309D01*
X181869345Y-126530357D01*
X181793154Y-126225595D02*
X181831250Y-126187500D01*
X181869345Y-126111309D01*
X181869345Y-125920833D01*
X181831250Y-125844642D01*
X181793154Y-125806547D01*
X181716964Y-125768452D01*
X181640773Y-125768452D01*
X181526488Y-125806547D01*
X181069345Y-126263690D01*
X181069345Y-125768452D01*
X224655654Y-125819047D02*
X223855654Y-125819047D01*
X223855654Y-126009523D01*
X223893750Y-126123809D01*
X223969940Y-126200000D01*
X224046130Y-126238095D01*
X224198511Y-126276190D01*
X224312797Y-126276190D01*
X224465178Y-126238095D01*
X224541369Y-126200000D01*
X224617559Y-126123809D01*
X224655654Y-126009523D01*
X224655654Y-125819047D01*
X224731845Y-126428571D02*
X224731845Y-127038095D01*
X224617559Y-127190476D02*
X224655654Y-127304761D01*
X224655654Y-127495238D01*
X224617559Y-127571428D01*
X224579464Y-127609523D01*
X224503273Y-127647619D01*
X224427083Y-127647619D01*
X224350892Y-127609523D01*
X224312797Y-127571428D01*
X224274702Y-127495238D01*
X224236607Y-127342857D01*
X224198511Y-127266666D01*
X224160416Y-127228571D01*
X224084226Y-127190476D01*
X224008035Y-127190476D01*
X223931845Y-127228571D01*
X223893750Y-127266666D01*
X223855654Y-127342857D01*
X223855654Y-127533333D01*
X223893750Y-127647619D01*
X224655654Y-127990476D02*
X223855654Y-127990476D01*
X223855654Y-128295238D01*
X223893750Y-128371428D01*
X223931845Y-128409523D01*
X224008035Y-128447619D01*
X224122321Y-128447619D01*
X224198511Y-128409523D01*
X224236607Y-128371428D01*
X224274702Y-128295238D01*
X224274702Y-127990476D01*
X224427083Y-128752380D02*
X224427083Y-129133333D01*
X224655654Y-128676190D02*
X223855654Y-128942857D01*
X224655654Y-129209523D01*
X224579464Y-129933333D02*
X224617559Y-129895238D01*
X224655654Y-129780952D01*
X224655654Y-129704761D01*
X224617559Y-129590476D01*
X224541369Y-129514285D01*
X224465178Y-129476190D01*
X224312797Y-129438095D01*
X224198511Y-129438095D01*
X224046130Y-129476190D01*
X223969940Y-129514285D01*
X223893750Y-129590476D01*
X223855654Y-129704761D01*
X223855654Y-129780952D01*
X223893750Y-129895238D01*
X223931845Y-129933333D01*
X224236607Y-130276190D02*
X224236607Y-130542857D01*
X224655654Y-130657142D02*
X224655654Y-130276190D01*
X223855654Y-130276190D01*
X223855654Y-130657142D01*
X224655654Y-131419047D02*
X224655654Y-130961904D01*
X224655654Y-131190476D02*
X223855654Y-131190476D01*
X223969940Y-131114285D01*
X224046130Y-131038095D01*
X224084226Y-130961904D01*
X288949404Y-106807142D02*
X288149404Y-106807142D01*
X288149404Y-106997619D01*
X288187500Y-107111904D01*
X288263690Y-107188095D01*
X288339880Y-107226190D01*
X288492261Y-107264285D01*
X288606547Y-107264285D01*
X288758928Y-107226190D01*
X288835119Y-107188095D01*
X288911309Y-107111904D01*
X288949404Y-106997619D01*
X288949404Y-106807142D01*
X289025595Y-107416666D02*
X289025595Y-108026190D01*
X288911309Y-108178571D02*
X288949404Y-108292857D01*
X288949404Y-108483333D01*
X288911309Y-108559523D01*
X288873214Y-108597619D01*
X288797023Y-108635714D01*
X288720833Y-108635714D01*
X288644642Y-108597619D01*
X288606547Y-108559523D01*
X288568452Y-108483333D01*
X288530357Y-108330952D01*
X288492261Y-108254761D01*
X288454166Y-108216666D01*
X288377976Y-108178571D01*
X288301785Y-108178571D01*
X288225595Y-108216666D01*
X288187500Y-108254761D01*
X288149404Y-108330952D01*
X288149404Y-108521428D01*
X288187500Y-108635714D01*
X288949404Y-109359523D02*
X288949404Y-108978571D01*
X288149404Y-108978571D01*
X288720833Y-109588095D02*
X288720833Y-109969047D01*
X288949404Y-109511904D02*
X288149404Y-109778571D01*
X288949404Y-110045238D01*
X288911309Y-110273809D02*
X288949404Y-110388095D01*
X288949404Y-110578571D01*
X288911309Y-110654761D01*
X288873214Y-110692857D01*
X288797023Y-110730952D01*
X288720833Y-110730952D01*
X288644642Y-110692857D01*
X288606547Y-110654761D01*
X288568452Y-110578571D01*
X288530357Y-110426190D01*
X288492261Y-110350000D01*
X288454166Y-110311904D01*
X288377976Y-110273809D01*
X288301785Y-110273809D01*
X288225595Y-110311904D01*
X288187500Y-110350000D01*
X288149404Y-110426190D01*
X288149404Y-110616666D01*
X288187500Y-110730952D01*
X288949404Y-111073809D02*
X288149404Y-111073809D01*
X288530357Y-111073809D02*
X288530357Y-111530952D01*
X288949404Y-111530952D02*
X288149404Y-111530952D01*
X288949404Y-112330952D02*
X288949404Y-111873809D01*
X288949404Y-112102380D02*
X288149404Y-112102380D01*
X288263690Y-112026190D01*
X288339880Y-111950000D01*
X288377976Y-111873809D01*
X86543154Y-107004166D02*
X85743154Y-107004166D01*
X85743154Y-107194642D01*
X85781250Y-107308928D01*
X85857440Y-107385119D01*
X85933630Y-107423214D01*
X86086011Y-107461309D01*
X86200297Y-107461309D01*
X86352678Y-107423214D01*
X86428869Y-107385119D01*
X86505059Y-107308928D01*
X86543154Y-107194642D01*
X86543154Y-107004166D01*
X86619345Y-107613690D02*
X86619345Y-108223214D01*
X86505059Y-108375595D02*
X86543154Y-108489880D01*
X86543154Y-108680357D01*
X86505059Y-108756547D01*
X86466964Y-108794642D01*
X86390773Y-108832738D01*
X86314583Y-108832738D01*
X86238392Y-108794642D01*
X86200297Y-108756547D01*
X86162202Y-108680357D01*
X86124107Y-108527976D01*
X86086011Y-108451785D01*
X86047916Y-108413690D01*
X85971726Y-108375595D01*
X85895535Y-108375595D01*
X85819345Y-108413690D01*
X85781250Y-108451785D01*
X85743154Y-108527976D01*
X85743154Y-108718452D01*
X85781250Y-108832738D01*
X86543154Y-109175595D02*
X85743154Y-109175595D01*
X86124107Y-109175595D02*
X86124107Y-109632738D01*
X86543154Y-109632738D02*
X85743154Y-109632738D01*
X86543154Y-110013690D02*
X85743154Y-110013690D01*
X86124107Y-110661309D02*
X86124107Y-110394642D01*
X86543154Y-110394642D02*
X85743154Y-110394642D01*
X85743154Y-110775595D01*
X85743154Y-110966071D02*
X85743154Y-111423214D01*
X86543154Y-111194642D02*
X85743154Y-111194642D01*
X86543154Y-112108928D02*
X86543154Y-111651785D01*
X86543154Y-111880357D02*
X85743154Y-111880357D01*
X85857440Y-111804166D01*
X85933630Y-111727976D01*
X85971726Y-111651785D01*
X288949404Y-68751785D02*
X288149404Y-68751785D01*
X288149404Y-68942261D01*
X288187500Y-69056547D01*
X288263690Y-69132738D01*
X288339880Y-69170833D01*
X288492261Y-69208928D01*
X288606547Y-69208928D01*
X288758928Y-69170833D01*
X288835119Y-69132738D01*
X288911309Y-69056547D01*
X288949404Y-68942261D01*
X288949404Y-68751785D01*
X289025595Y-69361309D02*
X289025595Y-69970833D01*
X288911309Y-70123214D02*
X288949404Y-70237500D01*
X288949404Y-70427976D01*
X288911309Y-70504166D01*
X288873214Y-70542261D01*
X288797023Y-70580357D01*
X288720833Y-70580357D01*
X288644642Y-70542261D01*
X288606547Y-70504166D01*
X288568452Y-70427976D01*
X288530357Y-70275595D01*
X288492261Y-70199404D01*
X288454166Y-70161309D01*
X288377976Y-70123214D01*
X288301785Y-70123214D01*
X288225595Y-70161309D01*
X288187500Y-70199404D01*
X288149404Y-70275595D01*
X288149404Y-70466071D01*
X288187500Y-70580357D01*
X288530357Y-70923214D02*
X288530357Y-71189880D01*
X288949404Y-71304166D02*
X288949404Y-70923214D01*
X288149404Y-70923214D01*
X288149404Y-71304166D01*
X288949404Y-71647023D02*
X288149404Y-71647023D01*
X288720833Y-71913690D01*
X288149404Y-72180357D01*
X288949404Y-72180357D01*
X288949404Y-72561309D02*
X288149404Y-72561309D01*
X288873214Y-73399404D02*
X288911309Y-73361309D01*
X288949404Y-73247023D01*
X288949404Y-73170833D01*
X288911309Y-73056547D01*
X288835119Y-72980357D01*
X288758928Y-72942261D01*
X288606547Y-72904166D01*
X288492261Y-72904166D01*
X288339880Y-72942261D01*
X288263690Y-72980357D01*
X288187500Y-73056547D01*
X288149404Y-73170833D01*
X288149404Y-73247023D01*
X288187500Y-73361309D01*
X288225595Y-73399404D01*
X288949404Y-74161309D02*
X288949404Y-73704166D01*
X288949404Y-73932738D02*
X288149404Y-73932738D01*
X288263690Y-73856547D01*
X288339880Y-73780357D01*
X288377976Y-73704166D01*
X155599404Y-89223809D02*
X154799404Y-89223809D01*
X154799404Y-89414285D01*
X154837500Y-89528571D01*
X154913690Y-89604761D01*
X154989880Y-89642857D01*
X155142261Y-89680952D01*
X155256547Y-89680952D01*
X155408928Y-89642857D01*
X155485119Y-89604761D01*
X155561309Y-89528571D01*
X155599404Y-89414285D01*
X155599404Y-89223809D01*
X155675595Y-89833333D02*
X155675595Y-90442857D01*
X155561309Y-90595238D02*
X155599404Y-90709523D01*
X155599404Y-90900000D01*
X155561309Y-90976190D01*
X155523214Y-91014285D01*
X155447023Y-91052380D01*
X155370833Y-91052380D01*
X155294642Y-91014285D01*
X155256547Y-90976190D01*
X155218452Y-90900000D01*
X155180357Y-90747619D01*
X155142261Y-90671428D01*
X155104166Y-90633333D01*
X155027976Y-90595238D01*
X154951785Y-90595238D01*
X154875595Y-90633333D01*
X154837500Y-90671428D01*
X154799404Y-90747619D01*
X154799404Y-90938095D01*
X154837500Y-91052380D01*
X155599404Y-91814285D02*
X155599404Y-91357142D01*
X155599404Y-91585714D02*
X154799404Y-91585714D01*
X154913690Y-91509523D01*
X154989880Y-91433333D01*
X155027976Y-91357142D01*
X136549404Y-89192261D02*
X135749404Y-89192261D01*
X135749404Y-89382738D01*
X135787500Y-89497023D01*
X135863690Y-89573214D01*
X135939880Y-89611309D01*
X136092261Y-89649404D01*
X136206547Y-89649404D01*
X136358928Y-89611309D01*
X136435119Y-89573214D01*
X136511309Y-89497023D01*
X136549404Y-89382738D01*
X136549404Y-89192261D01*
X136625595Y-89801785D02*
X136625595Y-90411309D01*
X136549404Y-91058928D02*
X136168452Y-90792261D01*
X136549404Y-90601785D02*
X135749404Y-90601785D01*
X135749404Y-90906547D01*
X135787500Y-90982738D01*
X135825595Y-91020833D01*
X135901785Y-91058928D01*
X136016071Y-91058928D01*
X136092261Y-91020833D01*
X136130357Y-90982738D01*
X136168452Y-90906547D01*
X136168452Y-90601785D01*
X136549404Y-91820833D02*
X136549404Y-91363690D01*
X136549404Y-91592261D02*
X135749404Y-91592261D01*
X135863690Y-91516071D01*
X135939880Y-91439880D01*
X135977976Y-91363690D01*
X307999404Y-87668452D02*
X307199404Y-87668452D01*
X307199404Y-87858928D01*
X307237500Y-87973214D01*
X307313690Y-88049404D01*
X307389880Y-88087500D01*
X307542261Y-88125595D01*
X307656547Y-88125595D01*
X307808928Y-88087500D01*
X307885119Y-88049404D01*
X307961309Y-87973214D01*
X307999404Y-87858928D01*
X307999404Y-87668452D01*
X308075595Y-88277976D02*
X308075595Y-88887500D01*
X308075595Y-89611309D02*
X308037500Y-89535119D01*
X307961309Y-89458928D01*
X307847023Y-89344642D01*
X307808928Y-89268452D01*
X307808928Y-89192261D01*
X307999404Y-89230357D02*
X307961309Y-89154166D01*
X307885119Y-89077976D01*
X307732738Y-89039880D01*
X307466071Y-89039880D01*
X307313690Y-89077976D01*
X307237500Y-89154166D01*
X307199404Y-89230357D01*
X307199404Y-89382738D01*
X307237500Y-89458928D01*
X307313690Y-89535119D01*
X307466071Y-89573214D01*
X307732738Y-89573214D01*
X307885119Y-89535119D01*
X307961309Y-89458928D01*
X307999404Y-89382738D01*
X307999404Y-89230357D01*
X307199404Y-89916071D02*
X307847023Y-89916071D01*
X307923214Y-89954166D01*
X307961309Y-89992261D01*
X307999404Y-90068452D01*
X307999404Y-90220833D01*
X307961309Y-90297023D01*
X307923214Y-90335119D01*
X307847023Y-90373214D01*
X307199404Y-90373214D01*
X307199404Y-90906547D02*
X307199404Y-91058928D01*
X307237500Y-91135119D01*
X307313690Y-91211309D01*
X307466071Y-91249404D01*
X307732738Y-91249404D01*
X307885119Y-91211309D01*
X307961309Y-91135119D01*
X307999404Y-91058928D01*
X307999404Y-90906547D01*
X307961309Y-90830357D01*
X307885119Y-90754166D01*
X307732738Y-90716071D01*
X307466071Y-90716071D01*
X307313690Y-90754166D01*
X307237500Y-90830357D01*
X307199404Y-90906547D01*
X307199404Y-91477976D02*
X307199404Y-91935119D01*
X307999404Y-91706547D02*
X307199404Y-91706547D01*
X307580357Y-92201785D02*
X307580357Y-92468452D01*
X307999404Y-92582738D02*
X307999404Y-92201785D01*
X307199404Y-92201785D01*
X307199404Y-92582738D01*
X307999404Y-93344642D02*
X307999404Y-92887500D01*
X307999404Y-93116071D02*
X307199404Y-93116071D01*
X307313690Y-93039880D01*
X307389880Y-92963690D01*
X307427976Y-92887500D01*
X117499404Y-70123214D02*
X116699404Y-70123214D01*
X116699404Y-70313690D01*
X116737500Y-70427976D01*
X116813690Y-70504166D01*
X116889880Y-70542261D01*
X117042261Y-70580357D01*
X117156547Y-70580357D01*
X117308928Y-70542261D01*
X117385119Y-70504166D01*
X117461309Y-70427976D01*
X117499404Y-70313690D01*
X117499404Y-70123214D01*
X117575595Y-70732738D02*
X117575595Y-71342261D01*
X117575595Y-72066071D02*
X117537500Y-71989880D01*
X117461309Y-71913690D01*
X117347023Y-71799404D01*
X117308928Y-71723214D01*
X117308928Y-71647023D01*
X117499404Y-71685119D02*
X117461309Y-71608928D01*
X117385119Y-71532738D01*
X117232738Y-71494642D01*
X116966071Y-71494642D01*
X116813690Y-71532738D01*
X116737500Y-71608928D01*
X116699404Y-71685119D01*
X116699404Y-71837500D01*
X116737500Y-71913690D01*
X116813690Y-71989880D01*
X116966071Y-72027976D01*
X117232738Y-72027976D01*
X117385119Y-71989880D01*
X117461309Y-71913690D01*
X117499404Y-71837500D01*
X117499404Y-71685119D01*
X117499404Y-72789880D02*
X117499404Y-72332738D01*
X117499404Y-72561309D02*
X116699404Y-72561309D01*
X116813690Y-72485119D01*
X116889880Y-72408928D01*
X116927976Y-72332738D01*
X174649404Y-70154761D02*
X173849404Y-70154761D01*
X173849404Y-70345238D01*
X173887500Y-70459523D01*
X173963690Y-70535714D01*
X174039880Y-70573809D01*
X174192261Y-70611904D01*
X174306547Y-70611904D01*
X174458928Y-70573809D01*
X174535119Y-70535714D01*
X174611309Y-70459523D01*
X174649404Y-70345238D01*
X174649404Y-70154761D01*
X174725595Y-70764285D02*
X174725595Y-71373809D01*
X174649404Y-71564285D02*
X173849404Y-71564285D01*
X173849404Y-71869047D01*
X173887500Y-71945238D01*
X173925595Y-71983333D01*
X174001785Y-72021428D01*
X174116071Y-72021428D01*
X174192261Y-71983333D01*
X174230357Y-71945238D01*
X174268452Y-71869047D01*
X174268452Y-71564285D01*
X174649404Y-72783333D02*
X174649404Y-72326190D01*
X174649404Y-72554761D02*
X173849404Y-72554761D01*
X173963690Y-72478571D01*
X174039880Y-72402380D01*
X174077976Y-72326190D01*
X293711904Y-125730357D02*
X292911904Y-125730357D01*
X292911904Y-125920833D01*
X292950000Y-126035119D01*
X293026190Y-126111309D01*
X293102380Y-126149404D01*
X293254761Y-126187500D01*
X293369047Y-126187500D01*
X293521428Y-126149404D01*
X293597619Y-126111309D01*
X293673809Y-126035119D01*
X293711904Y-125920833D01*
X293711904Y-125730357D01*
X293788095Y-126339880D02*
X293788095Y-126949404D01*
X292911904Y-127292261D02*
X292911904Y-127444642D01*
X292950000Y-127520833D01*
X293026190Y-127597023D01*
X293178571Y-127635119D01*
X293445238Y-127635119D01*
X293597619Y-127597023D01*
X293673809Y-127520833D01*
X293711904Y-127444642D01*
X293711904Y-127292261D01*
X293673809Y-127216071D01*
X293597619Y-127139880D01*
X293445238Y-127101785D01*
X293178571Y-127101785D01*
X293026190Y-127139880D01*
X292950000Y-127216071D01*
X292911904Y-127292261D01*
X293292857Y-128244642D02*
X293330952Y-128358928D01*
X293369047Y-128397023D01*
X293445238Y-128435119D01*
X293559523Y-128435119D01*
X293635714Y-128397023D01*
X293673809Y-128358928D01*
X293711904Y-128282738D01*
X293711904Y-127977976D01*
X292911904Y-127977976D01*
X292911904Y-128244642D01*
X292950000Y-128320833D01*
X292988095Y-128358928D01*
X293064285Y-128397023D01*
X293140476Y-128397023D01*
X293216666Y-128358928D01*
X293254761Y-128320833D01*
X293292857Y-128244642D01*
X293292857Y-127977976D01*
X293711904Y-129235119D02*
X293330952Y-128968452D01*
X293711904Y-128777976D02*
X292911904Y-128777976D01*
X292911904Y-129082738D01*
X292950000Y-129158928D01*
X292988095Y-129197023D01*
X293064285Y-129235119D01*
X293178571Y-129235119D01*
X293254761Y-129197023D01*
X293292857Y-129158928D01*
X293330952Y-129082738D01*
X293330952Y-128777976D01*
X293483333Y-129539880D02*
X293483333Y-129920833D01*
X293711904Y-129463690D02*
X292911904Y-129730357D01*
X293711904Y-129997023D01*
X293635714Y-130720833D02*
X293673809Y-130682738D01*
X293711904Y-130568452D01*
X293711904Y-130492261D01*
X293673809Y-130377976D01*
X293597619Y-130301785D01*
X293521428Y-130263690D01*
X293369047Y-130225595D01*
X293254761Y-130225595D01*
X293102380Y-130263690D01*
X293026190Y-130301785D01*
X292950000Y-130377976D01*
X292911904Y-130492261D01*
X292911904Y-130568452D01*
X292950000Y-130682738D01*
X292988095Y-130720833D01*
X293711904Y-131482738D02*
X293711904Y-131025595D01*
X293711904Y-131254166D02*
X292911904Y-131254166D01*
X293026190Y-131177976D01*
X293102380Y-131101785D01*
X293140476Y-131025595D01*
X288949404Y-89173214D02*
X288149404Y-89173214D01*
X288149404Y-89363690D01*
X288187500Y-89477976D01*
X288263690Y-89554166D01*
X288339880Y-89592261D01*
X288492261Y-89630357D01*
X288606547Y-89630357D01*
X288758928Y-89592261D01*
X288835119Y-89554166D01*
X288911309Y-89477976D01*
X288949404Y-89363690D01*
X288949404Y-89173214D01*
X289025595Y-89782738D02*
X289025595Y-90392261D01*
X288149404Y-90735119D02*
X288149404Y-90887500D01*
X288187500Y-90963690D01*
X288263690Y-91039880D01*
X288416071Y-91077976D01*
X288682738Y-91077976D01*
X288835119Y-91039880D01*
X288911309Y-90963690D01*
X288949404Y-90887500D01*
X288949404Y-90735119D01*
X288911309Y-90658928D01*
X288835119Y-90582738D01*
X288682738Y-90544642D01*
X288416071Y-90544642D01*
X288263690Y-90582738D01*
X288187500Y-90658928D01*
X288149404Y-90735119D01*
X288949404Y-91839880D02*
X288949404Y-91382738D01*
X288949404Y-91611309D02*
X288149404Y-91611309D01*
X288263690Y-91535119D01*
X288339880Y-91458928D01*
X288377976Y-91382738D01*
X231799404Y-89173214D02*
X230999404Y-89173214D01*
X230999404Y-89363690D01*
X231037500Y-89477976D01*
X231113690Y-89554166D01*
X231189880Y-89592261D01*
X231342261Y-89630357D01*
X231456547Y-89630357D01*
X231608928Y-89592261D01*
X231685119Y-89554166D01*
X231761309Y-89477976D01*
X231799404Y-89363690D01*
X231799404Y-89173214D01*
X231875595Y-89782738D02*
X231875595Y-90392261D01*
X231799404Y-90582738D02*
X230999404Y-90582738D01*
X231799404Y-91039880D01*
X230999404Y-91039880D01*
X231799404Y-91839880D02*
X231799404Y-91382738D01*
X231799404Y-91611309D02*
X230999404Y-91611309D01*
X231113690Y-91535119D01*
X231189880Y-91458928D01*
X231227976Y-91382738D01*
X255611904Y-125825595D02*
X254811904Y-125825595D01*
X254811904Y-126016071D01*
X254850000Y-126130357D01*
X254926190Y-126206547D01*
X255002380Y-126244642D01*
X255154761Y-126282738D01*
X255269047Y-126282738D01*
X255421428Y-126244642D01*
X255497619Y-126206547D01*
X255573809Y-126130357D01*
X255611904Y-126016071D01*
X255611904Y-125825595D01*
X255688095Y-126435119D02*
X255688095Y-127044642D01*
X255611904Y-127235119D02*
X254811904Y-127235119D01*
X255383333Y-127501785D01*
X254811904Y-127768452D01*
X255611904Y-127768452D01*
X255611904Y-128149404D02*
X254811904Y-128149404D01*
X255611904Y-128530357D02*
X254811904Y-128530357D01*
X255611904Y-128987500D01*
X254811904Y-128987500D01*
X254811904Y-129368452D02*
X255459523Y-129368452D01*
X255535714Y-129406547D01*
X255573809Y-129444642D01*
X255611904Y-129520833D01*
X255611904Y-129673214D01*
X255573809Y-129749404D01*
X255535714Y-129787500D01*
X255459523Y-129825595D01*
X254811904Y-129825595D01*
X255573809Y-130168452D02*
X255611904Y-130282738D01*
X255611904Y-130473214D01*
X255573809Y-130549404D01*
X255535714Y-130587500D01*
X255459523Y-130625595D01*
X255383333Y-130625595D01*
X255307142Y-130587500D01*
X255269047Y-130549404D01*
X255230952Y-130473214D01*
X255192857Y-130320833D01*
X255154761Y-130244642D01*
X255116666Y-130206547D01*
X255040476Y-130168452D01*
X254964285Y-130168452D01*
X254888095Y-130206547D01*
X254850000Y-130244642D01*
X254811904Y-130320833D01*
X254811904Y-130511309D01*
X254850000Y-130625595D01*
X255611904Y-131387500D02*
X255611904Y-130930357D01*
X255611904Y-131158928D02*
X254811904Y-131158928D01*
X254926190Y-131082738D01*
X255002380Y-131006547D01*
X255040476Y-130930357D01*
X231799404Y-108185119D02*
X230999404Y-108185119D01*
X230999404Y-108375595D01*
X231037500Y-108489880D01*
X231113690Y-108566071D01*
X231189880Y-108604166D01*
X231342261Y-108642261D01*
X231456547Y-108642261D01*
X231608928Y-108604166D01*
X231685119Y-108566071D01*
X231761309Y-108489880D01*
X231799404Y-108375595D01*
X231799404Y-108185119D01*
X231875595Y-108794642D02*
X231875595Y-109404166D01*
X231799404Y-109594642D02*
X230999404Y-109594642D01*
X231570833Y-109861309D01*
X230999404Y-110127976D01*
X231799404Y-110127976D01*
X231799404Y-110927976D02*
X231799404Y-110470833D01*
X231799404Y-110699404D02*
X230999404Y-110699404D01*
X231113690Y-110623214D01*
X231189880Y-110547023D01*
X231227976Y-110470833D01*
X231799404Y-70218452D02*
X230999404Y-70218452D01*
X230999404Y-70408928D01*
X231037500Y-70523214D01*
X231113690Y-70599404D01*
X231189880Y-70637500D01*
X231342261Y-70675595D01*
X231456547Y-70675595D01*
X231608928Y-70637500D01*
X231685119Y-70599404D01*
X231761309Y-70523214D01*
X231799404Y-70408928D01*
X231799404Y-70218452D01*
X231875595Y-70827976D02*
X231875595Y-71437500D01*
X231799404Y-72008928D02*
X231799404Y-71627976D01*
X230999404Y-71627976D01*
X231799404Y-72694642D02*
X231799404Y-72237500D01*
X231799404Y-72466071D02*
X230999404Y-72466071D01*
X231113690Y-72389880D01*
X231189880Y-72313690D01*
X231227976Y-72237500D01*
X212749404Y-108242261D02*
X211949404Y-108242261D01*
X211949404Y-108432738D01*
X211987500Y-108547023D01*
X212063690Y-108623214D01*
X212139880Y-108661309D01*
X212292261Y-108699404D01*
X212406547Y-108699404D01*
X212558928Y-108661309D01*
X212635119Y-108623214D01*
X212711309Y-108547023D01*
X212749404Y-108432738D01*
X212749404Y-108242261D01*
X212825595Y-108851785D02*
X212825595Y-109461309D01*
X212749404Y-109651785D02*
X211949404Y-109651785D01*
X212749404Y-110108928D02*
X212292261Y-109766071D01*
X211949404Y-110108928D02*
X212406547Y-109651785D01*
X212749404Y-110870833D02*
X212749404Y-110413690D01*
X212749404Y-110642261D02*
X211949404Y-110642261D01*
X212063690Y-110566071D01*
X212139880Y-110489880D01*
X212177976Y-110413690D01*
X212749404Y-70250000D02*
X211949404Y-70250000D01*
X211949404Y-70440476D01*
X211987500Y-70554761D01*
X212063690Y-70630952D01*
X212139880Y-70669047D01*
X212292261Y-70707142D01*
X212406547Y-70707142D01*
X212558928Y-70669047D01*
X212635119Y-70630952D01*
X212711309Y-70554761D01*
X212749404Y-70440476D01*
X212749404Y-70250000D01*
X212825595Y-70859523D02*
X212825595Y-71469047D01*
X211949404Y-71888095D02*
X212520833Y-71888095D01*
X212635119Y-71850000D01*
X212711309Y-71773809D01*
X212749404Y-71659523D01*
X212749404Y-71583333D01*
X212749404Y-72688095D02*
X212749404Y-72230952D01*
X212749404Y-72459523D02*
X211949404Y-72459523D01*
X212063690Y-72383333D01*
X212139880Y-72307142D01*
X212177976Y-72230952D01*
X269899404Y-89401785D02*
X269099404Y-89401785D01*
X269099404Y-89592261D01*
X269137500Y-89706547D01*
X269213690Y-89782738D01*
X269289880Y-89820833D01*
X269442261Y-89858928D01*
X269556547Y-89858928D01*
X269708928Y-89820833D01*
X269785119Y-89782738D01*
X269861309Y-89706547D01*
X269899404Y-89592261D01*
X269899404Y-89401785D01*
X269975595Y-90011309D02*
X269975595Y-90620833D01*
X269899404Y-90811309D02*
X269099404Y-90811309D01*
X269899404Y-91611309D02*
X269899404Y-91154166D01*
X269899404Y-91382738D02*
X269099404Y-91382738D01*
X269213690Y-91306547D01*
X269289880Y-91230357D01*
X269327976Y-91154166D01*
X212749404Y-89173214D02*
X211949404Y-89173214D01*
X211949404Y-89363690D01*
X211987500Y-89477976D01*
X212063690Y-89554166D01*
X212139880Y-89592261D01*
X212292261Y-89630357D01*
X212406547Y-89630357D01*
X212558928Y-89592261D01*
X212635119Y-89554166D01*
X212711309Y-89477976D01*
X212749404Y-89363690D01*
X212749404Y-89173214D01*
X212825595Y-89782738D02*
X212825595Y-90392261D01*
X212749404Y-90582738D02*
X211949404Y-90582738D01*
X212330357Y-90582738D02*
X212330357Y-91039880D01*
X212749404Y-91039880D02*
X211949404Y-91039880D01*
X212749404Y-91839880D02*
X212749404Y-91382738D01*
X212749404Y-91611309D02*
X211949404Y-91611309D01*
X212063690Y-91535119D01*
X212139880Y-91458928D01*
X212177976Y-91382738D01*
X193699404Y-70142261D02*
X192899404Y-70142261D01*
X192899404Y-70332738D01*
X192937500Y-70447023D01*
X193013690Y-70523214D01*
X193089880Y-70561309D01*
X193242261Y-70599404D01*
X193356547Y-70599404D01*
X193508928Y-70561309D01*
X193585119Y-70523214D01*
X193661309Y-70447023D01*
X193699404Y-70332738D01*
X193699404Y-70142261D01*
X193775595Y-70751785D02*
X193775595Y-71361309D01*
X192937500Y-71970833D02*
X192899404Y-71894642D01*
X192899404Y-71780357D01*
X192937500Y-71666071D01*
X193013690Y-71589880D01*
X193089880Y-71551785D01*
X193242261Y-71513690D01*
X193356547Y-71513690D01*
X193508928Y-71551785D01*
X193585119Y-71589880D01*
X193661309Y-71666071D01*
X193699404Y-71780357D01*
X193699404Y-71856547D01*
X193661309Y-71970833D01*
X193623214Y-72008928D01*
X193356547Y-72008928D01*
X193356547Y-71856547D01*
X193699404Y-72770833D02*
X193699404Y-72313690D01*
X193699404Y-72542261D02*
X192899404Y-72542261D01*
X193013690Y-72466071D01*
X193089880Y-72389880D01*
X193127976Y-72313690D01*
X155599404Y-70199404D02*
X154799404Y-70199404D01*
X154799404Y-70389880D01*
X154837500Y-70504166D01*
X154913690Y-70580357D01*
X154989880Y-70618452D01*
X155142261Y-70656547D01*
X155256547Y-70656547D01*
X155408928Y-70618452D01*
X155485119Y-70580357D01*
X155561309Y-70504166D01*
X155599404Y-70389880D01*
X155599404Y-70199404D01*
X155675595Y-70808928D02*
X155675595Y-71418452D01*
X155180357Y-71875595D02*
X155180357Y-71608928D01*
X155599404Y-71608928D02*
X154799404Y-71608928D01*
X154799404Y-71989880D01*
X155599404Y-72713690D02*
X155599404Y-72256547D01*
X155599404Y-72485119D02*
X154799404Y-72485119D01*
X154913690Y-72408928D01*
X154989880Y-72332738D01*
X155027976Y-72256547D01*
X98449404Y-50336904D02*
X97649404Y-50336904D01*
X97649404Y-50527380D01*
X97687500Y-50641666D01*
X97763690Y-50717857D01*
X97839880Y-50755952D01*
X97992261Y-50794047D01*
X98106547Y-50794047D01*
X98258928Y-50755952D01*
X98335119Y-50717857D01*
X98411309Y-50641666D01*
X98449404Y-50527380D01*
X98449404Y-50336904D01*
X98525595Y-50946428D02*
X98525595Y-51555952D01*
X98030357Y-51746428D02*
X98030357Y-52013095D01*
X98449404Y-52127380D02*
X98449404Y-51746428D01*
X97649404Y-51746428D01*
X97649404Y-52127380D01*
X98411309Y-52432142D02*
X98449404Y-52546428D01*
X98449404Y-52736904D01*
X98411309Y-52813095D01*
X98373214Y-52851190D01*
X98297023Y-52889285D01*
X98220833Y-52889285D01*
X98144642Y-52851190D01*
X98106547Y-52813095D01*
X98068452Y-52736904D01*
X98030357Y-52584523D01*
X97992261Y-52508333D01*
X97954166Y-52470238D01*
X97877976Y-52432142D01*
X97801785Y-52432142D01*
X97725595Y-52470238D01*
X97687500Y-52508333D01*
X97649404Y-52584523D01*
X97649404Y-52775000D01*
X97687500Y-52889285D01*
X98373214Y-53689285D02*
X98411309Y-53651190D01*
X98449404Y-53536904D01*
X98449404Y-53460714D01*
X98411309Y-53346428D01*
X98335119Y-53270238D01*
X98258928Y-53232142D01*
X98106547Y-53194047D01*
X97992261Y-53194047D01*
X97839880Y-53232142D01*
X97763690Y-53270238D01*
X97687500Y-53346428D01*
X97649404Y-53460714D01*
X97649404Y-53536904D01*
X97687500Y-53651190D01*
X97725595Y-53689285D01*
X98449404Y-54451190D02*
X98449404Y-53994047D01*
X98449404Y-54222619D02*
X97649404Y-54222619D01*
X97763690Y-54146428D01*
X97839880Y-54070238D01*
X97877976Y-53994047D01*
X274661904Y-125825595D02*
X273861904Y-125825595D01*
X273861904Y-126016071D01*
X273900000Y-126130357D01*
X273976190Y-126206547D01*
X274052380Y-126244642D01*
X274204761Y-126282738D01*
X274319047Y-126282738D01*
X274471428Y-126244642D01*
X274547619Y-126206547D01*
X274623809Y-126130357D01*
X274661904Y-126016071D01*
X274661904Y-125825595D01*
X274738095Y-126435119D02*
X274738095Y-127044642D01*
X274242857Y-127235119D02*
X274242857Y-127501785D01*
X274661904Y-127616071D02*
X274661904Y-127235119D01*
X273861904Y-127235119D01*
X273861904Y-127616071D01*
X274738095Y-128492261D02*
X274700000Y-128416071D01*
X274623809Y-128339880D01*
X274509523Y-128225595D01*
X274471428Y-128149404D01*
X274471428Y-128073214D01*
X274661904Y-128111309D02*
X274623809Y-128035119D01*
X274547619Y-127958928D01*
X274395238Y-127920833D01*
X274128571Y-127920833D01*
X273976190Y-127958928D01*
X273900000Y-128035119D01*
X273861904Y-128111309D01*
X273861904Y-128263690D01*
X273900000Y-128339880D01*
X273976190Y-128416071D01*
X274128571Y-128454166D01*
X274395238Y-128454166D01*
X274547619Y-128416071D01*
X274623809Y-128339880D01*
X274661904Y-128263690D01*
X274661904Y-128111309D01*
X273861904Y-128797023D02*
X274509523Y-128797023D01*
X274585714Y-128835119D01*
X274623809Y-128873214D01*
X274661904Y-128949404D01*
X274661904Y-129101785D01*
X274623809Y-129177976D01*
X274585714Y-129216071D01*
X274509523Y-129254166D01*
X273861904Y-129254166D01*
X274433333Y-129597023D02*
X274433333Y-129977976D01*
X274661904Y-129520833D02*
X273861904Y-129787500D01*
X274661904Y-130054166D01*
X274661904Y-130701785D02*
X274661904Y-130320833D01*
X273861904Y-130320833D01*
X274661904Y-131387500D02*
X274661904Y-130930357D01*
X274661904Y-131158928D02*
X273861904Y-131158928D01*
X273976190Y-131082738D01*
X274052380Y-131006547D01*
X274090476Y-130930357D01*
X250849404Y-89230357D02*
X250049404Y-89230357D01*
X250049404Y-89420833D01*
X250087500Y-89535119D01*
X250163690Y-89611309D01*
X250239880Y-89649404D01*
X250392261Y-89687500D01*
X250506547Y-89687500D01*
X250658928Y-89649404D01*
X250735119Y-89611309D01*
X250811309Y-89535119D01*
X250849404Y-89420833D01*
X250849404Y-89230357D01*
X250925595Y-89839880D02*
X250925595Y-90449404D01*
X250430357Y-90639880D02*
X250430357Y-90906547D01*
X250849404Y-91020833D02*
X250849404Y-90639880D01*
X250049404Y-90639880D01*
X250049404Y-91020833D01*
X250849404Y-91782738D02*
X250849404Y-91325595D01*
X250849404Y-91554166D02*
X250049404Y-91554166D01*
X250163690Y-91477976D01*
X250239880Y-91401785D01*
X250277976Y-91325595D01*
X269899404Y-107518452D02*
X269099404Y-107518452D01*
X269099404Y-107708928D01*
X269137500Y-107823214D01*
X269213690Y-107899404D01*
X269289880Y-107937500D01*
X269442261Y-107975595D01*
X269556547Y-107975595D01*
X269708928Y-107937500D01*
X269785119Y-107899404D01*
X269861309Y-107823214D01*
X269899404Y-107708928D01*
X269899404Y-107518452D01*
X269975595Y-108127976D02*
X269975595Y-108737500D01*
X269899404Y-108927976D02*
X269099404Y-108927976D01*
X269099404Y-109118452D01*
X269137500Y-109232738D01*
X269213690Y-109308928D01*
X269289880Y-109347023D01*
X269442261Y-109385119D01*
X269556547Y-109385119D01*
X269708928Y-109347023D01*
X269785119Y-109308928D01*
X269861309Y-109232738D01*
X269899404Y-109118452D01*
X269899404Y-108927976D01*
X269099404Y-109880357D02*
X269099404Y-110032738D01*
X269137500Y-110108928D01*
X269213690Y-110185119D01*
X269366071Y-110223214D01*
X269632738Y-110223214D01*
X269785119Y-110185119D01*
X269861309Y-110108928D01*
X269899404Y-110032738D01*
X269899404Y-109880357D01*
X269861309Y-109804166D01*
X269785119Y-109727976D01*
X269632738Y-109689880D01*
X269366071Y-109689880D01*
X269213690Y-109727976D01*
X269137500Y-109804166D01*
X269099404Y-109880357D01*
X269099404Y-110451785D02*
X269099404Y-110908928D01*
X269899404Y-110680357D02*
X269099404Y-110680357D01*
X269899404Y-111594642D02*
X269899404Y-111137500D01*
X269899404Y-111366071D02*
X269099404Y-111366071D01*
X269213690Y-111289880D01*
X269289880Y-111213690D01*
X269327976Y-111137500D01*
X193699404Y-89204761D02*
X192899404Y-89204761D01*
X192899404Y-89395238D01*
X192937500Y-89509523D01*
X193013690Y-89585714D01*
X193089880Y-89623809D01*
X193242261Y-89661904D01*
X193356547Y-89661904D01*
X193508928Y-89623809D01*
X193585119Y-89585714D01*
X193661309Y-89509523D01*
X193699404Y-89395238D01*
X193699404Y-89204761D01*
X193775595Y-89814285D02*
X193775595Y-90423809D01*
X193699404Y-90614285D02*
X192899404Y-90614285D01*
X192899404Y-90804761D01*
X192937500Y-90919047D01*
X193013690Y-90995238D01*
X193089880Y-91033333D01*
X193242261Y-91071428D01*
X193356547Y-91071428D01*
X193508928Y-91033333D01*
X193585119Y-90995238D01*
X193661309Y-90919047D01*
X193699404Y-90804761D01*
X193699404Y-90614285D01*
X193699404Y-91833333D02*
X193699404Y-91376190D01*
X193699404Y-91604761D02*
X192899404Y-91604761D01*
X193013690Y-91528571D01*
X193089880Y-91452380D01*
X193127976Y-91376190D01*
X91305654Y-88163690D02*
X90505654Y-88163690D01*
X90505654Y-88354166D01*
X90543750Y-88468452D01*
X90619940Y-88544642D01*
X90696130Y-88582738D01*
X90848511Y-88620833D01*
X90962797Y-88620833D01*
X91115178Y-88582738D01*
X91191369Y-88544642D01*
X91267559Y-88468452D01*
X91305654Y-88354166D01*
X91305654Y-88163690D01*
X91381845Y-88773214D02*
X91381845Y-89382738D01*
X91229464Y-90030357D02*
X91267559Y-89992261D01*
X91305654Y-89877976D01*
X91305654Y-89801785D01*
X91267559Y-89687500D01*
X91191369Y-89611309D01*
X91115178Y-89573214D01*
X90962797Y-89535119D01*
X90848511Y-89535119D01*
X90696130Y-89573214D01*
X90619940Y-89611309D01*
X90543750Y-89687500D01*
X90505654Y-89801785D01*
X90505654Y-89877976D01*
X90543750Y-89992261D01*
X90581845Y-90030357D01*
X90505654Y-90258928D02*
X90505654Y-90716071D01*
X91305654Y-90487500D02*
X90505654Y-90487500D01*
X91305654Y-91439880D02*
X90924702Y-91173214D01*
X91305654Y-90982738D02*
X90505654Y-90982738D01*
X90505654Y-91287500D01*
X90543750Y-91363690D01*
X90581845Y-91401785D01*
X90658035Y-91439880D01*
X90772321Y-91439880D01*
X90848511Y-91401785D01*
X90886607Y-91363690D01*
X90924702Y-91287500D01*
X90924702Y-90982738D01*
X91305654Y-92163690D02*
X91305654Y-91782738D01*
X90505654Y-91782738D01*
X91305654Y-92849404D02*
X91305654Y-92392261D01*
X91305654Y-92620833D02*
X90505654Y-92620833D01*
X90619940Y-92544642D01*
X90696130Y-92468452D01*
X90734226Y-92392261D01*
X250849404Y-106566071D02*
X250049404Y-106566071D01*
X250049404Y-106756547D01*
X250087500Y-106870833D01*
X250163690Y-106947023D01*
X250239880Y-106985119D01*
X250392261Y-107023214D01*
X250506547Y-107023214D01*
X250658928Y-106985119D01*
X250735119Y-106947023D01*
X250811309Y-106870833D01*
X250849404Y-106756547D01*
X250849404Y-106566071D01*
X250925595Y-107175595D02*
X250925595Y-107785119D01*
X250773214Y-108432738D02*
X250811309Y-108394642D01*
X250849404Y-108280357D01*
X250849404Y-108204166D01*
X250811309Y-108089880D01*
X250735119Y-108013690D01*
X250658928Y-107975595D01*
X250506547Y-107937500D01*
X250392261Y-107937500D01*
X250239880Y-107975595D01*
X250163690Y-108013690D01*
X250087500Y-108089880D01*
X250049404Y-108204166D01*
X250049404Y-108280357D01*
X250087500Y-108394642D01*
X250125595Y-108432738D01*
X250049404Y-108927976D02*
X250049404Y-109080357D01*
X250087500Y-109156547D01*
X250163690Y-109232738D01*
X250316071Y-109270833D01*
X250582738Y-109270833D01*
X250735119Y-109232738D01*
X250811309Y-109156547D01*
X250849404Y-109080357D01*
X250849404Y-108927976D01*
X250811309Y-108851785D01*
X250735119Y-108775595D01*
X250582738Y-108737500D01*
X250316071Y-108737500D01*
X250163690Y-108775595D01*
X250087500Y-108851785D01*
X250049404Y-108927976D01*
X250849404Y-109613690D02*
X250049404Y-109613690D01*
X250620833Y-109880357D01*
X250049404Y-110147023D01*
X250849404Y-110147023D01*
X250849404Y-110527976D02*
X250049404Y-110527976D01*
X250620833Y-110794642D01*
X250049404Y-111061309D01*
X250849404Y-111061309D01*
X250620833Y-111404166D02*
X250620833Y-111785119D01*
X250849404Y-111327976D02*
X250049404Y-111594642D01*
X250849404Y-111861309D01*
X250849404Y-112547023D02*
X250849404Y-112089880D01*
X250849404Y-112318452D02*
X250049404Y-112318452D01*
X250163690Y-112242261D01*
X250239880Y-112166071D01*
X250277976Y-112089880D01*
X103211904Y-125749404D02*
X102411904Y-125749404D01*
X102411904Y-125939880D01*
X102450000Y-126054166D01*
X102526190Y-126130357D01*
X102602380Y-126168452D01*
X102754761Y-126206547D01*
X102869047Y-126206547D01*
X103021428Y-126168452D01*
X103097619Y-126130357D01*
X103173809Y-126054166D01*
X103211904Y-125939880D01*
X103211904Y-125749404D01*
X103288095Y-126358928D02*
X103288095Y-126968452D01*
X103135714Y-127616071D02*
X103173809Y-127577976D01*
X103211904Y-127463690D01*
X103211904Y-127387500D01*
X103173809Y-127273214D01*
X103097619Y-127197023D01*
X103021428Y-127158928D01*
X102869047Y-127120833D01*
X102754761Y-127120833D01*
X102602380Y-127158928D01*
X102526190Y-127197023D01*
X102450000Y-127273214D01*
X102411904Y-127387500D01*
X102411904Y-127463690D01*
X102450000Y-127577976D01*
X102488095Y-127616071D01*
X102792857Y-128225595D02*
X102830952Y-128339880D01*
X102869047Y-128377976D01*
X102945238Y-128416071D01*
X103059523Y-128416071D01*
X103135714Y-128377976D01*
X103173809Y-128339880D01*
X103211904Y-128263690D01*
X103211904Y-127958928D01*
X102411904Y-127958928D01*
X102411904Y-128225595D01*
X102450000Y-128301785D01*
X102488095Y-128339880D01*
X102564285Y-128377976D01*
X102640476Y-128377976D01*
X102716666Y-128339880D01*
X102754761Y-128301785D01*
X102792857Y-128225595D01*
X102792857Y-127958928D01*
X103211904Y-129216071D02*
X102830952Y-128949404D01*
X103211904Y-128758928D02*
X102411904Y-128758928D01*
X102411904Y-129063690D01*
X102450000Y-129139880D01*
X102488095Y-129177976D01*
X102564285Y-129216071D01*
X102678571Y-129216071D01*
X102754761Y-129177976D01*
X102792857Y-129139880D01*
X102830952Y-129063690D01*
X102830952Y-128758928D01*
X102983333Y-129520833D02*
X102983333Y-129901785D01*
X103211904Y-129444642D02*
X102411904Y-129711309D01*
X103211904Y-129977976D01*
X103135714Y-130701785D02*
X103173809Y-130663690D01*
X103211904Y-130549404D01*
X103211904Y-130473214D01*
X103173809Y-130358928D01*
X103097619Y-130282738D01*
X103021428Y-130244642D01*
X102869047Y-130206547D01*
X102754761Y-130206547D01*
X102602380Y-130244642D01*
X102526190Y-130282738D01*
X102450000Y-130358928D01*
X102411904Y-130473214D01*
X102411904Y-130549404D01*
X102450000Y-130663690D01*
X102488095Y-130701785D01*
X103211904Y-131463690D02*
X103211904Y-131006547D01*
X103211904Y-131235119D02*
X102411904Y-131235119D01*
X102526190Y-131158928D01*
X102602380Y-131082738D01*
X102640476Y-131006547D01*
X155599404Y-108242261D02*
X154799404Y-108242261D01*
X154799404Y-108432738D01*
X154837500Y-108547023D01*
X154913690Y-108623214D01*
X154989880Y-108661309D01*
X155142261Y-108699404D01*
X155256547Y-108699404D01*
X155408928Y-108661309D01*
X155485119Y-108623214D01*
X155561309Y-108547023D01*
X155599404Y-108432738D01*
X155599404Y-108242261D01*
X155675595Y-108851785D02*
X155675595Y-109461309D01*
X155523214Y-110108928D02*
X155561309Y-110070833D01*
X155599404Y-109956547D01*
X155599404Y-109880357D01*
X155561309Y-109766071D01*
X155485119Y-109689880D01*
X155408928Y-109651785D01*
X155256547Y-109613690D01*
X155142261Y-109613690D01*
X154989880Y-109651785D01*
X154913690Y-109689880D01*
X154837500Y-109766071D01*
X154799404Y-109880357D01*
X154799404Y-109956547D01*
X154837500Y-110070833D01*
X154875595Y-110108928D01*
X155599404Y-110870833D02*
X155599404Y-110413690D01*
X155599404Y-110642261D02*
X154799404Y-110642261D01*
X154913690Y-110566071D01*
X154989880Y-110489880D01*
X155027976Y-110413690D01*
X312761904Y-68637500D02*
X311961904Y-68637500D01*
X311961904Y-68827976D01*
X312000000Y-68942261D01*
X312076190Y-69018452D01*
X312152380Y-69056547D01*
X312304761Y-69094642D01*
X312419047Y-69094642D01*
X312571428Y-69056547D01*
X312647619Y-69018452D01*
X312723809Y-68942261D01*
X312761904Y-68827976D01*
X312761904Y-68637500D01*
X312838095Y-69247023D02*
X312838095Y-69856547D01*
X312342857Y-70313690D02*
X312380952Y-70427976D01*
X312419047Y-70466071D01*
X312495238Y-70504166D01*
X312609523Y-70504166D01*
X312685714Y-70466071D01*
X312723809Y-70427976D01*
X312761904Y-70351785D01*
X312761904Y-70047023D01*
X311961904Y-70047023D01*
X311961904Y-70313690D01*
X312000000Y-70389880D01*
X312038095Y-70427976D01*
X312114285Y-70466071D01*
X312190476Y-70466071D01*
X312266666Y-70427976D01*
X312304761Y-70389880D01*
X312342857Y-70313690D01*
X312342857Y-70047023D01*
X312723809Y-70808928D02*
X312761904Y-70923214D01*
X312761904Y-71113690D01*
X312723809Y-71189880D01*
X312685714Y-71227976D01*
X312609523Y-71266071D01*
X312533333Y-71266071D01*
X312457142Y-71227976D01*
X312419047Y-71189880D01*
X312380952Y-71113690D01*
X312342857Y-70961309D01*
X312304761Y-70885119D01*
X312266666Y-70847023D01*
X312190476Y-70808928D01*
X312114285Y-70808928D01*
X312038095Y-70847023D01*
X312000000Y-70885119D01*
X311961904Y-70961309D01*
X311961904Y-71151785D01*
X312000000Y-71266071D01*
X312761904Y-71989880D02*
X312761904Y-71608928D01*
X311961904Y-71608928D01*
X312723809Y-72218452D02*
X312761904Y-72332738D01*
X312761904Y-72523214D01*
X312723809Y-72599404D01*
X312685714Y-72637500D01*
X312609523Y-72675595D01*
X312533333Y-72675595D01*
X312457142Y-72637500D01*
X312419047Y-72599404D01*
X312380952Y-72523214D01*
X312342857Y-72370833D01*
X312304761Y-72294642D01*
X312266666Y-72256547D01*
X312190476Y-72218452D01*
X312114285Y-72218452D01*
X312038095Y-72256547D01*
X312000000Y-72294642D01*
X311961904Y-72370833D01*
X311961904Y-72561309D01*
X312000000Y-72675595D01*
X312761904Y-73018452D02*
X311961904Y-73018452D01*
X312342857Y-73018452D02*
X312342857Y-73475595D01*
X312761904Y-73475595D02*
X311961904Y-73475595D01*
X312761904Y-74275595D02*
X312761904Y-73818452D01*
X312761904Y-74047023D02*
X311961904Y-74047023D01*
X312076190Y-73970833D01*
X312152380Y-73894642D01*
X312190476Y-73818452D01*
X317524404Y-49911309D02*
X316724404Y-49911309D01*
X316724404Y-50101785D01*
X316762500Y-50216071D01*
X316838690Y-50292261D01*
X316914880Y-50330357D01*
X317067261Y-50368452D01*
X317181547Y-50368452D01*
X317333928Y-50330357D01*
X317410119Y-50292261D01*
X317486309Y-50216071D01*
X317524404Y-50101785D01*
X317524404Y-49911309D01*
X317600595Y-50520833D02*
X317600595Y-51130357D01*
X317105357Y-51587500D02*
X317143452Y-51701785D01*
X317181547Y-51739880D01*
X317257738Y-51777976D01*
X317372023Y-51777976D01*
X317448214Y-51739880D01*
X317486309Y-51701785D01*
X317524404Y-51625595D01*
X317524404Y-51320833D01*
X316724404Y-51320833D01*
X316724404Y-51587500D01*
X316762500Y-51663690D01*
X316800595Y-51701785D01*
X316876785Y-51739880D01*
X316952976Y-51739880D01*
X317029166Y-51701785D01*
X317067261Y-51663690D01*
X317105357Y-51587500D01*
X317105357Y-51320833D01*
X317524404Y-52120833D02*
X316724404Y-52120833D01*
X317524404Y-52577976D02*
X317067261Y-52235119D01*
X316724404Y-52577976D02*
X317181547Y-52120833D01*
X317486309Y-52882738D02*
X317524404Y-52997023D01*
X317524404Y-53187500D01*
X317486309Y-53263690D01*
X317448214Y-53301785D01*
X317372023Y-53339880D01*
X317295833Y-53339880D01*
X317219642Y-53301785D01*
X317181547Y-53263690D01*
X317143452Y-53187500D01*
X317105357Y-53035119D01*
X317067261Y-52958928D01*
X317029166Y-52920833D01*
X316952976Y-52882738D01*
X316876785Y-52882738D01*
X316800595Y-52920833D01*
X316762500Y-52958928D01*
X316724404Y-53035119D01*
X316724404Y-53225595D01*
X316762500Y-53339880D01*
X317524404Y-53682738D02*
X316724404Y-53682738D01*
X316724404Y-53987500D01*
X316762500Y-54063690D01*
X316800595Y-54101785D01*
X316876785Y-54139880D01*
X316991071Y-54139880D01*
X317067261Y-54101785D01*
X317105357Y-54063690D01*
X317143452Y-53987500D01*
X317143452Y-53682738D01*
X317524404Y-54901785D02*
X317524404Y-54444642D01*
X317524404Y-54673214D02*
X316724404Y-54673214D01*
X316838690Y-54597023D01*
X316914880Y-54520833D01*
X316952976Y-54444642D01*
X193699404Y-108242261D02*
X192899404Y-108242261D01*
X192899404Y-108432738D01*
X192937500Y-108547023D01*
X193013690Y-108623214D01*
X193089880Y-108661309D01*
X193242261Y-108699404D01*
X193356547Y-108699404D01*
X193508928Y-108661309D01*
X193585119Y-108623214D01*
X193661309Y-108547023D01*
X193699404Y-108432738D01*
X193699404Y-108242261D01*
X193775595Y-108851785D02*
X193775595Y-109461309D01*
X193280357Y-109918452D02*
X193318452Y-110032738D01*
X193356547Y-110070833D01*
X193432738Y-110108928D01*
X193547023Y-110108928D01*
X193623214Y-110070833D01*
X193661309Y-110032738D01*
X193699404Y-109956547D01*
X193699404Y-109651785D01*
X192899404Y-109651785D01*
X192899404Y-109918452D01*
X192937500Y-109994642D01*
X192975595Y-110032738D01*
X193051785Y-110070833D01*
X193127976Y-110070833D01*
X193204166Y-110032738D01*
X193242261Y-109994642D01*
X193280357Y-109918452D01*
X193280357Y-109651785D01*
X193699404Y-110870833D02*
X193699404Y-110413690D01*
X193699404Y-110642261D02*
X192899404Y-110642261D01*
X193013690Y-110566071D01*
X193089880Y-110489880D01*
X193127976Y-110413690D01*
X148455654Y-126720833D02*
X147655654Y-126720833D01*
X147655654Y-126911309D01*
X147693750Y-127025595D01*
X147769940Y-127101785D01*
X147846130Y-127139880D01*
X147998511Y-127177976D01*
X148112797Y-127177976D01*
X148265178Y-127139880D01*
X148341369Y-127101785D01*
X148417559Y-127025595D01*
X148455654Y-126911309D01*
X148455654Y-126720833D01*
X148531845Y-127330357D02*
X148531845Y-127939880D01*
X148227083Y-128092261D02*
X148227083Y-128473214D01*
X148455654Y-128016071D02*
X147655654Y-128282738D01*
X148455654Y-128549404D01*
X148455654Y-129197023D02*
X148455654Y-128816071D01*
X147655654Y-128816071D01*
X147655654Y-129349404D02*
X147655654Y-129806547D01*
X148455654Y-129577976D02*
X147655654Y-129577976D01*
X148455654Y-130492261D02*
X148455654Y-130035119D01*
X148455654Y-130263690D02*
X147655654Y-130263690D01*
X147769940Y-130187500D01*
X147846130Y-130111309D01*
X147884226Y-130035119D01*
X117499404Y-89249404D02*
X116699404Y-89249404D01*
X116699404Y-89439880D01*
X116737500Y-89554166D01*
X116813690Y-89630357D01*
X116889880Y-89668452D01*
X117042261Y-89706547D01*
X117156547Y-89706547D01*
X117308928Y-89668452D01*
X117385119Y-89630357D01*
X117461309Y-89554166D01*
X117499404Y-89439880D01*
X117499404Y-89249404D01*
X117575595Y-89858928D02*
X117575595Y-90468452D01*
X117270833Y-90620833D02*
X117270833Y-91001785D01*
X117499404Y-90544642D02*
X116699404Y-90811309D01*
X117499404Y-91077976D01*
X117499404Y-91763690D02*
X117499404Y-91306547D01*
X117499404Y-91535119D02*
X116699404Y-91535119D01*
X116813690Y-91458928D01*
X116889880Y-91382738D01*
X116927976Y-91306547D01*
X307999404Y-108489880D02*
X307199404Y-108489880D01*
X307199404Y-108680357D01*
X307237500Y-108794642D01*
X307313690Y-108870833D01*
X307389880Y-108908928D01*
X307542261Y-108947023D01*
X307656547Y-108947023D01*
X307808928Y-108908928D01*
X307885119Y-108870833D01*
X307961309Y-108794642D01*
X307999404Y-108680357D01*
X307999404Y-108489880D01*
X308075595Y-109099404D02*
X308075595Y-109708928D01*
X307161309Y-109785119D02*
X307275595Y-109899404D01*
X307999404Y-110623214D02*
X307999404Y-110166071D01*
X307999404Y-110394642D02*
X307199404Y-110394642D01*
X307313690Y-110318452D01*
X307389880Y-110242261D01*
X307427976Y-110166071D01*
X269899404Y-51492261D02*
X269099404Y-51492261D01*
X269099404Y-51682738D01*
X269137500Y-51797023D01*
X269213690Y-51873214D01*
X269289880Y-51911309D01*
X269442261Y-51949404D01*
X269556547Y-51949404D01*
X269708928Y-51911309D01*
X269785119Y-51873214D01*
X269861309Y-51797023D01*
X269899404Y-51682738D01*
X269899404Y-51492261D01*
X269975595Y-52101785D02*
X269975595Y-52711309D01*
X269899404Y-52939880D02*
X269899404Y-53092261D01*
X269861309Y-53168452D01*
X269823214Y-53206547D01*
X269708928Y-53282738D01*
X269556547Y-53320833D01*
X269251785Y-53320833D01*
X269175595Y-53282738D01*
X269137500Y-53244642D01*
X269099404Y-53168452D01*
X269099404Y-53016071D01*
X269137500Y-52939880D01*
X269175595Y-52901785D01*
X269251785Y-52863690D01*
X269442261Y-52863690D01*
X269518452Y-52901785D01*
X269556547Y-52939880D01*
X269594642Y-53016071D01*
X269594642Y-53168452D01*
X269556547Y-53244642D01*
X269518452Y-53282738D01*
X269442261Y-53320833D01*
X250849404Y-51492261D02*
X250049404Y-51492261D01*
X250049404Y-51682738D01*
X250087500Y-51797023D01*
X250163690Y-51873214D01*
X250239880Y-51911309D01*
X250392261Y-51949404D01*
X250506547Y-51949404D01*
X250658928Y-51911309D01*
X250735119Y-51873214D01*
X250811309Y-51797023D01*
X250849404Y-51682738D01*
X250849404Y-51492261D01*
X250925595Y-52101785D02*
X250925595Y-52711309D01*
X250392261Y-53016071D02*
X250354166Y-52939880D01*
X250316071Y-52901785D01*
X250239880Y-52863690D01*
X250201785Y-52863690D01*
X250125595Y-52901785D01*
X250087500Y-52939880D01*
X250049404Y-53016071D01*
X250049404Y-53168452D01*
X250087500Y-53244642D01*
X250125595Y-53282738D01*
X250201785Y-53320833D01*
X250239880Y-53320833D01*
X250316071Y-53282738D01*
X250354166Y-53244642D01*
X250392261Y-53168452D01*
X250392261Y-53016071D01*
X250430357Y-52939880D01*
X250468452Y-52901785D01*
X250544642Y-52863690D01*
X250697023Y-52863690D01*
X250773214Y-52901785D01*
X250811309Y-52939880D01*
X250849404Y-53016071D01*
X250849404Y-53168452D01*
X250811309Y-53244642D01*
X250773214Y-53282738D01*
X250697023Y-53320833D01*
X250544642Y-53320833D01*
X250468452Y-53282738D01*
X250430357Y-53244642D01*
X250392261Y-53168452D01*
X231799404Y-51492261D02*
X230999404Y-51492261D01*
X230999404Y-51682738D01*
X231037500Y-51797023D01*
X231113690Y-51873214D01*
X231189880Y-51911309D01*
X231342261Y-51949404D01*
X231456547Y-51949404D01*
X231608928Y-51911309D01*
X231685119Y-51873214D01*
X231761309Y-51797023D01*
X231799404Y-51682738D01*
X231799404Y-51492261D01*
X231875595Y-52101785D02*
X231875595Y-52711309D01*
X230999404Y-52825595D02*
X230999404Y-53358928D01*
X231799404Y-53016071D01*
X212749404Y-51492261D02*
X211949404Y-51492261D01*
X211949404Y-51682738D01*
X211987500Y-51797023D01*
X212063690Y-51873214D01*
X212139880Y-51911309D01*
X212292261Y-51949404D01*
X212406547Y-51949404D01*
X212558928Y-51911309D01*
X212635119Y-51873214D01*
X212711309Y-51797023D01*
X212749404Y-51682738D01*
X212749404Y-51492261D01*
X212825595Y-52101785D02*
X212825595Y-52711309D01*
X211949404Y-53244642D02*
X211949404Y-53092261D01*
X211987500Y-53016071D01*
X212025595Y-52977976D01*
X212139880Y-52901785D01*
X212292261Y-52863690D01*
X212597023Y-52863690D01*
X212673214Y-52901785D01*
X212711309Y-52939880D01*
X212749404Y-53016071D01*
X212749404Y-53168452D01*
X212711309Y-53244642D01*
X212673214Y-53282738D01*
X212597023Y-53320833D01*
X212406547Y-53320833D01*
X212330357Y-53282738D01*
X212292261Y-53244642D01*
X212254166Y-53168452D01*
X212254166Y-53016071D01*
X212292261Y-52939880D01*
X212330357Y-52901785D01*
X212406547Y-52863690D01*
X193699404Y-51492261D02*
X192899404Y-51492261D01*
X192899404Y-51682738D01*
X192937500Y-51797023D01*
X193013690Y-51873214D01*
X193089880Y-51911309D01*
X193242261Y-51949404D01*
X193356547Y-51949404D01*
X193508928Y-51911309D01*
X193585119Y-51873214D01*
X193661309Y-51797023D01*
X193699404Y-51682738D01*
X193699404Y-51492261D01*
X193775595Y-52101785D02*
X193775595Y-52711309D01*
X192899404Y-53282738D02*
X192899404Y-52901785D01*
X193280357Y-52863690D01*
X193242261Y-52901785D01*
X193204166Y-52977976D01*
X193204166Y-53168452D01*
X193242261Y-53244642D01*
X193280357Y-53282738D01*
X193356547Y-53320833D01*
X193547023Y-53320833D01*
X193623214Y-53282738D01*
X193661309Y-53244642D01*
X193699404Y-53168452D01*
X193699404Y-52977976D01*
X193661309Y-52901785D01*
X193623214Y-52863690D01*
X174649404Y-51492261D02*
X173849404Y-51492261D01*
X173849404Y-51682738D01*
X173887500Y-51797023D01*
X173963690Y-51873214D01*
X174039880Y-51911309D01*
X174192261Y-51949404D01*
X174306547Y-51949404D01*
X174458928Y-51911309D01*
X174535119Y-51873214D01*
X174611309Y-51797023D01*
X174649404Y-51682738D01*
X174649404Y-51492261D01*
X174725595Y-52101785D02*
X174725595Y-52711309D01*
X174116071Y-53244642D02*
X174649404Y-53244642D01*
X173811309Y-53054166D02*
X174382738Y-52863690D01*
X174382738Y-53358928D01*
X155599404Y-51492261D02*
X154799404Y-51492261D01*
X154799404Y-51682738D01*
X154837500Y-51797023D01*
X154913690Y-51873214D01*
X154989880Y-51911309D01*
X155142261Y-51949404D01*
X155256547Y-51949404D01*
X155408928Y-51911309D01*
X155485119Y-51873214D01*
X155561309Y-51797023D01*
X155599404Y-51682738D01*
X155599404Y-51492261D01*
X155675595Y-52101785D02*
X155675595Y-52711309D01*
X154799404Y-52825595D02*
X154799404Y-53320833D01*
X155104166Y-53054166D01*
X155104166Y-53168452D01*
X155142261Y-53244642D01*
X155180357Y-53282738D01*
X155256547Y-53320833D01*
X155447023Y-53320833D01*
X155523214Y-53282738D01*
X155561309Y-53244642D01*
X155599404Y-53168452D01*
X155599404Y-52939880D01*
X155561309Y-52863690D01*
X155523214Y-52825595D01*
X136549404Y-51492261D02*
X135749404Y-51492261D01*
X135749404Y-51682738D01*
X135787500Y-51797023D01*
X135863690Y-51873214D01*
X135939880Y-51911309D01*
X136092261Y-51949404D01*
X136206547Y-51949404D01*
X136358928Y-51911309D01*
X136435119Y-51873214D01*
X136511309Y-51797023D01*
X136549404Y-51682738D01*
X136549404Y-51492261D01*
X136625595Y-52101785D02*
X136625595Y-52711309D01*
X135825595Y-52863690D02*
X135787500Y-52901785D01*
X135749404Y-52977976D01*
X135749404Y-53168452D01*
X135787500Y-53244642D01*
X135825595Y-53282738D01*
X135901785Y-53320833D01*
X135977976Y-53320833D01*
X136092261Y-53282738D01*
X136549404Y-52825595D01*
X136549404Y-53320833D01*
X117499404Y-51492261D02*
X116699404Y-51492261D01*
X116699404Y-51682738D01*
X116737500Y-51797023D01*
X116813690Y-51873214D01*
X116889880Y-51911309D01*
X117042261Y-51949404D01*
X117156547Y-51949404D01*
X117308928Y-51911309D01*
X117385119Y-51873214D01*
X117461309Y-51797023D01*
X117499404Y-51682738D01*
X117499404Y-51492261D01*
X117575595Y-52101785D02*
X117575595Y-52711309D01*
X117499404Y-53320833D02*
X117499404Y-52863690D01*
X117499404Y-53092261D02*
X116699404Y-53092261D01*
X116813690Y-53016071D01*
X116889880Y-52939880D01*
X116927976Y-52863690D01*
X288949404Y-51492261D02*
X288149404Y-51492261D01*
X288149404Y-51682738D01*
X288187500Y-51797023D01*
X288263690Y-51873214D01*
X288339880Y-51911309D01*
X288492261Y-51949404D01*
X288606547Y-51949404D01*
X288758928Y-51911309D01*
X288835119Y-51873214D01*
X288911309Y-51797023D01*
X288949404Y-51682738D01*
X288949404Y-51492261D01*
X289025595Y-52101785D02*
X289025595Y-52711309D01*
X288149404Y-53054166D02*
X288149404Y-53130357D01*
X288187500Y-53206547D01*
X288225595Y-53244642D01*
X288301785Y-53282738D01*
X288454166Y-53320833D01*
X288644642Y-53320833D01*
X288797023Y-53282738D01*
X288873214Y-53244642D01*
X288911309Y-53206547D01*
X288949404Y-53130357D01*
X288949404Y-53054166D01*
X288911309Y-52977976D01*
X288873214Y-52939880D01*
X288797023Y-52901785D01*
X288644642Y-52863690D01*
X288454166Y-52863690D01*
X288301785Y-52901785D01*
X288225595Y-52939880D01*
X288187500Y-52977976D01*
X288149404Y-53054166D01*
M02*
