G04 #@! TF.GenerationSoftware,KiCad,Pcbnew,5.1.9-73d0e3b20d~88~ubuntu18.04.1*
G04 #@! TF.CreationDate,2021-02-07T21:55:21-06:00*
G04 #@! TF.ProjectId,keyboard,6b657962-6f61-4726-942e-6b696361645f,rev?*
G04 #@! TF.SameCoordinates,Original*
G04 #@! TF.FileFunction,Legend,Top*
G04 #@! TF.FilePolarity,Positive*
%FSLAX46Y46*%
G04 Gerber Fmt 4.6, Leading zero omitted, Abs format (unit mm)*
G04 Created by KiCad (PCBNEW 5.1.9-73d0e3b20d~88~ubuntu18.04.1) date 2021-02-07 21:55:21*
%MOMM*%
%LPD*%
G01*
G04 APERTURE LIST*
%ADD10C,0.381000*%
%ADD11C,0.150000*%
G04 APERTURE END LIST*
D10*
X65087500Y-45878750D02*
X62547500Y-45878750D01*
X62547500Y-43338750D02*
X62547500Y-45878750D01*
X80327500Y-43338750D02*
X62547500Y-43338750D01*
X80327500Y-45878750D02*
X80327500Y-43338750D01*
D11*
G36*
X76369068Y-52358110D02*
G01*
X76369068Y-52558110D01*
X76269068Y-52558110D01*
X76269068Y-52358110D01*
X76369068Y-52358110D01*
G37*
X76369068Y-52358110D02*
X76369068Y-52558110D01*
X76269068Y-52558110D01*
X76269068Y-52358110D01*
X76369068Y-52358110D01*
G36*
X75969068Y-51758110D02*
G01*
X75969068Y-52558110D01*
X75869068Y-52558110D01*
X75869068Y-51758110D01*
X75969068Y-51758110D01*
G37*
X75969068Y-51758110D02*
X75969068Y-52558110D01*
X75869068Y-52558110D01*
X75869068Y-51758110D01*
X75969068Y-51758110D01*
G36*
X76369068Y-51758110D02*
G01*
X76369068Y-51858110D01*
X75869068Y-51858110D01*
X75869068Y-51758110D01*
X76369068Y-51758110D01*
G37*
X76369068Y-51758110D02*
X76369068Y-51858110D01*
X75869068Y-51858110D01*
X75869068Y-51758110D01*
X76369068Y-51758110D01*
G36*
X76169068Y-52158110D02*
G01*
X76169068Y-52258110D01*
X76069068Y-52258110D01*
X76069068Y-52158110D01*
X76169068Y-52158110D01*
G37*
X76169068Y-52158110D02*
X76169068Y-52258110D01*
X76069068Y-52258110D01*
X76069068Y-52158110D01*
X76169068Y-52158110D01*
G36*
X76369068Y-51758110D02*
G01*
X76369068Y-52058110D01*
X76269068Y-52058110D01*
X76269068Y-51758110D01*
X76369068Y-51758110D01*
G37*
X76369068Y-51758110D02*
X76369068Y-52058110D01*
X76269068Y-52058110D01*
X76269068Y-51758110D01*
X76369068Y-51758110D01*
D10*
X65087500Y-48418750D02*
X62547500Y-48418750D01*
X65087500Y-45878750D02*
X65087500Y-48418750D01*
X80327500Y-76358750D02*
X80327500Y-45878750D01*
X62547500Y-76358750D02*
X80327500Y-76358750D01*
X62547500Y-45878750D02*
X62547500Y-76358750D01*
D11*
X65675151Y-46710654D02*
X66132294Y-46710654D01*
X65903723Y-47510654D02*
X65903723Y-46710654D01*
X66322770Y-46710654D02*
X66856104Y-47510654D01*
X66856104Y-46710654D02*
X66322770Y-47510654D01*
X67313247Y-46710654D02*
X67389437Y-46710654D01*
X67465628Y-46748750D01*
X67503723Y-46786845D01*
X67541818Y-46863035D01*
X67579913Y-47015416D01*
X67579913Y-47205892D01*
X67541818Y-47358273D01*
X67503723Y-47434464D01*
X67465628Y-47472559D01*
X67389437Y-47510654D01*
X67313247Y-47510654D01*
X67237056Y-47472559D01*
X67198961Y-47434464D01*
X67160866Y-47358273D01*
X67122770Y-47205892D01*
X67122770Y-47015416D01*
X67160866Y-46863035D01*
X67198961Y-46786845D01*
X67237056Y-46748750D01*
X67313247Y-46710654D01*
X68494199Y-46672559D02*
X67808485Y-47701130D01*
X68760866Y-47510654D02*
X68760866Y-46710654D01*
X68951342Y-46710654D01*
X69065628Y-46748750D01*
X69141818Y-46824940D01*
X69179913Y-46901130D01*
X69218008Y-47053511D01*
X69218008Y-47167797D01*
X69179913Y-47320178D01*
X69141818Y-47396369D01*
X69065628Y-47472559D01*
X68951342Y-47510654D01*
X68760866Y-47510654D01*
X69484675Y-46710654D02*
X69979913Y-46710654D01*
X69713247Y-47015416D01*
X69827532Y-47015416D01*
X69903723Y-47053511D01*
X69941818Y-47091607D01*
X69979913Y-47167797D01*
X69979913Y-47358273D01*
X69941818Y-47434464D01*
X69903723Y-47472559D01*
X69827532Y-47510654D01*
X69598961Y-47510654D01*
X69522770Y-47472559D01*
X69484675Y-47434464D01*
X65386023Y-50050654D02*
X65386023Y-49250654D01*
X65576500Y-49250654D01*
X65690785Y-49288750D01*
X65766976Y-49364940D01*
X65805071Y-49441130D01*
X65843166Y-49593511D01*
X65843166Y-49707797D01*
X65805071Y-49860178D01*
X65766976Y-49936369D01*
X65690785Y-50012559D01*
X65576500Y-50050654D01*
X65386023Y-50050654D01*
X66147928Y-49326845D02*
X66186023Y-49288750D01*
X66262214Y-49250654D01*
X66452690Y-49250654D01*
X66528880Y-49288750D01*
X66566976Y-49326845D01*
X66605071Y-49403035D01*
X66605071Y-49479226D01*
X66566976Y-49593511D01*
X66109833Y-50050654D01*
X66605071Y-50050654D01*
X65386023Y-60210654D02*
X65386023Y-59410654D01*
X65576500Y-59410654D01*
X65690785Y-59448750D01*
X65766976Y-59524940D01*
X65805071Y-59601130D01*
X65843166Y-59753511D01*
X65843166Y-59867797D01*
X65805071Y-60020178D01*
X65766976Y-60096369D01*
X65690785Y-60172559D01*
X65576500Y-60210654D01*
X65386023Y-60210654D01*
X66338404Y-59410654D02*
X66414595Y-59410654D01*
X66490785Y-59448750D01*
X66528880Y-59486845D01*
X66566976Y-59563035D01*
X66605071Y-59715416D01*
X66605071Y-59905892D01*
X66566976Y-60058273D01*
X66528880Y-60134464D01*
X66490785Y-60172559D01*
X66414595Y-60210654D01*
X66338404Y-60210654D01*
X66262214Y-60172559D01*
X66224119Y-60134464D01*
X66186023Y-60058273D01*
X66147928Y-59905892D01*
X66147928Y-59715416D01*
X66186023Y-59563035D01*
X66224119Y-59486845D01*
X66262214Y-59448750D01*
X66338404Y-59410654D01*
X65386023Y-57670654D02*
X65386023Y-56870654D01*
X65576500Y-56870654D01*
X65690785Y-56908750D01*
X65766976Y-56984940D01*
X65805071Y-57061130D01*
X65843166Y-57213511D01*
X65843166Y-57327797D01*
X65805071Y-57480178D01*
X65766976Y-57556369D01*
X65690785Y-57632559D01*
X65576500Y-57670654D01*
X65386023Y-57670654D01*
X66605071Y-57670654D02*
X66147928Y-57670654D01*
X66376500Y-57670654D02*
X66376500Y-56870654D01*
X66300309Y-56984940D01*
X66224119Y-57061130D01*
X66147928Y-57099226D01*
X65366976Y-54368750D02*
X65290785Y-54330654D01*
X65176500Y-54330654D01*
X65062214Y-54368750D01*
X64986023Y-54444940D01*
X64947928Y-54521130D01*
X64909833Y-54673511D01*
X64909833Y-54787797D01*
X64947928Y-54940178D01*
X64986023Y-55016369D01*
X65062214Y-55092559D01*
X65176500Y-55130654D01*
X65252690Y-55130654D01*
X65366976Y-55092559D01*
X65405071Y-55054464D01*
X65405071Y-54787797D01*
X65252690Y-54787797D01*
X65747928Y-55130654D02*
X65747928Y-54330654D01*
X66205071Y-55130654D01*
X66205071Y-54330654D01*
X66586023Y-55130654D02*
X66586023Y-54330654D01*
X66776500Y-54330654D01*
X66890785Y-54368750D01*
X66966976Y-54444940D01*
X67005071Y-54521130D01*
X67043166Y-54673511D01*
X67043166Y-54787797D01*
X67005071Y-54940178D01*
X66966976Y-55016369D01*
X66890785Y-55092559D01*
X66776500Y-55130654D01*
X66586023Y-55130654D01*
X65366976Y-51828750D02*
X65290785Y-51790654D01*
X65176500Y-51790654D01*
X65062214Y-51828750D01*
X64986023Y-51904940D01*
X64947928Y-51981130D01*
X64909833Y-52133511D01*
X64909833Y-52247797D01*
X64947928Y-52400178D01*
X64986023Y-52476369D01*
X65062214Y-52552559D01*
X65176500Y-52590654D01*
X65252690Y-52590654D01*
X65366976Y-52552559D01*
X65405071Y-52514464D01*
X65405071Y-52247797D01*
X65252690Y-52247797D01*
X65747928Y-52590654D02*
X65747928Y-51790654D01*
X66205071Y-52590654D01*
X66205071Y-51790654D01*
X66586023Y-52590654D02*
X66586023Y-51790654D01*
X66776500Y-51790654D01*
X66890785Y-51828750D01*
X66966976Y-51904940D01*
X67005071Y-51981130D01*
X67043166Y-52133511D01*
X67043166Y-52247797D01*
X67005071Y-52400178D01*
X66966976Y-52476369D01*
X66890785Y-52552559D01*
X66776500Y-52590654D01*
X66586023Y-52590654D01*
X65386023Y-62750654D02*
X65386023Y-61950654D01*
X65576500Y-61950654D01*
X65690785Y-61988750D01*
X65766976Y-62064940D01*
X65805071Y-62141130D01*
X65843166Y-62293511D01*
X65843166Y-62407797D01*
X65805071Y-62560178D01*
X65766976Y-62636369D01*
X65690785Y-62712559D01*
X65576500Y-62750654D01*
X65386023Y-62750654D01*
X66528880Y-62217321D02*
X66528880Y-62750654D01*
X66338404Y-61912559D02*
X66147928Y-62483988D01*
X66643166Y-62483988D01*
X65843166Y-65214464D02*
X65805071Y-65252559D01*
X65690785Y-65290654D01*
X65614595Y-65290654D01*
X65500309Y-65252559D01*
X65424119Y-65176369D01*
X65386023Y-65100178D01*
X65347928Y-64947797D01*
X65347928Y-64833511D01*
X65386023Y-64681130D01*
X65424119Y-64604940D01*
X65500309Y-64528750D01*
X65614595Y-64490654D01*
X65690785Y-64490654D01*
X65805071Y-64528750D01*
X65843166Y-64566845D01*
X66528880Y-64490654D02*
X66376500Y-64490654D01*
X66300309Y-64528750D01*
X66262214Y-64566845D01*
X66186023Y-64681130D01*
X66147928Y-64833511D01*
X66147928Y-65138273D01*
X66186023Y-65214464D01*
X66224119Y-65252559D01*
X66300309Y-65290654D01*
X66452690Y-65290654D01*
X66528880Y-65252559D01*
X66566976Y-65214464D01*
X66605071Y-65138273D01*
X66605071Y-64947797D01*
X66566976Y-64871607D01*
X66528880Y-64833511D01*
X66452690Y-64795416D01*
X66300309Y-64795416D01*
X66224119Y-64833511D01*
X66186023Y-64871607D01*
X66147928Y-64947797D01*
X65386023Y-67830654D02*
X65386023Y-67030654D01*
X65576500Y-67030654D01*
X65690785Y-67068750D01*
X65766976Y-67144940D01*
X65805071Y-67221130D01*
X65843166Y-67373511D01*
X65843166Y-67487797D01*
X65805071Y-67640178D01*
X65766976Y-67716369D01*
X65690785Y-67792559D01*
X65576500Y-67830654D01*
X65386023Y-67830654D01*
X66109833Y-67030654D02*
X66643166Y-67030654D01*
X66300309Y-67830654D01*
X65424119Y-69951607D02*
X65690785Y-69951607D01*
X65805071Y-70370654D02*
X65424119Y-70370654D01*
X65424119Y-69570654D01*
X65805071Y-69570654D01*
X66490785Y-69570654D02*
X66338404Y-69570654D01*
X66262214Y-69608750D01*
X66224119Y-69646845D01*
X66147928Y-69761130D01*
X66109833Y-69913511D01*
X66109833Y-70218273D01*
X66147928Y-70294464D01*
X66186023Y-70332559D01*
X66262214Y-70370654D01*
X66414595Y-70370654D01*
X66490785Y-70332559D01*
X66528880Y-70294464D01*
X66566976Y-70218273D01*
X66566976Y-70027797D01*
X66528880Y-69951607D01*
X66490785Y-69913511D01*
X66414595Y-69875416D01*
X66262214Y-69875416D01*
X66186023Y-69913511D01*
X66147928Y-69951607D01*
X66109833Y-70027797D01*
X65652690Y-72491607D02*
X65766976Y-72529702D01*
X65805071Y-72567797D01*
X65843166Y-72643988D01*
X65843166Y-72758273D01*
X65805071Y-72834464D01*
X65766976Y-72872559D01*
X65690785Y-72910654D01*
X65386023Y-72910654D01*
X65386023Y-72110654D01*
X65652690Y-72110654D01*
X65728880Y-72148750D01*
X65766976Y-72186845D01*
X65805071Y-72263035D01*
X65805071Y-72339226D01*
X65766976Y-72415416D01*
X65728880Y-72453511D01*
X65652690Y-72491607D01*
X65386023Y-72491607D01*
X66528880Y-72377321D02*
X66528880Y-72910654D01*
X66338404Y-72072559D02*
X66147928Y-72643988D01*
X66643166Y-72643988D01*
X65652690Y-75031607D02*
X65766976Y-75069702D01*
X65805071Y-75107797D01*
X65843166Y-75183988D01*
X65843166Y-75298273D01*
X65805071Y-75374464D01*
X65766976Y-75412559D01*
X65690785Y-75450654D01*
X65386023Y-75450654D01*
X65386023Y-74650654D01*
X65652690Y-74650654D01*
X65728880Y-74688750D01*
X65766976Y-74726845D01*
X65805071Y-74803035D01*
X65805071Y-74879226D01*
X65766976Y-74955416D01*
X65728880Y-74993511D01*
X65652690Y-75031607D01*
X65386023Y-75031607D01*
X66566976Y-74650654D02*
X66186023Y-74650654D01*
X66147928Y-75031607D01*
X66186023Y-74993511D01*
X66262214Y-74955416D01*
X66452690Y-74955416D01*
X66528880Y-74993511D01*
X66566976Y-75031607D01*
X66605071Y-75107797D01*
X66605071Y-75298273D01*
X66566976Y-75374464D01*
X66528880Y-75412559D01*
X66452690Y-75450654D01*
X66262214Y-75450654D01*
X66186023Y-75412559D01*
X66147928Y-75374464D01*
X76574690Y-75031607D02*
X76688976Y-75069702D01*
X76727071Y-75107797D01*
X76765166Y-75183988D01*
X76765166Y-75298273D01*
X76727071Y-75374464D01*
X76688976Y-75412559D01*
X76612785Y-75450654D01*
X76308023Y-75450654D01*
X76308023Y-74650654D01*
X76574690Y-74650654D01*
X76650880Y-74688750D01*
X76688976Y-74726845D01*
X76727071Y-74803035D01*
X76727071Y-74879226D01*
X76688976Y-74955416D01*
X76650880Y-74993511D01*
X76574690Y-75031607D01*
X76308023Y-75031607D01*
X77450880Y-74650654D02*
X77298500Y-74650654D01*
X77222309Y-74688750D01*
X77184214Y-74726845D01*
X77108023Y-74841130D01*
X77069928Y-74993511D01*
X77069928Y-75298273D01*
X77108023Y-75374464D01*
X77146119Y-75412559D01*
X77222309Y-75450654D01*
X77374690Y-75450654D01*
X77450880Y-75412559D01*
X77488976Y-75374464D01*
X77527071Y-75298273D01*
X77527071Y-75107797D01*
X77488976Y-75031607D01*
X77450880Y-74993511D01*
X77374690Y-74955416D01*
X77222309Y-74955416D01*
X77146119Y-74993511D01*
X77108023Y-75031607D01*
X77069928Y-75107797D01*
X76574690Y-69951607D02*
X76688976Y-69989702D01*
X76727071Y-70027797D01*
X76765166Y-70103988D01*
X76765166Y-70218273D01*
X76727071Y-70294464D01*
X76688976Y-70332559D01*
X76612785Y-70370654D01*
X76308023Y-70370654D01*
X76308023Y-69570654D01*
X76574690Y-69570654D01*
X76650880Y-69608750D01*
X76688976Y-69646845D01*
X76727071Y-69723035D01*
X76727071Y-69799226D01*
X76688976Y-69875416D01*
X76650880Y-69913511D01*
X76574690Y-69951607D01*
X76308023Y-69951607D01*
X77031833Y-69570654D02*
X77527071Y-69570654D01*
X77260404Y-69875416D01*
X77374690Y-69875416D01*
X77450880Y-69913511D01*
X77488976Y-69951607D01*
X77527071Y-70027797D01*
X77527071Y-70218273D01*
X77488976Y-70294464D01*
X77450880Y-70332559D01*
X77374690Y-70370654D01*
X77146119Y-70370654D01*
X77069928Y-70332559D01*
X77031833Y-70294464D01*
X76574690Y-67411607D02*
X76688976Y-67449702D01*
X76727071Y-67487797D01*
X76765166Y-67563988D01*
X76765166Y-67678273D01*
X76727071Y-67754464D01*
X76688976Y-67792559D01*
X76612785Y-67830654D01*
X76308023Y-67830654D01*
X76308023Y-67030654D01*
X76574690Y-67030654D01*
X76650880Y-67068750D01*
X76688976Y-67106845D01*
X76727071Y-67183035D01*
X76727071Y-67259226D01*
X76688976Y-67335416D01*
X76650880Y-67373511D01*
X76574690Y-67411607D01*
X76308023Y-67411607D01*
X77527071Y-67830654D02*
X77069928Y-67830654D01*
X77298500Y-67830654D02*
X77298500Y-67030654D01*
X77222309Y-67144940D01*
X77146119Y-67221130D01*
X77069928Y-67259226D01*
X76631833Y-57251607D02*
X76365166Y-57251607D01*
X76365166Y-57670654D02*
X76365166Y-56870654D01*
X76746119Y-56870654D01*
X77393738Y-57137321D02*
X77393738Y-57670654D01*
X77203261Y-56832559D02*
X77012785Y-57403988D01*
X77508023Y-57403988D01*
X75831833Y-54330654D02*
X76098500Y-55130654D01*
X76365166Y-54330654D01*
X77088976Y-55054464D02*
X77050880Y-55092559D01*
X76936595Y-55130654D01*
X76860404Y-55130654D01*
X76746119Y-55092559D01*
X76669928Y-55016369D01*
X76631833Y-54940178D01*
X76593738Y-54787797D01*
X76593738Y-54673511D01*
X76631833Y-54521130D01*
X76669928Y-54444940D01*
X76746119Y-54368750D01*
X76860404Y-54330654D01*
X76936595Y-54330654D01*
X77050880Y-54368750D01*
X77088976Y-54406845D01*
X77888976Y-55054464D02*
X77850880Y-55092559D01*
X77736595Y-55130654D01*
X77660404Y-55130654D01*
X77546119Y-55092559D01*
X77469928Y-55016369D01*
X77431833Y-54940178D01*
X77393738Y-54787797D01*
X77393738Y-54673511D01*
X77431833Y-54521130D01*
X77469928Y-54444940D01*
X77546119Y-54368750D01*
X77660404Y-54330654D01*
X77736595Y-54330654D01*
X77850880Y-54368750D01*
X77888976Y-54406845D01*
X76637286Y-52522559D02*
X76751572Y-52560654D01*
X76942048Y-52560654D01*
X77018239Y-52522559D01*
X77056334Y-52484464D01*
X77094429Y-52408273D01*
X77094429Y-52332083D01*
X77056334Y-52255892D01*
X77018239Y-52217797D01*
X76942048Y-52179702D01*
X76789667Y-52141607D01*
X76713477Y-52103511D01*
X76675381Y-52065416D01*
X76637286Y-51989226D01*
X76637286Y-51913035D01*
X76675381Y-51836845D01*
X76713477Y-51798750D01*
X76789667Y-51760654D01*
X76980143Y-51760654D01*
X77094429Y-51798750D01*
X77323000Y-51760654D02*
X77780143Y-51760654D01*
X77551572Y-52560654D02*
X77551572Y-51760654D01*
X76288976Y-49288750D02*
X76212785Y-49250654D01*
X76098500Y-49250654D01*
X75984214Y-49288750D01*
X75908023Y-49364940D01*
X75869928Y-49441130D01*
X75831833Y-49593511D01*
X75831833Y-49707797D01*
X75869928Y-49860178D01*
X75908023Y-49936369D01*
X75984214Y-50012559D01*
X76098500Y-50050654D01*
X76174690Y-50050654D01*
X76288976Y-50012559D01*
X76327071Y-49974464D01*
X76327071Y-49707797D01*
X76174690Y-49707797D01*
X76669928Y-50050654D02*
X76669928Y-49250654D01*
X77127071Y-50050654D01*
X77127071Y-49250654D01*
X77508023Y-50050654D02*
X77508023Y-49250654D01*
X77698500Y-49250654D01*
X77812785Y-49288750D01*
X77888976Y-49364940D01*
X77927071Y-49441130D01*
X77965166Y-49593511D01*
X77965166Y-49707797D01*
X77927071Y-49860178D01*
X77888976Y-49936369D01*
X77812785Y-50012559D01*
X77698500Y-50050654D01*
X77508023Y-50050654D01*
X76346119Y-47510654D02*
X76079452Y-47129702D01*
X75888976Y-47510654D02*
X75888976Y-46710654D01*
X76193738Y-46710654D01*
X76269928Y-46748750D01*
X76308023Y-46786845D01*
X76346119Y-46863035D01*
X76346119Y-46977321D01*
X76308023Y-47053511D01*
X76269928Y-47091607D01*
X76193738Y-47129702D01*
X75888976Y-47129702D01*
X76650880Y-47282083D02*
X77031833Y-47282083D01*
X76574690Y-47510654D02*
X76841357Y-46710654D01*
X77108023Y-47510654D01*
X77298500Y-46710654D02*
X77488976Y-47510654D01*
X77641357Y-46939226D01*
X77793738Y-47510654D01*
X77984214Y-46710654D01*
X76631833Y-59791607D02*
X76365166Y-59791607D01*
X76365166Y-60210654D02*
X76365166Y-59410654D01*
X76746119Y-59410654D01*
X77431833Y-59410654D02*
X77050880Y-59410654D01*
X77012785Y-59791607D01*
X77050880Y-59753511D01*
X77127071Y-59715416D01*
X77317547Y-59715416D01*
X77393738Y-59753511D01*
X77431833Y-59791607D01*
X77469928Y-59867797D01*
X77469928Y-60058273D01*
X77431833Y-60134464D01*
X77393738Y-60172559D01*
X77317547Y-60210654D01*
X77127071Y-60210654D01*
X77050880Y-60172559D01*
X77012785Y-60134464D01*
X76631833Y-62331607D02*
X76365166Y-62331607D01*
X76365166Y-62750654D02*
X76365166Y-61950654D01*
X76746119Y-61950654D01*
X77393738Y-61950654D02*
X77241357Y-61950654D01*
X77165166Y-61988750D01*
X77127071Y-62026845D01*
X77050880Y-62141130D01*
X77012785Y-62293511D01*
X77012785Y-62598273D01*
X77050880Y-62674464D01*
X77088976Y-62712559D01*
X77165166Y-62750654D01*
X77317547Y-62750654D01*
X77393738Y-62712559D01*
X77431833Y-62674464D01*
X77469928Y-62598273D01*
X77469928Y-62407797D01*
X77431833Y-62331607D01*
X77393738Y-62293511D01*
X77317547Y-62255416D01*
X77165166Y-62255416D01*
X77088976Y-62293511D01*
X77050880Y-62331607D01*
X77012785Y-62407797D01*
X76631833Y-64871607D02*
X76365166Y-64871607D01*
X76365166Y-65290654D02*
X76365166Y-64490654D01*
X76746119Y-64490654D01*
X76974690Y-64490654D02*
X77508023Y-64490654D01*
X77165166Y-65290654D01*
X76574690Y-72491607D02*
X76688976Y-72529702D01*
X76727071Y-72567797D01*
X76765166Y-72643988D01*
X76765166Y-72758273D01*
X76727071Y-72834464D01*
X76688976Y-72872559D01*
X76612785Y-72910654D01*
X76308023Y-72910654D01*
X76308023Y-72110654D01*
X76574690Y-72110654D01*
X76650880Y-72148750D01*
X76688976Y-72186845D01*
X76727071Y-72263035D01*
X76727071Y-72339226D01*
X76688976Y-72415416D01*
X76650880Y-72453511D01*
X76574690Y-72491607D01*
X76308023Y-72491607D01*
X77069928Y-72186845D02*
X77108023Y-72148750D01*
X77184214Y-72110654D01*
X77374690Y-72110654D01*
X77450880Y-72148750D01*
X77488976Y-72186845D01*
X77527071Y-72263035D01*
X77527071Y-72339226D01*
X77488976Y-72453511D01*
X77031833Y-72910654D01*
X77527071Y-72910654D01*
M02*
