G04 #@! TF.GenerationSoftware,KiCad,Pcbnew,5.1.10-88a1d61d58~88~ubuntu18.04.1*
G04 #@! TF.CreationDate,2021-05-12T09:01:13-05:00*
G04 #@! TF.ProjectId,keyboard,6b657962-6f61-4726-942e-6b696361645f,rev?*
G04 #@! TF.SameCoordinates,Original*
G04 #@! TF.FileFunction,Soldermask,Top*
G04 #@! TF.FilePolarity,Negative*
%FSLAX46Y46*%
G04 Gerber Fmt 4.6, Leading zero omitted, Abs format (unit mm)*
G04 Created by KiCad (PCBNEW 5.1.10-88a1d61d58~88~ubuntu18.04.1) date 2021-05-12 09:01:13*
%MOMM*%
%LPD*%
G01*
G04 APERTURE LIST*
%ADD10O,10.000000X4.500001*%
%ADD11O,6.500000X4.000000*%
%ADD12C,1.752600*%
%ADD13R,1.752600X1.752600*%
%ADD14C,3.000000*%
%ADD15C,3.987800*%
%ADD16C,1.750000*%
%ADD17C,3.048000*%
G04 APERTURE END LIST*
D10*
X308387500Y-80445200D03*
D11*
X214867500Y-108800000D03*
D10*
X25397500Y-80440000D03*
D12*
X49917350Y-25717500D03*
X34677350Y-53657500D03*
X49460150Y-28257500D03*
X49917350Y-30797500D03*
X49460150Y-33337500D03*
X49917350Y-35877500D03*
X49460150Y-38417500D03*
X49917350Y-40957500D03*
X49460150Y-43497500D03*
X49917350Y-46037500D03*
X49460150Y-48577500D03*
X49917350Y-51117500D03*
X49460150Y-53657500D03*
X34220150Y-51117500D03*
X34677350Y-48577500D03*
X34220150Y-46037500D03*
X34677350Y-43497500D03*
X34220150Y-40957500D03*
X34677350Y-38417500D03*
X34220150Y-35877500D03*
X34677350Y-33337500D03*
X34220150Y-30797500D03*
X34677350Y-28257500D03*
D13*
X34220150Y-25717500D03*
D14*
X92032500Y-85121250D03*
D15*
X89492500Y-90201250D03*
D14*
X85682500Y-87661250D03*
D16*
X84412500Y-90201250D03*
X94572500Y-90201250D03*
D14*
X244432500Y-47021250D03*
D15*
X241892500Y-52101250D03*
D14*
X238082500Y-49561250D03*
D16*
X236812500Y-52101250D03*
X246972500Y-52101250D03*
D14*
X111082500Y-85121250D03*
D15*
X108542500Y-90201250D03*
D14*
X104732500Y-87661250D03*
D16*
X103462500Y-90201250D03*
X113622500Y-90201250D03*
D14*
X111082500Y-47021250D03*
D15*
X108542500Y-52101250D03*
D14*
X104732500Y-49561250D03*
D16*
X103462500Y-52101250D03*
X113622500Y-52101250D03*
D14*
X149182500Y-85121250D03*
D15*
X146642500Y-90201250D03*
D14*
X142832500Y-87661250D03*
D16*
X141562500Y-90201250D03*
X151722500Y-90201250D03*
D14*
X225382500Y-47021250D03*
D15*
X222842500Y-52101250D03*
D14*
X219032500Y-49561250D03*
D16*
X217762500Y-52101250D03*
X227922500Y-52101250D03*
D14*
X68220000Y-47021250D03*
D15*
X65680000Y-52101250D03*
D14*
X61870000Y-49561250D03*
D16*
X60600000Y-52101250D03*
X70760000Y-52101250D03*
D14*
X149182500Y-66071250D03*
D15*
X146642500Y-71151250D03*
D14*
X142832500Y-68611250D03*
D16*
X141562500Y-71151250D03*
X151722500Y-71151250D03*
D14*
X99176250Y-104171250D03*
D15*
X96636250Y-109251250D03*
D14*
X92826250Y-106711250D03*
D16*
X91556250Y-109251250D03*
X101716250Y-109251250D03*
D14*
X156326250Y-104171250D03*
D15*
X153786250Y-109251250D03*
D14*
X149976250Y-106711250D03*
D16*
X148706250Y-109251250D03*
X158866250Y-109251250D03*
D17*
X165724250Y-116236250D03*
X141848250Y-116236250D03*
D15*
X165724250Y-100996250D03*
X141848250Y-100996250D03*
D14*
X199188750Y-104171250D03*
D15*
X196648750Y-109251250D03*
D14*
X192838750Y-106711250D03*
D16*
X191568750Y-109251250D03*
X201728750Y-109251250D03*
D17*
X208586750Y-116236250D03*
X184710750Y-116236250D03*
D15*
X208586750Y-100996250D03*
X184710750Y-100996250D03*
D14*
X263482500Y-85121250D03*
D15*
X260942500Y-90201250D03*
D14*
X257132500Y-87661250D03*
D16*
X255862500Y-90201250D03*
X266022500Y-90201250D03*
D14*
X61076250Y-85121250D03*
D15*
X58536250Y-90201250D03*
D14*
X54726250Y-87661250D03*
D16*
X53456250Y-90201250D03*
X63616250Y-90201250D03*
D17*
X70474250Y-83216250D03*
X46598250Y-83216250D03*
D15*
X70474250Y-98456250D03*
X46598250Y-98456250D03*
D14*
X263482500Y-47021250D03*
D15*
X260942500Y-52101250D03*
D14*
X257132500Y-49561250D03*
D16*
X255862500Y-52101250D03*
X266022500Y-52101250D03*
D14*
X130132500Y-66071250D03*
D15*
X127592500Y-71151250D03*
D14*
X123782500Y-68611250D03*
D16*
X122512500Y-71151250D03*
X132672500Y-71151250D03*
D14*
X111082500Y-66071250D03*
D15*
X108542500Y-71151250D03*
D14*
X104732500Y-68611250D03*
D16*
X103462500Y-71151250D03*
X113622500Y-71151250D03*
D14*
X282532500Y-66071250D03*
D15*
X279992500Y-71151250D03*
D14*
X276182500Y-68611250D03*
D16*
X274912500Y-71151250D03*
X285072500Y-71151250D03*
D14*
X92032500Y-47021250D03*
D15*
X89492500Y-52101250D03*
D14*
X85682500Y-49561250D03*
D16*
X84412500Y-52101250D03*
X94572500Y-52101250D03*
D14*
X149182500Y-47021250D03*
D15*
X146642500Y-52101250D03*
D14*
X142832500Y-49561250D03*
D16*
X141562500Y-52101250D03*
X151722500Y-52101250D03*
D14*
X268245000Y-104171250D03*
D15*
X265705000Y-109251250D03*
D14*
X261895000Y-106711250D03*
D16*
X260625000Y-109251250D03*
X270785000Y-109251250D03*
D14*
X263482500Y-66071250D03*
D15*
X260942500Y-71151250D03*
D14*
X257132500Y-68611250D03*
D16*
X255862500Y-71151250D03*
X266022500Y-71151250D03*
D14*
X206332500Y-66071250D03*
D15*
X203792500Y-71151250D03*
D14*
X199982500Y-68611250D03*
D16*
X198712500Y-71151250D03*
X208872500Y-71151250D03*
D14*
X230145000Y-104171250D03*
D15*
X227605000Y-109251250D03*
D14*
X223795000Y-106711250D03*
D16*
X222525000Y-109251250D03*
X232685000Y-109251250D03*
D14*
X206332500Y-85121250D03*
D15*
X203792500Y-90201250D03*
D14*
X199982500Y-87661250D03*
D16*
X198712500Y-90201250D03*
X208872500Y-90201250D03*
D14*
X206332500Y-47021250D03*
D15*
X203792500Y-52101250D03*
D14*
X199982500Y-49561250D03*
D16*
X198712500Y-52101250D03*
X208872500Y-52101250D03*
D14*
X187282500Y-85121250D03*
D15*
X184742500Y-90201250D03*
D14*
X180932500Y-87661250D03*
D16*
X179662500Y-90201250D03*
X189822500Y-90201250D03*
D14*
X187282500Y-47021250D03*
D15*
X184742500Y-52101250D03*
D14*
X180932500Y-49561250D03*
D16*
X179662500Y-52101250D03*
X189822500Y-52101250D03*
D14*
X244432500Y-66071250D03*
D15*
X241892500Y-71151250D03*
D14*
X238082500Y-68611250D03*
D16*
X236812500Y-71151250D03*
X246972500Y-71151250D03*
D14*
X187282500Y-66071250D03*
D15*
X184742500Y-71151250D03*
D14*
X180932500Y-68611250D03*
D16*
X179662500Y-71151250D03*
X189822500Y-71151250D03*
D14*
X168232500Y-47021250D03*
D15*
X165692500Y-52101250D03*
D14*
X161882500Y-49561250D03*
D16*
X160612500Y-52101250D03*
X170772500Y-52101250D03*
D14*
X130132500Y-47021250D03*
D15*
X127592500Y-52101250D03*
D14*
X123782500Y-49561250D03*
D16*
X122512500Y-52101250D03*
X132672500Y-52101250D03*
D14*
X72982500Y-27971250D03*
D15*
X70442500Y-33051250D03*
D14*
X66632500Y-30511250D03*
D16*
X65362500Y-33051250D03*
X75522500Y-33051250D03*
D14*
X249195000Y-104171250D03*
D15*
X246655000Y-109251250D03*
D14*
X242845000Y-106711250D03*
D16*
X241575000Y-109251250D03*
X251735000Y-109251250D03*
D14*
X225382500Y-66071250D03*
D15*
X222842500Y-71151250D03*
D14*
X219032500Y-68611250D03*
D16*
X217762500Y-71151250D03*
X227922500Y-71151250D03*
D14*
X244432500Y-85121250D03*
D15*
X241892500Y-90201250D03*
D14*
X238082500Y-87661250D03*
D16*
X236812500Y-90201250D03*
X246972500Y-90201250D03*
D14*
X168232500Y-66071250D03*
D15*
X165692500Y-71151250D03*
D14*
X161882500Y-68611250D03*
D16*
X160612500Y-71151250D03*
X170772500Y-71151250D03*
D14*
X65838750Y-66071250D03*
D15*
X63298750Y-71151250D03*
D14*
X59488750Y-68611250D03*
D16*
X58218750Y-71151250D03*
X68378750Y-71151250D03*
D14*
X225382500Y-85121250D03*
D15*
X222842500Y-90201250D03*
D14*
X219032500Y-87661250D03*
D16*
X217762500Y-90201250D03*
X227922500Y-90201250D03*
D14*
X77745000Y-104171250D03*
D15*
X75205000Y-109251250D03*
D14*
X71395000Y-106711250D03*
D16*
X70125000Y-109251250D03*
X80285000Y-109251250D03*
D14*
X130132500Y-85121250D03*
D15*
X127592500Y-90201250D03*
D14*
X123782500Y-87661250D03*
D16*
X122512500Y-90201250D03*
X132672500Y-90201250D03*
D14*
X287295000Y-47021250D03*
D15*
X284755000Y-52101250D03*
D14*
X280945000Y-49561250D03*
D16*
X279675000Y-52101250D03*
X289835000Y-52101250D03*
D15*
X277554500Y-41317500D03*
X301430500Y-41317500D03*
D17*
X277554500Y-26077500D03*
X301430500Y-26077500D03*
D16*
X294572500Y-33062500D03*
X284412500Y-33062500D03*
D14*
X285682500Y-30522500D03*
D15*
X289492500Y-33062500D03*
D14*
X292032500Y-27982500D03*
X168232500Y-85121250D03*
D15*
X165692500Y-90201250D03*
D14*
X161882500Y-87661250D03*
D16*
X160612500Y-90201250D03*
X170772500Y-90201250D03*
D14*
X122988750Y-104171250D03*
D15*
X120448750Y-109251250D03*
D14*
X116638750Y-106711250D03*
D16*
X115368750Y-109251250D03*
X125528750Y-109251250D03*
D14*
X92032500Y-66071250D03*
D15*
X89492500Y-71151250D03*
D14*
X85682500Y-68611250D03*
D16*
X84412500Y-71151250D03*
X94572500Y-71151250D03*
D14*
X282532500Y-85121250D03*
D15*
X279992500Y-90201250D03*
D14*
X276182500Y-87661250D03*
D16*
X274912500Y-90201250D03*
X285072500Y-90201250D03*
D14*
X244432500Y-27971250D03*
D15*
X241892500Y-33051250D03*
D14*
X238082500Y-30511250D03*
D16*
X236812500Y-33051250D03*
X246972500Y-33051250D03*
D14*
X225382500Y-27971250D03*
D15*
X222842500Y-33051250D03*
D14*
X219032500Y-30511250D03*
D16*
X217762500Y-33051250D03*
X227922500Y-33051250D03*
D14*
X206332500Y-27971250D03*
D15*
X203792500Y-33051250D03*
D14*
X199982500Y-30511250D03*
D16*
X198712500Y-33051250D03*
X208872500Y-33051250D03*
D14*
X187282500Y-27971250D03*
D15*
X184742500Y-33051250D03*
D14*
X180932500Y-30511250D03*
D16*
X179662500Y-33051250D03*
X189822500Y-33051250D03*
D14*
X168232500Y-27971250D03*
D15*
X165692500Y-33051250D03*
D14*
X161882500Y-30511250D03*
D16*
X160612500Y-33051250D03*
X170772500Y-33051250D03*
D14*
X149182500Y-27971250D03*
D15*
X146642500Y-33051250D03*
D14*
X142832500Y-30511250D03*
D16*
X141562500Y-33051250D03*
X151722500Y-33051250D03*
D14*
X130132500Y-27971250D03*
D15*
X127592500Y-33051250D03*
D14*
X123782500Y-30511250D03*
D16*
X122512500Y-33051250D03*
X132672500Y-33051250D03*
D14*
X111082500Y-27971250D03*
D15*
X108542500Y-33051250D03*
D14*
X104732500Y-30511250D03*
D16*
X103462500Y-33051250D03*
X113622500Y-33051250D03*
D14*
X92032500Y-27971250D03*
D15*
X89492500Y-33051250D03*
D14*
X85682500Y-30511250D03*
D16*
X84412500Y-33051250D03*
X94572500Y-33051250D03*
D14*
X263482500Y-27971250D03*
D15*
X260942500Y-33051250D03*
D14*
X257132500Y-30511250D03*
D16*
X255862500Y-33051250D03*
X266022500Y-33051250D03*
M02*
