M48
; DRILL file {KiCad 5.1.10-88a1d61d58~88~ubuntu18.04.1} date Wed May 12 09:01:10 2021
; FORMAT={-:-/ absolute / inch / decimal}
; #@! TF.CreationDate,2021-05-12T09:01:10-05:00
; #@! TF.GenerationSoftware,Kicad,Pcbnew,5.1.10-88a1d61d58~88~ubuntu18.04.1
; #@! TF.FileFunction,Plated,1,2,PTH
FMAT,2
INCH
T1C0.0157
T2C0.0430
T3C0.0984
%
G90
G05
T1
X2.625Y-3.6875
X2.8125Y-2.9375
X2.9062Y-2.1875
X3.0938Y-1.4375
X3.25Y-1.5312
X3.2812Y-4.4375
X3.8438Y-1.4375
X3.8438Y-2.1875
X3.8438Y-2.9375
X3.8438Y-3.6875
X4.0Y-1.5625
X4.125Y-4.4375
X4.5938Y-1.4375
X4.5938Y-2.1875
X4.5938Y-2.9375
X4.5938Y-3.6875
X4.75Y-1.5938
X5.0625Y-4.4375
X5.3438Y-1.4375
X5.3438Y-2.1875
X5.3438Y-2.9375
X5.3438Y-3.6875
X5.5Y-1.625
X6.0938Y-1.4375
X6.0938Y-2.1875
X6.0938Y-2.9375
X6.0938Y-3.6875
X6.25Y-1.6562
X6.375Y-4.4375
X6.8438Y-1.4375
X6.8438Y-2.1875
X6.8438Y-2.9375
X6.8438Y-3.6875
X7.0Y-1.6875
X7.5938Y-1.4375
X7.5938Y-2.1875
X7.5938Y-2.9375
X7.5938Y-3.6875
X7.75Y-2.25
X8.0625Y-4.4375
X8.3438Y-1.4375
X8.3438Y-2.1875
X8.3438Y-2.9375
X8.3438Y-3.6875
X8.5Y-2.25
X9.0938Y-1.4375
X9.0938Y-2.1875
X9.0938Y-2.9375
X9.0938Y-3.6875
X9.25Y-2.25
X9.2812Y-4.4375
X9.8438Y-1.4375
X9.8438Y-2.1875
X9.8438Y-2.9375
X9.8438Y-3.6875
X10.0Y-2.25
X10.0312Y-4.4375
X10.5938Y-1.4375
X10.5938Y-2.1875
X10.5938Y-2.9375
X10.5938Y-3.6875
X10.7812Y-4.4375
X10.9375Y-2.25
X11.3438Y-2.9375
X11.3438Y-3.6875
X11.5312Y-2.1875
X11.7188Y-1.4375
T2
X1.3473Y-1.0125
X1.3473Y-1.2125
X1.3473Y-1.4125
X1.3473Y-1.6125
X1.3473Y-1.8125
X1.3473Y-2.0125
X1.3653Y-1.1125
X1.3653Y-1.3125
X1.3653Y-1.5125
X1.3653Y-1.7125
X1.3653Y-1.9125
X1.3653Y-2.1125
X1.9472Y-1.1125
X1.9472Y-1.3125
X1.9472Y-1.5125
X1.9472Y-1.7125
X1.9472Y-1.9125
X1.9472Y-2.1125
X1.9652Y-1.0125
X1.9652Y-1.2125
X1.9652Y-1.4125
X1.9652Y-1.6125
X1.9652Y-1.8125
X1.9652Y-2.0125
T3
G00X0.8916Y-3.1669
M15
G01X1.1082Y-3.1669
M16
G05
G00X8.4101Y-4.2835
M15
G01X8.5086Y-4.2835
M16
G05
G00X12.2495Y-3.1671
M15
G01X12.033Y-3.1671
M16
G05
T0
M30
