G04 #@! TF.GenerationSoftware,KiCad,Pcbnew,5.1.9-73d0e3b20d~88~ubuntu18.04.1*
G04 #@! TF.CreationDate,2021-02-07T21:55:21-06:00*
G04 #@! TF.ProjectId,keyboard,6b657962-6f61-4726-942e-6b696361645f,rev?*
G04 #@! TF.SameCoordinates,Original*
G04 #@! TF.FileFunction,Soldermask,Top*
G04 #@! TF.FilePolarity,Negative*
%FSLAX46Y46*%
G04 Gerber Fmt 4.6, Leading zero omitted, Abs format (unit mm)*
G04 Created by KiCad (PCBNEW 5.1.9-73d0e3b20d~88~ubuntu18.04.1) date 2021-02-07 21:55:21*
%MOMM*%
%LPD*%
G01*
G04 APERTURE LIST*
%ADD10C,3.987800*%
%ADD11C,1.750000*%
%ADD12C,3.048000*%
%ADD13C,1.752600*%
%ADD14R,1.752600X1.752600*%
%ADD15C,1.600000*%
%ADD16R,1.600000X1.600000*%
G04 APERTURE END LIST*
D10*
X218281250Y-128587500D03*
D11*
X213201250Y-128587500D03*
X223361250Y-128587500D03*
D12*
X206375000Y-135572500D03*
X230187500Y-135572500D03*
D10*
X206375000Y-120332500D03*
X230187500Y-120332500D03*
X175418750Y-128587500D03*
D11*
X170338750Y-128587500D03*
X180498750Y-128587500D03*
D12*
X163512500Y-135572500D03*
X187325000Y-135572500D03*
D10*
X163512500Y-120332500D03*
X187325000Y-120332500D03*
X80168750Y-109537500D03*
D11*
X75088750Y-109537500D03*
X85248750Y-109537500D03*
D12*
X68262500Y-102552500D03*
X92075000Y-102552500D03*
D10*
X68262500Y-117792500D03*
X92075000Y-117792500D03*
X149225000Y-90487500D03*
D11*
X144145000Y-90487500D03*
X154305000Y-90487500D03*
D13*
X79057500Y-47148750D03*
X63817500Y-75088750D03*
X79057500Y-49688750D03*
X79057500Y-52228750D03*
X79057500Y-54768750D03*
X79057500Y-57308750D03*
X79057500Y-59848750D03*
X79057500Y-62388750D03*
X79057500Y-64928750D03*
X79057500Y-67468750D03*
X79057500Y-70008750D03*
X79057500Y-72548750D03*
X79057500Y-75088750D03*
X63817500Y-72548750D03*
X63817500Y-70008750D03*
X63817500Y-67468750D03*
X63817500Y-64928750D03*
X63817500Y-62388750D03*
X63817500Y-59848750D03*
X63817500Y-57308750D03*
X63817500Y-54768750D03*
X63817500Y-52228750D03*
X63817500Y-49688750D03*
D14*
X63817500Y-47148750D03*
D10*
X111125000Y-109537500D03*
D11*
X106045000Y-109537500D03*
X116205000Y-109537500D03*
D10*
X263525000Y-71437500D03*
D11*
X258445000Y-71437500D03*
X268605000Y-71437500D03*
D10*
X130175000Y-109537500D03*
D11*
X125095000Y-109537500D03*
X135255000Y-109537500D03*
D10*
X130175000Y-71437500D03*
D11*
X125095000Y-71437500D03*
X135255000Y-71437500D03*
D10*
X168275000Y-109537500D03*
D11*
X163195000Y-109537500D03*
X173355000Y-109537500D03*
D10*
X244475000Y-71437500D03*
D11*
X239395000Y-71437500D03*
X249555000Y-71437500D03*
D10*
X87312500Y-71437500D03*
D11*
X82232500Y-71437500D03*
X92392500Y-71437500D03*
D10*
X168275000Y-90487500D03*
D11*
X163195000Y-90487500D03*
X173355000Y-90487500D03*
D10*
X118268750Y-128587500D03*
D11*
X113188750Y-128587500D03*
X123348750Y-128587500D03*
D10*
X282575000Y-109537500D03*
D11*
X277495000Y-109537500D03*
X287655000Y-109537500D03*
D10*
X282575000Y-71437500D03*
D11*
X277495000Y-71437500D03*
X287655000Y-71437500D03*
D10*
X130175000Y-90487500D03*
D11*
X125095000Y-90487500D03*
X135255000Y-90487500D03*
D10*
X301625000Y-90487500D03*
D11*
X296545000Y-90487500D03*
X306705000Y-90487500D03*
D10*
X111125000Y-71437500D03*
D11*
X106045000Y-71437500D03*
X116205000Y-71437500D03*
D10*
X168275000Y-71437500D03*
D11*
X163195000Y-71437500D03*
X173355000Y-71437500D03*
D10*
X287337500Y-128587500D03*
D11*
X282257500Y-128587500D03*
X292417500Y-128587500D03*
D10*
X282575000Y-90487500D03*
D11*
X277495000Y-90487500D03*
X287655000Y-90487500D03*
D10*
X225425000Y-90487500D03*
D11*
X220345000Y-90487500D03*
X230505000Y-90487500D03*
D10*
X249237500Y-128587500D03*
D11*
X244157500Y-128587500D03*
X254317500Y-128587500D03*
D10*
X225425000Y-109537500D03*
D11*
X220345000Y-109537500D03*
X230505000Y-109537500D03*
D10*
X225425000Y-71437500D03*
D11*
X220345000Y-71437500D03*
X230505000Y-71437500D03*
D10*
X206375000Y-109537500D03*
D11*
X201295000Y-109537500D03*
X211455000Y-109537500D03*
D10*
X206375000Y-71437500D03*
D11*
X201295000Y-71437500D03*
X211455000Y-71437500D03*
D10*
X263525000Y-90487500D03*
D11*
X258445000Y-90487500D03*
X268605000Y-90487500D03*
D10*
X206375000Y-90487500D03*
D11*
X201295000Y-90487500D03*
X211455000Y-90487500D03*
D10*
X187325000Y-71437500D03*
D11*
X182245000Y-71437500D03*
X192405000Y-71437500D03*
D10*
X149225000Y-71437500D03*
D11*
X144145000Y-71437500D03*
X154305000Y-71437500D03*
D10*
X92075000Y-52387500D03*
D11*
X86995000Y-52387500D03*
X97155000Y-52387500D03*
D10*
X268287500Y-128587500D03*
D11*
X263207500Y-128587500D03*
X273367500Y-128587500D03*
D10*
X244475000Y-90487500D03*
D11*
X239395000Y-90487500D03*
X249555000Y-90487500D03*
D10*
X263525000Y-109537500D03*
D11*
X258445000Y-109537500D03*
X268605000Y-109537500D03*
D10*
X187325000Y-90487500D03*
D11*
X182245000Y-90487500D03*
X192405000Y-90487500D03*
D10*
X84931250Y-90487500D03*
D11*
X79851250Y-90487500D03*
X90011250Y-90487500D03*
D10*
X244475000Y-109537500D03*
D11*
X239395000Y-109537500D03*
X249555000Y-109537500D03*
D10*
X96837500Y-128587500D03*
D11*
X91757500Y-128587500D03*
X101917500Y-128587500D03*
D10*
X149225000Y-109537500D03*
D11*
X144145000Y-109537500D03*
X154305000Y-109537500D03*
D10*
X306387500Y-71437500D03*
D11*
X301307500Y-71437500D03*
X311467500Y-71437500D03*
D10*
X311150000Y-52387500D03*
D11*
X306070000Y-52387500D03*
X316230000Y-52387500D03*
D12*
X299243750Y-45402500D03*
X323056250Y-45402500D03*
D10*
X299243750Y-60642500D03*
X323056250Y-60642500D03*
X187325000Y-109537500D03*
D11*
X182245000Y-109537500D03*
X192405000Y-109537500D03*
D10*
X142081250Y-128587500D03*
D11*
X137001250Y-128587500D03*
X147161250Y-128587500D03*
D10*
X111125000Y-90487500D03*
D11*
X106045000Y-90487500D03*
X116205000Y-90487500D03*
D10*
X301625000Y-109537500D03*
D11*
X296545000Y-109537500D03*
X306705000Y-109537500D03*
D10*
X263525000Y-52387500D03*
D11*
X258445000Y-52387500D03*
X268605000Y-52387500D03*
D10*
X244475000Y-52387500D03*
D11*
X239395000Y-52387500D03*
X249555000Y-52387500D03*
D10*
X225425000Y-52387500D03*
D11*
X220345000Y-52387500D03*
X230505000Y-52387500D03*
D10*
X206375000Y-52387500D03*
D11*
X201295000Y-52387500D03*
X211455000Y-52387500D03*
D10*
X187325000Y-52387500D03*
D11*
X182245000Y-52387500D03*
X192405000Y-52387500D03*
D10*
X168275000Y-52387500D03*
D11*
X163195000Y-52387500D03*
X173355000Y-52387500D03*
D10*
X149225000Y-52387500D03*
D11*
X144145000Y-52387500D03*
X154305000Y-52387500D03*
D10*
X130175000Y-52387500D03*
D11*
X125095000Y-52387500D03*
X135255000Y-52387500D03*
D10*
X111125000Y-52387500D03*
D11*
X106045000Y-52387500D03*
X116205000Y-52387500D03*
D10*
X282575000Y-52387500D03*
D11*
X277495000Y-52387500D03*
X287655000Y-52387500D03*
D15*
X119062500Y-105637500D03*
D16*
X119062500Y-113437500D03*
D15*
X271462500Y-67537500D03*
D16*
X271462500Y-75337500D03*
D15*
X138112500Y-105637500D03*
D16*
X138112500Y-113437500D03*
D15*
X138112500Y-67550000D03*
D16*
X138112500Y-75350000D03*
D15*
X176212500Y-105637500D03*
D16*
X176212500Y-113437500D03*
D15*
X252412500Y-67537500D03*
D16*
X252412500Y-75337500D03*
D15*
X95250000Y-67537500D03*
D16*
X95250000Y-75337500D03*
D15*
X176212500Y-86587500D03*
D16*
X176212500Y-94387500D03*
D15*
X126206250Y-124687500D03*
D16*
X126206250Y-132487500D03*
D15*
X183356250Y-124687500D03*
D16*
X183356250Y-132487500D03*
D15*
X226218750Y-124700000D03*
D16*
X226218750Y-132500000D03*
D15*
X290512500Y-105650000D03*
D16*
X290512500Y-113450000D03*
D15*
X88106250Y-105637500D03*
D16*
X88106250Y-113437500D03*
D15*
X290512500Y-67537500D03*
D16*
X290512500Y-75337500D03*
D15*
X157162500Y-86600000D03*
D16*
X157162500Y-94400000D03*
D15*
X138112500Y-86587500D03*
D16*
X138112500Y-94387500D03*
D15*
X309562500Y-86587500D03*
D16*
X309562500Y-94387500D03*
D15*
X119062500Y-67537500D03*
D16*
X119062500Y-75337500D03*
D15*
X176212500Y-67550000D03*
D16*
X176212500Y-75350000D03*
D15*
X295275000Y-124687500D03*
D16*
X295275000Y-132487500D03*
D15*
X290512500Y-86587500D03*
D16*
X290512500Y-94387500D03*
D15*
X233362500Y-86587500D03*
D16*
X233362500Y-94387500D03*
D15*
X257175000Y-124687500D03*
D16*
X257175000Y-132487500D03*
D15*
X233362500Y-105637500D03*
D16*
X233362500Y-113437500D03*
D15*
X233362500Y-67537500D03*
D16*
X233362500Y-75337500D03*
D15*
X214312500Y-105637500D03*
D16*
X214312500Y-113437500D03*
D15*
X214312500Y-67550000D03*
D16*
X214312500Y-75350000D03*
D15*
X271462500Y-86587500D03*
D16*
X271462500Y-94387500D03*
D15*
X214312500Y-86587500D03*
D16*
X214312500Y-94387500D03*
D15*
X195262500Y-67537500D03*
D16*
X195262500Y-75337500D03*
D15*
X157162500Y-67537500D03*
D16*
X157162500Y-75337500D03*
D15*
X100012500Y-48475000D03*
D16*
X100012500Y-56275000D03*
D15*
X276225000Y-124687500D03*
D16*
X276225000Y-132487500D03*
D15*
X252412500Y-86587500D03*
D16*
X252412500Y-94387500D03*
D15*
X271462500Y-105637500D03*
D16*
X271462500Y-113437500D03*
D15*
X195262500Y-86600000D03*
D16*
X195262500Y-94400000D03*
D15*
X92868750Y-86587500D03*
D16*
X92868750Y-94387500D03*
D15*
X252412500Y-105637500D03*
D16*
X252412500Y-113437500D03*
D15*
X104775000Y-124687500D03*
D16*
X104775000Y-132487500D03*
D15*
X157162500Y-105637500D03*
D16*
X157162500Y-113437500D03*
D15*
X314325000Y-67537500D03*
D16*
X314325000Y-75337500D03*
D15*
X319087500Y-48487500D03*
D16*
X319087500Y-56287500D03*
D15*
X195262500Y-105637500D03*
D16*
X195262500Y-113437500D03*
D15*
X150018750Y-124687500D03*
D16*
X150018750Y-132487500D03*
D15*
X119062500Y-86587500D03*
D16*
X119062500Y-94387500D03*
D15*
X309562500Y-105637500D03*
D16*
X309562500Y-113437500D03*
D15*
X271462500Y-48487500D03*
D16*
X271462500Y-56287500D03*
D15*
X252412500Y-48487500D03*
D16*
X252412500Y-56287500D03*
D15*
X233362500Y-48487500D03*
D16*
X233362500Y-56287500D03*
D15*
X214312500Y-48487500D03*
D16*
X214312500Y-56287500D03*
D15*
X195262500Y-48487500D03*
D16*
X195262500Y-56287500D03*
D15*
X176212500Y-48487500D03*
D16*
X176212500Y-56287500D03*
D15*
X157162500Y-48487500D03*
D16*
X157162500Y-56287500D03*
D15*
X138112500Y-48487500D03*
D16*
X138112500Y-56287500D03*
D15*
X119062500Y-48487500D03*
D16*
X119062500Y-56287500D03*
D15*
X290512500Y-48487500D03*
D16*
X290512500Y-56287500D03*
M02*
