M48
; DRILL file {KiCad 5.1.9-73d0e3b20d~88~ubuntu18.04.1} date Sun Feb  7 21:55:10 2021
; FORMAT={-:-/ absolute / inch / decimal}
; #@! TF.CreationDate,2021-02-07T21:55:10-06:00
; #@! TF.GenerationSoftware,Kicad,Pcbnew,5.1.9-73d0e3b20d~88~ubuntu18.04.1
; #@! TF.FileFunction,NonPlated,1,2,NPTH
FMAT,2
INCH
T1C0.0689
T2C0.1200
T3C0.1570
%
G90
G05
T1
X2.9562Y-4.3125
X3.1437Y-3.5625
X3.2375Y-2.8125
X3.3562Y-4.3125
X3.425Y-2.0625
X3.5437Y-3.5625
X3.6125Y-5.0625
X3.6375Y-2.8125
X3.825Y-2.0625
X4.0125Y-5.0625
X4.175Y-2.0625
X4.175Y-2.8125
X4.175Y-3.5625
X4.175Y-4.3125
X4.4562Y-5.0625
X4.575Y-2.0625
X4.575Y-2.8125
X4.575Y-3.5625
X4.575Y-4.3125
X4.8563Y-5.0625
X4.925Y-2.0625
X4.925Y-2.8125
X4.925Y-3.5625
X4.925Y-4.3125
X5.325Y-2.0625
X5.325Y-2.8125
X5.325Y-3.5625
X5.325Y-4.3125
X5.3937Y-5.0625
X5.675Y-2.0625
X5.675Y-2.8125
X5.675Y-3.5625
X5.675Y-4.3125
X5.7938Y-5.0625
X6.075Y-2.0625
X6.075Y-2.8125
X6.075Y-3.5625
X6.075Y-4.3125
X6.425Y-2.0625
X6.425Y-2.8125
X6.425Y-3.5625
X6.425Y-4.3125
X6.7062Y-5.0625
X6.825Y-2.0625
X6.825Y-2.8125
X6.825Y-3.5625
X6.825Y-4.3125
X7.1063Y-5.0625
X7.175Y-2.0625
X7.175Y-2.8125
X7.175Y-3.5625
X7.175Y-4.3125
X7.575Y-2.0625
X7.575Y-2.8125
X7.575Y-3.5625
X7.575Y-4.3125
X7.925Y-2.0625
X7.925Y-2.8125
X7.925Y-3.5625
X7.925Y-4.3125
X8.325Y-2.0625
X8.325Y-2.8125
X8.325Y-3.5625
X8.325Y-4.3125
X8.3937Y-5.0625
X8.675Y-2.0625
X8.675Y-2.8125
X8.675Y-3.5625
X8.675Y-4.3125
X8.7937Y-5.0625
X9.075Y-2.0625
X9.075Y-2.8125
X9.075Y-3.5625
X9.075Y-4.3125
X9.425Y-2.0625
X9.425Y-2.8125
X9.425Y-3.5625
X9.425Y-4.3125
X9.6125Y-5.0625
X9.825Y-2.0625
X9.825Y-2.8125
X9.825Y-3.5625
X9.825Y-4.3125
X10.0125Y-5.0625
X10.175Y-2.0625
X10.175Y-2.8125
X10.175Y-3.5625
X10.175Y-4.3125
X10.3625Y-5.0625
X10.575Y-2.0625
X10.575Y-2.8125
X10.575Y-3.5625
X10.575Y-4.3125
X10.7625Y-5.0625
X10.925Y-2.0625
X10.925Y-2.8125
X10.925Y-3.5625
X10.925Y-4.3125
X11.1125Y-5.0625
X11.325Y-2.0625
X11.325Y-2.8125
X11.325Y-3.5625
X11.325Y-4.3125
X11.5125Y-5.0625
X11.675Y-3.5625
X11.675Y-4.3125
X11.8625Y-2.8125
X12.05Y-2.0625
X12.075Y-3.5625
X12.075Y-4.3125
X12.2625Y-2.8125
X12.45Y-2.0625
T2
X2.6875Y-4.0375
X3.625Y-4.0375
X6.4375Y-5.3375
X7.375Y-5.3375
X8.125Y-5.3375
X9.0625Y-5.3375
X11.7812Y-1.7875
X12.7188Y-1.7875
T3
X2.6875Y-4.6375
X3.1562Y-4.3125
X3.3438Y-3.5625
X3.4375Y-2.8125
X3.625Y-2.0625
X3.625Y-4.6375
X3.8125Y-5.0625
X4.375Y-2.0625
X4.375Y-2.8125
X4.375Y-3.5625
X4.375Y-4.3125
X4.6562Y-5.0625
X5.125Y-2.0625
X5.125Y-2.8125
X5.125Y-3.5625
X5.125Y-4.3125
X5.5938Y-5.0625
X5.875Y-2.0625
X5.875Y-2.8125
X5.875Y-3.5625
X5.875Y-4.3125
X6.4375Y-4.7375
X6.625Y-2.0625
X6.625Y-2.8125
X6.625Y-3.5625
X6.625Y-4.3125
X6.9062Y-5.0625
X7.375Y-2.0625
X7.375Y-2.8125
X7.375Y-3.5625
X7.375Y-4.3125
X7.375Y-4.7375
X8.125Y-2.0625
X8.125Y-2.8125
X8.125Y-3.5625
X8.125Y-4.3125
X8.125Y-4.7375
X8.5938Y-5.0625
X8.875Y-2.0625
X8.875Y-2.8125
X8.875Y-3.5625
X8.875Y-4.3125
X9.0625Y-4.7375
X9.625Y-2.0625
X9.625Y-2.8125
X9.625Y-3.5625
X9.625Y-4.3125
X9.8125Y-5.0625
X10.375Y-2.0625
X10.375Y-2.8125
X10.375Y-3.5625
X10.375Y-4.3125
X10.5625Y-5.0625
X11.125Y-2.0625
X11.125Y-2.8125
X11.125Y-3.5625
X11.125Y-4.3125
X11.3125Y-5.0625
X11.7812Y-2.3875
X11.875Y-3.5625
X11.875Y-4.3125
X12.0625Y-2.8125
X12.25Y-2.0625
X12.7188Y-2.3875
T0
M30
