M48
; DRILL file {KiCad 5.1.9-73d0e3b20d~88~ubuntu18.04.1} date Thu Mar  4 23:03:24 2021
; FORMAT={-:-/ absolute / inch / decimal}
; #@! TF.CreationDate,2021-03-04T23:03:24-06:00
; #@! TF.GenerationSoftware,Kicad,Pcbnew,5.1.9-73d0e3b20d~88~ubuntu18.04.1
; #@! TF.FileFunction,Plated,1,2,PTH
FMAT,2
INCH
T1C0.0157
T2C0.0276
T3C0.0430
T4C0.0579
%
G90
G05
T1
X3.285Y-3.3106
X4.225Y-3.2821
X4.975Y-3.2535
X5.725Y-3.2812
X6.475Y-3.25
X7.225Y-3.2188
X7.975Y-3.15
X8.725Y-3.125
X9.475Y-3.1
X10.225Y-3.075
X10.975Y-3.05
X11.72Y-3.02
T2
X3.4688Y-4.159
X3.4688Y-4.466
X3.6562Y-3.409
X3.6562Y-3.716
X3.75Y-2.659
X3.75Y-2.966
X3.9375Y-1.9085
X3.9375Y-2.2156
X4.125Y-4.909
X4.125Y-5.216
X4.6875Y-1.909
X4.6875Y-2.216
X4.6875Y-2.659
X4.6875Y-2.966
X4.6875Y-3.409
X4.6875Y-3.716
X4.6875Y-4.159
X4.6875Y-4.466
X4.9688Y-4.909
X4.9688Y-5.216
X5.4375Y-1.909
X5.4375Y-2.216
X5.4375Y-2.6594
X5.4375Y-2.9665
X5.4375Y-3.409
X5.4375Y-3.716
X5.4375Y-4.159
X5.4375Y-4.466
X5.9062Y-4.909
X5.9062Y-5.216
X6.1875Y-1.909
X6.1875Y-2.216
X6.1875Y-2.659
X6.1875Y-2.966
X6.1875Y-3.4094
X6.1875Y-3.7165
X6.1875Y-4.159
X6.1875Y-4.466
X6.9375Y-1.909
X6.9375Y-2.216
X6.9375Y-2.6594
X6.9375Y-2.9665
X6.9375Y-3.409
X6.9375Y-3.716
X6.9375Y-4.159
X6.9375Y-4.466
X7.2188Y-4.909
X7.2188Y-5.216
X7.6875Y-1.909
X7.6875Y-2.216
X7.6875Y-2.659
X7.6875Y-2.966
X7.6875Y-3.4094
X7.6875Y-3.7165
X7.6875Y-4.159
X7.6875Y-4.466
X8.4375Y-1.909
X8.4375Y-2.216
X8.4375Y-2.6594
X8.4375Y-2.9665
X8.4375Y-3.409
X8.4375Y-3.716
X8.4375Y-4.159
X8.4375Y-4.466
X8.9062Y-4.9094
X8.9062Y-5.2165
X9.1875Y-1.909
X9.1875Y-2.216
X9.1875Y-2.659
X9.1875Y-2.966
X9.1875Y-3.409
X9.1875Y-3.716
X9.1875Y-4.159
X9.1875Y-4.466
X9.9375Y-1.909
X9.9375Y-2.216
X9.9375Y-2.659
X9.9375Y-2.966
X9.9375Y-3.409
X9.9375Y-3.716
X9.9375Y-4.159
X9.9375Y-4.466
X10.125Y-4.909
X10.125Y-5.216
X10.6875Y-1.909
X10.6875Y-2.216
X10.6875Y-2.659
X10.6875Y-2.966
X10.6875Y-3.409
X10.6875Y-3.716
X10.6875Y-4.159
X10.6875Y-4.466
X10.875Y-4.909
X10.875Y-5.216
X11.4375Y-1.909
X11.4375Y-2.216
X11.4375Y-2.659
X11.4375Y-2.966
X11.4375Y-3.409
X11.4375Y-3.716
X11.4375Y-4.1594
X11.4375Y-4.4665
X11.625Y-4.909
X11.625Y-5.216
X12.1875Y-3.409
X12.1875Y-3.716
X12.1875Y-4.159
X12.1875Y-4.466
X12.375Y-2.659
X12.375Y-2.966
X12.5625Y-1.909
X12.5625Y-2.216
T3
X2.5125Y-1.8562
X2.5125Y-1.9563
X2.5125Y-2.0562
X2.5125Y-2.1562
X2.5125Y-2.2563
X2.5125Y-2.3562
X2.5125Y-2.4562
X2.5125Y-2.5562
X2.5125Y-2.6562
X2.5125Y-2.7563
X2.5125Y-2.8562
X2.5125Y-2.9562
X3.1125Y-1.8562
X3.1125Y-1.9563
X3.1125Y-2.0562
X3.1125Y-2.1562
X3.1125Y-2.2563
X3.1125Y-2.3562
X3.1125Y-2.4562
X3.1125Y-2.5562
X3.1125Y-2.6562
X3.1125Y-2.7563
X3.1125Y-2.8562
X3.1125Y-2.9562
T4
X3.0063Y-4.2125
X3.1938Y-3.4625
X3.2563Y-4.1125
X3.2875Y-2.7125
X3.4438Y-3.3625
X3.475Y-1.9625
X3.5375Y-2.6125
X3.6625Y-4.9625
X3.725Y-1.8625
X3.9125Y-4.8625
X4.225Y-1.9625
X4.225Y-2.7125
X4.225Y-3.4625
X4.225Y-4.2125
X4.475Y-1.8625
X4.475Y-2.6125
X4.475Y-3.3625
X4.475Y-4.1125
X4.5062Y-4.9625
X4.7562Y-4.8625
X4.975Y-1.9625
X4.975Y-2.7125
X4.975Y-3.4625
X4.975Y-4.2125
X5.225Y-1.8625
X5.225Y-2.6125
X5.225Y-3.3625
X5.225Y-4.1125
X5.4437Y-4.9625
X5.6937Y-4.8625
X5.725Y-1.9625
X5.725Y-2.7125
X5.725Y-3.4625
X5.725Y-4.2125
X5.975Y-1.8625
X5.975Y-2.6125
X5.975Y-3.3625
X5.975Y-4.1125
X6.475Y-1.9625
X6.475Y-2.7125
X6.475Y-3.4625
X6.475Y-4.2125
X6.725Y-1.8625
X6.725Y-2.6125
X6.725Y-3.3625
X6.725Y-4.1125
X6.7562Y-4.9625
X7.0062Y-4.8625
X7.225Y-1.9625
X7.225Y-2.7125
X7.225Y-3.4625
X7.225Y-4.2125
X7.475Y-1.8625
X7.475Y-2.6125
X7.475Y-3.3625
X7.475Y-4.1125
X7.975Y-1.9625
X7.975Y-2.7125
X7.975Y-3.4625
X7.975Y-4.2125
X8.225Y-1.8625
X8.225Y-2.6125
X8.225Y-3.3625
X8.225Y-4.1125
X8.4437Y-4.9625
X8.6937Y-4.8625
X8.725Y-1.9625
X8.725Y-2.7125
X8.725Y-3.4625
X8.725Y-4.2125
X8.975Y-1.8625
X8.975Y-2.6125
X8.975Y-3.3625
X8.975Y-4.1125
X9.475Y-1.9625
X9.475Y-2.7125
X9.475Y-3.4625
X9.475Y-4.2125
X9.6625Y-4.9625
X9.725Y-1.8625
X9.725Y-2.6125
X9.725Y-3.3625
X9.725Y-4.1125
X9.9125Y-4.8625
X10.225Y-1.9625
X10.225Y-2.7125
X10.225Y-3.4625
X10.225Y-4.2125
X10.4125Y-4.9625
X10.475Y-1.8625
X10.475Y-2.6125
X10.475Y-3.3625
X10.475Y-4.1125
X10.6625Y-4.8625
X10.975Y-1.9625
X10.975Y-2.7125
X10.975Y-3.4625
X10.975Y-4.2125
X11.1625Y-4.9625
X11.225Y-1.8625
X11.225Y-2.6125
X11.225Y-3.3625
X11.225Y-4.1125
X11.4125Y-4.8625
X11.725Y-3.4625
X11.725Y-4.2125
X11.9125Y-2.7125
X11.975Y-3.3625
X11.975Y-4.1125
X12.1Y-1.9625
X12.1625Y-2.6125
X12.35Y-1.8625
T0
M30
