G04 #@! TF.GenerationSoftware,KiCad,Pcbnew,5.1.9-73d0e3b20d~88~ubuntu18.04.1*
G04 #@! TF.CreationDate,2021-03-04T23:03:26-06:00*
G04 #@! TF.ProjectId,keyboard,6b657962-6f61-4726-942e-6b696361645f,rev?*
G04 #@! TF.SameCoordinates,Original*
G04 #@! TF.FileFunction,Soldermask,Bot*
G04 #@! TF.FilePolarity,Negative*
%FSLAX46Y46*%
G04 Gerber Fmt 4.6, Leading zero omitted, Abs format (unit mm)*
G04 Created by KiCad (PCBNEW 5.1.9-73d0e3b20d~88~ubuntu18.04.1) date 2021-03-04 23:03:26*
%MOMM*%
%LPD*%
G01*
G04 APERTURE LIST*
%ADD10C,2.250000*%
%ADD11C,3.987800*%
%ADD12C,1.750000*%
%ADD13C,3.048000*%
%ADD14R,1.752600X1.752600*%
%ADD15C,1.752600*%
%ADD16C,1.600000*%
%ADD17R,1.600000X1.600000*%
%ADD18R,1.200000X1.200000*%
G04 APERTURE END LIST*
D10*
X99377500Y-123507500D03*
D11*
X96837500Y-128587500D03*
D10*
X93027500Y-126047500D03*
D12*
X91757500Y-128587500D03*
X101917500Y-128587500D03*
D10*
X220821250Y-123507500D03*
D11*
X218281250Y-128587500D03*
D10*
X214471250Y-126047500D03*
D12*
X213201250Y-128587500D03*
X223361250Y-128587500D03*
D13*
X206375000Y-135572500D03*
X230187500Y-135572500D03*
D11*
X206375000Y-120332500D03*
X230187500Y-120332500D03*
D10*
X177958750Y-123507500D03*
D11*
X175418750Y-128587500D03*
D10*
X171608750Y-126047500D03*
D12*
X170338750Y-128587500D03*
X180498750Y-128587500D03*
D13*
X163512500Y-135572500D03*
X187325000Y-135572500D03*
D11*
X163512500Y-120332500D03*
X187325000Y-120332500D03*
D10*
X89852500Y-66357500D03*
D11*
X87312500Y-71437500D03*
D10*
X83502500Y-68897500D03*
D12*
X82232500Y-71437500D03*
X92392500Y-71437500D03*
D10*
X82708750Y-104457500D03*
D11*
X80168750Y-109537500D03*
D10*
X76358750Y-106997500D03*
D12*
X75088750Y-109537500D03*
X85248750Y-109537500D03*
D13*
X68262500Y-102552500D03*
X92075000Y-102552500D03*
D11*
X68262500Y-117792500D03*
X92075000Y-117792500D03*
D10*
X151765000Y-85407500D03*
D11*
X149225000Y-90487500D03*
D10*
X145415000Y-87947500D03*
D12*
X144145000Y-90487500D03*
X154305000Y-90487500D03*
D14*
X63817500Y-47148750D03*
D15*
X63817500Y-49688750D03*
X63817500Y-52228750D03*
X63817500Y-54768750D03*
X63817500Y-57308750D03*
X63817500Y-59848750D03*
X63817500Y-62388750D03*
X63817500Y-64928750D03*
X63817500Y-67468750D03*
X63817500Y-70008750D03*
X63817500Y-72548750D03*
X79057500Y-75088750D03*
X79057500Y-72548750D03*
X79057500Y-70008750D03*
X79057500Y-67468750D03*
X79057500Y-64928750D03*
X79057500Y-62388750D03*
X79057500Y-59848750D03*
X79057500Y-57308750D03*
X79057500Y-54768750D03*
X79057500Y-52228750D03*
X79057500Y-49688750D03*
X63817500Y-75088750D03*
X79057500Y-47148750D03*
D10*
X113665000Y-104457500D03*
D11*
X111125000Y-109537500D03*
D10*
X107315000Y-106997500D03*
D12*
X106045000Y-109537500D03*
X116205000Y-109537500D03*
D10*
X266065000Y-66357500D03*
D11*
X263525000Y-71437500D03*
D10*
X259715000Y-68897500D03*
D12*
X258445000Y-71437500D03*
X268605000Y-71437500D03*
D10*
X132715000Y-104457500D03*
D11*
X130175000Y-109537500D03*
D10*
X126365000Y-106997500D03*
D12*
X125095000Y-109537500D03*
X135255000Y-109537500D03*
D10*
X132715000Y-66357500D03*
D11*
X130175000Y-71437500D03*
D10*
X126365000Y-68897500D03*
D12*
X125095000Y-71437500D03*
X135255000Y-71437500D03*
D10*
X170815000Y-104457500D03*
D11*
X168275000Y-109537500D03*
D10*
X164465000Y-106997500D03*
D12*
X163195000Y-109537500D03*
X173355000Y-109537500D03*
D10*
X247015000Y-66357500D03*
D11*
X244475000Y-71437500D03*
D10*
X240665000Y-68897500D03*
D12*
X239395000Y-71437500D03*
X249555000Y-71437500D03*
D10*
X170815000Y-85407500D03*
D11*
X168275000Y-90487500D03*
D10*
X164465000Y-87947500D03*
D12*
X163195000Y-90487500D03*
X173355000Y-90487500D03*
D10*
X120808750Y-123507500D03*
D11*
X118268750Y-128587500D03*
D10*
X114458750Y-126047500D03*
D12*
X113188750Y-128587500D03*
X123348750Y-128587500D03*
D10*
X285115000Y-104457500D03*
D11*
X282575000Y-109537500D03*
D10*
X278765000Y-106997500D03*
D12*
X277495000Y-109537500D03*
X287655000Y-109537500D03*
D10*
X285115000Y-66357500D03*
D11*
X282575000Y-71437500D03*
D10*
X278765000Y-68897500D03*
D12*
X277495000Y-71437500D03*
X287655000Y-71437500D03*
D10*
X132715000Y-85407500D03*
D11*
X130175000Y-90487500D03*
D10*
X126365000Y-87947500D03*
D12*
X125095000Y-90487500D03*
X135255000Y-90487500D03*
D10*
X304165000Y-85407500D03*
D11*
X301625000Y-90487500D03*
D10*
X297815000Y-87947500D03*
D12*
X296545000Y-90487500D03*
X306705000Y-90487500D03*
D10*
X113665000Y-66357500D03*
D11*
X111125000Y-71437500D03*
D10*
X107315000Y-68897500D03*
D12*
X106045000Y-71437500D03*
X116205000Y-71437500D03*
D10*
X170815000Y-66357500D03*
D11*
X168275000Y-71437500D03*
D10*
X164465000Y-68897500D03*
D12*
X163195000Y-71437500D03*
X173355000Y-71437500D03*
D10*
X289877500Y-123507500D03*
D11*
X287337500Y-128587500D03*
D10*
X283527500Y-126047500D03*
D12*
X282257500Y-128587500D03*
X292417500Y-128587500D03*
D10*
X285115000Y-85407500D03*
D11*
X282575000Y-90487500D03*
D10*
X278765000Y-87947500D03*
D12*
X277495000Y-90487500D03*
X287655000Y-90487500D03*
D10*
X227965000Y-85407500D03*
D11*
X225425000Y-90487500D03*
D10*
X221615000Y-87947500D03*
D12*
X220345000Y-90487500D03*
X230505000Y-90487500D03*
D10*
X251777500Y-123507500D03*
D11*
X249237500Y-128587500D03*
D10*
X245427500Y-126047500D03*
D12*
X244157500Y-128587500D03*
X254317500Y-128587500D03*
D10*
X227965000Y-104457500D03*
D11*
X225425000Y-109537500D03*
D10*
X221615000Y-106997500D03*
D12*
X220345000Y-109537500D03*
X230505000Y-109537500D03*
D10*
X227965000Y-66357500D03*
D11*
X225425000Y-71437500D03*
D10*
X221615000Y-68897500D03*
D12*
X220345000Y-71437500D03*
X230505000Y-71437500D03*
D10*
X208915000Y-104457500D03*
D11*
X206375000Y-109537500D03*
D10*
X202565000Y-106997500D03*
D12*
X201295000Y-109537500D03*
X211455000Y-109537500D03*
D10*
X208915000Y-66357500D03*
D11*
X206375000Y-71437500D03*
D10*
X202565000Y-68897500D03*
D12*
X201295000Y-71437500D03*
X211455000Y-71437500D03*
D10*
X266065000Y-85407500D03*
D11*
X263525000Y-90487500D03*
D10*
X259715000Y-87947500D03*
D12*
X258445000Y-90487500D03*
X268605000Y-90487500D03*
D10*
X208915000Y-85407500D03*
D11*
X206375000Y-90487500D03*
D10*
X202565000Y-87947500D03*
D12*
X201295000Y-90487500D03*
X211455000Y-90487500D03*
D10*
X189865000Y-66357500D03*
D11*
X187325000Y-71437500D03*
D10*
X183515000Y-68897500D03*
D12*
X182245000Y-71437500D03*
X192405000Y-71437500D03*
D10*
X151765000Y-66357500D03*
D11*
X149225000Y-71437500D03*
D10*
X145415000Y-68897500D03*
D12*
X144145000Y-71437500D03*
X154305000Y-71437500D03*
D10*
X94615000Y-47307500D03*
D11*
X92075000Y-52387500D03*
D10*
X88265000Y-49847500D03*
D12*
X86995000Y-52387500D03*
X97155000Y-52387500D03*
D10*
X270827500Y-123507500D03*
D11*
X268287500Y-128587500D03*
D10*
X264477500Y-126047500D03*
D12*
X263207500Y-128587500D03*
X273367500Y-128587500D03*
D10*
X247015000Y-85407500D03*
D11*
X244475000Y-90487500D03*
D10*
X240665000Y-87947500D03*
D12*
X239395000Y-90487500D03*
X249555000Y-90487500D03*
D10*
X266065000Y-104457500D03*
D11*
X263525000Y-109537500D03*
D10*
X259715000Y-106997500D03*
D12*
X258445000Y-109537500D03*
X268605000Y-109537500D03*
D10*
X189865000Y-85407500D03*
D11*
X187325000Y-90487500D03*
D10*
X183515000Y-87947500D03*
D12*
X182245000Y-90487500D03*
X192405000Y-90487500D03*
D10*
X87471250Y-85407500D03*
D11*
X84931250Y-90487500D03*
D10*
X81121250Y-87947500D03*
D12*
X79851250Y-90487500D03*
X90011250Y-90487500D03*
D10*
X247015000Y-104457500D03*
D11*
X244475000Y-109537500D03*
D10*
X240665000Y-106997500D03*
D12*
X239395000Y-109537500D03*
X249555000Y-109537500D03*
D10*
X151765000Y-104457500D03*
D11*
X149225000Y-109537500D03*
D10*
X145415000Y-106997500D03*
D12*
X144145000Y-109537500D03*
X154305000Y-109537500D03*
D10*
X308927500Y-66357500D03*
D11*
X306387500Y-71437500D03*
D10*
X302577500Y-68897500D03*
D12*
X301307500Y-71437500D03*
X311467500Y-71437500D03*
D10*
X313690000Y-47307500D03*
D11*
X311150000Y-52387500D03*
D10*
X307340000Y-49847500D03*
D12*
X306070000Y-52387500D03*
X316230000Y-52387500D03*
D13*
X299243750Y-45402500D03*
X323056250Y-45402500D03*
D11*
X299243750Y-60642500D03*
X323056250Y-60642500D03*
D10*
X189865000Y-104457500D03*
D11*
X187325000Y-109537500D03*
D10*
X183515000Y-106997500D03*
D12*
X182245000Y-109537500D03*
X192405000Y-109537500D03*
D10*
X144621250Y-123507500D03*
D11*
X142081250Y-128587500D03*
D10*
X138271250Y-126047500D03*
D12*
X137001250Y-128587500D03*
X147161250Y-128587500D03*
D10*
X113665000Y-85407500D03*
D11*
X111125000Y-90487500D03*
D10*
X107315000Y-87947500D03*
D12*
X106045000Y-90487500D03*
X116205000Y-90487500D03*
D10*
X304165000Y-104457500D03*
D11*
X301625000Y-109537500D03*
D10*
X297815000Y-106997500D03*
D12*
X296545000Y-109537500D03*
X306705000Y-109537500D03*
D10*
X266065000Y-47307500D03*
D11*
X263525000Y-52387500D03*
D10*
X259715000Y-49847500D03*
D12*
X258445000Y-52387500D03*
X268605000Y-52387500D03*
D10*
X247015000Y-47307500D03*
D11*
X244475000Y-52387500D03*
D10*
X240665000Y-49847500D03*
D12*
X239395000Y-52387500D03*
X249555000Y-52387500D03*
D10*
X227965000Y-47307500D03*
D11*
X225425000Y-52387500D03*
D10*
X221615000Y-49847500D03*
D12*
X220345000Y-52387500D03*
X230505000Y-52387500D03*
D10*
X208915000Y-47307500D03*
D11*
X206375000Y-52387500D03*
D10*
X202565000Y-49847500D03*
D12*
X201295000Y-52387500D03*
X211455000Y-52387500D03*
D10*
X189865000Y-47307500D03*
D11*
X187325000Y-52387500D03*
D10*
X183515000Y-49847500D03*
D12*
X182245000Y-52387500D03*
X192405000Y-52387500D03*
D10*
X170815000Y-47307500D03*
D11*
X168275000Y-52387500D03*
D10*
X164465000Y-49847500D03*
D12*
X163195000Y-52387500D03*
X173355000Y-52387500D03*
D10*
X151765000Y-47307500D03*
D11*
X149225000Y-52387500D03*
D10*
X145415000Y-49847500D03*
D12*
X144145000Y-52387500D03*
X154305000Y-52387500D03*
D10*
X132715000Y-47307500D03*
D11*
X130175000Y-52387500D03*
D10*
X126365000Y-49847500D03*
D12*
X125095000Y-52387500D03*
X135255000Y-52387500D03*
D10*
X113665000Y-47307500D03*
D11*
X111125000Y-52387500D03*
D10*
X107315000Y-49847500D03*
D12*
X106045000Y-52387500D03*
X116205000Y-52387500D03*
D10*
X285115000Y-47307500D03*
D11*
X282575000Y-52387500D03*
D10*
X278765000Y-49847500D03*
D12*
X277495000Y-52387500D03*
X287655000Y-52387500D03*
D16*
X119062500Y-105637500D03*
D17*
X119062500Y-113437500D03*
D18*
X119062500Y-111112500D03*
X119062500Y-107962500D03*
D16*
X271462500Y-67537500D03*
D17*
X271462500Y-75337500D03*
D18*
X271462500Y-73012500D03*
X271462500Y-69862500D03*
D16*
X138112500Y-105637500D03*
D17*
X138112500Y-113437500D03*
D18*
X138112500Y-111112500D03*
X138112500Y-107962500D03*
D16*
X138112500Y-67550000D03*
D17*
X138112500Y-75350000D03*
D18*
X138112500Y-73025000D03*
X138112500Y-69875000D03*
D16*
X176212500Y-105637500D03*
D17*
X176212500Y-113437500D03*
D18*
X176212500Y-111112500D03*
X176212500Y-107962500D03*
D16*
X252412500Y-67537500D03*
D17*
X252412500Y-75337500D03*
D18*
X252412500Y-73012500D03*
X252412500Y-69862500D03*
D16*
X95250000Y-67537500D03*
D17*
X95250000Y-75337500D03*
D18*
X95250000Y-73012500D03*
X95250000Y-69862500D03*
D16*
X176212500Y-86587500D03*
D17*
X176212500Y-94387500D03*
D18*
X176212500Y-92062500D03*
X176212500Y-88912500D03*
D16*
X126206250Y-124687500D03*
D17*
X126206250Y-132487500D03*
D18*
X126206250Y-130162500D03*
X126206250Y-127012500D03*
D16*
X183356250Y-124687500D03*
D17*
X183356250Y-132487500D03*
D18*
X183356250Y-130162500D03*
X183356250Y-127012500D03*
D16*
X226218750Y-124700000D03*
D17*
X226218750Y-132500000D03*
D18*
X226218750Y-130175000D03*
X226218750Y-127025000D03*
D16*
X290512500Y-105650000D03*
D17*
X290512500Y-113450000D03*
D18*
X290512500Y-111125000D03*
X290512500Y-107975000D03*
D16*
X88106250Y-105637500D03*
D17*
X88106250Y-113437500D03*
D18*
X88106250Y-111112500D03*
X88106250Y-107962500D03*
D16*
X290512500Y-67537500D03*
D17*
X290512500Y-75337500D03*
D18*
X290512500Y-73012500D03*
X290512500Y-69862500D03*
D16*
X157162500Y-86600000D03*
D17*
X157162500Y-94400000D03*
D18*
X157162500Y-92075000D03*
X157162500Y-88925000D03*
D16*
X138112500Y-86587500D03*
D17*
X138112500Y-94387500D03*
D18*
X138112500Y-92062500D03*
X138112500Y-88912500D03*
D16*
X309562500Y-86587500D03*
D17*
X309562500Y-94387500D03*
D18*
X309562500Y-92062500D03*
X309562500Y-88912500D03*
D16*
X119062500Y-67537500D03*
D17*
X119062500Y-75337500D03*
D18*
X119062500Y-73012500D03*
X119062500Y-69862500D03*
D16*
X176212500Y-67550000D03*
D17*
X176212500Y-75350000D03*
D18*
X176212500Y-73025000D03*
X176212500Y-69875000D03*
D16*
X295275000Y-124687500D03*
D17*
X295275000Y-132487500D03*
D18*
X295275000Y-130162500D03*
X295275000Y-127012500D03*
D16*
X290512500Y-86587500D03*
D17*
X290512500Y-94387500D03*
D18*
X290512500Y-92062500D03*
X290512500Y-88912500D03*
D16*
X233362500Y-86587500D03*
D17*
X233362500Y-94387500D03*
D18*
X233362500Y-92062500D03*
X233362500Y-88912500D03*
D16*
X257175000Y-124687500D03*
D17*
X257175000Y-132487500D03*
D18*
X257175000Y-130162500D03*
X257175000Y-127012500D03*
D16*
X233362500Y-105637500D03*
D17*
X233362500Y-113437500D03*
D18*
X233362500Y-111112500D03*
X233362500Y-107962500D03*
D16*
X233362500Y-67537500D03*
D17*
X233362500Y-75337500D03*
D18*
X233362500Y-73012500D03*
X233362500Y-69862500D03*
D16*
X214312500Y-105637500D03*
D17*
X214312500Y-113437500D03*
D18*
X214312500Y-111112500D03*
X214312500Y-107962500D03*
D16*
X214312500Y-67550000D03*
D17*
X214312500Y-75350000D03*
D18*
X214312500Y-73025000D03*
X214312500Y-69875000D03*
D16*
X271462500Y-86587500D03*
D17*
X271462500Y-94387500D03*
D18*
X271462500Y-92062500D03*
X271462500Y-88912500D03*
D16*
X214312500Y-86587500D03*
D17*
X214312500Y-94387500D03*
D18*
X214312500Y-92062500D03*
X214312500Y-88912500D03*
D16*
X195262500Y-67537500D03*
D17*
X195262500Y-75337500D03*
D18*
X195262500Y-73012500D03*
X195262500Y-69862500D03*
D16*
X157162500Y-67537500D03*
D17*
X157162500Y-75337500D03*
D18*
X157162500Y-73012500D03*
X157162500Y-69862500D03*
D16*
X100012500Y-48475000D03*
D17*
X100012500Y-56275000D03*
D18*
X100012500Y-53950000D03*
X100012500Y-50800000D03*
D16*
X276225000Y-124687500D03*
D17*
X276225000Y-132487500D03*
D18*
X276225000Y-130162500D03*
X276225000Y-127012500D03*
D16*
X252412500Y-86587500D03*
D17*
X252412500Y-94387500D03*
D18*
X252412500Y-92062500D03*
X252412500Y-88912500D03*
D16*
X271462500Y-105637500D03*
D17*
X271462500Y-113437500D03*
D18*
X271462500Y-111112500D03*
X271462500Y-107962500D03*
D16*
X195262500Y-86600000D03*
D17*
X195262500Y-94400000D03*
D18*
X195262500Y-92075000D03*
X195262500Y-88925000D03*
D16*
X92868750Y-86587500D03*
D17*
X92868750Y-94387500D03*
D18*
X92868750Y-92062500D03*
X92868750Y-88912500D03*
D16*
X252412500Y-105637500D03*
D17*
X252412500Y-113437500D03*
D18*
X252412500Y-111112500D03*
X252412500Y-107962500D03*
D16*
X104775000Y-124687500D03*
D17*
X104775000Y-132487500D03*
D18*
X104775000Y-130162500D03*
X104775000Y-127012500D03*
D16*
X157162500Y-105637500D03*
D17*
X157162500Y-113437500D03*
D18*
X157162500Y-111112500D03*
X157162500Y-107962500D03*
D16*
X314325000Y-67537500D03*
D17*
X314325000Y-75337500D03*
D18*
X314325000Y-73012500D03*
X314325000Y-69862500D03*
D16*
X319087500Y-48487500D03*
D17*
X319087500Y-56287500D03*
D18*
X319087500Y-53962500D03*
X319087500Y-50812500D03*
D16*
X195262500Y-105637500D03*
D17*
X195262500Y-113437500D03*
D18*
X195262500Y-111112500D03*
X195262500Y-107962500D03*
D16*
X150018750Y-124687500D03*
D17*
X150018750Y-132487500D03*
D18*
X150018750Y-130162500D03*
X150018750Y-127012500D03*
D16*
X119062500Y-86587500D03*
D17*
X119062500Y-94387500D03*
D18*
X119062500Y-92062500D03*
X119062500Y-88912500D03*
D16*
X309562500Y-105637500D03*
D17*
X309562500Y-113437500D03*
D18*
X309562500Y-111112500D03*
X309562500Y-107962500D03*
D16*
X271462500Y-48487500D03*
D17*
X271462500Y-56287500D03*
D18*
X271462500Y-53962500D03*
X271462500Y-50812500D03*
D16*
X252412500Y-48487500D03*
D17*
X252412500Y-56287500D03*
D18*
X252412500Y-53962500D03*
X252412500Y-50812500D03*
D16*
X233362500Y-48487500D03*
D17*
X233362500Y-56287500D03*
D18*
X233362500Y-53962500D03*
X233362500Y-50812500D03*
D16*
X214312500Y-48487500D03*
D17*
X214312500Y-56287500D03*
D18*
X214312500Y-53962500D03*
X214312500Y-50812500D03*
D16*
X195262500Y-48487500D03*
D17*
X195262500Y-56287500D03*
D18*
X195262500Y-53962500D03*
X195262500Y-50812500D03*
D16*
X176212500Y-48487500D03*
D17*
X176212500Y-56287500D03*
D18*
X176212500Y-53962500D03*
X176212500Y-50812500D03*
D16*
X157162500Y-48487500D03*
D17*
X157162500Y-56287500D03*
D18*
X157162500Y-53962500D03*
X157162500Y-50812500D03*
D16*
X138112500Y-48487500D03*
D17*
X138112500Y-56287500D03*
D18*
X138112500Y-53962500D03*
X138112500Y-50812500D03*
D16*
X119062500Y-48487500D03*
D17*
X119062500Y-56287500D03*
D18*
X119062500Y-53962500D03*
X119062500Y-50812500D03*
D16*
X290512500Y-48487500D03*
D17*
X290512500Y-56287500D03*
D18*
X290512500Y-53962500D03*
X290512500Y-50812500D03*
M02*
