M48
; DRILL file {KiCad 5.1.10-88a1d61d58~88~ubuntu18.04.1} date Wed May 12 09:01:10 2021
; FORMAT={-:-/ absolute / inch / decimal}
; #@! TF.CreationDate,2021-05-12T09:01:10-05:00
; #@! TF.GenerationSoftware,Kicad,Pcbnew,5.1.10-88a1d61d58~88~ubuntu18.04.1
; #@! TF.FileFunction,NonPlated,1,2,NPTH
FMAT,2
INCH
T1C0.0689
T2C0.1181
T3C0.1200
T4C0.1570
%
G90
G05
T1
X2.1046Y-3.5512
X2.2921Y-2.8012
X2.3858Y-2.0512
X2.5046Y-3.5512
X2.5733Y-1.3012
X2.6921Y-2.8012
X2.7608Y-4.3012
X2.7858Y-2.0512
X2.9733Y-1.3012
X3.1608Y-4.3012
X3.3233Y-1.3012
X3.3233Y-2.0512
X3.3233Y-2.8012
X3.3233Y-3.5512
X3.6046Y-4.3012
X3.7233Y-1.3012
X3.7233Y-2.0512
X3.7233Y-2.8012
X3.7233Y-3.5512
X4.0046Y-4.3012
X4.0733Y-1.3012
X4.0733Y-2.0512
X4.0733Y-2.8012
X4.0733Y-3.5512
X4.4733Y-1.3012
X4.4733Y-2.0512
X4.4733Y-2.8012
X4.4733Y-3.5512
X4.5421Y-4.3012
X4.8233Y-1.3012
X4.8233Y-2.0512
X4.8233Y-2.8012
X4.8233Y-3.5512
X4.9421Y-4.3012
X5.2233Y-1.3012
X5.2233Y-2.0512
X5.2233Y-2.8012
X5.2233Y-3.5512
X5.5733Y-1.3012
X5.5733Y-2.0512
X5.5733Y-2.8012
X5.5733Y-3.5512
X5.8546Y-4.3012
X5.9733Y-1.3012
X5.9733Y-2.0512
X5.9733Y-2.8012
X5.9733Y-3.5512
X6.2546Y-4.3012
X6.3233Y-1.3012
X6.3233Y-2.0512
X6.3233Y-2.8012
X6.3233Y-3.5512
X6.7233Y-1.3012
X6.7233Y-2.0512
X6.7233Y-2.8012
X6.7233Y-3.5512
X7.0733Y-1.3012
X7.0733Y-2.0512
X7.0733Y-2.8012
X7.0733Y-3.5512
X7.4733Y-1.3012
X7.4733Y-2.0512
X7.4733Y-2.8012
X7.4733Y-3.5512
X7.5421Y-4.3012
X7.8233Y-1.3012
X7.8233Y-2.0512
X7.8233Y-2.8012
X7.8233Y-3.5512
X7.9421Y-4.3012
X8.2233Y-1.3012
X8.2233Y-2.0512
X8.2233Y-2.8012
X8.2233Y-3.5512
X8.5733Y-1.3012
X8.5733Y-2.0512
X8.5733Y-2.8012
X8.5733Y-3.5512
X8.7608Y-4.3012
X8.9733Y-1.3012
X8.9733Y-2.0512
X8.9733Y-2.8012
X8.9733Y-3.5512
X9.1608Y-4.3012
X9.3233Y-1.3012
X9.3233Y-2.0512
X9.3233Y-2.8012
X9.3233Y-3.5512
X9.5108Y-4.3012
X9.7233Y-1.3012
X9.7233Y-2.0512
X9.7233Y-2.8012
X9.7233Y-3.5512
X9.9108Y-4.3012
X10.0733Y-1.3012
X10.0733Y-2.0512
X10.0733Y-2.8012
X10.0733Y-3.5512
X10.2608Y-4.3012
X10.4733Y-1.3012
X10.4733Y-2.0512
X10.4733Y-2.8012
X10.4733Y-3.5512
X10.6608Y-4.3012
X10.8233Y-2.8012
X10.8233Y-3.5512
X11.0108Y-2.0512
X11.1973Y-1.3017
X11.2233Y-2.8012
X11.2233Y-3.5512
X11.4108Y-2.0512
X11.5973Y-1.3017
T2
X2.1546Y-3.4512
X2.3421Y-2.7012
X2.4046Y-3.3512
X2.4358Y-1.9512
X2.5921Y-2.6012
X2.6233Y-1.2012
X2.6858Y-1.8512
X2.8108Y-4.2012
X2.8733Y-1.1012
X3.0608Y-4.1012
X3.3733Y-1.2012
X3.3733Y-1.9512
X3.3733Y-2.7012
X3.3733Y-3.4512
X3.6233Y-1.1012
X3.6233Y-1.8512
X3.6233Y-2.6012
X3.6233Y-3.3512
X3.6546Y-4.2012
X3.9046Y-4.1012
X4.1233Y-1.2012
X4.1233Y-1.9512
X4.1233Y-2.7012
X4.1233Y-3.4512
X4.3733Y-1.1012
X4.3733Y-1.8512
X4.3733Y-2.6012
X4.3733Y-3.3512
X4.5921Y-4.2012
X4.8421Y-4.1012
X4.8733Y-1.2012
X4.8733Y-1.9512
X4.8733Y-2.7012
X4.8733Y-3.4512
X5.1233Y-1.1012
X5.1233Y-1.8512
X5.1233Y-2.6012
X5.1233Y-3.3512
X5.6233Y-1.2012
X5.6233Y-1.9512
X5.6233Y-2.7012
X5.6233Y-3.4512
X5.8733Y-1.1012
X5.8733Y-1.8512
X5.8733Y-2.6012
X5.8733Y-3.3512
X5.9046Y-4.2012
X6.1546Y-4.1012
X6.3733Y-1.2012
X6.3733Y-1.9512
X6.3733Y-2.7012
X6.3733Y-3.4512
X6.6233Y-1.1012
X6.6233Y-1.8512
X6.6233Y-2.6012
X6.6233Y-3.3512
X7.1233Y-1.2012
X7.1233Y-1.9512
X7.1233Y-2.7012
X7.1233Y-3.4512
X7.3733Y-1.1012
X7.3733Y-1.8512
X7.3733Y-2.6012
X7.3733Y-3.3512
X7.5921Y-4.2012
X7.8421Y-4.1012
X7.8733Y-1.2012
X7.8733Y-1.9512
X7.8733Y-2.7012
X7.8733Y-3.4512
X8.1233Y-1.1012
X8.1233Y-1.8512
X8.1233Y-2.6012
X8.1233Y-3.3512
X8.6233Y-1.2012
X8.6233Y-1.9512
X8.6233Y-2.7012
X8.6233Y-3.4512
X8.8108Y-4.2012
X8.8733Y-1.1012
X8.8733Y-1.8512
X8.8733Y-2.6012
X8.8733Y-3.3512
X9.0608Y-4.1012
X9.3733Y-1.2012
X9.3733Y-1.9512
X9.3733Y-2.7012
X9.3733Y-3.4512
X9.5608Y-4.2012
X9.6233Y-1.1012
X9.6233Y-1.8512
X9.6233Y-2.6012
X9.6233Y-3.3512
X9.8108Y-4.1012
X10.1233Y-1.2012
X10.1233Y-1.9512
X10.1233Y-2.7012
X10.1233Y-3.4512
X10.3108Y-4.2012
X10.3733Y-1.1012
X10.3733Y-1.8512
X10.3733Y-2.6012
X10.3733Y-3.3512
X10.5608Y-4.1012
X10.8733Y-2.7012
X10.8733Y-3.4512
X11.0608Y-1.9512
X11.1233Y-2.6012
X11.1233Y-3.3512
X11.2473Y-1.2017
X11.3108Y-1.8512
X11.4973Y-1.1017
T3
X1.8346Y-3.2762
X2.7746Y-3.2762
X5.5846Y-4.5762
X6.5246Y-4.5762
X7.2721Y-4.5762
X8.2121Y-4.5762
X10.9273Y-1.0267
X11.8673Y-1.0267
T4
X1.8346Y-3.8762
X2.3046Y-3.5512
X2.4921Y-2.8012
X2.5858Y-2.0512
X2.7733Y-1.3012
X2.7746Y-3.8762
X2.9608Y-4.3012
X3.5233Y-1.3012
X3.5233Y-2.0512
X3.5233Y-2.8012
X3.5233Y-3.5512
X3.8046Y-4.3012
X4.2733Y-1.3012
X4.2733Y-2.0512
X4.2733Y-2.8012
X4.2733Y-3.5512
X4.7421Y-4.3012
X5.0233Y-1.3012
X5.0233Y-2.0512
X5.0233Y-2.8012
X5.0233Y-3.5512
X5.5846Y-3.9762
X5.7733Y-1.3012
X5.7733Y-2.0512
X5.7733Y-2.8012
X5.7733Y-3.5512
X6.0546Y-4.3012
X6.5233Y-1.3012
X6.5233Y-2.0512
X6.5233Y-2.8012
X6.5233Y-3.5512
X6.5246Y-3.9762
X7.2721Y-3.9762
X7.2733Y-1.3012
X7.2733Y-2.0512
X7.2733Y-2.8012
X7.2733Y-3.5512
X7.7421Y-4.3012
X8.0233Y-1.3012
X8.0233Y-2.0512
X8.0233Y-2.8012
X8.0233Y-3.5512
X8.2121Y-3.9762
X8.7733Y-1.3012
X8.7733Y-2.0512
X8.7733Y-2.8012
X8.7733Y-3.5512
X8.9608Y-4.3012
X9.5233Y-1.3012
X9.5233Y-2.0512
X9.5233Y-2.8012
X9.5233Y-3.5512
X9.7108Y-4.3012
X10.2733Y-1.3012
X10.2733Y-2.0512
X10.2733Y-2.8012
X10.2733Y-3.5512
X10.4608Y-4.3012
X10.9273Y-1.6267
X11.0233Y-2.8012
X11.0233Y-3.5512
X11.2108Y-2.0512
X11.3973Y-1.3017
X11.8673Y-1.6267
T0
M30
